<svg width="198" height="135" viewBox="0 0 198 135" fill="none" xmlns="http://www.w3.org/2000/svg">
<path d="M98.2374 116.435C97.9175 114.903 98.4071 110.806 101.29 106.77" stroke="#9F7D6A"/>
<path d="M97.9012 116.109C98.2214 114.245 97.7314 109.262 94.8462 104.353" stroke="#9F7D6A"/>
<path d="M97.8197 128.167C95.2046 124.547 95.6273 115.535 107.374 106.443C107.374 120.624 103.653 126.558 97.8197 128.167ZM97.8197 128.167C98.4252 125.999 100.691 119.731 104.911 112.004" stroke="#9F7D6A" stroke-linecap="round"/>
<path d="M114.482 119.812C106.039 123.418 100.654 127.154 98.7315 128.534C106.73 129.402 112.061 126.892 120.971 117.456C114.458 117.425 109.54 118.326 105.865 120.041" stroke="#9F7D6A" stroke-linecap="round"/>
<path d="M92.3992 111.227C95.6401 119.412 96.6717 125.563 97.0069 127.789C90.8476 122.809 88.9696 117.49 89.6091 105.204C94.1371 109.697 96.7074 113.368 98.0128 117.025" stroke="#9F7D6A" stroke-linecap="round"/>
<path d="M82.4632 119.643C90.4825 123.279 96.2995 127.169 97.9851 128.592C88.6109 129.275 84.4601 126.369 77.0415 116.887C83.3592 117.245 87.666 118.275 91.0067 120.121" stroke="#9F7D6A" stroke-linecap="round"/>
<circle cx="94.123" cy="103.291" r="1.5" fill="#9F7D6A"/>
<circle cx="101.941" cy="106.291" r="1.5" fill="#9F7D6A"/>
<path d="M158.779 90.2862C161.565 89.9409 168.598 87.4623 174.788 82.243" stroke="#9F7D6A"/>
<path d="M165.056 88.3473C166.057 88.9704 169.097 89.5518 172.742 88.1892" stroke="#9F7D6A"/>
<path d="M169.209 86.129C170.104 85.6443 171.799 83.5847 172.222 80.1921" stroke="#9F7D6A"/>
<path d="M164.933 88.4685C165.782 87.8421 167.419 85.5881 167.899 82.3325" stroke="#9F7D6A"/>
<path d="M171.279 41.62C170.851 40.6875 169.018 38.6975 165.981 37.6336" stroke="#9F7D6A"/>
<path d="M170.674 37.2217C170.065 35.7518 167.437 32.4661 163.064 30.377" stroke="#9F7D6A"/>
<path d="M169.313 29.7931C168.718 28.6325 166.572 25.9083 163.464 23.8991" stroke="#9F7D6A"/>
<path d="M168.936 30.0952C169.501 29.2664 170.47 26.7863 170.458 23.8705" stroke="#9F7D6A"/>
<path d="M149.383 102.466L149.021 102.121L148.409 102.763L149.275 102.954L149.383 102.466ZM189.185 84.3327L189.584 84.6334C189.735 84.4329 189.714 84.1516 189.535 83.9758C189.356 83.8001 189.074 83.7843 188.877 83.939L189.185 84.3327ZM185.379 87.2095L185.673 87.6139L185.379 87.2095ZM149.383 102.466L149.275 102.954C156.917 104.641 175.552 103.276 189.584 84.6334L189.185 84.3327L188.785 84.032C175.018 102.322 156.8 103.591 149.491 101.978L149.383 102.466ZM189.185 84.3327L188.877 83.939C187.584 84.9511 186.324 85.9046 185.085 86.805L185.379 87.2095L185.673 87.6139C186.922 86.7057 188.192 85.745 189.493 84.7264L189.185 84.3327ZM185.379 87.2095L185.085 86.805C174.246 94.682 164.976 98.5294 149.276 101.978L149.383 102.466L149.49 102.954C165.293 99.4836 174.698 95.5894 185.673 87.6139L185.379 87.2095ZM149.383 102.466L149.745 102.811C155.376 96.8995 162.012 94.5661 168.42 92.9893C170.024 92.5947 171.608 92.2486 173.162 91.9041C174.713 91.5603 176.233 91.2183 177.694 90.8342C180.614 90.0668 183.333 89.1234 185.65 87.6297L185.379 87.2095L185.108 86.7892C182.923 88.1979 180.323 89.1091 177.44 89.867C176 90.2456 174.497 90.5839 172.945 90.9278C171.396 91.2712 169.799 91.6203 168.181 92.0182C161.707 93.6114 154.848 96.0039 149.021 102.121L149.383 102.466Z" fill="#9F7D6A"/>
<path d="M160.93 86.7252L160.501 86.9827L160.963 87.7512L161.374 86.9545L160.93 86.7252ZM160.443 40.7692L160.888 40.5411C160.773 40.3182 160.512 40.2143 160.276 40.2979C160.039 40.3816 159.902 40.6271 159.953 40.8722L160.443 40.7692ZM161.328 45.3191L161.82 45.2318L161.328 45.3191ZM160.93 86.7252L161.374 86.9545C163.263 83.2955 165.424 76.1613 165.977 67.7266C166.531 59.2854 165.478 49.4928 160.888 40.5411L160.443 40.7692L159.998 40.9974C164.483 49.743 165.525 59.3419 164.979 67.6611C164.433 75.9869 162.299 82.9819 160.486 86.4959L160.93 86.7252ZM160.443 40.7692L159.953 40.8722C160.28 42.4228 160.574 43.9296 160.836 45.4064L161.328 45.3191L161.82 45.2318C161.556 43.7434 161.26 42.2261 160.932 40.6662L160.443 40.7692ZM161.328 45.3191L160.836 45.4064C163.127 58.3296 162.52 73.5197 160.436 86.6468L160.93 86.7252L161.424 86.8036C163.519 73.6053 164.137 58.2974 161.82 45.2318L161.328 45.3191ZM160.93 86.7252L161.359 86.4677C157.846 80.6214 158.25 73.093 159.423 65.5735C159.715 63.7009 160.053 61.838 160.386 60.0083C160.719 58.181 161.047 56.3854 161.317 54.658C161.856 51.2114 162.173 47.9874 161.824 45.2556L161.328 45.3191L160.832 45.3826C161.162 47.9647 160.866 51.0696 160.329 54.5034C160.061 56.2161 159.735 57.9986 159.402 59.8292C159.069 61.6575 158.729 63.5324 158.434 65.4194C157.262 72.9386 156.786 80.7994 160.501 86.9827L160.93 86.7252Z" fill="#9F7D6A"/>
<path d="M119.285 119.199C149.53 110.328 171.616 82.3728 171.616 49.2588C171.616 38.7015 169.371 28.6686 165.332 19.6113" stroke="#9F7D6A"/>
<path d="M170.99 55.7813C172.533 53.6578 173.142 51.948 173.618 50.1437C172.688 48.0069 172.52 45.9401 172.877 43.8587C173.245 41.7105 174.165 39.5743 175.319 37.3658C177.649 32.9046 180.907 28.1597 183.031 22.0246L183.65 20.2363L183.963 21.9644C185.401 29.8862 184.198 35.5824 182.732 40.3105C181.526 44.1986 179.428 46.7688 177.625 48.3652C176.725 49.1616 175.899 49.7143 175.296 50.07C174.994 50.248 174.747 50.3773 174.573 50.4627C174.545 50.4766 174.518 50.4894 174.493 50.5012C174.004 52.3029 173.329 54.1195 171.727 56.3239L170.99 55.7813ZM174.925 49.1918C175.475 48.8677 176.237 48.3584 177.069 47.6213C178.731 46.1503 180.682 43.77 181.81 40.1316C182.964 36.4095 183.947 32.0975 183.543 26.5088C182.86 31.242 181.201 35.6376 178.346 40.323C176.098 44.0122 175.469 46.5535 174.901 48.89C174.872 49.0124 174.841 49.134 174.811 49.2556C174.848 49.2346 174.887 49.2147 174.925 49.1918ZM173.834 43.8884C173.581 45.3695 173.615 46.8465 174.062 48.3707C174.621 46.0918 175.338 43.4988 177.55 39.8678C180.555 34.9377 182.185 30.3666 182.729 25.3425C180.649 30.1692 178.013 34.1906 176.154 37.7494C175.021 39.9183 174.171 41.9214 173.834 43.8884Z" fill="#9F7D6A"/>
<path d="M126.443 119.804C127.842 120.806 129.968 122.05 132.889 123.04C137.134 124.478 140.216 123.936 143.782 122.814C147.333 121.696 151.336 120.021 157.592 119.057C161.551 118.448 164.908 115.594 167.242 112.972C168.416 111.652 169.35 110.371 169.99 109.42C170.31 108.944 170.557 108.549 170.725 108.273C170.809 108.135 170.874 108.026 170.917 107.951C170.939 107.914 170.956 107.885 170.967 107.865C170.972 107.855 170.976 107.847 170.979 107.841C170.981 107.839 170.982 107.837 170.982 107.835L170.984 107.834L170.985 107.833L171.881 106.224L170.294 107.157C165.618 109.908 161.352 109.671 157.121 109.345C152.908 109.02 148.674 108.595 144.367 111.241C135.596 116.63 129.62 118.08 124.815 117.195L124.351 118.018L124.352 118.019C124.353 118.02 124.353 118.021 124.354 118.022C124.356 118.024 124.359 118.027 124.362 118.03C124.368 118.037 124.378 118.048 124.39 118.06C124.413 118.085 124.446 118.121 124.489 118.165C124.577 118.256 124.708 118.384 124.881 118.543C125.227 118.861 125.744 119.303 126.443 119.804ZM133.208 122.092C130.878 121.302 129.082 120.347 127.779 119.502C127.786 119.503 127.792 119.504 127.799 119.504C133.739 120.337 139.842 120.581 145.727 119.212C151.641 117.926 156.789 114.693 162.539 113.256C163.176 113.092 163.81 112.949 164.466 112.821C164.492 112.816 164.516 112.8 164.532 112.777C164.547 112.755 164.554 112.727 164.549 112.7C164.544 112.673 164.529 112.648 164.507 112.632C164.484 112.616 164.456 112.609 164.429 112.614C163.765 112.721 163.122 112.845 162.474 112.989C156.622 114.257 151.34 117.322 145.548 118.375C140.254 119.426 134.829 119.152 129.486 118.324C133.678 117.863 138.633 115.94 144.89 112.095C148.88 109.643 152.785 110.014 157.047 110.343C160.814 110.633 164.817 110.878 169.142 108.887C168.52 109.809 167.621 111.041 166.495 112.306C164.204 114.88 161.044 117.513 157.438 118.068C151.083 119.047 146.959 120.765 143.482 121.859C140.021 122.948 137.174 123.436 133.208 122.092Z" fill="#9F7D6A"/>
<path d="M149.582 73.1177C149.359 73.1777 149.206 73.3825 149.212 73.6131C149.4 81 146.744 84.1941 144.299 88.3258C143.07 90.4026 141.906 92.7039 141.242 95.8499C140.579 98.9917 140.421 102.948 141.158 108.338L142.141 108.377C142.36 107.38 142.305 106.694 142.962 105.427C143.621 104.155 144.999 102.332 148.097 99.3518C153.444 94.2069 153.932 87.6647 153.113 82.4779C152.703 79.8824 151.964 77.6074 151.329 75.983C151.011 75.1702 150.719 74.5181 150.505 74.0678C150.398 73.8427 150.31 73.6679 150.249 73.5484C150.218 73.4888 150.195 73.4428 150.178 73.4114C150.17 73.3957 150.163 73.3835 150.159 73.3752C150.156 73.3711 150.154 73.368 150.153 73.3657C150.153 73.3646 150.152 73.3632 150.152 73.3624L150.151 73.3619C150.041 73.1592 149.805 73.058 149.582 73.1177ZM150.398 76.3469C151.015 77.9247 151.73 80.1281 152.125 82.6334C152.917 87.6477 152.424 93.8008 147.404 98.6311C145.249 100.704 143.879 102.258 142.996 103.488C143.299 95.9445 151.048 91.0414 150.408 83.0334C150.443 82.6336 150.476 82.2164 150.508 81.7825C150.509 81.7584 150.501 81.7338 150.486 81.7151C150.47 81.6965 150.447 81.6844 150.423 81.682C150.399 81.6797 150.375 81.6876 150.356 81.7029C150.337 81.7181 150.324 81.7403 150.321 81.7642C150.268 82.1949 150.213 82.6081 150.156 83.0037C150.391 90.7494 142.828 95.0556 141.681 102.594C141.625 100.012 141.837 97.8805 142.222 96.0563C142.854 93.0577 143.961 90.862 145.16 88.8346C147.329 85.1704 149.837 82.0159 150.18 75.8062C150.251 75.9769 150.324 76.1574 150.398 76.3469Z" fill="#9F7D6A"/>
<path d="M191.981 46.9461C191.758 46.8868 191.523 46.9878 191.413 47.1904C187.885 53.6828 183.988 55.1224 179.806 57.4797C177.704 58.6646 175.545 60.0764 173.398 62.4697C171.254 64.8598 169.14 68.2077 167.085 73.2447L167.917 73.77C168.067 73.6063 168.197 73.4479 168.322 73.2938C168.387 73.2557 168.445 73.2047 168.487 73.1405C168.543 73.0562 168.6 72.9736 168.655 72.8908C169 72.4819 169.392 72.0789 170.102 71.6246C171.309 70.852 173.413 69.9623 177.586 68.9284C184.789 67.1439 188.48 61.7207 190.363 56.8185C191.304 54.3656 191.801 52.0255 192.063 50.3011C192.193 49.4384 192.266 48.7272 192.306 48.2303C192.325 47.9819 192.337 47.7865 192.343 47.6525C192.347 47.5857 192.349 47.5338 192.351 47.4983C192.351 47.4808 192.352 47.4668 192.352 47.4573C192.352 47.4528 192.352 47.4489 192.352 47.4463C192.352 47.4452 192.352 47.4437 192.352 47.4428L192.352 47.442C192.357 47.2112 192.204 47.0057 191.981 46.9461ZM191.074 50.1508C190.82 51.8258 190.338 54.0918 189.429 56.4595C187.61 61.1987 184.108 66.2824 177.346 67.9579C173.64 68.8761 171.467 69.6998 170.082 70.472C174.447 63.4648 184.225 62.9278 188.627 55.4135C188.918 55.0507 189.216 54.6693 189.523 54.2689C189.558 54.2233 189.573 54.1658 189.566 54.1086C189.559 54.0516 189.53 53.9989 189.485 53.9636C189.44 53.9283 189.381 53.9118 189.324 53.9185C189.267 53.9254 189.215 53.9549 189.179 53.9997C188.866 54.3921 188.562 54.7648 188.266 55.119C184.209 61.8508 175.448 62.7158 170.488 68.3864C171.703 66.1923 172.925 64.4959 174.143 63.1378C176.19 60.8566 178.245 59.5075 180.297 58.3508C184.007 56.2602 187.756 54.7813 191.156 49.5739C191.132 49.7569 191.104 49.9497 191.074 50.1508Z" fill="#9F7D6A"/>
<circle cx="168.264" cy="81.6796" r="1.5" transform="rotate(4.93392 168.264 81.6796)" fill="#9F7D6A"/>
<circle cx="172.322" cy="79.019" r="1.5" transform="rotate(4.93392 172.322 79.019)" fill="#9F7D6A"/>
<circle cx="165.993" cy="37.5134" r="1.5" transform="rotate(-2.00852 165.993 37.5134)" fill="#9F7D6A"/>
<circle cx="162.309" cy="30.1115" r="1.5" transform="rotate(-2.00852 162.309 30.1115)" fill="#9F7D6A"/>
<circle cx="163.039" cy="23.4385" r="1.5" fill="#9F7D6A"/>
<circle cx="164.906" cy="18.6777" r="1.5" fill="#9F7D6A"/>
<circle cx="170.461" cy="23.4385" r="1.5" fill="#9F7D6A"/>
<circle cx="173.748" cy="87.5556" r="1.5" transform="rotate(4.93392 173.748 87.5556)" fill="#9F7D6A"/>
<circle cx="175.77" cy="81.5717" r="1.5" transform="rotate(4.93392 175.77 81.5717)" fill="#9F7D6A"/>
<path d="M39.4596 90.2862C36.6732 89.9409 29.6399 87.4623 23.4506 82.243" stroke="#9F7D6A"/>
<path d="M33.1844 88.3473C32.1831 88.9704 29.143 89.5518 25.4985 88.1892" stroke="#9F7D6A"/>
<path d="M29.0292 86.129C28.1339 85.6443 26.439 83.5847 26.0158 80.1921" stroke="#9F7D6A"/>
<path d="M33.3056 88.4685C32.4559 87.8421 30.8193 85.5881 30.3394 82.3325" stroke="#9F7D6A"/>
<path d="M26.9591 41.62C27.3871 40.6875 29.2204 38.6975 32.2575 37.6336" stroke="#9F7D6A"/>
<path d="M27.5646 37.2217C28.1737 35.7518 30.8013 32.4661 35.1744 30.377" stroke="#9F7D6A"/>
<path d="M28.9248 29.7931C29.52 28.6325 31.6667 25.9083 34.7741 23.8991" stroke="#9F7D6A"/>
<path d="M29.3021 30.0952C28.7372 29.2664 27.7685 26.7863 27.7807 23.8705" stroke="#9F7D6A"/>
<path d="M48.8555 102.466L49.2175 102.121L49.8291 102.763L48.9632 102.954L48.8555 102.466ZM9.05355 84.3327L8.65408 84.6334C8.50315 84.4329 8.52424 84.1516 8.70336 83.9758C8.88249 83.8001 9.16414 83.7843 9.36175 83.939L9.05355 84.3327ZM12.8597 87.2095L12.5657 87.6139L12.8597 87.2095ZM48.8555 102.466L48.9632 102.954C41.3215 104.641 22.6864 103.276 8.65408 84.6334L9.05355 84.3327L9.45303 84.032C23.2202 102.322 41.438 103.591 48.7477 101.978L48.8555 102.466ZM9.05355 84.3327L9.36175 83.939C10.6547 84.9511 11.9147 85.9046 13.1536 86.805L12.8597 87.2095L12.5657 87.6139C11.316 86.7057 10.0465 85.745 8.74536 84.7264L9.05355 84.3327ZM12.8597 87.2095L13.1536 86.805C23.9922 94.682 33.2619 98.5294 48.9627 101.978L48.8555 102.466L48.7482 102.954C32.945 99.4836 23.5399 95.5894 12.5657 87.6139L12.8597 87.2095ZM48.8555 102.466L48.4935 102.811C42.8624 96.8995 36.2258 94.5661 29.8179 92.9893C28.2146 92.5947 26.6301 92.2486 25.0765 91.9041C23.5256 91.5603 22.0055 91.2183 20.5443 90.8342C17.6247 90.0668 14.9057 89.1234 12.5888 87.6297L12.8597 87.2095L13.1306 86.7892C15.3158 88.1979 17.9151 89.1091 20.7985 89.867C22.2387 90.2456 23.7414 90.5839 25.2929 90.9278C26.8418 91.2712 28.4396 91.6203 30.0568 92.0182C36.5312 93.6114 43.3904 96.0039 49.2175 102.121L48.8555 102.466Z" fill="#9F7D6A"/>
<path d="M37.3082 86.7252L37.7368 86.9827L37.2751 87.7512L36.8639 86.9545L37.3082 86.7252ZM37.7957 40.7692L37.3508 40.5411C37.4651 40.3182 37.7266 40.2143 37.9627 40.2979C38.1988 40.3816 38.3365 40.6271 38.2849 40.8722L37.7957 40.7692ZM36.9103 45.3191L36.418 45.2318L36.9103 45.3191ZM37.3082 86.7252L36.8639 86.9545C34.9755 83.2955 32.8148 76.1613 32.2613 67.7266C31.7074 59.2854 32.7599 49.4928 37.3508 40.5411L37.7957 40.7692L38.2406 40.9974C33.7555 49.743 32.7133 59.3419 33.2592 67.6611C33.8055 75.9869 35.939 82.9819 37.7525 86.4959L37.3082 86.7252ZM37.7957 40.7692L38.2849 40.8722C37.9585 42.4228 37.6645 43.9296 37.4026 45.4064L36.9103 45.3191L36.418 45.2318C36.6819 43.7434 36.978 42.2261 37.3064 40.6662L37.7957 40.7692ZM36.9103 45.3191L37.4026 45.4064C35.111 58.3296 35.7178 73.5197 37.802 86.6468L37.3082 86.7252L36.8144 86.8036C34.7189 73.6053 34.1011 58.2974 36.418 45.2318L36.9103 45.3191ZM37.3082 86.7252L36.8796 86.4677C40.3923 80.6214 39.9887 73.093 38.8157 65.5735C38.5236 63.7009 38.1857 61.838 37.8525 60.0083C37.5197 58.181 37.1915 56.3854 36.9212 54.658C36.382 51.2114 36.0648 47.9874 36.4144 45.2556L36.9103 45.3191L37.4063 45.3826C37.0759 47.9647 37.372 51.0696 37.9092 54.5034C38.1772 56.2161 38.503 57.9986 38.8363 59.8292C39.1692 61.6575 39.5094 63.5324 39.8038 65.4194C40.9767 72.9386 41.452 80.7994 37.7368 86.9827L37.3082 86.7252Z" fill="#9F7D6A"/>
<path d="M78.9531 119.199C48.7084 110.328 26.6227 82.3728 26.6227 49.2588C26.6227 38.7015 28.8675 28.6686 32.9059 19.6113" stroke="#9F7D6A"/>
<path d="M27.2487 55.7813C25.7055 53.6579 25.0949 51.9487 24.6189 50.1445C25.5493 48.0074 25.717 45.9403 25.3606 43.8585C24.9927 41.7105 24.0733 39.5742 22.9197 37.3658C20.5892 32.9046 17.3303 28.1595 15.2059 22.0244L14.587 20.2362L14.2738 21.9643C12.8364 29.8858 14.04 35.5813 15.506 40.3094C16.7117 44.1977 18.8092 46.7685 20.6124 48.365C21.5119 49.1614 22.3378 49.7141 22.9413 50.0699C23.2433 50.2479 23.4913 50.3773 23.6652 50.4627C23.6934 50.4765 23.72 50.4884 23.7443 50.5C24.2338 52.3022 24.9084 54.1189 26.511 56.3239L27.2487 55.7813ZM23.3119 49.1916C22.7621 48.8675 22.0005 48.3583 21.168 47.6212C19.5065 46.1502 17.5563 43.7698 16.428 40.1316C15.2735 36.4082 14.2895 32.0943 14.6942 26.5027C15.3766 31.2381 17.0348 35.6355 19.8911 40.3228C22.1393 44.0121 22.7686 46.5533 23.336 48.8899C23.3657 49.0122 23.3966 49.1339 23.4262 49.2554C23.3896 49.2345 23.3507 49.2145 23.3119 49.1916ZM24.4041 43.8884C24.6577 45.3698 24.6236 46.8472 24.1766 48.3717C23.6175 46.0925 22.8999 43.4994 20.6869 39.8677C17.6828 34.9378 16.0527 30.367 15.5079 25.3433C17.5881 30.1698 20.2241 34.1906 22.0831 37.7492C23.2162 39.9183 24.0673 41.9213 24.4041 43.8884Z" fill="#9F7D6A"/>
<path d="M71.7941 119.804C70.3951 120.806 68.2708 122.05 65.3497 123.04C61.1041 124.479 58.0215 123.936 54.4553 122.814C50.9045 121.696 46.902 120.021 40.647 119.058C36.6878 118.448 33.3298 115.594 30.9958 112.972C29.821 111.652 28.8871 110.371 28.2472 109.42C27.927 108.944 27.6799 108.549 27.5121 108.273C27.4282 108.134 27.3638 108.026 27.3203 107.951C27.2989 107.914 27.2822 107.885 27.2709 107.865C27.2653 107.856 27.261 107.847 27.258 107.841C27.2567 107.839 27.2558 107.837 27.255 107.835L27.2533 107.834L27.2529 107.833L26.3561 106.224L27.943 107.157C32.6193 109.908 36.8851 109.671 41.1161 109.345C45.3293 109.02 49.5646 108.594 53.8714 111.241C62.6421 116.63 68.6185 118.08 73.4229 117.195L73.8877 118.018L73.8833 118.022C73.8814 118.024 73.8785 118.027 73.8754 118.03C73.8689 118.037 73.8592 118.047 73.8476 118.06C73.8245 118.085 73.792 118.121 73.7484 118.166C73.6606 118.256 73.5303 118.385 73.3578 118.544C73.0121 118.862 72.4934 119.303 71.7941 119.804ZM65.0292 122.092C67.3603 121.302 69.1563 120.346 70.459 119.502C70.4521 119.503 70.4452 119.503 70.4384 119.504C64.4982 120.337 58.3953 120.581 52.5107 119.212C46.5962 117.926 41.4484 114.693 35.6988 113.256C35.0616 113.092 34.4273 112.948 33.7716 112.821C33.745 112.816 33.7213 112.8 33.7057 112.777C33.6902 112.755 33.6839 112.726 33.6885 112.7C33.6933 112.673 33.7082 112.648 33.7306 112.632C33.7531 112.616 33.7814 112.609 33.8084 112.614C34.4722 112.721 35.1157 112.845 35.7632 112.989C41.6152 114.257 46.8969 117.322 52.6899 118.375C57.983 119.426 63.4084 119.151 68.7512 118.324C64.5592 117.863 59.6056 115.939 53.3482 112.094C49.358 109.642 45.453 110.014 41.1912 110.342C37.4245 110.632 33.4203 110.878 29.0958 108.887C29.717 109.809 30.6169 111.04 31.7431 112.306C34.0344 114.88 37.1938 117.513 40.7996 118.068C47.1542 119.047 51.2795 120.764 54.756 121.859C58.2169 122.948 61.0633 123.436 65.0292 122.092Z" fill="#9F7D6A"/>
<path d="M48.6564 73.1173C48.879 73.1772 49.0318 73.3821 49.0262 73.6126C48.8383 80.9994 51.4945 84.1937 53.9392 88.3253C55.168 90.402 56.3321 92.7036 56.9961 95.8494C57.6591 98.9912 57.8175 102.948 57.0804 108.337L56.0971 108.377C55.8781 107.38 55.9332 106.694 55.2767 105.427C54.6175 104.154 53.2389 102.332 50.141 99.3513C44.794 94.2065 44.3059 87.6642 45.125 82.4774C45.5349 79.882 46.2739 77.6068 46.9091 75.9826C47.227 75.1698 47.5194 74.5176 47.7334 74.0673C47.8405 73.8422 47.9282 73.6674 47.9894 73.548C48.0199 73.4883 48.0437 73.4423 48.0603 73.4109C48.0686 73.3952 48.0751 73.383 48.0796 73.3747C48.0818 73.3706 48.0838 73.3675 48.0851 73.3652C48.0857 73.3641 48.0861 73.3626 48.0864 73.362L48.0873 73.3614C48.1978 73.1588 48.4335 73.0576 48.6564 73.1173ZM47.8406 76.3464C47.2236 77.9241 46.5088 80.1277 46.1131 82.6329C45.3211 87.6472 45.8141 93.8004 50.834 98.6306C52.9889 100.704 54.3588 102.257 55.242 103.487C54.9388 95.9442 47.1912 91.0416 47.8312 83.0337C47.7958 82.6339 47.7625 82.2168 47.7309 81.7828C47.7292 81.7586 47.7372 81.7343 47.7531 81.7154C47.769 81.6968 47.7914 81.6847 47.8155 81.6824C47.8395 81.6802 47.8641 81.6879 47.8832 81.7032C47.9021 81.7185 47.9149 81.7406 47.9179 81.7645C47.9711 82.1953 48.0262 82.6083 48.0832 83.004C47.8482 90.7492 55.4101 95.0547 56.5575 102.592C56.6131 100.011 56.4017 97.8796 56.0168 96.0558C55.3839 93.0573 54.2775 90.8614 53.0779 88.8341C50.9098 85.17 48.401 82.0153 48.0579 75.8057C47.9874 75.9764 47.9147 76.1569 47.8406 76.3464Z" fill="#9F7D6A"/>
<path d="M6.25849 46.9457C6.48136 46.8864 6.71607 46.9874 6.82636 47.19C10.3546 53.6824 14.2515 55.122 18.4337 57.4793C20.5358 58.6642 22.6942 60.076 24.8413 62.4692C26.9855 64.8594 29.0996 68.2071 31.1544 73.2442L30.3222 73.7696C30.1722 73.6052 30.0419 73.4463 29.9158 73.2916C29.8517 73.2537 29.7952 73.2039 29.7533 73.1405C29.6982 73.0572 29.6417 72.9756 29.5872 72.8939C29.2418 72.4839 28.8488 72.0796 28.1375 71.6241C26.9308 70.8516 24.8261 69.9618 20.6532 68.928C13.4507 67.1433 9.75892 61.7202 7.87668 56.8181C6.93486 54.365 6.43816 52.0251 6.17674 50.3007C6.04593 49.4378 5.97336 48.7268 5.93376 48.2298C5.91396 47.9813 5.90264 47.786 5.89592 47.652C5.89256 47.5851 5.89015 47.5334 5.88885 47.4979C5.8882 47.4802 5.88781 47.4663 5.88752 47.4568C5.88738 47.4523 5.88758 47.4485 5.88752 47.4459C5.88748 47.4446 5.88713 47.4432 5.88708 47.4424L5.88751 47.4415C5.88198 47.2108 6.03558 47.0054 6.25849 46.9457ZM7.16543 50.1504C7.41936 51.8254 7.90117 54.0913 8.81024 56.459C10.6298 61.1982 14.1314 66.2818 20.8933 67.9574C24.6001 68.8758 26.7737 69.6997 28.1583 70.472C23.7932 63.4646 14.0156 62.9278 9.61287 55.4135C9.32249 55.0508 9.02439 54.6692 8.71743 54.2689C8.68255 54.2233 8.66694 54.1658 8.67412 54.1086C8.68145 54.0515 8.71027 53.999 8.75528 53.9636C8.80054 53.9284 8.85915 53.9118 8.91641 53.9185C8.9735 53.9254 9.02572 53.9549 9.06144 53.9997C9.37403 54.392 9.67843 54.7648 9.9739 55.119C14.0314 61.8503 22.7903 62.7159 27.7507 68.3855C26.5352 66.1918 25.3144 64.4953 24.0961 63.1374C22.0496 60.8562 19.9941 59.5071 17.9419 58.3504C14.2329 56.2598 10.4835 54.7809 7.08347 49.5735C7.10772 49.7566 7.13493 49.9492 7.16543 50.1504Z" fill="#9F7D6A"/>
<circle cx="1.5" cy="1.5" r="1.5" transform="matrix(-0.996295 0.0860068 0.0860068 0.996295 31.3398 80.0562)" fill="#9F7D6A"/>
<circle cx="1.5" cy="1.5" r="1.5" transform="matrix(-0.996295 0.0860068 0.0860068 0.996295 27.2812 77.3955)" fill="#9F7D6A"/>
<circle cx="1.5" cy="1.5" r="1.5" transform="matrix(-0.999386 -0.0350481 -0.0350481 0.999386 33.7969 36.0669)" fill="#9F7D6A"/>
<circle cx="1.5" cy="1.5" r="1.5" transform="matrix(-0.999386 -0.0350481 -0.0350481 0.999386 37.4805 28.665)" fill="#9F7D6A"/>
<circle cx="1.5" cy="1.5" r="1.5" transform="matrix(-1 0 0 1 36.6992 21.9385)" fill="#9F7D6A"/>
<circle cx="1.5" cy="1.5" r="1.5" transform="matrix(-1 0 0 1 34.832 17.1777)" fill="#9F7D6A"/>
<circle cx="1.5" cy="1.5" r="1.5" transform="matrix(-1 0 0 1 29.2773 21.9385)" fill="#9F7D6A"/>
<circle cx="1.5" cy="1.5" r="1.5" transform="matrix(-0.996295 0.0860068 0.0860068 0.996295 25.8574 85.9321)" fill="#9F7D6A"/>
<circle cx="1.5" cy="1.5" r="1.5" transform="matrix(-0.996295 0.0860068 0.0860068 0.996295 23.834 79.9482)" fill="#9F7D6A"/>
<path d="M124.83 65.6135C125.092 61.7404 128.665 57.2806 133.894 57.2805C137.789 57.2805 140.049 59.23 140.968 61.9515C143.091 68.2419 137.437 78.6568 123.872 78.6568V79.9204C144.004 79.9204 147.403 56.6816 133.894 56.6816C127.184 56.6817 121.606 60.7129 120.734 65.3764C120.124 68.5381 123.523 69.9608 125.353 68.3009C125.005 67.5105 124.743 66.6411 124.83 65.6135Z" fill="#9F7D6A"/>
<path d="M109.953 37.2515H115.321L105.431 79.9205H100.062L109.953 37.2515Z" fill="#9F7D6A"/>
<path d="M117.017 79.9486C116.679 79.9486 116.348 79.939 116.022 79.9203H117.017V79.9486ZM71.037 11C91.6997 11 97.0594 30.1238 100.868 48.1604H100.868L101.105 49.3852L101.107 49.3849C101.737 52.4552 102.327 55.4674 102.948 58.3273L100.976 66.8351C95.1814 53.2029 93.7859 32.2292 86.3217 20.3397C86.1626 20.0679 85.9422 19.7585 85.7951 19.5779C82.4204 14.5029 77.7959 11.8209 71.037 11.8209C61.023 11.821 52.5647 17.2623 52.5646 26.4085C52.5647 32.9324 57.4295 38.665 65.6099 38.665C72.8735 38.6649 75.8322 35.6884 75.8323 31.0833L75.8319 31.0807C75.6907 30.0583 75.5495 29.0358 75.0563 28.0772C75.1268 27.7574 76.044 27.1178 77.0313 27.1178C78.0185 27.1178 78.8649 28.2051 78.8649 29.8041C78.8649 34.5371 73.5787 39.4859 65.6099 39.4859C57.1474 39.4859 52 33.0603 52 26.4085C52 17.0065 60.7409 11 71.037 11Z" fill="#9F7D6A"/>
<path d="M124.19 78.7261C124.52 78.7261 124.787 78.9934 124.787 79.3231C124.787 79.6529 124.52 79.9202 124.19 79.9202L95.2904 79.9202C94.9607 79.9202 94.6934 79.6529 94.6934 79.3231C94.6934 78.9934 94.9607 78.7261 95.2904 78.7261L124.19 78.7261Z" fill="#9F7D6A"/>
<path d="M120.254 36.0571C120.584 36.0572 120.852 36.3245 120.852 36.6542C120.852 36.9839 120.584 37.2512 120.254 37.2512H105.624C105.295 37.2512 105.027 36.9839 105.027 36.6542C105.027 36.3244 105.295 36.0571 105.624 36.0571H120.254Z" fill="#9F7D6A"/>
<path d="M114.3 17.1245C114.63 17.1245 114.897 17.3918 114.897 17.7216C114.897 18.0513 114.63 18.3186 114.3 18.3186L104.474 18.3186C104.144 18.3186 103.877 18.0513 103.877 17.7216C103.877 17.3918 104.144 17.1245 104.474 17.1245L114.3 17.1245Z" fill="#9F7D6A"/>
<path d="M84.9116 69.3389C85.2413 69.3389 85.5087 69.6062 85.5087 69.9359C85.5087 70.2657 85.2413 70.533 84.9116 70.533H75.0853C74.7556 70.533 74.4883 70.2657 74.4883 69.9359C74.4883 69.6062 74.7556 69.3389 75.0853 69.3389H84.9116Z" fill="#9F7D6A"/>
<path d="M109.522 17.7372C109.843 17.8117 110.043 18.1324 109.969 18.4536L100.079 61.1227C100.004 61.4439 99.6835 61.6439 99.3623 61.5695C99.0411 61.495 98.8411 61.1743 98.9156 60.8531L108.806 18.1841C108.88 17.8629 109.201 17.6628 109.522 17.7372Z" fill="#9F7D6A"/>
<path d="M90.0239 26.3554C90.3451 26.4298 90.5452 26.7506 90.4708 27.0718L80.5808 69.7409C80.5063 70.0621 80.1855 70.2621 79.8643 70.1876C79.5431 70.1132 79.3431 69.7925 79.4175 69.4713L89.3075 26.8023C89.382 26.4811 89.7027 26.281 90.0239 26.3554Z" fill="#9F7D6A"/>
</svg>
