<svg width="170" height="51" viewBox="0 0 170 51" fill="none" xmlns="http://www.w3.org/2000/svg">
<g clip-path="url(#clip0_458_526)">
<path d="M88.1412 40.4535C87.4932 40.4535 86.7612 40.3815 85.9452 40.2375C85.1292 40.1175 84.3372 39.8895 83.5692 39.5535C82.8012 39.2415 82.1652 38.8095 81.6612 38.2575C81.1572 37.7055 80.9052 37.0095 80.9052 36.1695C80.9052 35.4015 81.1332 34.6695 81.5892 33.9735C82.0692 33.2775 82.6572 32.6295 83.3532 32.0295C84.0732 31.4055 84.8052 30.8655 85.5492 30.4095C86.3172 29.9295 86.9892 29.5455 87.5652 29.2575C87.7572 29.1615 87.9732 29.0655 88.2132 28.9695C88.4532 28.8735 88.6812 28.8255 88.8972 28.8255C88.9452 28.8255 88.9932 28.8375 89.0412 28.8615C89.1132 28.8855 89.1492 28.9215 89.1492 28.9695C89.1492 29.0655 89.0772 29.1495 88.9332 29.2215C88.8132 29.2935 88.7172 29.3535 88.6452 29.4015C88.3332 29.5455 88.0092 29.6895 87.6732 29.8335C87.3612 29.9535 87.0492 30.1095 86.7372 30.3015C86.1132 30.6375 85.4652 31.0695 84.7932 31.5975C84.1212 32.1255 83.5572 32.7255 83.1012 33.3975C82.6452 34.0455 82.4172 34.7655 82.4172 35.5575C82.4172 36.4455 82.6932 37.1295 83.2452 37.6095C83.8212 38.1135 84.5172 38.4615 85.3332 38.6535C86.1492 38.8695 86.9052 38.9775 87.6012 38.9775C88.5132 38.9775 89.4372 38.8815 90.3732 38.6895C91.3092 38.4975 92.2212 38.2695 93.1092 38.0055C93.7332 37.8135 94.4532 37.5135 95.2692 37.1055C96.0852 36.7215 96.9252 36.2655 97.7892 35.7375C98.6532 35.2095 99.4572 34.6215 100.201 33.9735C100.945 33.3255 101.545 32.6415 102.001 31.9215C102.457 31.2015 102.685 30.4695 102.685 29.7255C102.685 28.9335 102.433 28.2615 101.929 27.7095C101.449 27.1575 100.861 26.6895 100.165 26.3055C99.4692 25.9215 98.8092 25.6215 98.1852 25.4055C97.8012 25.2375 97.3932 25.0935 96.9612 24.9735C96.5292 24.8535 96.1092 24.7215 95.7012 24.5775C95.2932 24.4575 94.7772 24.3015 94.1532 24.1095C93.5532 23.9175 93.0132 23.6535 92.5332 23.3175C92.0772 22.9815 91.8132 22.5495 91.7412 22.0215C91.7172 21.9495 91.7052 21.8415 91.7052 21.6975C91.7052 20.7615 91.9692 19.9215 92.4972 19.1775C93.0492 18.4095 93.7572 17.7495 94.6212 17.1975C95.5092 16.6215 96.4572 16.1535 97.4652 15.7935C98.4972 15.4095 99.5052 15.1335 100.489 14.9655C101.497 14.7735 102.373 14.6775 103.117 14.6775C103.933 14.6775 104.809 14.7975 105.745 15.0375C106.681 15.2535 107.413 15.7095 107.941 16.4055C108.109 16.1415 108.265 15.8775 108.409 15.6135C108.553 15.3255 108.649 15.0375 108.697 14.7495C108.721 14.6295 108.757 14.5095 108.805 14.3895C108.853 14.2455 108.949 14.1735 109.093 14.1735C109.213 14.1735 109.285 14.2455 109.309 14.3895C109.333 14.5095 109.345 14.6055 109.345 14.6775C109.345 14.7735 109.285 15.0015 109.165 15.3615C109.045 15.7215 108.913 16.0815 108.769 16.4415C108.625 16.7775 108.529 17.0055 108.481 17.1255C108.601 17.2935 108.733 17.5335 108.877 17.8455C109.045 18.1575 109.129 18.4215 109.129 18.6375C109.129 18.7335 109.105 18.8895 109.057 19.1055C109.009 19.3215 108.925 19.4535 108.805 19.5015C108.805 19.5015 108.721 19.3575 108.553 19.0695C108.409 18.7815 108.313 18.6135 108.265 18.5655C108.049 19.0215 107.833 19.5615 107.617 20.1855C107.401 20.8095 107.125 21.3255 106.789 21.7335C106.693 21.8295 106.585 21.8895 106.465 21.9135C106.369 21.9375 106.261 21.9495 106.141 21.9495C106.045 21.9495 105.877 21.9375 105.637 21.9135C105.397 21.8655 105.169 21.8055 104.953 21.7335C104.761 21.6375 104.665 21.5295 104.665 21.4095C104.665 21.2895 104.773 21.0615 104.989 20.7255C105.229 20.3655 105.505 19.9695 105.817 19.5375C106.153 19.1055 106.465 18.6975 106.753 18.3135C107.041 17.9295 107.233 17.6415 107.329 17.4495C106.873 16.7295 106.225 16.2375 105.385 15.9735C104.545 15.7095 103.717 15.5775 102.901 15.5775C101.845 15.5775 100.753 15.7455 99.6252 16.0815C99.0972 16.2255 98.4972 16.4415 97.8252 16.7295C97.1532 17.0175 96.4932 17.3775 95.8452 17.8095C95.2212 18.2175 94.6932 18.6975 94.2612 19.2495C93.8532 19.8015 93.6492 20.4015 93.6492 21.0495C93.6492 21.5775 93.8172 22.0455 94.1532 22.4535C94.5132 22.8375 94.9572 23.1615 95.4852 23.4255C96.0372 23.6895 96.5892 23.9175 97.1412 24.1095C97.6932 24.2775 98.1612 24.4215 98.5452 24.5415C99.1452 24.7335 99.8292 24.9855 100.597 25.2975C101.365 25.6095 102.097 25.9935 102.793 26.4495C103.513 26.9055 104.101 27.4335 104.557 28.0335C105.013 28.6335 105.241 29.3295 105.241 30.1215C105.241 30.9135 105.001 31.6935 104.521 32.4615C104.041 33.2055 103.417 33.9135 102.649 34.5855C101.881 35.2575 101.053 35.8815 100.165 36.4575C99.2772 37.0095 98.4012 37.4895 97.5372 37.8975C96.6972 38.3295 95.9652 38.6775 95.3412 38.9415C94.2132 39.3975 93.0372 39.7575 91.8132 40.0215C90.6132 40.3095 89.3892 40.4535 88.1412 40.4535ZM111.603 36.8535C110.427 36.8535 109.839 36.2535 109.839 35.0535C109.839 34.3335 110.007 33.5295 110.343 32.6415C110.703 31.7295 111.111 30.8295 111.567 29.9415C112.047 29.0535 112.443 28.2975 112.755 27.6735C112.419 27.6975 112.023 27.7575 111.567 27.8535C111.135 27.9255 110.763 27.9615 110.451 27.9615C110.355 27.9615 110.259 27.9495 110.163 27.9255C110.091 27.8775 110.055 27.8055 110.055 27.7095C110.055 27.5655 110.127 27.4695 110.271 27.4215C110.439 27.3015 110.607 27.1935 110.775 27.0975C110.967 27.0015 111.147 26.9055 111.315 26.8095C111.795 26.4975 112.251 26.1615 112.683 25.8015C113.139 25.4175 113.571 25.0215 113.979 24.6135C114.075 24.4215 114.159 24.2535 114.231 24.1095C114.327 23.9415 114.495 23.8215 114.735 23.7495C114.927 23.7015 115.203 23.5935 115.563 23.4255C115.923 23.2575 116.187 23.1735 116.355 23.1735C116.475 23.1735 116.535 23.2215 116.535 23.3175C116.535 23.3895 116.451 23.5815 116.283 23.8935C116.139 24.2055 115.959 24.5655 115.743 24.9735C115.527 25.3575 115.323 25.7175 115.131 26.0535C114.963 26.3655 114.855 26.5575 114.807 26.6295C114.951 26.6295 115.203 26.6295 115.563 26.6295C115.947 26.6295 116.355 26.6415 116.787 26.6655C117.219 26.6895 117.591 26.7375 117.903 26.8095C118.215 26.8815 118.371 26.9775 118.371 27.0975C118.371 27.1935 118.299 27.2655 118.155 27.3135C118.035 27.3375 117.903 27.3495 117.759 27.3495C117.183 27.3495 116.607 27.3615 116.031 27.3855C115.479 27.3855 114.927 27.4215 114.375 27.4935C114.135 27.9255 113.847 28.4655 113.511 29.1135C113.199 29.7375 112.875 30.4095 112.539 31.1295C112.227 31.8255 111.963 32.5095 111.747 33.1815C111.531 33.8295 111.423 34.3935 111.423 34.8735C111.423 35.1855 111.483 35.4375 111.603 35.6295C111.747 35.8215 111.987 35.9175 112.323 35.9175C112.659 35.9175 113.031 35.8095 113.439 35.5935C113.847 35.3775 114.231 35.1255 114.591 34.8375C114.975 34.5255 115.299 34.2615 115.563 34.0455C115.851 33.8295 116.031 33.7215 116.103 33.7215C116.127 33.7215 116.139 33.7335 116.139 33.7575C116.139 33.8535 116.103 33.9615 116.031 34.0815C115.983 34.1775 115.935 34.2495 115.887 34.2975C115.575 34.6815 115.179 35.0775 114.699 35.4855C114.219 35.8695 113.703 36.1935 113.151 36.4575C112.623 36.7215 112.107 36.8535 111.603 36.8535ZM111.963 26.8455C112.179 26.7975 112.383 26.7735 112.575 26.7735C112.791 26.7495 112.995 26.7255 113.187 26.7015C113.259 26.5335 113.319 26.3655 113.367 26.1975C113.415 26.0295 113.463 25.8615 113.511 25.6935C113.247 25.8615 112.983 26.0535 112.719 26.2695C112.479 26.4615 112.227 26.6535 111.963 26.8455ZM119.766 37.1415C119.238 37.1415 118.818 37.0455 118.506 36.8535C118.218 36.6375 118.074 36.2295 118.074 35.6295C118.074 34.8855 118.266 34.0575 118.65 33.1455C119.058 32.2335 119.538 31.3575 120.09 30.5175C120.642 29.6535 121.158 28.9455 121.638 28.3935V28.3215C121.638 27.7455 121.866 27.2775 122.322 26.9175C122.802 26.5335 123.354 26.2575 123.978 26.0895C124.602 25.8975 125.142 25.8015 125.598 25.8015C126.222 25.8015 126.738 25.9455 127.146 26.2335C127.578 26.5215 127.794 27.0135 127.794 27.7095C127.794 28.3095 127.638 29.0055 127.326 29.7975C127.014 30.5655 126.606 31.3575 126.102 32.1735C125.622 32.9655 125.106 33.6975 124.554 34.3695C124.002 35.0175 123.498 35.5335 123.042 35.9175C123.402 36.3495 123.87 36.5655 124.446 36.5655C124.494 36.5655 124.554 36.5775 124.626 36.6015C124.698 36.6255 124.734 36.6615 124.734 36.7095C124.734 36.8055 124.686 36.8655 124.59 36.8895C124.518 36.9135 124.446 36.9255 124.374 36.9255C124.062 36.9255 123.762 36.8535 123.474 36.7095C123.21 36.5415 122.97 36.3375 122.754 36.0975C121.866 36.7935 120.87 37.1415 119.766 37.1415ZM122.718 35.4495C123.246 34.9455 123.762 34.2495 124.266 33.3615C124.794 32.4495 125.238 31.5135 125.598 30.5535C125.958 29.5695 126.138 28.7175 126.138 27.9975C126.138 27.7095 126.078 27.4095 125.958 27.0975C125.838 26.7855 125.586 26.6295 125.202 26.6295C124.914 26.6295 124.638 26.7375 124.374 26.9535C124.11 27.1695 123.918 27.4095 123.798 27.6735C123.846 27.7455 123.894 27.8415 123.942 27.9615C124.014 28.0815 124.05 28.1895 124.05 28.2855C124.05 28.3815 124.026 28.4415 123.978 28.4655C123.666 28.6335 123.366 28.8255 123.078 29.0415C122.814 29.2335 122.55 29.4615 122.286 29.7255C122.19 30.0855 122.118 30.4575 122.07 30.8415C122.022 31.2255 121.998 31.6095 121.998 31.9935C121.998 32.5455 122.046 33.1335 122.142 33.7575C122.262 34.3815 122.454 34.9455 122.718 35.4495ZM121.206 36.2415C121.446 36.2415 121.662 36.1935 121.854 36.0975C122.07 35.9775 122.262 35.8455 122.43 35.7015C122.046 35.1015 121.77 34.4055 121.602 33.6135C121.434 32.8215 121.35 32.0775 121.35 31.3815C121.038 31.8855 120.75 32.4135 120.486 32.9655C120.222 33.4935 120.09 34.0695 120.09 34.6935C120.09 35.0535 120.162 35.4015 120.306 35.7375C120.474 36.0735 120.774 36.2415 121.206 36.2415ZM130.022 37.3935C129.854 37.3935 129.782 37.3335 129.806 37.2135C130.43 36.1095 130.982 34.9815 131.462 33.8295C131.942 32.6535 132.41 31.4775 132.866 30.3015L133.262 29.2575C133.262 29.1855 133.202 29.1615 133.082 29.1855C132.962 29.2095 132.902 29.1735 132.902 29.0775C132.902 29.0295 132.998 28.8495 133.19 28.5375C133.382 28.2015 133.586 27.8655 133.802 27.5295C134.018 27.1695 134.15 26.9535 134.198 26.8815C134.294 26.7375 134.51 26.5935 134.846 26.4495C135.182 26.3055 135.434 26.2335 135.602 26.2335C135.866 26.2335 135.998 26.3415 135.998 26.5575C135.998 26.6295 135.986 26.7015 135.962 26.7735C135.938 26.8455 135.914 26.9055 135.89 26.9535C135.53 27.8175 135.134 28.6815 134.702 29.5455C134.294 30.3855 133.958 31.2615 133.694 32.1735C134.39 31.3335 135.146 30.5175 135.962 29.7255C136.802 28.9095 137.654 28.1655 138.518 27.4935C138.758 27.3015 139.022 27.1215 139.31 26.9535C139.622 26.7855 139.934 26.7015 140.246 26.7015C140.63 26.7015 140.87 26.8455 140.966 27.1335C141.062 27.3975 141.11 27.6735 141.11 27.9615C141.11 28.3455 140.99 28.7535 140.75 29.1855C140.51 29.6175 140.162 29.8335 139.706 29.8335C139.514 29.8335 139.418 29.7615 139.418 29.6175C139.418 29.4975 139.43 29.4015 139.454 29.3295C139.478 29.2335 139.49 29.1375 139.49 29.0415C139.49 28.9215 139.442 28.7775 139.346 28.6095C139.25 28.4415 139.142 28.3575 139.022 28.3575C138.71 28.3575 138.29 28.5495 137.762 28.9335C137.234 29.3175 136.682 29.7855 136.106 30.3375C135.554 30.8895 135.05 31.4295 134.594 31.9575C134.162 32.4615 133.85 32.8335 133.658 33.0735C133.394 33.4575 133.166 33.8535 132.974 34.2615C132.782 34.6455 132.626 35.0415 132.506 35.4495C132.458 35.5935 132.41 35.7495 132.362 35.9175C132.314 36.0615 132.266 36.1935 132.218 36.3135C132.17 36.4335 131.99 36.5895 131.678 36.7815C131.366 36.9495 131.042 37.0935 130.706 37.2135C130.394 37.3335 130.166 37.3935 130.022 37.3935ZM137.658 48.8775C137.01 48.8775 136.338 48.7575 135.642 48.5175C134.946 48.3015 134.358 47.9415 133.878 47.4375C133.398 46.9575 133.158 46.3335 133.158 45.5655C133.158 44.8695 133.362 44.2335 133.77 43.6575C134.154 43.0815 134.658 42.5535 135.282 42.0735C135.882 41.6175 136.518 41.2095 137.19 40.8495C137.862 40.4895 138.462 40.2015 138.99 39.9855C140.334 39.4335 141.798 39.0135 143.382 38.7255C144.99 38.4375 146.514 38.2455 147.954 38.1495C148.386 37.0455 148.818 35.9415 149.25 34.8375C149.706 33.7335 150.054 32.5935 150.294 31.4175L150.438 30.7335C150.126 31.1415 149.694 31.6935 149.142 32.3895C148.614 33.0855 148.026 33.7935 147.378 34.5135C146.754 35.2335 146.118 35.8455 145.47 36.3495C144.822 36.8295 144.246 37.0695 143.742 37.0695C143.334 37.0695 143.058 36.9015 142.914 36.5655C142.77 36.2055 142.698 35.8575 142.698 35.5215C142.698 34.6095 142.902 33.7455 143.31 32.9295C143.718 32.0895 144.126 31.2855 144.534 30.5175L144.426 30.5535C144.282 30.5535 144.21 30.4815 144.21 30.3375C144.21 30.3135 144.234 30.2535 144.282 30.1575C144.594 29.5815 144.858 29.0895 145.074 28.6815C145.29 28.2735 145.578 27.9615 145.938 27.7455C146.298 27.5295 146.85 27.4215 147.594 27.4215C147.738 27.4215 147.81 27.4815 147.81 27.6015C147.81 27.7935 147.678 28.1175 147.414 28.5735C147.15 29.0295 146.862 29.4975 146.55 29.9775C146.238 30.4335 146.022 30.7575 145.902 30.9495C145.71 31.2375 145.482 31.6575 145.218 32.2095C144.954 32.7615 144.726 33.3135 144.534 33.8655C144.342 34.3935 144.246 34.8255 144.246 35.1615C144.246 35.2815 144.27 35.4015 144.318 35.5215C144.366 35.6175 144.462 35.6655 144.606 35.6655C144.918 35.6655 145.314 35.4855 145.794 35.1255C146.274 34.7415 146.778 34.2615 147.306 33.6855C147.834 33.1095 148.35 32.5095 148.854 31.8855C149.358 31.2375 149.79 30.6495 150.15 30.1215C150.534 29.5695 150.81 29.1375 150.978 28.8255C151.17 28.4895 151.302 28.1415 151.374 27.7815C151.446 27.3975 151.674 27.0855 152.058 26.8455C152.226 26.7495 152.442 26.6535 152.706 26.5575C152.97 26.4375 153.186 26.3775 153.354 26.3775C153.594 26.3775 153.714 26.4975 153.714 26.7375C153.714 27.0735 153.594 27.4215 153.354 27.7815C153.138 28.1175 152.946 28.4295 152.778 28.7175C152.562 29.1255 152.358 29.6175 152.166 30.1935C151.998 30.7455 151.842 31.2615 151.698 31.7415C151.314 32.7975 150.942 33.8655 150.582 34.9455C150.246 36.0015 149.838 37.0575 149.358 38.1135H150.078C150.27 38.1135 150.45 38.1255 150.618 38.1495C150.81 38.1735 150.906 38.2455 150.906 38.3655C150.906 38.4855 150.774 38.5575 150.51 38.5815C150.27 38.6055 150.006 38.6055 149.718 38.5815C149.454 38.5815 149.274 38.5815 149.178 38.5815C148.698 39.7335 148.086 40.9095 147.342 42.1095C146.622 43.3335 145.77 44.4495 144.786 45.4575C143.826 46.4895 142.758 47.3175 141.582 47.9415C140.382 48.5655 139.074 48.8775 137.658 48.8775ZM137.514 48.1215C138.69 48.1215 139.806 47.7975 140.862 47.1495C141.894 46.5255 142.842 45.7215 143.706 44.7375C144.594 43.7535 145.374 42.7095 146.046 41.6055C146.742 40.5255 147.306 39.5295 147.738 38.6175C146.394 38.7135 144.954 38.9175 143.418 39.2295C141.882 39.5655 140.514 40.0455 139.314 40.6695C138.714 40.9575 138.054 41.3535 137.334 41.8575C136.59 42.3615 135.954 42.9375 135.426 43.5855C134.874 44.2575 134.598 44.9775 134.598 45.7455C134.598 46.5615 134.91 47.1615 135.534 47.5455C136.134 47.9295 136.794 48.1215 137.514 48.1215Z" fill="#5E121F"/>
<path d="M25.2643 18.4151C25.3857 18.3935 25.5021 18.3374 25.588 18.2459C25.6738 18.1545 25.722 18.0367 25.722 17.9151C25.722 17.7935 25.6738 17.6757 25.588 17.5843C25.5021 17.4928 25.3857 17.4368 25.2643 17.4151C23.8204 17.1968 22.3589 18.0795 21.6672 19.3497C21.652 19.3772 21.6372 19.405 21.6227 19.4329C20.8609 20.7106 21.2373 22.8008 22.5772 23.6019C22.5772 23.6019 22.5772 23.6019 22.5772 23.6019C28.2956 25.522 33.52 23.3453 38.0236 20.569C38.9962 19.8273 40.0727 19.0241 40.5451 17.6338C40.6167 17.4069 40.6629 17.2853 40.7243 17.0422C40.7512 16.9362 40.7734 16.8568 40.7959 16.7112C40.8051 16.633 40.8154 16.6344 40.8141 16.4661C40.8093 16.3933 40.8113 16.3193 40.752 16.1683C40.7133 16.0801 40.6414 15.9454 40.4692 15.8344C40.299 15.7197 40.0497 15.7022 39.9048 15.745C39.7362 15.7945 39.7199 15.8216 39.6801 15.8425C39.6446 15.8651 39.6166 15.8867 39.5927 15.9066C39.4119 16.0735 39.4023 16.125 39.3572 16.1836C39.3191 16.2406 39.2769 16.3141 39.255 16.3516C39.2038 16.4395 39.1426 16.5611 39.1042 16.6393C39.0123 16.8292 38.9378 17.0026 38.8616 17.1987C38.606 17.8606 38.3991 18.5253 38.2072 19.1978C37.8253 20.5535 37.5042 21.9245 37.324 23.3456C37.2399 24.0577 37.1792 24.779 37.2624 25.5588C37.3098 25.9306 37.3808 26.3666 37.6526 26.7954C37.9008 27.2565 38.6247 27.548 39.1007 27.436L39.029 27.4406C39.1262 27.4387 39.2234 27.4367 39.3206 27.4347C42.3791 26.4824 43.7966 24.2635 45.2674 22.0935C45.8962 21.0667 46.3534 19.9515 46.7752 18.8348C46.9876 18.2726 47.1721 17.703 47.3353 17.1223C47.3857 16.9432 47.4379 16.7629 47.4904 16.5809C47.5339 16.4005 47.5661 16.3362 47.5699 16.1006C47.5686 16.0469 47.5631 15.9926 47.5477 15.9344C47.5375 15.8832 47.4716 15.7324 47.351 15.659C47.0917 15.5053 46.8862 15.6235 46.8097 15.6515C46.4455 15.8462 46.3012 16.0175 46.0887 16.2302C45.7115 16.629 45.3999 17.0564 45.145 17.5275C44.6026 18.5638 44.1593 19.6662 44.1268 20.9362C44.1197 21.5583 44.2688 22.2881 44.7753 22.8125C45.2789 23.3366 45.9641 23.5123 46.5761 23.5555C49.0107 23.6005 51.0742 22.6031 53.1355 21.7425C53.3793 21.6349 53.63 21.5225 53.8876 21.4052C54.7986 20.9892 55.5815 20.694 56.5587 20.3722C56.687 20.3318 56.7771 20.2289 56.8167 20.1009C56.8561 19.9726 56.8405 19.8271 56.7745 19.6989C56.7085 19.5706 56.5991 19.4733 56.4719 19.4309C56.3446 19.3886 56.2086 19.4021 56.1011 19.4831C55.2829 20.083 54.5736 20.5203 53.6722 20.9319C53.4174 21.0479 53.1688 21.1572 52.9266 21.2601C50.9073 22.0891 48.7086 22.9107 46.6559 22.7332C44.3338 22.6063 45.1388 19.766 46.0981 18.0401C46.3275 17.6154 46.5455 17.1873 46.7949 16.7924C46.9214 16.5929 47.0736 16.3924 47.1617 16.3148C47.1818 16.289 47.1371 16.3536 46.9721 16.2651C46.8282 16.1353 46.8961 16.1249 46.8909 16.15C46.9046 16.2266 46.904 16.3058 46.8824 16.4473C46.8553 16.6275 46.8222 16.8054 46.7818 16.9804C46.6506 17.5474 46.479 18.1013 46.2736 18.6453C45.8638 19.7298 45.2528 20.7217 44.6114 21.672C43.2589 23.657 41.2016 25.8149 39.3135 26.3312C39.2234 26.3292 39.1262 26.3272 39.029 26.3252L38.9573 26.3299C38.7323 26.3356 38.7305 26.3183 38.6298 26.1758C38.5398 26.0283 38.4735 25.7257 38.4552 25.4425C38.4133 24.8398 38.4865 24.1769 38.5913 23.526C38.8091 22.2166 39.1685 20.9024 39.5845 19.6173C39.7926 18.9804 40.0171 18.348 40.2525 17.7383C40.3223 17.5589 40.3829 17.3993 40.4473 17.2366C40.4733 17.1692 40.5148 17.0701 40.5395 17.0116C40.5498 16.9857 40.5707 16.9417 40.5786 16.9236C40.5766 16.9122 40.6254 16.8693 40.5124 16.9755C40.4961 16.989 40.4754 17.0049 40.4469 17.023C40.4139 17.0398 40.4041 17.062 40.2514 17.1069C40.1199 17.1463 39.8825 17.1303 39.7226 17.0221C39.5608 16.9176 39.4977 16.7944 39.4662 16.723C39.4188 16.6 39.4277 16.5646 39.4261 16.5453C39.4289 16.5219 39.4329 16.5527 39.4335 16.5798C39.4335 16.6537 39.4302 16.7243 39.4235 16.8105C39.4026 17.0172 39.3941 17.1404 39.3635 17.3601C39.271 18.3372 38.5573 19.3573 37.6306 20.0416C33.5344 22.7602 27.4584 24.1876 23.3416 22.5578C22.5638 21.9649 22.6201 21.0146 23.0683 20.1893C23.0775 20.1719 23.0869 20.1546 23.0964 20.1373C23.5486 19.3338 24.2928 18.6313 25.2643 18.4151Z" fill="#5E121F"/>
<path d="M55.6263 19.7607C55.5308 19.7665 55.4404 19.8083 55.375 19.8789C55.3097 19.9494 55.2748 20.0426 55.278 20.1382C55.2811 20.2338 55.3222 20.3244 55.3921 20.3904C55.462 20.4565 55.555 20.4922 55.6507 20.4916C58.1849 20.4344 60.8352 20.2062 63.0728 18.5389C63.5208 18.1718 63.9362 17.7305 64.1895 17.1209C64.4496 16.5392 64.442 15.6288 63.864 15.0672C62.6267 14.0117 61.2822 14.5064 60.2692 14.9236C58.2261 15.8931 56.7517 17.5004 55.4407 19.185L55.4064 19.2346C55.1843 19.5889 54.9844 19.9532 54.8065 20.3289C53.9284 22.2763 53.1165 25.2831 55.5222 27.0301C58.019 28.2768 60.277 26.9955 62.1907 26.0603C66.0305 23.9283 69.2462 21.0218 72.4296 18.0719C72.441 18.0612 72.4524 18.0506 72.4639 18.04L71.9759 17.9351C72.0372 18.0874 72.1087 18.2535 72.1846 18.4C72.2165 18.462 72.2525 18.5323 72.2865 18.5881C72.3514 18.6952 72.4364 18.806 72.5081 18.9082C78.5531 25.643 88.1954 25.8187 96.4874 25.6076C119.117 23.295 140.655 6.97274 163.292 16.1948C165.625 17.1341 167.799 18.2666 169.931 19.6218C169.942 19.629 169.956 19.6314 169.969 19.6285C169.982 19.6256 169.994 19.6176 170.001 19.6063C170.008 19.5949 170.011 19.5812 170.008 19.568C170.005 19.5548 169.997 19.5433 169.986 19.536C167.856 18.1667 165.681 17.0191 163.344 16.0644C140.677 6.68466 118.832 22.9722 96.465 25.1106C88.2486 25.3177 78.6257 24.9107 73.0248 18.548C72.9602 18.455 72.9005 18.3448 72.8431 18.25C72.813 18.2006 72.7742 18.1428 72.7428 18.0903C72.6683 17.9665 72.591 17.83 72.5365 17.7024L72.3634 17.2963L72.0485 17.5974C72.0373 17.6082 72.0261 17.6188 72.0148 17.6294C68.8591 20.5589 65.5165 23.3229 61.7549 25.2119C59.9266 26.09 57.6343 26.9178 56.1604 26.0226C54.758 25.0807 55.1427 22.6183 55.9827 20.8855C56.1383 20.5567 56.3136 20.2359 56.5083 19.9232L56.4741 19.9728C57.7019 18.3724 59.1025 16.8702 60.7864 16.0411C61.6077 15.6307 62.6369 15.4882 63.0439 15.8881C63.4588 16.2047 63.1026 17.151 62.39 17.722C60.6252 19.1642 58.0696 19.5938 55.6263 19.7607Z" fill="#5E121F"/>
<path d="M10.2964 17.9746C10.4085 18.1732 10.5207 18.3718 10.6328 18.5704C11.6683 17.9779 12.5885 17.217 13.4685 16.4549C16.9526 13.3313 20.0727 9.84416 22.6762 5.93034C23.2213 5.08075 23.7381 4.20388 24.1385 3.24889C24.34 2.75297 24.5092 2.27554 24.5762 1.69118C24.6468 1.1528 24.5331 0.331148 23.8746 -0.0707437C22.4615 -0.9946 20.8253 -0.195203 19.8142 0.585479C18.7204 1.42577 17.8895 2.38232 17.0764 3.42758C15.5041 5.48305 14.2186 7.73276 13.0893 10.0425C10.9958 14.7095 8.73082 19.4881 9.40788 25.1246C9.53529 25.6635 9.77154 26.3095 10.2472 26.828C10.7117 27.3617 11.4878 27.6705 12.1105 27.6882C13.4783 27.7146 14.3941 27.2247 15.4083 26.6682C17.2364 25.5852 18.7699 24.1862 20.2357 22.7094C21.0805 21.8512 21.7785 21.0675 22.6147 20.101C22.6326 20.08 22.643 20.0532 22.6427 20.0253C22.6424 19.9974 22.6315 19.9709 22.6122 19.9514C22.5929 19.9319 22.5665 19.9208 22.5386 19.9202C22.5107 19.9196 22.4838 19.9299 22.4626 19.9475C21.4894 20.7707 20.6752 21.4213 19.74 22.1531C18.1208 23.4051 16.4784 24.6105 14.7633 25.472C13.841 25.9245 12.9818 26.2356 12.2157 26.1794C11.5128 26.1224 11.1399 25.6337 10.9297 24.7655C10.3396 20.2137 12.3533 15.1187 14.3021 10.6141C15.3444 8.33979 16.5401 6.1131 17.9883 4.11099C19.3617 2.27534 21.4872 -0.275185 23.3702 0.731005C23.8648 0.956942 23.6654 2.07856 23.3175 2.91717C22.97 3.79411 22.4874 4.6519 21.9703 5.48197C19.4917 9.32896 16.3947 12.8344 12.9983 15.9208C12.1451 16.6723 11.2393 17.4255 10.2964 17.9746Z" fill="#5E121F"/>
<mask id="path-5-inside-1_458_526" fill="white">
<path d="M28.2371 23.4423C26.6139 26.6248 23.5001 28.3518 21.6708 27.4188C19.8415 26.4857 19.6478 23.1474 21.271 19.9649C22.8942 16.7824 25.9731 15.2926 27.8024 16.2257C29.6317 17.1587 29.8603 20.2598 28.2371 23.4423Z"/>
</mask>
<path d="M28.69 23.6733C28.3881 23.5193 28.0861 23.3653 27.7841 23.2113C27.5063 23.6492 27.1954 24.0606 26.8567 24.4394C25.56 25.9704 23.2202 27.1557 22.1539 26.4716C20.9231 25.7184 21.2558 22.6585 22.3023 20.6677C22.3253 20.6207 22.3488 20.5737 22.3727 20.5267C23.345 18.4637 25.7757 16.5604 27.3282 17.1554C28.4849 17.549 28.761 19.8922 28.2595 21.7328C28.139 22.2299 27.9788 22.7244 27.7849 23.2117C28.0864 23.3654 28.3878 23.5192 28.6893 23.6729C28.991 23.1882 29.2592 22.6786 29.4848 22.1435C30.2349 20.2147 31.0539 17.1698 28.2767 15.2959C24.3536 13.7915 21.5686 16.8245 20.1694 19.403C20.1395 19.4614 20.1102 19.5199 20.0815 19.5785C19.436 20.904 19.0087 22.3556 18.978 23.9082C18.9688 25.3825 19.2954 27.3976 21.1878 28.3659C24.543 29.4635 26.5865 27.0719 27.8916 25.2156C28.2057 24.724 28.4724 24.2067 28.69 23.6733ZM27.7841 23.2113L28.69 23.6733L27.7849 23.2117L27.7841 23.2113Z" fill="#5E121F" mask="url(#path-5-inside-1_458_526)"/>
</g>
<defs>
<clipPath id="clip0_458_526">
<rect width="170" height="51" fill="white"/>
</clipPath>
</defs>
</svg>
