<svg width="84" height="100" viewBox="0 0 84 100" fill="none" xmlns="http://www.w3.org/2000/svg">
<g clip-path="url(#clip0_214_179)">
<path d="M45.18 55.76C44.18 55.76 43.5 55.28 43.14 54.32C42.82 53.36 42.66 52.4 42.66 51.44C42.66 48 44.5 43.06 48.18 36.62C50.54 32.58 54.18 27.14 59.1 20.3C53.78 20.78 46.9 24.98 38.46 32.9C31.74 39.26 26.96 44.72 24.12 49.28C23.16 50.76 22.68 51.82 22.68 52.46C22.68 52.74 22.76 52.92 22.92 53C23.12 53.08 23.22 53.12 23.22 53.12C23.22 53.2 22.84 53.5 22.08 54.02C21.52 54.34 20.82 54.5 19.98 54.5C18.3 54.5 17.58 54.12 17.82 53.36C18.38 51.6 20.24 48.36 23.4 43.64C27.52 37.52 30.2 33.34 31.44 31.1C34.16 26.22 35.52 22.36 35.52 19.52C35.52 17.52 35.02 16.14 34.02 15.38C33.06 14.62 31.7 14.24 29.94 14.24C25.18 14.24 20.12 16.42 14.76 20.78C12.56 22.58 10.52 24.58 8.64 26.78C6.76 28.94 5.24 31.18 4.08 33.5C2.92 35.82 2.34 38.1 2.34 40.34C2.34 44.18 4.12 46.14 7.68 46.22C12.64 46.34 16.38 44.68 18.9 41.24C19.86 39.92 20.34 38.68 20.34 37.52C20.34 36.84 20.12 36.38 19.68 36.14C19.64 36.1 19.62 36.04 19.62 35.96C19.62 35.8 19.74 35.72 19.98 35.72C21.02 35.72 21.54 36.4 21.54 37.76C21.54 38.6 21.2 39.66 20.52 40.94C19.4 42.86 17.74 44.38 15.54 45.5C13.34 46.62 11.06 47.18 8.7 47.18C6.1 47.18 4.02 46.4 2.46 44.84C0.9 43.28 0.12 41.18 0.12 38.54C0.12 32.3 4.4 25.74 12.96 18.86C14.4 17.7 16.16 16.66 18.24 15.74C20.32 14.82 22.46 14.1 24.66 13.58C26.9 13.06 28.96 12.8 30.84 12.8C33.2 12.8 35.06 13.26 36.42 14.18C37.82 15.06 38.52 16.6 38.52 18.8C38.52 21.64 37.36 25.4 35.04 30.08C34.52 31.12 33.86 32.32 33.06 33.68C32.26 35.04 31.32 36.54 30.24 38.18C31.48 36.62 33.5 34.64 36.3 32.24C41.34 28 46 24.52 50.28 21.8C54.56 19.04 58.46 17.02 61.98 15.74C62.34 15.58 62.74 15.5 63.18 15.5C64.7 15.5 65.66 16.36 66.06 18.08C66.26 18.76 65.3 20.18 63.18 22.34C58.18 27.46 53.86 33.18 50.22 39.5C46.9 45.34 45.24 49.58 45.24 52.22C45.24 53.34 45.62 53.9 46.38 53.9C46.86 53.9 48.06 53.48 49.98 52.64C51.66 51.88 52.76 51.44 53.28 51.32C53.48 51.4 53.58 51.5 53.58 51.62C53.58 52.22 52.52 53.06 50.4 54.14C48.32 55.22 46.58 55.76 45.18 55.76Z" fill="#9F7D6A"/>
<path d="M64.7 81.54C62.46 81.54 60.16 81.2 57.8 80.52C55.44 79.88 53.2 78.92 51.08 77.64C49 76.36 47.2 74.84 45.68 73.08C42.48 76.28 39.44 77.88 36.56 77.88C35.08 77.88 33.98 77.44 33.26 76.56C32.54 75.72 32.18 74.62 32.18 73.26C32.18 70.74 33.14 67.78 35.06 64.38C36.86 61.18 38.3 59.5 39.38 59.34C40.18 59.34 41 60.16 41.84 61.8L45.62 69.12C47.74 66.28 49.96 63.22 52.28 59.94C49 58.46 47.36 56.32 47.36 53.52C47.36 52.32 47.64 51.22 48.2 50.22C48.8 49.18 49.56 48.34 50.48 47.7C51.4 47.06 52.34 46.74 53.3 46.74C54.62 46.74 55.58 47.36 56.18 48.6C56.26 48.72 56.26 48.84 56.18 48.96C56.14 49.08 56.08 49.12 56 49.08C55.72 48.76 55.32 48.48 54.8 48.24C54.28 48 53.8 47.88 53.36 47.88C52.52 47.88 51.74 48.22 51.02 48.9C50.34 49.54 49.8 50.3 49.4 51.18C49.04 52.06 48.9 52.84 48.98 53.52C48.98 55.56 50.42 57.34 53.3 58.86C53.98 57.86 54.72 56.78 55.52 55.62C56.32 54.42 57.18 53.14 58.1 51.78C66.06 40.1 72.68 34.26 77.96 34.26C81.68 34.26 83.54 36 83.54 39.48C83.54 42.64 82 46.36 78.92 50.64C77.4 52.76 75.48 54.66 73.16 56.34C70.84 58.02 68.38 59.36 65.78 60.36C63.22 61.32 60.74 61.8 58.34 61.8C57.78 61.8 57.22 61.78 56.66 61.74C56.14 61.66 55.66 61.54 55.22 61.38C54.18 62.74 52.98 64.26 51.62 65.94C50.26 67.62 48.76 69.48 47.12 71.52C47.84 72.52 48.86 73.52 50.18 74.52C51.54 75.52 53.06 76.4 54.74 77.16C56.42 77.96 58.08 78.6 59.72 79.08C61.36 79.56 62.84 79.8 64.16 79.8C65.68 79.8 67.08 79.62 68.36 79.26C69.64 78.94 70.68 78.4 71.48 77.64C72.28 76.92 72.68 75.96 72.68 74.76C72.68 74.6 72.68 74.44 72.68 74.28C72.68 74.12 72.66 73.96 72.62 73.8C72.62 73.72 72.6 73.66 72.56 73.62C72.56 73.58 72.56 73.54 72.56 73.5C72.56 73.1 72.68 72.9 72.92 72.9C73.32 72.9 73.64 73.22 73.88 73.86C74.12 74.46 74.24 74.94 74.24 75.3C74.24 76.54 73.76 77.62 72.8 78.54C71.84 79.5 70.62 80.24 69.14 80.76C67.7 81.28 66.22 81.54 64.7 81.54ZM57.92 60.24C59.96 60.24 62.14 59.78 64.46 58.86C66.78 57.9 68.96 56.66 71 55.14C73.08 53.58 74.76 51.9 76.04 50.1C79.68 45.02 81.5 41.16 81.5 38.52C81.5 37.4 81.18 36.58 80.54 36.06C79.9 35.54 79.12 35.28 78.2 35.28C76.2 35.28 73.72 36.96 70.76 40.32C69.84 41.4 68.62 42.96 67.1 45C65.62 47 63.86 49.48 61.82 52.44C61.02 53.6 60.14 54.82 59.18 56.1C58.22 57.38 57.22 58.7 56.18 60.06C56.74 60.18 57.32 60.24 57.92 60.24ZM36.68 76.26C37.44 76.26 38.28 75.98 39.2 75.42C40.16 74.9 41.08 74.24 41.96 73.44C42.84 72.64 43.56 71.86 44.12 71.1C43.56 70.3 42.96 69.34 42.32 68.22C41.68 67.1 40.98 65.8 40.22 64.32C39.3 62.4 38.6 61.54 38.12 61.74C37.4 61.86 36.62 63.14 35.78 65.58C34.94 68.02 34.52 70.3 34.52 72.42C34.52 74.98 35.24 76.26 36.68 76.26Z" fill="#9F7D6A"/>
</g>
<defs>
<clipPath id="clip0_214_179">
<rect width="84" height="100" fill="white"/>
</clipPath>
</defs>
</svg>
