<svg width="212" height="182" viewBox="0 0 212 182" fill="none" xmlns="http://www.w3.org/2000/svg">
<path d="M180.874 136.17C181.569 133.935 182.275 128.672 179.54 125.501" stroke="#F4F1EA" stroke-width="1.5"/>
<path d="M171.37 148.869C172.519 147.186 175.004 142.038 172.18 136.769M172.18 136.769C174.069 135.618 174.343 130.933 173.336 129.826C172.328 128.72 169.438 129.566 168.955 129.902C168.914 130.514 168.926 130.484 168.926 130.76M172.18 136.769C170.58 137.105 165.335 137.248 164.8 131.756C165.302 130.848 166.539 129.618 168.926 130.76M172.18 136.769C171.22 134.978 168.929 134.917 168.926 130.76" stroke="#F4F1EA" stroke-width="1.5"/>
<path d="M172.442 148.53C178.309 150.733 185.879 153.099 196.598 141.244C186.329 142.89 180.204 140.419 172.442 148.53Z" stroke="#F4F1EA" stroke-width="1.5"/>
<path d="M187.592 59.4306C180.838 41.9382 168.433 26.4754 151.125 16.0546C109.734 -8.8664 55.9772 4.48518 31.0563 45.8762C6.13529 87.2672 19.4869 141.024 60.8779 165.945C102.269 190.866 156.025 177.514 180.946 136.123C188.543 123.505 192.584 109.738 193.357 95.9892" stroke="#F4F1EA" stroke-width="1.5" stroke-linecap="round"/>
<path d="M190.515 113.784C193.806 110.212 199.908 103.504 194.48 87.0955C182.508 101.293 190.003 107.639 190.515 113.784Z" stroke="#F4F1EA" stroke-width="1.5"/>
<path d="M178.281 140.324C179.35 138.929 182.343 136.017 185.766 135.522" stroke="#F4F1EA" stroke-width="1.5"/>
<path d="M173.128 154.931C171.595 154.695 170.284 154.523 168.956 154.618C166.27 154.813 163.621 156.093 158.818 159.746L158.898 159.85C158.731 159.922 158.559 159.993 158.387 160.07L158.418 160.141C158.377 160.154 158.338 160.167 158.3 160.18L158.61 161.131C159.127 160.962 159.74 160.718 160.837 160.588C161.942 160.457 163.551 160.44 166.01 160.767C170.384 161.347 173.661 160.296 175.848 159.087C176.939 158.484 177.756 157.843 178.303 157.35C178.577 157.104 178.783 156.893 178.923 156.743C178.992 156.668 179.047 156.608 179.083 156.565C179.101 156.544 179.115 156.526 179.125 156.514L179.141 156.495L179.143 156.493L179.724 155.764L178.796 155.683C176.457 155.478 174.669 155.169 173.128 154.931ZM176.888 157.221C176.469 157.539 175.962 157.882 175.364 158.212C173.34 159.331 170.278 160.325 166.141 159.776C164.777 159.595 163.655 159.517 162.72 159.505C165.063 158.796 166.882 158.593 168.701 158.448C171.051 158.262 173.431 158.168 176.888 157.221ZM169.029 155.616C170.231 155.529 171.441 155.683 172.976 155.92C173.899 156.063 174.932 156.232 176.131 156.391C173.045 157.186 170.859 157.274 168.622 157.452C166.633 157.609 164.625 157.84 161.977 158.689C165.161 156.506 167.118 155.754 169.029 155.616Z" fill="#F4F1EA"/>
<path d="M168.951 140.285C169.672 140.887 170.29 141.469 170.727 142.232C171.607 143.767 171.677 145.891 170.999 150.085L170.018 150.119C169.981 149.964 169.949 149.803 169.897 149.625L169.878 149.627C169.875 149.592 169.87 149.556 169.866 149.522C169.807 149.339 169.725 149.136 169.593 148.904C169.3 148.386 168.751 147.698 167.652 146.821C165.56 145.151 165.045 143.003 165.051 141.303C165.054 140.457 165.186 139.716 165.316 139.187C165.38 138.928 165.444 138.718 165.493 138.569C165.478 138.506 165.46 138.442 165.445 138.376L165.571 138.346C165.572 138.342 165.575 138.339 165.576 138.335L165.584 138.315C165.584 138.315 165.584 138.314 165.629 138.333L165.631 138.333L165.585 138.315L165.855 137.649L166.386 138.135C166.393 138.141 166.401 138.147 166.407 138.153L166.421 138.15C166.422 138.157 166.424 138.163 166.426 138.169C167.403 139.06 168.226 139.681 168.951 140.285ZM166.096 140.515C166.07 140.764 166.053 141.03 166.052 141.307C166.046 142.797 166.49 144.614 168.278 146.041C168.739 146.409 169.117 146.754 169.431 147.076C169.054 145.677 168.537 144.791 167.983 143.934C167.366 142.979 166.683 142.033 166.096 140.515ZM169.859 142.728C169.514 142.126 169.013 141.639 168.31 141.052C167.917 140.725 167.458 140.362 166.948 139.939C167.509 141.472 168.177 142.39 168.825 143.393C169.427 144.325 169.991 145.305 170.398 146.821C170.558 144.723 170.344 143.576 169.859 142.728Z" fill="#F4F1EA"/>
<path d="M184.075 131.568C185.346 129.929 186.579 128.508 187.788 127.238L187.813 127.225C187.814 127.225 187.816 127.225 187.817 127.225C187.819 127.224 187.822 127.222 187.827 127.219C187.837 127.215 187.853 127.207 187.877 127.197C187.924 127.175 188.002 127.141 188.115 127.091C188.343 126.99 188.72 126.828 189.308 126.582C190.485 126.089 192.51 125.26 195.896 123.92C200.648 122.039 203.657 118.271 205.471 115.012C206.379 113.379 206.995 111.862 207.383 110.754C207.578 110.199 207.715 109.745 207.805 109.429C207.85 109.271 207.882 109.147 207.904 109.061C207.915 109.019 207.923 108.986 207.929 108.963C207.932 108.951 207.934 108.942 207.935 108.935L207.937 108.926L207.937 108.925L207.938 108.925L208.19 107.831L207.206 108.376C204.504 109.874 202.234 110.904 200.254 111.821C198.282 112.736 196.576 113.549 195.05 114.604C191.991 116.72 189.717 119.77 187.206 126.402C185.931 127.732 184.628 129.223 183.285 130.956L184.075 131.568ZM188.995 124.621C191.132 119.57 193.123 117.152 195.62 115.425C197.065 114.425 198.696 113.646 200.678 112.728C202.086 112.075 203.661 111.355 205.443 110.445C201.631 114.426 198.241 116.983 194.899 119.611C192.932 121.158 190.987 122.729 188.995 124.621ZM189.684 125.347C191.643 123.485 193.562 121.935 195.518 120.397C198.856 117.772 202.305 115.171 206.182 111.118C205.811 112.088 205.293 113.271 204.596 114.525C202.842 117.676 199.981 121.229 195.526 122.992C192.774 124.081 190.919 124.837 189.684 125.347Z" fill="#F4F1EA"/>
<path d="M186.036 125.168C186.704 119.598 185.44 115.745 183.274 112.345C182.397 111.618 181.305 110.966 180.098 110.227C178.878 109.48 177.563 108.653 176.349 107.601C173.896 105.472 171.883 102.441 171.7 97.297L171.664 96.275L172.494 96.8748C175.881 99.3216 175.954 99.1141 179.497 101.44C182.028 103.103 183.184 105.785 183.712 107.991C183.978 109.099 184.09 110.106 184.136 110.834C184.159 111.199 184.165 111.496 184.165 111.704C184.165 111.772 184.164 111.83 184.164 111.879C186.403 115.42 187.725 119.482 187.029 125.286L186.036 125.168ZM183.089 110.309C183.029 109.71 182.923 108.992 182.739 108.225C182.238 106.134 181.175 103.738 178.947 102.275C176.405 100.606 175.629 100.233 174.022 99.1594C175.249 100.932 176.548 102.519 177.84 104.023C179.584 106.053 181.336 107.96 182.828 109.95C182.917 110.069 183.002 110.189 183.089 110.309ZM181.575 109.963C180.215 108.22 178.676 106.531 177.08 104.673C175.671 103.032 174.233 101.273 172.885 99.2703C173.434 102.904 175.076 105.171 177.006 106.846C178.151 107.839 179.404 108.629 180.623 109.376C180.943 109.572 181.261 109.768 181.575 109.963Z" fill="#F4F1EA"/>
<path d="M186.208 121.427C185.925 119.698 185.304 118.61 184.433 117.828C184.424 117.82 184.414 117.812 184.405 117.804C183.294 117.346 182.118 117.19 180.867 117.104C179.612 117.018 178.239 117.001 176.9 116.779C175.538 116.554 174.16 116.112 172.825 115.157C171.493 114.204 170.232 112.759 169.067 110.57L168.449 109.41L169.682 109.867C170.917 110.324 172.18 110.375 173.531 110.403C174.86 110.43 176.286 110.435 177.709 110.863C179.543 111.415 181.398 113.008 182.756 114.393C183.444 115.095 184.024 115.764 184.432 116.257C184.635 116.504 184.797 116.708 184.908 116.851C184.963 116.921 185.006 116.978 185.035 117.016C185.045 117.029 185.053 117.04 185.059 117.049C185.073 117.061 185.087 117.072 185.1 117.084C186.169 118.045 186.882 119.353 187.196 121.266L186.208 121.427ZM182.457 115.528C182.324 115.386 182.186 115.239 182.042 115.093C180.694 113.718 178.992 112.293 177.421 111.82C176.154 111.439 174.876 111.43 173.511 111.402C172.996 111.392 172.469 111.378 171.935 111.336C175.451 113.401 178.599 114.171 181.169 115.048C181.614 115.2 182.044 115.36 182.457 115.528ZM180.847 115.995C178.28 115.119 174.905 114.296 171.144 112.026C171.886 113.05 172.642 113.797 173.407 114.345C174.585 115.188 175.807 115.585 177.062 115.792C178.34 116.004 179.604 116.015 180.936 116.106C181.033 116.113 181.131 116.122 181.228 116.13C181.103 116.085 180.976 116.04 180.847 115.995Z" fill="#F4F1EA"/>
<path d="M170.461 150.162C174.972 145.397 183.712 148.605 196.598 141.244" stroke="#F4F1EA" stroke-width="1.5"/>
<path d="M178.099 121.709C176.852 121.686 175.82 122.677 175.797 123.925C175.774 125.173 176.769 126.201 178.016 126.224C179.263 126.246 180.295 125.256 180.318 124.008C180.341 122.76 179.346 121.732 178.099 121.709Z" stroke="#F4F1EA" stroke-width="1.5"/>
<path d="M187.648 132.3C186.401 132.277 185.369 133.267 185.346 134.515C185.323 135.764 186.318 136.792 187.565 136.814C188.812 136.837 189.844 135.846 189.867 134.598C189.89 133.35 188.895 132.322 187.648 132.3Z" stroke="#F4F1EA" stroke-width="1.5"/>
<ellipse cx="1.51074" cy="1.50763" rx="1.51074" ry="1.50763" transform="matrix(-0.999832 -0.0183528 -0.0183528 0.999832 163.619 147.057)" stroke="#F4F1EA" stroke-width="1.5"/>
<path d="M157.549 161.732C159.144 160.483 161.727 156.712 158.75 153.411" stroke="#F4F1EA" stroke-width="1.5"/>
<path d="M159.502 159.649C162.075 158.295 164.927 154.017 162.949 149.651" stroke="#F4F1EA" stroke-width="1.5"/>
<ellipse cx="1.51074" cy="1.50763" rx="1.51074" ry="1.50763" transform="matrix(-0.999832 -0.0183528 -0.0183528 0.999832 159.664 150.779)" stroke="#F4F1EA" stroke-width="1.5"/>
</svg>
