<svg width="530" height="354" viewBox="0 0 530 354" fill="none" xmlns="http://www.w3.org/2000/svg">
<g clip-path="url(#clip0_696_11)">
<path opacity="0.6" d="M299.337 232.665C300.096 234.256 300.801 235.874 301.541 237.472C303.036 240.699 304.681 243.854 306.424 246.957C309.919 253.165 313.801 259.147 317.763 265.068C321.797 271.097 325.88 277.098 329.948 283.105C334.022 289.118 338.112 295.123 342.175 301.143C344.219 304.167 346.26 307.193 348.303 310.216C349.605 312.147 350.883 314.105 352.202 316.029C347.828 311.216 343.439 306.431 339.32 301.388C334.653 295.68 330.238 289.767 326.092 283.671C321.969 277.614 318.112 271.374 314.537 264.978C310.959 258.583 307.653 252.038 304.638 245.357C302.749 241.176 300.992 236.941 299.337 232.665ZM341.338 298.337C337.29 292.271 333.253 286.198 329.206 280.129C325.197 274.114 321.148 268.127 317.173 262.09C313.276 256.172 309.488 250.172 306.156 243.916C304.499 240.798 302.994 237.614 301.55 234.391C300.85 232.823 300.139 231.256 299.325 229.74C298.953 229.038 298.566 228.333 298.136 227.661C303.758 232.123 309.037 237.012 313.958 242.231C319.002 247.578 323.664 253.291 327.908 259.293C332.175 265.32 336.003 271.657 339.396 278.216C342.773 284.743 345.707 291.505 348.134 298.442C349.358 301.937 350.459 305.481 351.426 309.058C352.057 311.376 352.647 313.724 353.19 316.075C349.263 310.146 345.282 304.253 341.338 298.337ZM354.426 315.281L354.252 314.48L354.208 314.046L354.162 313.5L354.365 313.29L354.38 313.407C354.397 314.031 354.408 314.655 354.426 315.281ZM358.949 298.981C365.094 292.257 371.461 285.755 378.24 279.656C385.659 272.981 393.465 266.731 401.612 260.967C409.784 255.183 418.312 249.896 427.114 245.124C435.887 240.37 444.942 236.126 454.216 232.437C461.565 229.516 469.055 226.962 476.649 224.765C468.441 230.39 460.265 236.059 452.002 241.607C443.479 247.326 434.942 253.025 426.353 258.642C417.765 264.256 409.115 269.782 400.365 275.14C391.577 280.517 382.686 285.732 373.693 290.765C369.453 293.138 365.116 295.35 360.912 297.784C360.265 298.159 359.603 298.555 358.949 298.981ZM361.352 299.157C362.707 298.369 364.104 297.651 365.44 296.927C369.909 294.509 374.346 292.033 378.759 289.509C387.623 284.44 396.351 279.136 405.013 273.731C413.639 268.345 422.176 262.821 430.65 257.205C439.176 251.556 447.61 245.772 456.009 239.934C460.225 237.001 464.456 234.089 468.679 231.165C472.032 228.845 475.452 226.582 478.752 224.172C479.325 224.008 479.899 223.845 480.476 223.69C480.177 223.984 479.881 224.285 479.58 224.583C472.622 231.446 465.355 237.997 457.81 244.211C450.272 250.416 442.455 256.285 434.39 261.79C426.318 267.304 418.001 272.452 409.458 277.208C400.919 281.963 392.171 286.349 383.247 290.335C376.06 293.546 368.75 296.473 361.352 299.157ZM355.899 276.621L355.817 277.472C354.891 275.441 353.941 273.432 352.949 271.432C351.883 269.286 350.82 267.137 349.759 264.993C345.942 257.277 342.17 249.545 338.44 241.786C335.088 234.811 331.847 227.779 328.517 220.795C330.982 223.901 333.318 227.104 335.509 230.413C340.325 237.698 344.508 245.408 347.999 253.412C351.274 260.92 353.88 268.686 355.899 276.621ZM343.904 255.37C345.791 259.178 347.695 262.981 349.61 266.777C350.582 268.707 351.562 270.631 352.545 272.552C353.432 274.296 354.367 276 355.326 277.703C352.781 274.127 350.211 270.579 347.851 266.874C343.112 259.439 339.009 251.59 335.608 243.451C333.163 237.601 331.073 231.582 329.354 225.463C330.427 227.701 331.511 229.932 332.584 232.168C336.309 239.924 340.081 247.658 343.904 255.37ZM359.576 261.504L359.616 261.273C360.009 260.91 360.408 260.553 360.784 260.172C365.918 254.988 370.978 249.735 376.062 244.505C381.139 239.28 386.21 234.049 391.311 228.845C396.198 223.86 401.156 218.916 406.541 214.465C411.968 209.978 417.869 206.186 424.093 202.9C427.249 201.235 430.467 199.687 433.71 198.197C436.92 196.722 440.228 195.418 443.383 193.83C444.157 193.438 443.55 192.375 442.78 192.663C441.942 192.976 441.122 193.321 440.3 193.68C433.792 196.53 427.301 199.444 421.083 202.895C414.886 206.331 409.081 210.356 403.717 214.988C398.428 219.56 393.546 224.569 388.69 229.595C383.598 234.866 378.52 240.149 373.459 245.451C370.917 248.118 368.363 250.772 365.846 253.463C364.587 254.807 363.323 256.148 362.07 257.5C361.443 258.175 360.818 258.856 360.196 259.535L359.83 259.961L359.967 259.142C361.605 253.828 365.346 249.189 368.985 245.141C374.289 239.237 379.897 233.613 385.777 228.286C391.694 222.927 397.87 217.858 404.261 213.084C410.689 208.278 417.31 203.615 424.274 199.62C430.756 195.903 437.73 192.878 445.165 191.878L444.618 192.526C439.798 198.165 434.77 203.627 429.551 208.894C424.329 214.165 418.913 219.24 413.317 224.112C407.721 228.982 401.95 233.648 396.013 238.096C390.077 242.545 383.982 246.774 377.734 250.773C371.81 254.564 365.748 258.131 359.576 261.504ZM428.067 112.551C433.301 109.965 438.298 106.815 442.925 103.261C447.368 99.8461 451.627 96.0139 455.205 91.6774C455.097 92.9878 453.655 94.4395 452.952 95.2754C451.548 96.9453 450.045 98.5326 448.457 100.028C445.306 102.998 441.819 105.613 438.084 107.812C434.924 109.673 431.559 111.279 428.067 112.551ZM454.016 89.8637C451.331 91.8558 448.725 93.9576 446.101 96.0268C441.258 99.8384 436.439 103.687 431.551 107.445C429.178 109.266 426.787 111.101 424.248 112.693C423.161 113.376 422.029 113.995 420.832 114.458C422.465 113.495 424.048 112.485 425.605 111.405C427.144 110.335 428.621 109.177 430.025 107.937C431.229 106.871 432.498 105.729 433.467 104.423L433.745 104.499C434.524 103.958 435.17 103.16 435.855 102.502C436.589 101.801 437.33 101.111 438.081 100.431C439.586 99.0767 441.129 97.7659 442.719 96.511C445.941 93.9679 449.34 91.6832 452.797 89.4777L452.805 89.4644C453.227 89.5473 453.641 89.6716 454.016 89.8637ZM451.649 89.3134L452.38 89.3916C450.884 90.2521 449.428 91.1692 448 92.1368C445.387 93.9049 442.868 95.8031 440.429 97.7983C439.203 98.8016 438.003 99.8338 436.829 100.894C436.444 101.241 436.07 101.595 435.693 101.948C437.037 100.459 438.304 98.9001 439.479 97.2734C440.537 95.8151 441.516 94.2985 442.418 92.7423C443.151 92.0483 444.007 91.4245 444.86 90.9212C445.858 90.3325 446.931 89.8938 448.056 89.6204C449.234 89.3327 450.437 89.2188 451.649 89.3134ZM436.63 98.7185C433.669 102.361 430.21 105.612 426.418 108.38C430.134 104.663 433.078 100.213 435.676 95.6601C438.935 89.9537 441.892 84.0431 445.72 78.6859L445.813 78.9371C446.457 81.3875 445.144 84.0985 444.19 86.3038C442.263 90.7663 439.695 94.9466 436.63 98.7185ZM445.609 78.3949C443.389 81.3487 441.457 84.4945 439.617 87.6948C436.396 93.2946 433.307 99.0316 429.226 104.072C427.199 106.574 424.92 108.888 422.339 110.819C421.695 111.299 421.029 111.755 420.35 112.184L419.776 112.494C418.713 113.049 417.629 113.566 416.533 114.046C417.023 113.525 417.503 112.995 417.972 112.463C419.142 111.139 420.256 109.762 421.314 108.346C425.193 103.145 428.518 97.5304 431.927 92.0189C435.317 86.5368 438.897 81.1838 443.266 76.4222C444.287 76.7429 445.157 77.3747 445.609 78.3949ZM441.458 76.1524C441.981 76.1497 442.503 76.2155 443 76.3426C440.582 78.8304 438.434 81.5585 436.417 84.377C432.62 89.6775 429.369 95.3275 425.785 100.766C424.541 102.659 423.236 104.516 421.865 106.319C423.348 103.718 424.547 100.953 425.432 98.0873C426.794 93.6909 427.442 89.0829 427.317 84.4865L427.536 84.3799C429.669 82.1716 431.931 80.1101 434.577 78.5268C436.663 77.2764 438.976 76.166 441.458 76.1524ZM424.038 73.3383C424.215 73.7643 424.352 74.2126 424.481 74.6585C423.532 77.4345 422.71 80.2503 421.939 83.0806C420.441 88.5713 419.106 94.1281 418.006 99.7146C417.495 102.312 417.105 104.94 416.543 107.53C416.125 109.463 415.502 111.258 414.592 112.969L414.541 112.229L414.52 111.857C414.594 111.225 414.664 110.592 414.745 109.964C414.951 108.352 415.155 106.744 415.388 105.134C416.206 99.4746 417.196 93.8353 418.487 88.2636C419.761 82.7543 421.327 77.3318 422.903 71.903L422.98 71.9287C423.518 72.1769 423.82 72.8278 424.038 73.3383ZM422.587 71.8376C421.562 74.8032 420.682 77.8191 419.847 80.8444C418.324 86.3801 417.012 91.9825 415.876 97.6123C415.31 100.401 414.81 103.205 414.369 106.017L414.31 106.4C414.249 101.976 414.485 97.5674 415.161 93.1686C416.132 86.8635 417.884 80.6775 420.387 74.8085C420.721 74.0323 421.438 71.807 422.587 71.8376ZM416.746 81.1339C415.359 85.5266 414.359 90.0454 413.778 94.6146C413.357 97.9455 413.152 101.302 413.168 104.659C413.178 106.373 413.237 108.1 413.381 109.818C413.133 108.552 412.886 107.289 412.661 106.024C411.692 100.546 410.952 95.0626 410.397 89.5313C409.83 83.9215 409.939 78.3039 410.379 72.69L410.125 72.6766C409.67 75.8005 409.532 78.9786 409.531 82.1335C409.529 87.7091 409.973 93.2481 410.73 98.7655C411.114 101.552 411.562 104.329 412.04 107.1C412.304 108.629 412.563 110.16 412.834 111.689C411.686 108.847 410.622 105.979 409.821 103.017C407.915 95.9723 407.193 88.6082 407.743 81.331C407.88 79.4982 408.101 77.6714 408.401 75.8591C408.586 74.7336 409.03 72.1381 410.669 72.3466C411.372 72.4366 411.909 73.0754 412.334 73.5862C412.958 74.3455 413.532 75.1449 414.06 75.9714C414.587 76.8017 415.069 77.6582 415.501 78.5388C415.923 79.3984 416.218 80.3362 416.746 81.1339ZM426.038 86.6439C425.909 91.237 425.004 95.8017 423.34 100.092C421.921 103.75 419.95 107.186 417.506 110.249C417.978 109.312 418.441 108.37 418.893 107.424C422.024 100.821 424.516 93.8187 426.038 86.6439ZM426.038 84.3773C425.665 86.0192 425.281 87.6578 424.84 89.2822C423.688 93.53 422.248 97.7165 420.557 101.778C419.7 103.834 418.781 105.869 417.775 107.854C417.559 108.277 417.331 108.691 417.108 109.112C417.266 108.456 417.399 107.799 417.517 107.157C418.008 104.48 418.378 101.779 418.841 99.0951C419.331 96.2501 419.874 93.4049 420.523 90.5947C421.721 85.4305 423.18 80.3482 424.653 75.2618C425.413 77.9573 425.876 80.739 426.017 83.5349L426.038 84.3773ZM455.168 91.1582C453.025 93.4369 450.864 95.7013 448.557 97.8149C444.137 101.868 439.305 105.462 434.15 108.527C431.589 110.049 428.927 111.406 426.226 112.656C425.768 112.868 425.308 113.067 424.85 113.272L425.071 113.126C430.177 109.702 434.913 105.735 439.712 101.901C444.619 97.9845 449.63 94.1748 454.415 90.1104L454.699 90.3452C454.957 90.5958 455.101 90.8723 455.168 91.1582ZM374.716 147.274C375.948 145.156 376.812 142.796 377.511 140.446C378.841 137.804 380.027 135.082 381.006 132.299C382.135 129.088 383.128 125.713 383.552 122.321L384.11 122.098C384.732 122.005 385.094 122.642 385.181 123.167C385.354 124.237 385.001 125.503 384.78 126.551C384.541 127.688 384.239 128.815 383.888 129.921C383.197 132.1 382.305 134.211 381.289 136.255C380.254 138.345 379.077 140.358 377.858 142.344C376.843 144 375.743 145.607 374.771 147.291L374.716 147.274ZM382.493 123.2L383.011 122.731C382.646 124.35 382.296 125.973 381.856 127.574C380.968 130.796 379.824 133.975 378.404 137.009C379.149 133.565 379.476 130.024 379.399 126.502L379.496 126.414C380.388 125.249 381.388 124.166 382.493 123.2ZM378.217 123.146C378.333 124.326 378.398 125.508 378.415 126.691C378.454 129.088 378.297 131.49 377.956 133.864C377.613 136.251 377.065 138.61 376.359 140.915L376.353 140.936C376.063 141.437 375.78 141.94 375.477 142.431L374.986 143.203C375.016 142.672 375.049 142.139 375.072 141.607C375.164 139.487 375.188 137.364 375.077 135.245C374.873 131.266 374.193 127.117 372.711 123.336L373.007 123.071C373.469 121.783 373.498 120.307 374.741 119.45C375.814 118.706 376.945 119.148 377.52 120.232C377.994 121.127 378.121 122.154 378.217 123.146ZM373.018 127.587C373.835 130.916 374.095 134.331 374.066 137.749L374.056 138.09C373.545 130.176 371.029 122.376 366.611 115.782C367.534 116.599 368.326 117.602 369.028 118.582C370.951 121.271 372.23 124.39 373.018 127.587ZM365.756 115.106L365.783 115.125L365.783 115.135C367.063 117.116 368.2 119.194 369.176 121.335C370.907 125.132 372.133 129.13 372.794 133.251C373.12 135.315 373.31 137.402 373.35 139.495C373.371 140.497 373.357 141.501 373.31 142.501C373.293 142.866 373.257 143.232 373.226 143.595L373.194 143.414C373.11 142.836 373.017 142.261 372.912 141.688C372.688 140.478 372.448 139.269 372.18 138.065C371.261 133.927 370.01 129.87 368.511 125.904C367.744 123.873 366.897 121.871 365.976 119.907C365.084 118.003 364.159 116.069 362.998 114.312C363.947 114.21 364.974 114.574 365.756 115.106ZM362.669 114.376C363.676 116.522 364.834 118.593 365.818 120.755C367.611 124.685 369.097 128.747 370.226 132.92C370.785 134.983 371.274 137.065 371.682 139.165L371.794 139.783L371.588 139.254C370.701 137.055 369.655 134.919 368.461 132.872C366.378 129.292 363.846 125.971 360.935 123.023C360.497 121.952 360.231 120.813 360.182 119.65C360.121 118.147 360.355 116.139 361.481 115.019C361.83 114.67 362.238 114.477 362.669 114.376ZM361.78 125.432C364.436 128.423 366.715 131.735 368.563 135.28C369.489 137.059 370.314 138.895 371.013 140.776L371.22 141.373C370.978 141.067 370.716 140.77 370.455 140.475C370.253 140.087 370.058 139.691 369.847 139.303C368.18 136.205 366.374 133.184 364.386 130.275C363.398 128.827 362.367 127.404 361.296 126.012C360.231 124.628 359.151 123.264 357.897 122.051C358.57 122.041 359.329 122.863 359.714 123.247C360.428 123.953 361.115 124.683 361.78 125.432ZM357.595 122.127L357.626 122.235C358.772 123.858 360.056 125.378 361.248 126.967C363.361 129.784 365.307 132.729 367.078 135.769C367.615 136.696 368.126 137.632 368.627 138.575C368.039 138.01 367.44 137.455 366.837 136.918C366.019 135.993 365.157 135.105 364.25 134.27C363.48 133.562 362.674 132.887 361.836 132.256C360.451 130.777 359.225 129.167 358.356 127.316C357.954 126.455 357.65 125.554 357.464 124.622C357.356 124.094 356.927 122.455 357.595 122.127ZM360.503 132.439C362.474 134.655 364.824 136.574 367.044 138.59C367.828 139.529 368.575 140.498 369.288 141.492C369.811 142.223 370.31 142.97 370.799 143.724C370.198 143.444 369.593 143.164 369.001 142.866C365.673 141.18 362.498 139.206 359.524 136.955C356.511 134.674 353.537 132.118 351.119 129.2C350.871 128.905 350.399 129.334 350.674 129.614C352.204 131.162 353.7 132.733 355.326 134.182C360.04 138.385 365.459 141.964 371.291 144.476C371.578 144.929 371.866 145.383 372.162 145.825C371.321 145.231 370.402 144.749 369.489 144.273L369.421 144.237C367.058 142.808 364.495 141.657 362.059 140.434C358.568 138.68 355.044 136.698 352.378 133.785C351.754 133.104 351.141 132.374 350.679 131.571C350.317 130.939 349.928 130.055 350.357 129.36C350.878 128.514 352.165 128.635 352.993 128.827C353.931 129.046 354.853 129.397 355.742 129.771C357.425 130.473 359.011 131.387 360.503 132.439ZM366.746 144.124C367.904 144.71 369.113 145.278 370.252 145.943C369.511 145.742 368.772 145.537 368.031 145.342C364.669 144.465 361.314 143.561 357.958 142.672C356.263 142.225 354.572 141.764 352.874 141.318C352.027 141.099 351.18 140.875 350.331 140.653C349.537 140.445 348.686 140.104 347.863 140.075L347.6 140.175L347.828 139.874C348.457 139.3 349.505 139.283 350.303 139.263C352.209 139.214 354.116 139.437 355.972 139.866C359.751 140.742 363.304 142.373 366.746 144.124ZM347.497 140.712L347.626 140.822C348.475 141.248 349.529 141.376 350.452 141.607L353.301 142.315C356.674 143.153 360.061 143.95 363.436 144.785C366.13 145.45 368.823 146.129 371.525 146.763L371.802 146.951C367.973 146.551 364.15 146.149 360.36 145.406C358.277 144.995 356.21 144.505 354.161 143.951C353.137 143.673 352.118 143.374 351.103 143.061C350.185 142.775 349.161 142.544 348.356 142.001C347.935 141.719 347.547 141.213 347.497 140.712ZM363.863 102.884C360.623 107.296 357.255 111.613 353.771 115.834C355.947 112.474 357.953 109.004 359.73 105.423C362.399 100.053 364.626 94.4701 366.392 88.7402C368.149 83.0244 369.454 77.1587 370.258 71.2354C370.666 68.2458 370.94 65.2414 371.081 62.2307C371.198 59.7466 371.287 57.2173 371.125 54.7231C374.169 56.9987 376.48 60.2729 377.617 63.9165C379.719 70.6402 378.389 77.9056 375.621 84.2321C372.672 90.9603 368.192 96.9922 363.863 102.884ZM370.595 54.3471C370.592 54.7425 370.582 55.1342 370.583 55.5314C370.603 61.4959 370.231 67.4272 369.3 73.3229C368.374 79.2069 366.932 84.9974 365.02 90.6379C363.103 96.298 360.697 101.784 357.878 107.053C355.08 112.281 351.853 117.279 348.231 121.976C347.145 123.379 346.014 124.745 344.859 126.09C344.221 126.788 343.587 127.488 342.945 128.182C345.44 123.867 347.621 119.373 349.55 114.776C352.775 107.1 355.333 99.1638 357.666 91.1751C358.85 87.1261 359.986 83.0592 361.114 78.9916C362.33 74.617 363.489 70.2116 364.141 65.7125C364.791 61.2527 364.893 56.6851 364.055 52.2393L363.932 51.6541C364.337 51.7177 364.74 51.7918 365.148 51.8898C367.12 52.36 368.953 53.2147 370.595 54.3471ZM361.972 70.1872C361.039 74.4768 359.798 78.6958 358.605 82.92C357.5 86.8333 356.373 90.739 355.178 94.6274C352.791 102.377 350.138 110.061 346.788 117.453C345.851 119.519 344.855 121.559 343.796 123.567L343.516 123.683L343.345 123.879C343.002 123.991 342.701 124.156 342.42 124.357L342.351 124.373C343.421 122.027 344.451 119.662 345.413 117.269C347.937 111.001 350.061 104.57 351.811 98.0453C353.562 91.5237 354.91 84.875 355.907 78.1952C356.906 71.5143 357.51 64.7763 357.743 58.0263C357.865 54.5058 357.969 50.9495 357.692 47.4372C357.472 44.6446 356.92 41.8512 355.646 39.377C357.494 40.6725 358.975 42.5528 360.05 44.4962C364.367 52.3144 363.811 61.7442 361.972 70.1872ZM352.109 37.8237C353.173 38.0318 354.144 38.4549 355.048 39.0002C355.22 39.3179 355.396 39.6346 355.545 39.9675C357.104 43.4226 357.347 47.2901 357.375 51.0302C357.401 54.3895 357.303 57.7528 357.12 61.1084C356.753 67.7686 355.96 74.4121 354.807 80.9848C353.653 87.5546 352.077 94.0441 350.175 100.435C348.409 106.365 346.32 112.2 343.961 117.916C344.121 117.465 344.297 117.023 344.45 116.571C345.519 113.437 346.456 110.258 347.267 107.048C348.07 103.858 348.791 100.629 349.224 97.3661C349.659 94.082 350.148 90.8131 350.446 87.5152C350.742 84.2145 350.908 80.9036 350.942 77.5932C351.009 71.0051 350.545 64.4065 349.552 57.8904C348.56 51.3866 347.063 44.9339 344.918 38.7115C345.307 38.5933 345.699 38.4711 346.092 38.3614C348.033 37.8117 350.102 37.4248 352.109 37.8237ZM344.6 38.8063C344.824 39.5349 345.039 40.2639 345.26 40.9936C347.151 47.278 348.523 53.7252 349.368 60.2346C350.212 66.7508 350.519 73.3363 350.316 79.904C350.211 83.1888 349.977 86.4664 349.612 89.731C349.431 91.3661 349.211 92.9923 348.961 94.6177C348.707 96.2642 348.331 97.881 347.994 99.5149C346.676 105.929 344.973 112.239 342.708 118.386C341.998 120.313 341.218 122.218 340.405 124.106C339.786 123.699 339.348 122.997 339.321 122.258L338.954 121.704C340.032 115.373 341.109 109.041 342.189 102.71C343.73 93.6683 345.297 84.5791 345.472 75.3872C345.644 66.3356 344.397 57.1133 340.635 48.8116C339.601 46.533 338.142 43.7586 336.301 41.3518C337.431 41.0856 338.527 40.7515 339.638 40.4054C341.293 39.8871 342.94 39.32 344.6 38.8063ZM339.805 125.082L339.945 125.163L339.867 125.343L339.805 125.082ZM341.937 56.4451C344.334 65.0935 344.495 74.1545 343.668 83.0414C342.817 92.1795 341.056 101.22 339.509 110.261C338.123 118.345 336.733 126.428 335.35 134.514L335.148 134.896C335.877 128.41 336.321 121.896 336.475 115.369C336.633 108.738 336.481 102.098 336.004 95.4815C335.529 88.864 334.752 82.2746 333.67 75.7297C332.59 69.1876 331.213 62.6907 329.541 56.2735C327.953 50.1586 326.174 44.0298 323.878 38.1347C325.364 37.3263 327.004 36.9236 328.787 37.3184C332.317 38.1014 334.764 41.3252 336.594 44.2083C338.993 47.9834 340.746 52.1393 341.937 56.4451ZM318.944 42.4261C320.256 40.9518 321.81 39.3487 323.594 38.3042C323.753 38.8018 323.908 39.3004 324.079 39.7967C326.234 46.0351 328.106 52.3748 329.68 58.7828C331.264 65.2259 332.53 71.7447 333.492 78.3079C334.454 84.8711 335.107 91.4837 335.452 98.1097C335.794 104.7 335.864 111.311 335.596 117.905C335.397 122.799 335.013 127.681 334.464 132.547C334.126 130.741 333.652 128.951 333.145 127.205C332.274 124.184 331.189 121.226 329.973 118.33C325.539 107.774 319.361 98.109 313.918 88.0717C308.627 78.3115 304.048 68.0292 302.773 56.9032C305.458 55.057 308.099 53.1556 310.598 51.0544C312.116 49.7787 313.575 48.4339 314.943 46.9999C316.34 45.5296 317.6 43.9418 318.944 42.4261ZM291.288 64.8624C294.757 62.2604 298.397 59.8927 301.978 57.4464C302.664 63.3584 304.361 69.1291 306.571 74.6422C310.786 85.1466 316.864 94.7256 322.353 104.581C325.14 109.583 327.789 114.672 329.936 119.989C331.006 122.636 331.949 125.336 332.723 128.085C333.333 130.249 333.761 132.447 334.22 134.642C334.167 135.059 334.124 135.475 334.071 135.893L333.756 135.137C333.139 133.67 332.48 132.22 331.775 130.794C330.395 127.99 328.855 125.268 327.162 122.641C324.153 117.977 320.672 113.619 316.776 109.669C312.721 105.563 308.168 102.032 303.602 98.5181C299.028 95.001 294.443 91.4621 290.511 87.216C288.557 85.1064 286.767 82.8361 285.27 80.3797C283.907 78.1482 282.858 75.7818 282.032 73.3131L282.552 72.707C285.152 69.7668 288.154 67.2146 291.288 64.8624ZM281.652 73.7543C283.265 79.4011 286.943 84.3972 290.967 88.5703C294.977 92.7324 299.59 96.2578 304.147 99.7908C308.693 103.312 313.152 106.92 317.113 111.107C321.002 115.22 324.451 119.745 327.386 124.585C328.846 126.994 330.18 129.481 331.376 132.033C331.803 132.943 332.205 133.864 332.596 134.789C328.713 131.12 324.787 127.5 320.853 123.886C312.83 116.519 304.8 109.165 296.764 101.813C289.5 95.1686 282.062 88.0451 278.351 78.7256C279.207 76.9313 280.394 75.2672 281.652 73.7543ZM277.842 79.9128C279.93 84.7112 283.062 89.0074 286.565 92.8723C289.967 96.6223 293.741 99.989 297.475 103.396C301.535 107.097 305.59 110.803 309.659 114.494C317.373 121.49 325.039 128.541 332.86 135.416L333.067 135.906L333.251 136.377C332.755 135.998 332.256 135.627 331.744 135.267L331.38 134.867C325.732 128.964 318.304 125.268 311.731 120.55C304.542 115.394 298.018 109.387 291.761 103.153C288.615 100.016 285.525 96.8228 282.449 93.6214C280.899 92.0092 279.33 90.3457 278.261 88.3647C277.274 86.5374 276.871 84.5461 277.163 82.4852C277.289 81.6013 277.529 80.7462 277.842 79.9128ZM277.962 90.3212C278.636 91.3039 279.408 92.2276 280.204 93.1036C281.737 94.7903 283.352 96.4043 284.937 98.0394C288.094 101.295 291.276 104.528 294.547 107.67C300.98 113.843 307.781 119.621 315.269 124.485C315.75 124.799 316.237 125.11 316.72 125.42C315.698 124.903 314.669 124.394 313.636 123.893C305.791 120.102 297.722 116.641 290.595 111.563C283.778 106.703 277.687 100.255 275.258 92.0712L275.107 91.8718C276.059 91.3485 277.023 90.8594 277.962 90.3212ZM273.572 92.7758C273.895 92.5656 274.224 92.3697 274.557 92.1785L274.561 92.2158C275.9 96.7259 278.333 100.805 281.421 104.335C287.169 110.906 294.766 115.365 302.533 119.146C306.562 121.109 310.65 122.954 314.666 124.945C316.189 125.697 317.696 126.485 319.192 127.292L319.122 127.392L318.888 127.512L318.538 127.544C316.935 126.856 315.323 126.198 313.696 125.575C304.929 122.212 295.871 119.725 286.639 118.018C281.971 117.158 277.236 116.355 272.818 114.552C268.854 112.937 264.913 110.388 262.594 106.7L262.59 106.695C262.851 105.916 263.153 105.158 263.481 104.435C264.912 101.265 267.007 98.3849 269.522 95.9839C270.77 94.7947 272.122 93.7096 273.572 92.7758ZM262.325 107.537C265.135 111.295 269.097 113.839 273.473 115.483C277.969 117.173 282.743 117.917 287.448 118.795C292.087 119.664 296.686 120.74 301.224 122.042C306.281 123.49 311.225 125.243 316.086 127.219C314.991 127.067 313.893 126.924 312.796 126.781C305.892 124.914 298.778 123.94 291.67 123.225C287.571 122.811 283.463 122.478 279.358 122.091C275.915 121.765 272.372 121.558 269.047 120.528C266.095 119.612 263.306 117.859 262.237 114.811C261.414 112.464 261.639 109.924 262.325 107.537ZM319.9 127.677L320.385 127.938L320.309 127.969L320.213 127.927L319.736 128.003L319.715 127.998L319.9 127.677ZM296.105 227.749C298.589 234.71 301.379 241.564 304.482 248.274C307.582 254.987 310.989 261.557 314.684 267.963C318.357 274.335 322.311 280.543 326.526 286.568C330.766 292.628 335.275 298.497 340.035 304.154C342.416 306.981 344.855 309.762 347.376 312.467C349.471 314.721 351.634 316.889 353.844 319.024L353.999 319.778C354.071 320.137 354.352 320.275 354.63 320.259C355.207 332.332 356.466 344.376 358.167 356.34C359.729 367.298 361.656 378.202 363.766 389.067C365.909 400.092 368.044 411.166 370.794 422.056C370.977 422.787 372.062 422.555 371.934 421.816C371.469 419.133 370.948 416.464 370.412 413.791C366.047 392.078 361.469 370.428 358.701 348.434C356.823 333.51 355.751 318.481 355.879 303.451C356.22 303.06 356.578 302.681 356.955 302.328C357.842 302.023 358.729 301.721 359.613 301.407C368.859 298.1 377.96 294.389 386.874 290.268C395.828 286.128 404.594 281.581 413.139 276.646C421.613 271.75 429.881 266.496 437.903 260.891C445.991 255.237 453.827 249.228 461.376 242.877C468.891 236.557 476.117 229.895 483.035 222.924C483.452 222.502 483.109 221.671 482.475 221.837C481.998 221.962 481.522 222.093 481.045 222.221L480.69 222.083L480.06 222.488C479.648 222.599 479.238 222.705 478.827 222.818C469.156 225.503 459.648 228.785 450.372 232.617C441.106 236.448 432.074 240.835 423.332 245.743C414.578 250.662 406.119 256.099 398.004 262.013C389.869 267.942 382.085 274.354 374.73 281.228C368.072 287.451 361.742 294.027 355.911 301.027C356.01 295.328 356.28 289.632 356.754 283.942C356.837 283.335 356.913 282.729 356.973 282.12C357.091 280.936 357.185 279.747 357.263 278.558L357.438 278.027L357.356 277.699C357.867 272.925 358.505 268.169 359.26 263.432L359.268 263.429C360.068 262.994 360.867 262.556 361.665 262.115C368.183 258.505 374.565 254.651 380.799 250.571C387.032 246.487 393.121 242.18 399.041 237.652C404.934 233.148 410.663 228.426 416.21 223.504C421.782 218.56 427.179 213.412 432.375 208.073C437.571 202.734 442.567 197.203 447.355 191.495C447.824 190.936 447.453 190.204 446.723 190.267C445.717 190.354 444.711 190.477 443.717 190.639C435.588 191.95 428.04 195.618 421.069 199.864C414.115 204.098 407.443 208.848 400.981 213.791C394.511 218.745 388.277 224 382.333 229.573C376.622 234.928 371.027 240.527 366.044 246.574C364.174 248.837 362.335 251.333 360.91 254.013C362.785 244.207 365.119 234.487 367.866 224.887C373.35 205.711 380.369 186.995 388.34 168.721C395.98 151.211 404.536 134.118 413.425 117.213L413.696 117.229C415.116 117.081 416.527 116.889 417.927 116.653L417.99 116.665L418.57 116.538C422.145 115.902 425.655 114.975 429.081 113.693C437.784 110.438 445.737 105.102 452.002 98.2357C452.804 97.3595 453.576 96.4564 454.321 95.5318C454.978 94.7194 455.67 93.8976 456.088 92.9284C456.502 91.9767 456.536 90.887 455.938 90.0032C455.352 89.1364 454.348 88.6513 453.357 88.4128C451.217 87.8921 448.876 88.1133 446.816 88.8467C445.757 89.2192 444.759 89.7232 443.838 90.3622L443.649 90.5065C444.824 88.2445 445.907 85.8747 446.659 83.4371C447.4 81.026 447.651 78.0652 445.551 76.2428C443.98 74.8813 441.773 74.7399 439.806 75.0797C437.384 75.4994 435.145 76.6962 433.114 78.0356C430.912 79.488 428.873 81.2413 427.269 83.3434C427.214 82.3812 427.14 81.4185 427.016 80.4626C426.83 79.006 426.559 77.5565 426.201 76.1341C425.863 74.7749 425.535 73.2405 424.794 72.041C424.05 70.8346 422.651 70.104 421.344 70.9854C420.003 71.8892 419.462 73.7864 418.88 75.2108C418.301 76.6206 417.772 78.0489 417.283 79.4903C417.022 78.8202 416.685 78.1695 416.367 77.5558C415.816 76.4863 415.192 75.4554 414.504 74.4685C413.523 73.059 412.165 70.865 410.147 71.1531C408.421 71.4 407.644 73.3945 407.354 74.8822C406.977 76.8102 406.743 78.7769 406.581 80.735C406.252 84.6557 406.299 88.6031 406.686 92.5179C407.073 96.4415 407.833 100.324 408.938 104.11C409.847 107.223 410.967 110.297 412.454 113.187L412.421 113.345C412.435 113.689 412.449 114.033 412.459 114.375L412.461 114.378L412.461 114.387L412.32 114.899L412.513 115.455C412.536 115.928 412.562 116.401 412.609 116.871L412.674 117.044C412.028 118.228 411.374 119.406 410.734 120.59C401.16 138.309 392.245 156.4 384.326 174.92C381.049 182.582 377.967 190.331 375.094 198.156C375.311 196.706 375.516 195.256 375.692 193.8C376.705 185.407 377.013 176.916 376.611 168.474C376.345 162.875 375.737 157.311 374.811 151.79C375.286 150.775 375.128 149.675 374.654 148.671C376.554 146.507 378.122 144.012 379.611 141.557C382.256 137.191 384.545 132.536 385.695 127.539C385.978 126.319 386.285 125.016 386.316 123.759C386.346 122.642 385.885 121.371 384.687 121.06C383.41 120.73 382.282 121.956 381.442 122.729C380.687 123.426 380.001 124.184 379.34 124.969C379.318 124.569 379.303 124.17 379.27 123.774C379.117 121.847 378.868 118.874 376.628 118.196C374.17 117.453 372.59 120.099 372.252 122.245C371.127 119.71 369.621 117.369 367.613 115.395C366.466 114.269 365.013 113.289 363.339 113.326C361.712 113.362 360.511 114.33 359.901 115.804C359.095 117.751 359.182 119.989 359.87 121.997C359.461 121.643 359.019 121.332 358.492 121.158C357.706 120.896 356.84 121.091 356.433 121.861C356.016 122.65 356.213 123.75 356.348 124.587C356.512 125.592 356.826 126.57 357.234 127.499C357.661 128.479 358.185 129.381 358.769 130.234C357.181 129.325 355.506 128.573 353.746 128.055C352.126 127.576 349.612 127.478 349.207 129.617C348.859 131.423 350.432 133.212 351.541 134.441C353.21 136.297 355.211 137.772 357.334 139.052C356.349 138.786 355.352 138.564 354.339 138.404C353.294 138.238 352.239 138.14 351.183 138.126C350.218 138.114 349.177 138.099 348.245 138.385C347.338 138.663 346.523 139.257 346.343 140.24C346.159 141.238 346.692 142.215 347.458 142.828C348.274 143.476 349.326 143.76 350.302 144.071C351.46 144.438 352.622 144.781 353.794 145.101C356.018 145.708 358.271 146.213 360.539 146.633C364.567 147.38 368.707 147.94 372.817 147.885C373.088 148.199 373.322 148.542 373.512 148.915C373.647 149.787 373.779 150.663 373.903 151.538L373.878 151.787L373.987 152.099C374.244 153.921 374.476 155.746 374.666 157.574C375.541 165.912 375.808 174.296 375.367 182.672C375.145 186.847 374.738 191.02 374.177 195.162C373.893 197.253 373.559 199.331 373.197 201.405C373.016 202.446 372.824 203.483 372.618 204.52C372.55 204.869 372.504 205.218 372.455 205.566C369.475 214.186 366.767 222.894 364.426 231.711C361.505 242.697 359.134 253.839 357.418 265.079C357.284 261.184 357.017 257.297 356.663 253.437C355.773 243.78 354.221 234.195 352.359 224.682C350.459 214.987 348.204 205.365 345.983 195.74C343.713 185.894 341.474 176.034 339.654 166.092C338.014 157.144 336.9 148.161 335.969 139.126L336.004 139.01L336.119 138.333C336.608 137.706 337.095 137.08 337.567 136.44C337.955 135.909 338.33 135.366 338.709 134.824C343.649 129.745 348.415 124.493 352.974 119.067C358.012 113.074 362.814 106.886 367.358 100.511C371.673 94.4596 375.988 88.1896 378.325 81.0648C380.493 74.4567 380.852 66.7873 377.563 60.4736C376.035 57.5404 373.756 54.9886 370.996 53.245L370.793 53.1259C368.681 51.8313 366.296 51.0061 363.759 50.8451C362.912 47.2334 361.415 43.6745 359.004 40.8478C357.817 39.4568 356.382 38.2448 354.723 37.4583L354.34 37.2962L354.312 37.2549L354.159 37.2177C352.535 36.5702 350.814 36.3854 349.06 36.575C346.973 36.8004 344.971 37.5085 342.995 38.1841C340.653 38.9858 338.276 39.7839 336.018 40.7968L335.918 40.8692C332.778 36.9676 328.593 34.2572 323.572 36.7313C319.829 38.5747 317.405 42.2518 314.679 45.2546C311.967 48.2397 308.856 50.8291 305.619 53.2191C299.132 58.0073 292.078 62.0484 286.017 67.4004C283.06 70.0067 280.244 72.9559 278.193 76.3397C276.167 79.6853 275.024 83.6354 276.433 87.437C276.671 88.073 276.97 88.6802 277.303 89.2652C276.606 89.4712 275.948 89.721 275.284 90.0602C268.92 93.3256 263.714 99.0661 261.311 105.826C260.097 109.243 259.63 113.299 261.408 116.612C262.986 119.549 265.983 121.215 269.093 122.095C272.579 123.079 276.263 123.29 279.856 123.621C284.02 124.001 288.192 124.333 292.356 124.756C300.237 125.557 308.123 126.679 315.698 129.056C319.167 130.147 322.564 131.46 325.805 133.114C327.945 134.204 329.974 135.465 331.933 136.835C332.801 137.766 333.625 138.744 334.389 139.794L334.662 139.877L335.079 140.018C335.307 144.919 335.913 149.819 336.58 154.675C337.269 159.697 338.105 164.693 339.037 169.673C340.902 179.611 343.144 189.47 345.38 199.329C347.553 208.914 349.724 218.502 351.544 228.163C353.329 237.652 354.774 247.217 355.509 256.848C355.907 262.052 356.045 267.262 355.989 272.472C355.152 269.5 354.231 266.556 353.209 263.642C350.299 255.355 346.68 247.311 342.353 239.667C337.995 231.967 332.94 224.684 327.345 217.835C327.046 217.474 326.448 217.815 326.543 218.248L326.569 218.352C326.352 218.51 326.221 218.784 326.363 219.098C326.612 219.642 326.867 220.182 327.12 220.725C328.084 224.811 329.192 228.856 330.514 232.842C333.338 241.346 336.897 249.613 341.167 257.493C343.284 261.398 345.57 265.212 348.022 268.919C350.365 272.466 352.852 275.98 355.648 279.194C355.265 282.934 354.94 286.681 354.72 290.433C354.475 294.617 354.335 298.803 354.291 302.987L354.173 303.131L354.105 303.359C353.846 303.734 353.612 304.124 353.404 304.534C353.078 304.325 352.561 304.465 352.476 304.981C352.375 305.607 352.324 306.229 352.3 306.856C351.192 302.995 349.93 299.178 348.537 295.422C345.952 288.441 342.872 281.642 339.331 275.094C335.791 268.548 331.77 262.259 327.352 256.268C322.935 250.279 318.094 244.597 312.882 239.285C307.675 233.976 302.082 229.043 296.179 224.522C295.763 224.199 295.032 224.681 295.209 225.194C295.502 226.049 295.8 226.899 296.105 227.749Z" fill="#CA976D"/>
<path opacity="0.6" d="M24.8659 214.174C20.6461 216.993 20.8756 221.508 22.514 225.744L22.4123 225.789C20.5927 227.102 18.8875 228.606 17.1953 230.082C15.7687 231.327 14.3046 232.578 13.1809 234.115C12.2363 235.406 11.6003 236.841 11.3721 238.409L11.3323 238.546L11.3517 238.587L11.3047 238.962C11.1696 240.621 11.4712 242.297 12.0247 243.86C13.1508 247.035 15.2655 249.826 17.717 252.129C16.6926 254.194 16.2586 256.441 16.3168 258.687L16.3184 258.9C16.4353 261.858 17.4052 264.805 19.0152 267.336C22.4805 272.782 28.6653 275.98 34.8375 277.275C41.4915 278.672 48.3721 278.129 55.081 277.486C62.1481 276.81 69.1849 275.847 76.176 274.61C82.5045 273.492 88.791 272.132 95.0196 270.557C95.6167 270.506 96.2131 270.458 96.8067 270.394C97.5226 270.313 98.2357 270.215 98.9499 270.116L99.5329 270.332L99.6404 270.357C106.311 275.187 112.86 280.136 119.141 285.483C126.122 291.422 132.848 297.654 139.549 303.903C146.099 310.012 152.631 316.148 159.382 322.038C166.006 327.815 172.828 333.382 180.006 338.462C182.877 340.49 185.808 342.464 188.805 344.336C179.201 340.585 169.376 337.392 159.426 334.701C151.441 332.54 143.375 330.716 135.255 329.146C134.959 329.026 134.665 328.903 134.36 328.799C133.453 328.49 132.551 328.17 131.652 327.84C129.86 327.184 128.076 326.503 126.305 325.778C122.798 324.339 119.337 322.766 115.959 321.046C109.182 317.593 102.72 313.579 96.5695 309.11C95.2209 308.131 93.8931 307.121 92.579 306.093L92.3834 305.866L92.1765 305.772C91.5454 305.279 90.9191 304.777 90.2957 304.275C90.0888 303.957 89.9254 303.618 89.8021 303.263C91.7095 300.061 93.1473 296.556 94.3881 293.054C95.0872 291.083 95.7134 289.085 96.2451 287.063C96.5263 285.998 96.7836 284.93 97.0204 283.855C97.2185 282.948 97.4735 281.992 97.3345 281.058C97.2011 280.178 96.6757 279.317 95.8081 279.008C94.9553 278.704 94.1188 279.073 93.4898 279.659C92.842 280.261 92.3818 281.086 91.9534 281.849C91.4849 282.684 91.0834 283.558 90.7396 284.453C90.4052 285.321 90.1271 286.205 89.8893 287.099C89.8475 284.852 89.5972 282.611 88.8977 280.458C88.4349 279.03 87.7444 276.983 86.1689 276.437C84.3052 275.785 83.2414 277.804 82.8823 279.292C82.4908 280.91 82.3216 282.567 82.3153 284.226C81.9101 283.38 81.4394 282.559 80.8638 281.779C80.3196 281.037 79.694 280.347 78.9795 279.762C78.3838 279.277 77.6081 278.623 76.8003 278.593C76.0107 278.563 75.4648 279.155 75.3144 279.891C75.2119 280.383 75.256 280.871 75.3484 281.353C74.0832 279.902 72.3659 278.818 70.4711 278.568C69.0377 278.378 67.7326 278.882 66.9666 280.143C66.1778 281.441 66.2876 283.026 66.6515 284.438C67.2907 286.91 68.4458 289.154 69.926 291.187C68.0876 290.48 65.2928 290.52 64.7612 292.787C64.278 294.854 66.4988 296.397 67.9427 297.392C68.2382 297.598 68.5447 297.79 68.8488 297.989C67.933 298.151 67.0265 298.347 66.137 298.623C65.1492 298.931 63.6747 299.262 63.3546 300.414C63.0552 301.496 63.8443 302.434 64.7351 302.917C65.7351 303.464 66.8978 303.814 67.9839 304.145C72.4295 305.509 77.123 305.822 81.7514 305.727C84.3543 305.671 87.0241 305.572 89.5853 305.061C90.1581 305.889 90.9502 306.512 91.9631 306.6C95.8776 309.831 99.9707 312.833 104.246 315.582C110.692 319.727 117.499 323.338 124.549 326.349C125.772 326.871 127.003 327.368 128.24 327.856C120.793 326.561 113.31 325.467 105.808 324.563C87.674 322.38 69.4244 321.173 51.169 320.652C49.9497 320.617 48.727 320.596 47.5048 320.566L47.398 320.437C47.0509 320.187 46.6912 319.952 46.3305 319.72L45.9813 319.315L45.5161 319.194L45.5086 319.19L45.5063 319.188C45.2421 319.024 44.9789 318.858 44.7149 318.69L44.5768 318.645C42.9813 316.166 41.0762 313.892 39.0441 311.766C36.5736 309.181 33.8693 306.823 30.9641 304.739C28.066 302.659 24.9879 300.832 21.7605 299.312C20.1495 298.551 18.4987 297.841 16.8139 297.263C15.5138 296.816 13.5963 296.521 12.6193 297.765C11.4775 299.219 12.5838 301.281 13.2457 302.69C13.7082 303.678 14.2344 304.635 14.8242 305.553C15.162 306.08 15.5199 306.641 15.9278 307.15C14.5743 306.88 13.2129 306.648 11.8437 306.462C10.461 306.273 8.72577 305.837 7.40777 306.48C6.12266 307.106 6.06178 308.536 6.67148 309.668C7.27712 310.794 8.33328 311.748 9.24726 312.63C10.2018 313.556 11.2174 314.426 12.2766 315.233C12.9707 315.764 13.6926 316.259 14.423 316.738C12.0453 317.044 9.74357 317.85 7.60412 318.92C5.6312 319.907 3.67553 321.122 2.247 322.834C1.08802 324.224 0.198086 326.021 0.554497 327.872C1.03281 330.348 3.47101 331.494 5.70033 332.005C7.95507 332.521 10.3078 332.745 12.617 332.849L12.4182 332.932C11.4984 333.366 10.6497 333.92 9.87681 334.582C8.36613 335.868 7.13032 337.606 6.56852 339.522C6.30651 340.408 6.23252 341.417 6.64734 342.27C7.06979 343.14 7.94057 343.609 8.87572 343.715C9.82628 343.826 10.7859 343.655 11.7217 343.508C12.7854 343.343 13.8446 343.146 14.896 342.914C23.1291 341.11 30.9265 337.286 37.4305 331.929C39.9917 329.82 42.3115 327.485 44.4326 324.967L44.796 324.569L44.8148 324.514C45.6355 323.522 46.4262 322.501 47.1865 321.453L47.2971 321.234C64.6023 321.923 81.9059 322.959 99.1197 324.903C117.084 326.934 134.963 329.913 152.508 334.307C161.292 336.505 169.982 339.081 178.533 342.058C175.782 341.961 172.987 342.272 170.362 342.714C163.354 343.883 156.419 345.736 149.624 347.791C142.552 349.93 135.599 352.441 128.773 355.274C121.961 358.106 115.204 361.19 108.725 364.729C102.229 368.277 95.9248 372.539 91.2081 378.326C90.6297 379.034 90.0763 379.768 89.5519 380.518C89.1712 381.063 89.5781 381.687 90.2296 381.571C96.8836 380.402 103.492 378.987 110.041 377.33C116.591 375.672 123.081 373.771 129.491 371.638C135.872 369.516 142.178 367.159 148.388 364.576C154.628 361.981 160.773 359.155 166.806 356.113C172.838 353.069 178.76 349.806 184.552 346.326C185.259 345.9 185.965 345.471 186.669 345.04L186.676 345.035C190.738 346.591 194.761 348.248 198.741 350.012L198.962 350.226L199.459 350.329C200.428 350.807 201.404 351.273 202.387 351.717C202.892 351.946 203.403 352.162 203.917 352.372C208.6 354.582 213.196 356.953 217.715 359.46C209.574 360.863 201.538 362.851 193.632 365.255C184.898 367.912 176.332 371.115 167.987 374.813C159.662 378.501 151.554 382.676 143.721 387.318C135.902 391.956 128.361 397.058 121.149 402.596C113.933 408.141 107.041 414.117 100.546 420.492C100.271 420.763 100.002 421.038 99.7282 421.311L99.1241 421.622L99.071 421.963C98.7543 422.279 98.4363 422.593 98.1215 422.912C97.7034 423.334 98.2007 423.98 98.7208 423.844C107.332 421.575 115.842 418.923 124.213 415.89C132.624 412.844 140.897 409.416 149.005 405.631C157.045 401.875 164.921 397.767 172.61 393.334C180.361 388.864 187.907 384.044 195.22 378.891C202.499 373.762 209.542 368.299 216.333 362.539C216.981 361.988 217.62 361.428 218.262 360.871C218.71 360.735 219.17 360.625 219.632 360.535C231.491 367.253 242.805 374.912 253.671 383.157C269.685 395.308 284.608 408.724 299.676 422.001C301.531 423.634 303.39 425.254 305.286 426.836C305.808 427.271 306.483 426.525 305.992 426.05C298.689 418.95 290.962 412.25 283.278 405.566C275.704 398.981 268.017 392.521 260.122 386.323C251.511 379.569 242.636 373.125 233.432 367.202L233.332 367.206L220.063 359.127L220.017 359.072L219.988 359.078C216.683 357.215 213.332 355.425 209.936 353.719C206.891 352.19 203.801 350.745 200.691 349.35C199.435 345.696 197.804 342.15 196.082 338.7C194.283 335.094 192.327 331.568 190.222 328.135C185.971 321.207 181.094 314.662 175.698 308.587C173.169 305.741 170.495 303.037 167.724 300.426C167.412 299.981 167.104 299.536 166.79 299.093C166.608 298.84 166.332 298.818 166.111 298.917L166.041 298.85C165.744 298.578 165.204 298.893 165.353 299.292C168.192 306.792 171.618 314.065 175.686 320.98C179.725 327.845 184.399 334.336 189.586 340.38C191.41 342.504 193.305 344.562 195.259 346.567C191.142 344.248 187.114 341.777 183.208 339.103C175.98 334.157 169.125 328.683 162.484 322.977C155.725 317.166 149.181 311.111 142.641 305.057C135.914 298.829 129.191 292.596 122.233 286.624C118.746 283.633 115.201 280.71 111.571 277.89C108.061 275.164 104.489 272.466 100.744 270.064L100.823 269.672L100.882 269.419C100.404 268.344 100.009 267.253 99.672 266.149C99.4846 263.989 99.4158 261.824 99.5306 259.649C99.7026 256.355 100.211 253.091 100.929 249.873C102.498 242.847 105.195 236.146 108.142 229.595C109.698 226.134 111.33 222.706 112.921 219.265C114.291 216.294 115.797 213.305 116.605 210.122C117.325 207.281 117.377 204.172 115.787 201.601C113.992 198.702 110.595 197.229 107.362 196.632C100.964 195.452 94.0949 196.935 88.644 200.451C88.0766 200.818 87.5818 201.222 87.104 201.675C86.7956 201.149 86.4546 200.638 86.0634 200.162C83.7177 197.331 80.0975 196.436 76.5514 196.51C72.9642 196.585 69.3702 197.459 65.9827 198.598C59.031 200.929 52.6582 204.635 45.9562 207.556C42.6112 209.013 39.166 210.281 35.5916 211.057C31.9976 211.835 28.011 212.071 24.8659 214.174ZM101.643 421.048C105.033 419.549 108.361 417.891 111.704 416.311C115.915 414.321 120.121 412.32 124.337 410.34C132.73 406.394 141.098 402.396 149.402 398.264C157.655 394.159 165.865 389.961 174.007 385.631C182.181 381.283 190.305 376.834 198.306 372.175C202.289 369.854 206.247 367.494 210.172 365.082C211.347 364.361 212.544 363.59 213.778 362.885C208.315 367.475 202.7 371.887 196.919 376.073C189.74 381.272 182.328 386.152 174.72 390.7C167.111 395.25 159.295 399.444 151.305 403.281C143.324 407.116 135.169 410.592 126.878 413.695C118.577 416.8 110.136 419.534 101.591 421.883C101.22 421.984 100.85 422.081 100.483 422.182C100.867 421.8 101.255 421.423 101.643 421.048ZM141.52 390.007C149.259 385.261 157.279 380.963 165.528 377.171C173.75 373.388 182.198 370.094 190.805 367.297C198.668 364.742 206.662 362.693 214.73 360.918C214.099 361.238 213.487 361.578 212.899 361.916C209.081 364.112 205.376 366.515 201.59 368.767C193.559 373.545 185.43 378.16 177.222 382.621C169.046 387.061 160.783 391.345 152.48 395.541C144.172 399.737 135.825 403.856 127.468 407.953C119.364 411.924 111.204 415.772 103.063 419.665C108.233 414.7 113.636 409.976 119.263 405.532C126.366 399.923 133.807 394.739 141.52 390.007ZM167.145 301.554C171.118 307.337 175.169 313.072 179.125 318.869C183.525 325.316 187.886 331.786 192.212 338.283C193.415 340.089 194.619 341.898 195.821 343.709C196.941 345.395 198.088 347.053 199.262 348.701L198.556 348.379C193.242 343.194 188.327 337.625 183.917 331.648C179.216 325.276 175.06 318.494 171.525 311.407C169.921 308.186 168.466 304.899 167.145 301.554ZM170.431 304.329C174.455 308.455 178.233 312.827 181.718 317.4C186.565 323.763 190.866 330.545 194.555 337.639C196.393 341.173 198.013 344.8 199.666 348.42C198.765 346.895 197.851 345.388 196.884 343.899C195.821 342.257 194.755 340.615 193.681 338.976C191.569 335.75 189.446 332.529 187.312 329.32C182.991 322.821 178.63 316.349 174.23 309.906C172.961 308.05 171.701 306.187 170.431 304.329ZM91.5241 380.026C95.6822 374.642 101.22 370.538 107.079 367.135C113.375 363.479 120.04 360.396 126.729 357.529C133.378 354.677 140.159 352.126 147.051 349.912C153.901 347.712 160.861 345.86 167.903 344.373C172.732 343.352 178.072 342.52 182.987 343.644L183.692 343.908L183.192 344.003C182.376 344.183 181.558 344.365 180.744 344.551C179.114 344.922 177.488 345.305 175.861 345.684C172.606 346.44 169.364 347.24 166.117 348.027C159.658 349.595 153.206 351.186 146.757 352.793C140.609 354.326 134.461 355.887 128.472 357.966C122.402 360.076 116.608 362.808 111.099 366.115C105.568 369.431 100.336 373.206 95.1455 377.023C94.4915 377.506 93.848 377.993 93.2214 378.509C92.6464 378.983 93.2054 379.941 93.8641 379.512C96.5418 377.755 99.0675 375.749 101.682 373.898C104.323 372.027 106.999 370.204 109.737 368.481C115.14 365.085 120.795 362.172 126.78 359.945C132.718 357.736 138.848 356.087 144.979 354.511C151.379 352.867 157.788 351.258 164.193 349.642C170.606 348.022 177.026 346.432 183.425 344.752C183.895 344.63 184.356 344.479 184.819 344.335L185.019 344.408C179.571 347.724 174.021 350.866 168.357 353.798C162.382 356.889 156.297 359.757 150.111 362.4C143.925 365.043 137.642 367.457 131.28 369.642C124.917 371.826 118.474 373.776 111.967 375.485C105.464 377.194 98.8942 378.664 92.2799 379.89L91.5241 380.026ZM64.8593 300.095C67.7153 301.301 70.8156 302.052 73.8486 302.623C76.4781 303.116 79.1538 303.419 81.8307 303.574C83.9934 304.091 86.239 304.483 88.4606 304.477L88.4484 304.528C86.6853 304.527 84.9245 304.662 83.1643 304.708C81.0516 304.763 78.9374 304.774 76.8265 304.638C74.7606 304.509 72.6992 304.252 70.6746 303.807C69.647 303.58 68.6249 303.306 67.6237 302.978C66.701 302.676 65.5471 302.379 64.785 301.758C64.4126 301.451 64.0761 300.878 64.4316 300.432L64.8593 300.095ZM95.6553 280.128C96.0266 280.395 96.2482 280.929 96.2782 281.387C96.3391 282.266 96.056 283.175 95.8643 284.025C95.6497 284.964 95.422 285.899 95.1756 286.83C94.6816 288.69 94.1284 290.535 93.5061 292.357C92.3703 295.67 90.9514 298.854 89.5288 302.042L89.5059 301.74C90.2343 299.331 90.9227 296.908 91.6224 294.49C92.4982 291.462 93.4088 288.441 94.2811 285.412L95.018 282.854C95.2555 282.025 95.6327 281.14 95.6838 280.279L95.6553 280.128ZM83.8302 279.052C84.0553 278.315 84.5443 277.249 85.445 277.223C86.1851 277.202 86.703 277.909 87.0339 278.48C87.4549 279.207 87.7511 280.02 88.0029 280.819C89.081 284.233 89.0378 287.899 88.8308 291.436C88.6868 293.903 88.4281 296.439 88.4784 298.942L88.4748 299.01C88.4346 299.944 88.3961 300.884 88.4813 301.814C88.2683 301.381 88.0426 300.949 87.817 300.518C88.4903 294.799 88.1379 288.92 86.9767 283.312C86.5768 281.379 86.0222 279.492 85.5005 277.588C85.4055 277.245 84.8549 277.421 84.9741 277.75C86.1678 280.972 86.8259 284.466 87.2493 287.867C87.6677 291.223 87.7779 294.612 87.592 297.989C87.5578 298.59 87.5028 299.192 87.4491 299.79C87.0792 299.065 86.7202 298.334 86.3833 297.593C85.9266 296.581 85.5043 295.555 85.1226 294.514C84.5467 291.855 84.1059 289.14 83.2598 286.587C83.1106 284.938 83.1123 283.279 83.3241 281.639C83.4338 280.772 83.5765 279.888 83.8302 279.052ZM93.245 281.673C93.6231 281.056 94.1117 280.241 94.8477 280.008L95.1873 279.965L94.9897 280.127C94.6396 280.786 94.5203 281.609 94.3227 282.327C94.1125 283.094 93.9047 283.861 93.6924 284.626C93.2721 286.161 92.8674 287.698 92.4491 289.231C91.6249 292.27 90.8121 295.314 89.9761 298.352C89.7924 299.022 89.6185 299.695 89.4404 300.368C89.4348 299.172 89.5373 297.965 89.6025 296.79C89.7895 293.293 90.1202 289.763 91.1464 286.399C91.6521 284.747 92.342 283.148 93.245 281.673ZM66.602 291.873C67.8382 291.287 69.0107 291.933 70.2315 292.155L70.5742 292.043C72.8705 294.922 75.8195 297.339 78.8513 299.303C80.465 300.352 82.1425 301.296 83.8488 302.185C84.2774 302.409 84.7107 302.624 85.1416 302.842L84.3125 302.877C83.7894 302.893 83.2657 302.886 82.7404 302.887L82.7224 302.882C80.5922 302.391 78.491 301.751 76.4614 300.937C74.4424 300.128 72.4853 299.161 70.6212 298.044C69.6999 297.493 68.8013 296.906 67.9279 296.28C67.1917 295.755 66.4437 295.189 65.9557 294.411C65.3657 293.467 65.5312 292.379 66.602 291.873ZM67.8947 280.323C68.7476 282.032 69.8461 283.635 70.9367 285.2C72.0615 286.813 73.2494 288.386 74.4961 289.91C76.93 292.886 79.5479 295.71 82.3798 298.308C83.204 299.065 84.0443 299.801 84.8927 300.526C85.2946 300.868 85.7041 301.203 86.1195 301.531L86.2472 301.638C85.9479 301.497 85.644 301.359 85.3498 301.207C84.5433 300.791 83.7487 300.346 82.9722 299.876C81.3468 298.895 79.7943 297.798 78.3218 296.605C75.386 294.218 72.8033 291.441 70.6074 288.36C69.3693 286.622 68.253 284.786 67.2779 282.883L67.2705 282.879L67.267 282.849C67.2044 281.994 67.3845 281.022 67.8947 280.323ZM8.29382 342.454C13.3217 341.612 18.2631 340.006 22.9597 338.067C27.8494 336.046 32.5897 333.551 36.9948 330.615C34.4118 332.779 31.6243 334.693 28.7294 336.33C25.3086 338.264 21.6739 339.816 17.9122 340.943C16.0176 341.512 14.0894 341.971 12.1414 342.316C11.1661 342.489 9.37134 342.964 8.29382 342.454ZM7.4221 341.122C12.7838 339.209 18.0484 337.003 23.3495 334.926C28.5368 332.898 33.8001 330.979 38.8045 328.523L39.0196 328.416C38.6513 328.683 38.2863 328.954 37.9116 329.217C35.7048 330.771 33.4319 332.245 31.0748 333.566C26.3306 336.223 21.3166 338.386 16.1291 340.018C13.4229 340.871 10.6645 341.541 7.90334 342.189C7.70918 342.007 7.55672 341.768 7.47678 341.452L7.4221 341.122ZM7.65948 339.565C10.9593 337.851 14.2951 336.219 17.7535 334.843C19.46 334.164 21.1892 333.546 22.9351 332.979C23.8096 332.698 24.6881 332.43 25.5712 332.172C26.3981 331.932 27.3178 331.787 28.0965 331.42L28.1625 331.168C29.6273 330.999 31.1004 330.521 32.4829 330.059C34.0939 329.519 35.6729 328.885 37.211 328.162C38.7654 327.429 40.2769 326.644 41.7737 325.799C40.8672 326.528 39.8676 327.138 38.8383 327.681C36.4367 328.952 33.9114 329.997 31.405 331.034C26.237 333.168 21.0283 335.205 15.8388 337.279C13.0236 338.4 10.1914 339.494 7.40915 340.698C7.4285 340.317 7.51875 339.934 7.64509 339.565L7.65948 339.565ZM76.2862 279.829C76.6699 281.364 77.2506 282.831 77.8544 284.295C78.461 285.767 79.1107 287.222 79.7992 288.655C81.1812 291.535 82.7339 294.324 84.4102 297.037C84.619 297.379 84.8415 297.713 85.0544 298.047C85.1675 298.385 85.2825 298.726 85.4125 299.055L85.0384 298.621C83.8786 297.219 82.8114 295.739 81.8348 294.204C79.8898 291.145 78.3229 287.853 77.179 284.412C76.8925 283.549 76.6304 282.679 76.4 281.798C76.2727 281.322 75.9734 280.352 76.2862 279.829ZM66.0306 299.662C67.2897 299.233 68.5934 298.939 69.9124 298.767L70.0254 298.73C72.756 300.388 75.6853 301.738 78.7273 302.716C75.7011 302.455 72.686 301.91 69.7534 301.146C68.2969 300.765 66.8631 300.304 65.4263 299.856L66.0306 299.662ZM68.0943 280.094C68.3696 279.801 68.7056 279.568 69.1381 279.452C70.5285 279.077 72.2113 279.805 73.3637 280.534C74.2549 281.1 75.0294 281.825 75.6712 282.655C76.6655 286.278 78.1243 289.772 79.9893 293.032C81.0555 294.898 82.258 296.688 83.5818 298.383L83.904 298.784L83.4702 298.416C82.0066 297.143 80.5926 295.815 79.2268 294.44C76.4623 291.66 73.9478 288.651 71.6753 285.46C70.4241 283.706 69.3223 281.858 68.0943 280.094ZM67.4109 283.827C70.5842 290.288 75.5665 295.801 81.5489 299.792L81.2765 299.645C78.5791 298.118 76.0155 296.364 73.7725 294.212C71.6199 292.144 69.7522 289.724 68.5127 286.994C68.0621 285.999 67.6334 284.922 67.4109 283.827ZM1.73221 326.159C7.45251 324.889 13.2796 324.506 19.1219 324.331C24.9957 324.155 30.913 324.091 36.7562 323.405C38.3481 323.217 39.9342 322.966 41.5041 322.649C42.1351 322.522 42.7694 322.384 43.4005 322.236C42.5261 322.879 41.6291 323.496 40.7115 324.079L40.2078 324.389C39.5627 324.728 38.9021 325.043 38.2327 325.331C35.5452 326.482 32.6948 327.222 29.8107 327.679C24.0019 328.596 18.0962 328.419 12.2385 328.407C8.89075 328.401 5.5442 328.491 2.21806 328.894C1.62194 328.076 1.52089 327.106 1.73221 326.159ZM2.39637 329.113C8.33903 328.538 14.3211 328.897 20.2798 328.927C25.0334 328.952 29.8633 328.659 34.4672 327.427C30.5736 329.149 26.4519 330.39 22.2486 331.063C17.8966 331.759 13.4489 331.879 9.0711 331.367C6.90709 331.116 4.18292 330.917 2.55123 329.3L2.39637 329.113ZM76.4824 279.626C77.0429 279.251 78.1355 280.331 78.5013 280.655C79.1483 281.224 79.7186 281.871 80.2116 282.578C81.2706 284.099 81.9782 285.793 82.5116 287.552C82.6268 288.496 82.7906 289.434 82.9972 290.359C83.2414 291.451 83.5476 292.53 83.9031 293.592C84.0513 294.309 84.2155 295.032 84.3923 295.749C83.8793 294.928 83.3758 294.102 82.8917 293.261C81.3082 290.491 79.8795 287.627 78.626 284.691C77.9189 283.033 77.3078 281.336 76.5537 279.699L76.4824 279.626ZM12.393 333.988C13.1747 333.547 14.0532 333.158 14.9307 332.897C16.5619 332.894 18.1966 332.814 19.8217 332.644C21.6315 332.46 23.4305 332.173 25.2102 331.793C24.762 331.929 24.3144 332.061 23.8667 332.207C22.502 332.647 21.1472 333.121 19.803 333.629C17.1303 334.638 14.4968 335.756 11.9233 337.005C10.5159 337.687 9.13537 338.414 7.78096 339.199L8.05082 338.59C8.52651 337.595 9.16197 336.702 9.92208 335.908C10.6469 335.149 11.4779 334.505 12.393 333.988ZM7.42182 308.12C12.3991 309.345 17.3671 310.577 22.2709 312.075C27.2308 313.589 32.108 315.369 36.9228 317.295C38.2918 317.842 39.6471 318.412 41.0061 318.981C41.5359 319.202 42.0656 319.434 42.5953 319.663L42.8771 319.848L43.4355 320.224C41.6794 320.162 39.987 319.837 38.2802 319.288C35.9916 318.555 33.7511 317.668 31.4799 316.891C26.5944 315.221 21.6259 313.749 16.6351 312.434C14.0631 311.756 11.4791 311.124 8.86868 310.61C8.57733 310.306 8.28778 309.995 8.03361 309.663C7.73166 309.26 7.35738 308.728 7.40666 308.193L7.42182 308.12ZM17.5728 317.269C23.8968 319.329 30.5254 320.549 37.13 321.086C38.0782 321.16 39.0281 321.223 39.978 321.278C36.4639 321.808 32.8728 321.796 29.3568 321.251C25.2332 320.611 21.2376 319.251 17.5728 317.269ZM13.3193 298.716C13.8993 297.334 16.1386 298.163 17.1064 298.528C18.6654 299.115 20.1995 299.771 21.7008 300.495C27.6639 303.364 33.1191 307.271 37.7852 311.963C39.7474 313.936 41.517 316.073 43.2274 318.263C42.15 317.357 41.0657 316.459 39.9853 315.558C38.0266 313.926 36.0492 312.314 34.035 310.748C30.0461 307.651 25.8983 304.79 21.5198 302.262C19.0423 300.831 16.4844 299.498 13.8251 298.439L13.7207 298.644C18.3281 300.845 22.788 303.308 26.9352 306.298C31.0266 309.243 34.9966 312.312 38.8586 315.558C39.7492 316.308 40.6295 317.075 41.5108 317.844C40.2266 316.951 38.8977 316.121 37.5569 315.336C34.9281 313.801 32.1995 312.439 29.3932 311.259C25.5421 309.642 21.5401 308.378 17.462 307.474C17.0752 306.698 16.4722 306.04 15.9884 305.319C15.4932 304.58 15.0401 303.813 14.6273 303.023C14.2182 302.233 13.8503 301.42 13.537 300.586C13.3288 300.02 13.0711 299.309 13.3193 298.716ZM9.26467 311.018C13.9265 312.169 18.5784 313.329 23.1768 314.731C25.6776 315.496 28.1581 316.361 30.6144 317.266C32.9319 318.12 35.22 319.055 37.5449 319.884C38.1028 320.083 38.6786 320.277 39.2656 320.45C38.8342 320.434 38.4054 320.425 37.9756 320.403C35.9608 320.292 33.9453 320.091 31.9424 319.831C27.9866 319.316 24.0459 318.548 20.1879 317.526C18.7126 317.135 17.252 316.692 15.7937 316.24L15.1412 315.842C13.0102 314.463 11.0359 312.838 9.26467 311.018ZM2.34058 324.617C3.47735 322.674 5.39865 321.362 7.32678 320.291C9.77004 318.933 12.4145 318.092 15.1159 317.419L15.2989 317.295C18.8512 319.478 22.763 321.06 26.833 321.984C29.4839 322.59 32.1993 322.902 34.9144 322.918C32.877 323.176 30.8264 323.359 28.7763 323.478C22.88 323.825 16.9693 323.813 11.0851 324.389C7.95707 324.695 4.84068 325.144 1.79063 325.914C1.91613 325.467 2.10127 325.026 2.34058 324.617ZM7.5129 307.843C8.01046 306.926 10.083 307.374 10.844 307.463C16.5875 308.16 22.2392 309.591 27.6299 311.689C31.3904 313.153 34.9595 314.969 38.4049 317.023L38.0776 316.895C35.6697 315.966 33.2418 315.086 30.7954 314.266C25.8596 312.604 20.8658 311.092 15.8282 309.777C13.0742 309.06 10.3064 308.384 7.5129 307.843ZM79.5156 197.856C80.3119 197.988 81.0929 198.187 81.844 198.489C83.5946 199.195 84.9748 200.415 85.9621 202.018C87.0326 203.756 87.6275 205.743 88.1901 207.692C89.3082 211.56 90.4131 215.434 91.4487 219.327C93.5048 227.068 95.2628 234.915 96.0505 242.899C96.7724 250.2 96.3044 257.71 98.3776 264.822L98.5263 265.289C98.577 265.854 98.6417 266.415 98.714 266.976L98.4276 266.618L98.1375 266.233C96.2872 256.973 94.2289 247.755 92.2352 238.525C91.1831 233.656 90.112 228.791 89.0479 223.924C88.0667 219.447 87.1359 214.956 85.7348 210.584C84.2891 206.08 82.3359 201.672 79.5156 197.856ZM50.9265 206.615C54.472 204.913 57.9823 203.129 61.599 201.585C64.8675 200.191 68.2333 198.992 71.7211 198.285L72.4337 198.152C73.9974 199.92 75.3788 201.818 76.5129 203.899C77.7625 206.189 78.7332 208.625 79.503 211.116C81.0535 216.129 81.7519 221.335 82.4385 226.522C83.1258 231.701 83.8324 236.878 85.2177 241.924C86.5513 246.775 88.3947 251.485 90.6918 255.964C91.9865 258.485 93.4245 260.929 95 263.284C95.8 264.485 96.6401 265.66 97.5119 266.81L97.9616 267.4C97.6104 267.252 97.264 267.098 96.9126 266.95C95.398 265.594 93.8658 264.261 92.4431 262.8C90.636 260.946 88.9442 258.98 87.351 256.94C84.1503 252.841 81.3559 248.453 78.6929 243.995C73.4446 235.215 68.6803 226.097 62.3445 218.023C59.0184 213.786 55.2575 209.835 50.9265 206.615ZM25.8293 215.05C29.416 219.527 33.4215 223.703 37.5019 227.724C41.7823 231.948 46.2587 235.977 50.9053 239.793C55.5536 243.611 60.3751 247.21 65.3558 250.585C70.3344 253.961 75.4784 257.093 80.7564 259.977C85.9514 262.817 91.2675 265.424 96.6909 267.794L96.2998 267.779C89.3234 265.196 82.3462 262.621 75.3698 260.042C67.5697 257.156 59.6721 254.437 52.1109 250.96C44.7577 247.579 37.717 243.34 32.0135 237.535C29.1733 234.647 26.7054 231.385 24.8296 227.789C23.3959 225.045 21.9747 221.661 22.9611 218.534C23.4598 216.955 24.5203 215.85 25.8293 215.05ZM72.9521 198.053C74.7108 197.752 76.5556 197.575 78.3531 197.717C83.9865 204.859 86.2062 213.93 88.1283 222.647C90.2553 232.292 92.3859 241.934 94.5308 251.575C95.5842 256.303 96.6452 261.028 97.7644 265.741C97.2152 265.015 96.6754 264.281 96.155 263.534C94.6937 261.437 93.3451 259.26 92.116 257.021C89.6471 252.521 87.6585 247.76 86.1934 242.841C84.7031 237.832 83.8927 232.694 83.1906 227.528C82.4839 222.347 81.8078 217.125 80.3591 212.088C78.908 207.036 76.6541 201.881 72.9521 198.053ZM18.6777 252.994C21.7879 255.669 25.4212 257.661 29.218 259.173C33.0461 260.702 37.0306 261.791 41.0166 262.821C44.7223 263.78 48.4313 264.733 52.1475 265.641C59.4787 267.432 66.87 269.025 74.3601 269.974C78.8444 270.545 83.3621 270.871 87.8822 270.869C87.0462 271.059 86.2087 271.24 85.3713 271.424C83.791 271.72 82.2052 271.989 80.6115 272.205C75.2806 272.919 69.892 273.184 64.5178 273.01C59.1024 272.834 53.7035 272.234 48.3898 271.172C43.0938 270.114 37.8925 268.619 32.8526 266.677C27.801 264.733 22.9757 262.334 18.3013 259.613C17.9901 259.432 17.6777 259.262 17.3661 259.085C17.2216 257.283 17.3821 255.455 17.9076 253.694C18.0158 253.329 18.1396 252.979 18.2734 252.632L18.6777 252.994ZM26.0906 214.904C27.7199 213.977 29.684 213.484 31.4364 213.123C33.2363 212.755 35.0543 212.486 36.8424 212.056C38.589 211.632 40.3077 211.096 41.9977 210.483C44.7813 209.474 47.4725 208.263 50.1397 206.993C58.2972 213.041 64.2932 221.301 69.5563 229.883C74.9684 238.71 79.7546 247.945 86.0317 256.215C87.7534 258.484 89.5846 260.678 91.5612 262.732C92.7023 263.922 93.8924 265.106 95.1571 266.191C91.0877 264.415 87.0797 262.502 83.1469 260.438C77.8472 257.657 72.6887 254.603 67.6691 251.345C62.623 248.068 57.7274 244.556 53.0106 240.823C48.2938 237.09 43.7501 233.138 39.4096 228.972C35.0925 224.829 30.9641 220.483 27.0435 215.961C26.7313 215.602 26.4095 215.254 26.0906 214.904ZM12.3932 240.557C13.7579 242.68 15.701 244.38 17.7934 245.82C20.4256 247.631 23.266 249.162 26.0851 250.664C31.4907 253.542 37.0549 256.125 42.7539 258.371C48.4509 260.618 54.2829 262.576 60.1977 264.159C66.1145 265.746 72.1275 266.995 78.1938 267.857C80.5089 268.187 82.8335 268.451 85.1605 268.675L85.1173 268.723C84.8319 268.852 84.5658 269.014 84.3223 269.233L84.0908 269.277L83.8726 269.445C81.8155 269.365 79.7627 269.221 77.715 269.02C70.3912 268.297 63.1538 266.895 55.9865 265.254C52.3914 264.428 48.8136 263.54 45.2398 262.632C41.3817 261.653 37.5061 260.714 33.7147 259.501C26.2513 257.115 18.5947 253.274 14.4147 246.337C13.3762 244.612 12.5724 242.595 12.3932 240.557ZM87.05 267.165L86.8724 267.145L86.8719 266.998L87.05 267.165ZM22.7194 226.263C23.774 228.8 25.2908 231.205 26.6111 233.05C31.4226 239.77 38.0981 244.933 45.283 248.905C52.5794 252.937 60.4274 255.829 68.2251 258.721C73.6866 260.745 79.1473 262.772 84.6068 264.798L84.8749 265.337C85.4425 265.694 85.7949 266.355 85.8336 267.026C83.983 266.808 82.1336 266.556 80.2984 266.24C74.4447 265.229 68.7176 263.705 63.083 261.83C61.6473 261.354 60.2075 260.915 58.7992 260.368C57.4099 259.826 56.0333 259.261 54.6673 258.662C51.9387 257.467 49.2589 256.164 46.6322 254.756C41.3829 251.937 36.3508 248.708 31.6175 245.089C26.89 241.473 22.4506 237.471 18.374 233.136C17.9016 232.631 17.4262 232.132 16.9558 231.625C18.1122 230.555 19.3048 229.519 20.4625 228.455C21.2382 227.739 21.9975 227.03 22.7194 226.263ZM17.4209 259.673C19.3056 260.931 21.3322 262.008 23.3353 263.043C25.7634 264.298 28.2466 265.446 30.7791 266.482C35.7948 268.538 40.9919 270.175 46.2772 271.387C51.577 272.6 56.9708 273.384 62.3979 273.725C66.016 273.954 69.6512 273.953 73.2766 273.769C68.3813 274.59 63.4629 275.276 58.5291 275.818C51.9397 276.544 45.1708 277.326 38.5504 276.589C32.3276 275.892 26.0191 273.64 21.6933 268.94C19.3486 266.394 17.8267 263.095 17.4209 259.673ZM16.7375 231.831C20.6496 236.339 25.0372 240.441 29.6937 244.17C34.3595 247.906 39.3304 251.264 44.5336 254.2C47.1482 255.675 49.8235 257.046 52.5495 258.311C55.2737 259.574 58.0622 260.673 60.8381 261.821C63.5967 262.962 66.4583 263.86 69.3273 264.676C72.216 265.495 75.1373 266.203 78.083 266.784C78.5072 266.869 78.9346 266.932 79.361 267.01C73.8028 266.27 68.2733 265.263 62.8163 263.96C56.9354 262.555 51.1251 260.847 45.4431 258.773C39.7594 256.696 34.1833 254.306 28.7874 251.572C26.07 250.193 23.3845 248.744 20.7588 247.2C17.8348 245.481 14.9083 243.536 12.9028 240.745C12.7091 240.477 12.5399 240.196 12.3687 239.916C12.3505 238.959 12.459 238.004 12.778 237.075C13.3754 235.318 14.6183 233.869 15.9305 232.594C16.1947 232.336 16.468 232.084 16.7375 231.831ZM98.2759 252.547L98.2701 252.565L97.9948 252.906L97.9837 253L97.9251 253.046L97.9401 252.546L98.2759 252.547ZM90.6368 200.841C90.9383 200.666 91.2414 200.496 91.553 200.338C92.9437 199.623 94.409 199.054 95.909 198.613C98.9349 197.728 102.146 197.39 105.285 197.704C106.001 197.775 106.734 197.882 107.464 198.03L107.465 198.035C109.309 201.528 109.523 205.779 108.993 209.624C108.404 213.911 106.887 217.994 105.445 222.049C102.598 230.072 100.441 238.312 99.1044 246.721C98.8553 248.282 98.641 249.846 98.4538 251.416L98.2692 251.677L98.0693 251.807L97.9587 251.815C98.0032 250.275 98.0689 248.734 98.1692 247.197C98.4281 243.141 98.834 239.093 99.1199 235.04C99.6746 227.227 99.6201 219.239 97.0684 211.744C95.6973 207.719 93.5982 203.957 90.664 200.861L90.6368 200.841ZM108.245 198.204C110.43 198.748 112.527 199.724 113.997 201.435C115.905 203.657 116.015 206.642 115.395 209.375C114.696 212.453 113.251 215.329 111.946 218.18C110.387 221.578 108.786 224.956 107.251 228.362C104.588 234.267 102.125 240.295 100.459 246.562C100.073 247.489 99.6881 248.415 99.3112 249.343C99.9649 244.63 100.831 239.954 101.988 235.326C103.024 231.173 104.265 227.073 105.688 223.036C107.132 218.944 108.714 214.858 109.427 210.561C110.122 206.379 109.921 202.115 108.245 198.204ZM87.6342 202.671C88.4827 202.178 89.3042 201.643 90.1465 201.134L90.2344 201.342C95.5587 206.961 97.8589 214.669 98.5824 222.227C99.3361 230.127 98.3926 238.032 97.8105 245.911C97.7354 246.949 97.6679 247.988 97.6101 249.026C97.5859 248.506 97.5626 247.983 97.5349 247.463C97.1127 239.377 95.6603 231.415 93.7318 223.564C92.7484 219.57 91.6538 215.605 90.5301 211.649C89.9652 209.663 89.431 207.662 88.8019 205.694C88.4753 204.671 88.1 203.646 87.6342 202.671Z" fill="#CA976D"/>
<path opacity="0.6" d="M284.553 173.019C284.877 174.14 285.186 175.273 285.485 176.406C276.477 180.15 269.038 186.87 262.339 193.889C255.355 201.203 248.906 209.106 241.109 215.553C237.592 218.461 233.794 221.033 229.729 223.089C229.325 223.092 228.92 223.098 228.517 223.122L228.049 222.913L228.097 222.833C230.526 218.827 232.532 214.557 234.334 210.195C236.489 204.978 238.393 199.647 240.464 194.389C242.533 189.13 244.784 183.929 247.619 179.074C250.615 173.945 254.302 169.282 258.522 165.187C262.746 161.09 267.522 157.577 272.656 154.755C273.164 154.475 273.679 154.208 274.192 153.945C280.03 158.483 282.552 166.105 284.553 173.019ZM286.293 203.329C285.072 206.787 283.12 209.87 280.666 212.505C275.1 218.484 267.57 221.676 260.037 224.323C258.222 224.959 256.396 225.567 254.566 226.168C250.262 225.389 245.88 225.085 241.554 224.997C241.197 224.99 240.838 224.994 240.479 224.994C238.825 224.373 237.122 223.907 235.398 223.586C242.066 222.29 248.683 220.731 255.087 218.519C263.565 215.588 271.505 211.327 278.278 205.376C281.853 202.236 285.08 198.696 287.902 194.825C287.751 197.731 287.25 200.619 286.293 203.329ZM258.932 228.603C265.586 230.445 272.205 233.987 276.554 239.721C278.386 242.138 279.771 245.095 279.925 248.145C279.999 249.602 279.741 251.049 279.092 252.323L278.782 252.87C275.54 248.446 271.997 244.141 267.711 240.753C265.545 239.042 263.245 237.526 260.759 236.376C258.684 235.419 256.511 234.703 254.307 234.194C249.81 233.155 245.201 232.95 240.645 232.95C235.996 232.948 231.355 233.172 226.701 233.027C224.373 232.955 222.045 232.782 219.728 232.444C218.01 232.195 216.327 231.816 214.653 231.36C217.63 230.113 220.666 229.013 223.771 228.087C224.819 227.774 225.873 227.475 226.93 227.191C227.731 227.055 228.532 226.929 229.336 226.828C231.818 226.51 234.314 226.415 236.804 226.201C237.117 226.212 237.427 226.217 237.738 226.231L238.411 226.434C238.657 226.518 238.838 226.436 238.954 226.287C239.86 226.336 240.766 226.387 241.669 226.418C243.642 226.488 245.612 226.571 247.581 226.726C251.392 227.024 255.213 227.572 258.932 228.603ZM265.401 259.516C265.101 259.627 264.805 259.749 264.506 259.867L264.487 259.833C259.12 253.48 252.14 248.736 244.406 246.206C236.181 243.513 227.477 243.396 219.288 240.545C217.162 239.803 215.079 238.881 213.122 237.72C211.451 236.731 209.924 235.533 208.497 234.204C210.264 233.312 212.06 232.473 213.879 231.691C217.33 232.837 220.941 233.345 224.534 233.574C229.138 233.865 233.739 233.705 238.337 233.659C242.902 233.613 247.502 233.67 252.043 234.471C256.833 235.313 261.408 237.07 265.457 239.968C270.05 243.255 273.833 247.662 277.237 252.193C277.582 252.653 277.922 253.119 278.262 253.583C277.534 254.48 276.619 255.204 275.627 255.785C272.494 257.621 268.771 258.242 265.401 259.516ZM254.882 264.994C251.632 267.211 248.641 269.822 245.979 272.749C243.437 275.544 241.166 278.582 238.788 281.52C236.477 284.377 234.051 287.179 231.189 289.468L231.052 289.571C229.685 288.335 228.542 286.791 227.556 285.232C226.501 283.563 225.623 281.786 224.872 279.959C223.346 276.247 222.38 272.35 221.471 268.461C220.543 264.491 219.664 260.502 218.318 256.64C217.022 252.921 215.348 249.327 213.348 245.932C211.181 242.247 208.635 238.752 205.669 235.693C206.476 235.25 207.29 234.818 208.109 234.4C210.606 237.045 213.851 238.928 217.13 240.284C220.95 241.862 224.958 242.77 228.971 243.523C233.279 244.331 237.623 244.969 241.872 246.139C245.891 247.244 249.75 248.925 253.33 251.17C257.203 253.601 260.73 256.657 263.702 260.197C260.613 261.496 257.652 263.104 254.882 264.994ZM222.171 294.093C221.749 294.207 221.322 294.305 220.894 294.396L220.888 294.379C220.396 293.531 219.85 292.721 219.368 291.866C218.875 290.988 218.398 290.099 217.94 289.198C217.041 287.429 216.22 285.618 215.473 283.776C213.99 280.119 212.808 276.34 211.951 272.498C211.077 268.574 210.62 264.611 210.326 260.622C210.03 256.626 209.816 252.609 209.046 248.654C208.24 244.524 206.834 240.218 204.122 236.908C204.339 236.674 204.554 236.44 204.769 236.207L204.826 236.149C204.985 236.059 205.149 235.976 205.31 235.885C207.839 238.788 210.194 241.841 212.212 245.137C214.319 248.577 216.073 252.229 217.447 256.017C220.226 263.672 221.03 271.855 223.971 279.457C224.747 281.462 225.669 283.419 226.786 285.257C227.845 286.999 229.109 288.526 230.469 290.014C227.969 291.88 225.199 293.282 222.171 294.093ZM206.166 293.148C205.877 292.499 205.546 291.867 205.258 291.215C204.884 290.376 204.536 289.526 204.213 288.665C203.574 286.97 203.033 285.242 202.589 283.489C201.691 279.937 201.215 276.281 201.156 272.644C201.095 268.902 201.569 265.245 202.255 261.606C202.947 257.939 203.777 254.286 204.042 250.536C204.317 246.644 204.036 242.523 202.32 238.903C202.816 238.342 203.317 237.787 203.822 237.236C206.025 240.47 207.46 244.052 208.278 247.875C209.125 251.826 209.361 255.855 209.641 259.861C209.921 263.829 210.317 267.773 211.131 271.688C211.924 275.517 213.032 279.286 214.443 282.943C215.232 284.984 216.114 286.992 217.087 288.952C217.576 289.936 218.084 290.907 218.617 291.869C219.111 292.762 219.59 293.675 220.136 294.54C215.517 295.367 210.629 294.895 206.166 293.148ZM196.135 286.059L196.088 285.58L196.049 285.583L196.08 285.997C195.948 285.848 195.82 285.695 195.69 285.541C195.399 284.765 195.12 283.986 194.918 283.173C194.544 281.661 194.361 280.114 194.299 278.568C194.174 275.436 194.626 272.344 195.336 269.337C196.771 263.254 199.249 257.48 200.194 251.259C200.658 248.213 200.778 245.017 200.141 241.943L200.186 241.888C200.352 241.597 200.46 241.281 200.541 240.955C201.001 240.412 201.465 239.869 201.936 239.335C203.245 242.646 203.652 246.171 203.471 249.68C203.278 253.452 202.468 257.126 201.759 260.802C201.058 264.425 200.522 268.063 200.509 271.792C200.497 275.384 200.905 278.987 201.696 282.518C202.142 284.519 202.712 286.493 203.409 288.426C203.747 289.365 204.116 290.295 204.513 291.214C204.734 291.723 204.953 292.242 205.194 292.749C204.475 292.433 203.765 292.083 203.075 291.699C200.473 290.251 198.131 288.319 196.135 286.059ZM190.179 275.51C188.012 268.574 188.961 261.323 191.644 254.875C193.533 250.331 196.221 246.29 199.248 242.522C199.667 245.165 199.693 247.799 199.369 250.445C198.996 253.475 198.265 256.448 197.413 259.353C195.645 265.399 193.441 271.413 193.538 277.89C193.564 279.582 193.761 281.275 194.147 282.936C194.22 283.248 194.301 283.563 194.387 283.88C192.548 281.339 191.11 278.494 190.179 275.51ZM186.316 258.809C183.126 264.252 180.035 269.768 176.473 274.959C174.693 277.552 172.837 280.181 170.645 282.417C168.54 284.563 165.897 286.173 162.776 285.87C162.044 285.799 161.325 285.644 160.618 285.435C164.813 282.782 168.047 278.772 170.774 274.611C173.707 270.13 176.111 265.305 178.818 260.677C183.836 252.097 190.436 244.657 198.462 239.001C198.677 239.448 198.839 239.92 198.954 240.404C198.111 241.355 197.296 242.329 196.508 243.326C192.685 248.168 189.447 253.466 186.316 258.809ZM155.14 282.867C153.042 281.634 151.037 280.241 149.123 278.724C150.663 277.336 152.057 275.762 153.394 274.176C154.999 272.275 156.529 270.31 158.044 268.334C161.077 264.38 164.088 260.382 167.579 256.842C174.695 249.623 183.491 244.438 192.549 240.135C194.257 239.322 195.985 238.552 197.72 237.794L197.988 238.182C194.775 240.52 191.753 243.125 188.968 245.983C185.421 249.623 182.291 253.672 179.61 258.036C176.765 262.664 174.377 267.581 171.565 272.231C168.531 277.247 164.915 281.816 160.272 285.325C158.478 284.747 156.764 283.819 155.14 282.867ZM136.695 265.048L136.524 264.773L136.562 264.766C141.043 263.035 144.512 259.623 147.845 256.244C149.548 254.517 151.242 252.772 153.093 251.208C155.075 249.531 157.243 248.089 159.515 246.845C164.03 244.374 168.925 242.677 173.843 241.186C178.835 239.672 183.887 238.349 188.986 237.218C191.097 236.751 193.217 236.326 195.339 235.914C195.839 236.148 196.315 236.433 196.739 236.782L197.064 237.083C195.958 237.583 194.856 238.091 193.756 238.607C189.198 240.75 184.72 243.074 180.446 245.751C176.218 248.401 172.195 251.406 168.558 254.854C164.938 258.283 161.826 262.203 158.784 266.174C157.071 268.41 155.376 270.66 153.598 272.841C152.033 274.759 150.364 276.567 148.707 278.392C148.514 278.238 148.317 278.088 148.128 277.93C143.709 274.264 139.848 269.897 136.695 265.048ZM129.548 249.244C128.773 246.44 128.143 243.443 127.98 240.467C129.647 239.722 131.366 239.097 133.149 238.67C135.298 238.158 137.508 237.898 139.723 237.768C144.169 237.502 148.644 237.735 153.104 237.726C162.394 237.71 171.658 237.235 180.877 236.347C183.477 236.098 186.075 235.828 188.666 235.515C189.742 235.387 190.817 235.249 191.889 235.11L192.078 235.206C192.719 235.198 193.378 235.279 194.021 235.443C192.99 235.641 191.959 235.842 190.931 236.057C185.79 237.135 180.694 238.41 175.657 239.876C170.683 241.326 165.713 242.909 161.053 245.186C158.764 246.307 156.552 247.59 154.491 249.099C152.522 250.544 150.733 252.214 148.998 253.939C145.165 257.75 141.42 261.993 136.28 263.963L136.106 264.102C133.231 259.491 130.995 254.477 129.548 249.244ZM128.892 232.762C130.712 227.409 135.294 224.115 140.144 221.914C142.627 220.785 145.206 219.886 147.795 219.034C150.112 218.27 152.551 217.517 155.042 217.662C156.256 217.733 157.391 217.977 158.487 218.576L158.611 218.614C163.14 222.519 167.97 226.066 173.196 228.873C178.308 231.619 183.802 233.599 189.447 234.493L189.267 234.52C186.962 234.832 184.65 235.113 182.335 235.369C177.707 235.88 173.057 236.241 168.401 236.503C163.746 236.765 159.08 236.917 154.408 236.955C149.877 236.992 145.324 236.811 140.802 237.008C136.449 237.197 131.802 237.76 127.951 239.878C127.869 237.442 128.123 235.03 128.892 232.762ZM152.925 211.73C150.26 209.108 147.757 206.259 146.46 202.68C149.695 206.039 153.389 208.999 157.176 211.615C161.725 214.759 166.577 217.393 171.629 219.514C176.863 221.714 182.295 223.257 187.831 224.222C193.599 225.226 199.43 225.623 205.242 225.712C209.225 225.773 213.201 225.682 217.175 225.538C216.06 227.029 214.689 228.336 213.237 229.455C211.766 230.074 210.292 230.684 208.796 231.237L208.46 231.357L208.281 231.422C205.109 232.557 201.853 233.38 198.464 233.639C197.806 233.689 197.146 233.71 196.487 233.723L196.181 233.584C195.7 233.595 195.224 233.648 194.749 233.712C189.511 233.579 184.265 232.374 179.335 230.396C172.731 227.744 166.678 223.747 161.135 219.173C158.289 216.825 155.561 214.326 152.925 211.73ZM145.427 191.827C145.562 190.546 145.773 189.275 146.021 188.014C148.525 192.894 151.696 197.401 155.4 201.419C159.529 205.897 164.299 209.731 169.488 212.789C174.653 215.83 180.238 218.073 185.999 219.401C192.044 220.797 198.22 221.071 204.348 221.465C209.115 221.771 213.908 222.186 218.604 223.226C218.367 223.701 218.108 224.164 217.821 224.611C214.398 224.747 210.974 224.848 207.544 224.845C201.774 224.842 195.987 224.562 190.239 223.749C184.679 222.964 179.172 221.638 173.852 219.669C168.747 217.779 163.841 215.294 159.225 212.312C154.592 209.318 150.246 205.813 146.31 201.889L146.15 201.735C145.186 198.521 145.085 195.104 145.427 191.827ZM147.575 182.134C149.519 176.399 152.514 171.112 156.256 166.472C159.094 171.592 162.55 176.374 166.274 180.86C170.133 185.503 174.338 189.835 178.759 193.908C183.243 198.04 187.941 201.921 192.748 205.638C197.538 209.34 202.445 212.877 207.417 216.309C210.434 218.394 213.554 220.438 216.874 221.961C213.701 221.399 210.488 221.094 207.281 220.883C201.155 220.479 195.002 220.388 188.907 219.381C183.06 218.413 177.381 216.453 172.066 213.645C166.747 210.834 161.833 207.2 157.499 202.933C153.184 198.685 149.474 193.782 146.575 188.431C146.417 188.135 146.268 187.832 146.115 187.534C146.497 185.7 146.982 183.893 147.575 182.134ZM174.248 151.767C177.544 149.988 180.99 148.508 184.522 147.262C185.316 146.98 186.147 146.685 186.997 146.423C188.288 148.913 189.589 151.38 190.692 153.967C191.907 156.817 192.957 159.73 193.888 162.681C195.738 168.561 197.181 174.535 198.736 180.491C200.289 186.433 201.946 192.367 204.219 198.091C206.248 203.2 208.786 208.162 212.022 212.61C214.195 215.595 216.708 218.374 219.533 220.734C219.439 221.109 219.332 221.48 219.202 221.845C218.25 221.485 217.308 221.09 216.389 220.642C213.949 219.451 211.627 218.004 209.354 216.495C204.399 213.21 199.523 209.776 194.739 206.228C189.92 202.655 185.218 198.915 180.721 194.911C176.223 190.909 171.926 186.65 167.967 182.077C164.064 177.569 160.502 172.75 157.387 167.643C157.089 167.155 156.792 166.669 156.495 166.181C156.743 165.878 156.983 165.568 157.238 165.271C162 159.708 167.859 155.215 174.248 151.767ZM194.085 146.076C195.64 146.626 196.968 147.726 198.132 148.905C199.439 150.232 200.619 151.705 201.766 153.179C202.532 154.165 203.262 155.177 203.976 156.198C203.847 165.167 203.759 174.185 205.086 183.132C205.745 187.567 206.75 191.973 208.253 196.22C209.878 200.815 212.082 205.192 214.539 209.395C216.035 211.956 217.633 214.455 219.288 216.913L219.834 218.921L219.762 219.56C217.528 217.694 215.489 215.58 213.669 213.272C210.309 209.014 207.675 204.254 205.571 199.253C203.208 193.634 201.472 187.78 199.882 181.914C198.275 175.985 196.783 170.021 194.954 164.15C193.146 158.353 190.955 152.621 187.978 147.308C187.787 146.968 187.583 146.636 187.372 146.31C189.57 145.666 191.887 145.299 194.085 146.076ZM210.858 172.165C211.148 179.617 212.364 187.037 213.84 194.371C214.835 199.32 215.928 204.298 217.435 209.141C217.32 209.259 217.254 209.425 217.311 209.632C217.68 210.992 218.048 212.35 218.419 213.708L218.452 213.981L218.548 214.192C218.633 214.496 218.714 214.799 218.796 215.104C217.869 213.675 216.952 212.239 216.069 210.782C213.527 206.585 211.234 202.226 209.472 197.639C206.198 189.104 205.099 180.035 204.793 171.026C204.636 166.459 204.683 161.896 204.754 157.336C206.045 159.26 207.262 161.232 208.392 163.261C209.242 164.789 210.038 166.352 210.814 167.923C210.794 169.335 210.803 170.752 210.858 172.165ZM213.169 156.701C213.867 153.202 214.871 149.652 216.469 146.498C217.291 144.878 218.368 143.319 219.911 142.364C221.519 141.371 223.419 141.42 225.253 141.723C225.767 141.806 226.28 141.912 226.795 142.006C221.104 149.621 219.715 159.817 219.922 169.359C220.042 174.915 220.605 180.471 221.09 186.017C221.609 191.926 222.14 197.835 222.668 203.743C223.208 209.771 223.758 215.798 224.31 221.823C220.409 215.261 218.128 207.864 216.413 200.462C214.691 193.044 213.25 185.508 212.505 177.951C211.805 170.847 211.782 163.644 213.169 156.701ZM238.074 144.211C241.118 144.808 244.165 145.403 247.21 145.997C244.239 149.961 241.947 154.416 240.235 159.126C238.436 164.082 237.205 169.256 236.269 174.481C235.311 179.819 234.669 185.219 233.964 190.606C233.25 196.071 232.469 201.535 231.255 206.889C230.058 212.164 228.439 217.404 226.077 222.218L225.891 222.579L225.838 222.591L225.208 222.343C224.203 211.082 223.189 199.822 222.14 188.563C221.622 183.009 221.003 177.445 220.724 171.88C220.463 166.681 220.517 161.448 221.458 156.364C222.411 151.208 224.266 146.275 227.296 142.099C228.733 142.375 230.169 142.667 231.604 142.947C233.761 143.368 235.917 143.79 238.074 144.211ZM196.368 235.021L195.849 235.11L195.598 235.019C195.855 235.022 196.112 235.025 196.368 235.021ZM251.949 210.636C259.073 203.852 265.014 195.832 272.598 189.543C276.79 186.067 281.469 183.175 286.708 181.622C287.513 185.567 288.019 189.558 287.946 193.558L287.937 193.812L287.567 193.937C282.507 201.007 276.076 206.987 268.704 211.436C260.846 216.175 252.033 219.05 243.137 221.193C239.96 221.958 236.761 222.636 233.56 223.302C233.156 223.251 232.753 223.214 232.349 223.182C239.663 220.476 246.304 216.011 251.949 210.636ZM286.508 180.616L286.494 180.618C277.042 183.351 269.655 190.325 263.138 197.466C259.816 201.104 256.607 204.851 253.139 208.347C249.647 211.867 245.875 215.059 241.681 217.678C238.927 219.396 236.035 220.841 233.049 222.078C239.769 218.313 245.566 212.899 250.905 207.346C257.91 200.057 264.384 192.183 272.185 185.748C276.315 182.344 280.811 179.437 285.73 177.348C286.005 178.434 286.272 179.522 286.508 180.616ZM254.392 147.389C251.018 151.355 248.379 155.924 246.267 160.74C244.113 165.65 242.514 170.817 241.171 176.045C239.81 181.342 238.734 186.717 237.58 192.07C236.411 197.498 235.178 202.923 233.538 208.208C231.976 213.245 230.026 218.154 227.487 222.726C227.101 222.62 226.709 222.565 226.309 222.559C228.468 218.372 230.049 213.918 231.231 209.296C232.578 204.013 233.444 198.599 234.193 193.173C234.933 187.8 235.546 182.403 236.425 177.056C237.295 171.763 238.391 166.483 240.094 161.431C241.76 156.492 243.982 151.736 247.02 147.57C247.368 147.094 247.729 146.63 248.096 146.171C249.096 146.365 250.098 146.562 251.099 146.757C252.195 146.971 253.293 147.181 254.392 147.389ZM262.955 149.143C266.43 149.963 269.903 151.072 272.964 153.068L273.253 153.273C268.346 155.878 263.791 159.109 259.693 162.891C255.346 166.903 251.521 171.499 248.333 176.542C245.327 181.296 242.945 186.438 240.814 191.681C238.67 196.963 236.777 202.354 234.685 207.66C234.208 208.873 233.715 210.08 233.211 211.281C233.294 211.039 233.381 210.796 233.462 210.552C235.191 205.383 236.488 200.061 237.67 194.715C238.849 189.381 239.916 184.014 241.219 178.715C242.52 173.424 244.049 168.186 246.1 163.172C248.114 158.252 250.666 153.592 253.922 149.458C254.335 148.934 254.759 148.42 255.195 147.915L255.301 147.56C257.86 148.048 260.416 148.545 262.955 149.143ZM264.672 331.197C265.063 324.734 266.356 318.376 268.277 312.275C270.325 305.779 273.028 299.545 276.031 293.494C279.016 287.479 282.209 281.54 285.661 275.806C288.542 271.022 291.76 266.437 295.597 262.441C293.135 266.772 290.684 271.113 288.31 275.5C285.164 281.316 282.134 287.202 279.35 293.22C276.705 298.938 274.287 304.775 272.216 310.756C270.229 316.495 268.544 322.364 267.31 328.35C266.698 331.321 266.184 334.316 265.794 337.335C265.529 339.37 265.303 341.426 265.157 343.485C265.024 342.594 264.903 341.699 264.82 340.798C264.523 337.599 264.479 334.385 264.672 331.197ZM303.908 277.918C304.377 284.482 303.739 291.063 302.248 297.383C300.702 303.938 298.172 310.146 294.939 315.948C291.504 322.106 287.304 327.767 282.67 332.993C278.297 337.924 273.54 342.466 268.63 346.823C269.076 346.052 269.513 345.275 269.956 344.502C273.947 341.071 277.644 337.284 280.98 333.176C284.963 328.273 288.453 322.934 291.376 317.272C294.277 311.654 296.596 305.715 298.307 299.565C300.012 293.435 301.111 287.092 301.602 280.694C301.979 275.759 302.031 270.813 301.688 265.861C302.879 269.787 303.616 273.838 303.908 277.918ZM266.169 348.833L266.135 348.667C268.097 342.795 270.058 336.922 272.077 331.072C274.102 325.21 276.185 319.371 278.303 313.548C280.421 307.721 282.569 301.909 284.832 296.149C287.096 290.387 289.33 284.613 291.64 278.871C293.95 273.129 296.31 267.411 298.716 261.714L298.752 261.628C298.683 262.404 298.607 263.181 298.525 263.956C298.344 265.692 298.127 267.418 297.877 269.143C297.384 272.537 296.76 275.906 296.02 279.242C294.524 286.009 292.557 292.642 290.238 299.128C287.854 305.798 285.112 312.313 282.117 318.695C278.938 325.475 275.477 332.1 271.891 338.648C270.589 341.023 269.259 343.383 267.923 345.739C267.732 345.896 267.543 346.06 267.351 346.217L267.477 346.524C267.041 347.294 266.606 348.064 266.169 348.833ZM300.772 263.944C300.923 265.527 301.033 267.113 301.115 268.698C301.279 271.87 301.281 275.038 301.163 278.2C300.927 284.57 299.942 290.904 298.406 297.025C296.857 303.187 294.706 309.155 291.984 314.83C289.232 320.567 285.901 325.992 282.067 331.002C278.609 335.519 274.744 339.705 270.535 343.485C270.882 342.876 271.234 342.27 271.577 341.658C275.263 335.103 278.81 328.457 282.092 321.668C285.215 315.207 288.097 308.617 290.609 301.862C293.021 295.383 295.089 288.746 296.707 281.98C298.314 275.253 299.549 268.344 300.031 261.385L300.036 261.202C300.251 261.726 300.452 262.256 300.651 262.788C300.692 263.173 300.735 263.558 300.772 263.944ZM298.078 260.007C298.412 259.697 298.746 259.39 299.079 259.082L299.031 259.414C296.637 265.059 294.285 270.724 291.985 276.414C289.663 282.149 287.397 287.912 285.178 293.693C282.956 299.473 280.82 305.297 278.695 311.118C276.572 316.943 274.507 322.792 272.486 328.657C270.463 334.523 268.465 340.4 266.582 346.317C266.393 346.915 266.204 347.51 266.014 348.106C265.838 347.286 265.673 346.465 265.52 345.641C265.896 340.594 266.487 335.583 267.466 330.634C268.651 324.646 270.258 318.76 272.197 313.011C274.198 307.074 276.551 301.276 279.134 295.602C281.872 289.59 284.867 283.714 288.001 277.926C291.136 272.129 294.393 266.404 297.679 260.701C297.812 260.468 297.944 260.236 298.078 260.007ZM255.269 355.107C251.731 349.336 247.921 343.735 243.883 338.32C237.555 329.831 230.667 321.777 223.276 314.24C219.679 310.573 215.958 307.039 212.129 303.631C213.798 304.341 215.466 305.04 217.084 305.89C219.171 306.984 221.19 308.225 223.125 309.593C226.989 312.326 230.532 315.54 233.738 319.06C240.938 326.965 246.417 336.368 251.074 345.983C252.535 348.996 253.918 352.045 255.269 355.107ZM258.023 361.461C250.99 355.335 244.335 348.745 238.133 341.729C231.27 333.967 224.965 325.68 219.273 316.992C216.563 312.858 214.006 308.628 211.591 304.315C218.829 310.809 225.689 317.751 232.11 325.101C239.076 333.077 245.522 341.533 251.394 350.376C253.39 353.384 255.32 356.444 257.197 359.535C257.474 360.177 257.747 360.82 258.023 361.461ZM277.957 155.907C277.004 154.792 275.952 153.804 274.821 152.934L274.561 152.746C272.772 151.41 270.797 150.354 268.701 149.553C265.189 148.214 261.523 147.49 257.876 146.778C248.955 145.035 240.035 143.294 231.115 141.552C229.035 141.145 226.947 140.652 224.851 140.372C222.887 140.11 220.952 140.228 219.246 141.255C216.082 143.16 214.6 147.159 213.478 150.582C211.81 155.663 211.025 161.006 210.842 166.402C209.465 163.324 207.812 160.368 205.984 157.538C203.855 154.24 201.495 150.951 198.764 148.139C197.579 146.921 196.222 145.807 194.658 145.182C193.107 144.562 191.482 144.424 189.865 144.622C188.197 144.827 186.587 145.314 185.002 145.838C183.186 146.438 181.396 147.112 179.635 147.856C172.609 150.82 166.042 154.883 160.452 160.124C155.564 164.709 151.48 170.22 148.584 176.376C147.162 179.396 146.032 182.574 145.242 185.851C144.417 189.276 143.916 192.845 144.072 196.418C144.133 197.804 144.305 199.183 144.607 200.533L144.617 200.677L144.651 200.714C145.16 202.911 146.001 205.026 147.253 206.948C149.385 210.228 152.354 212.928 155.186 215.558C155.756 216.088 156.335 216.612 156.918 217.132C155.165 216.587 153.308 216.631 151.502 216.961C148.892 217.441 146.365 218.361 143.881 219.259C138.768 221.101 133.427 223.533 130.12 228.094C127.531 231.664 126.761 236.046 126.977 240.456L126.889 240.509C126.731 240.612 126.837 240.868 126.998 240.878C127.069 242.004 127.2 243.13 127.384 244.245C128.342 250.069 130.364 255.747 133.121 260.982C135.892 266.252 139.476 271.089 143.673 275.272C145.055 276.65 146.511 277.946 148.023 279.169C147.93 279.34 148.142 279.581 148.309 279.445L148.332 279.424C149.005 279.96 149.687 280.486 150.384 280.989C152.731 282.684 155.212 284.269 157.822 285.475C160.387 286.659 163.212 287.396 165.935 286.671C169.029 285.848 171.384 283.391 173.352 280.96C177.383 275.973 180.743 270.442 183.997 264.886C186.594 260.458 189.126 255.981 191.909 251.679C188.944 257.496 187.198 264.161 188.027 270.873C188.925 278.129 192.68 285.065 198.226 289.796C203.625 294.4 210.618 296.608 217.448 296.183C220.812 295.974 224.136 295.138 227.141 293.658C230.476 292.015 233.352 289.623 235.919 286.927C237.242 285.54 238.483 284.077 239.695 282.587C242.874 291.464 245.84 300.404 248.432 309.464C251.069 318.674 253.377 327.978 255.352 337.341C257.142 345.832 258.629 354.374 259.845 362.949L259.567 362.456C255.099 352.057 250.567 341.615 244.543 332.005C239.268 323.588 232.703 315.841 224.748 309.986C222.631 308.426 220.421 307.005 218.122 305.763C215.895 304.559 213.537 303.412 211.115 302.728C210.827 302.475 210.543 302.215 210.253 301.962C209.851 301.613 209.389 302.11 209.627 302.54C214.633 311.665 220.256 320.445 226.482 328.767C232.695 337.072 239.489 344.934 246.787 352.253C250.677 356.158 254.72 359.9 258.89 363.483L258.953 363.631C259.055 363.87 259.256 363.973 259.453 363.973L259.621 364.12L259.994 364.235L260.043 364.318C260.092 364.678 260.15 365.038 260.2 365.399C261.475 374.836 262.412 384.312 263.011 393.795C263.611 403.267 263.907 412.767 263.931 422.238C263.934 423.405 263.932 424.574 263.924 425.74C263.923 426.076 264.412 426.041 264.423 425.716C264.767 416.197 264.728 406.676 264.248 397.129C263.768 387.642 262.935 378.162 261.755 368.715C261.4 365.873 261.003 363.036 260.587 360.201C262.506 357.38 264.22 354.393 265.947 351.444C266.081 351.215 266.214 350.983 266.349 350.756L266.444 350.589C266.717 350.123 266.986 349.656 267.255 349.191C269.743 347.284 272.115 345.206 274.419 343.08C277.021 340.676 279.553 338.192 281.962 335.584C286.755 330.394 291.119 324.772 294.774 318.658C298.262 312.819 301.054 306.538 302.889 299.896C304.64 293.55 305.505 286.909 305.301 280.24C305.099 273.657 303.816 267.034 301.291 260.882L301.147 260.552C301.071 260.091 300.985 259.63 300.887 259.169C300.835 258.926 300.589 258.845 300.432 258.927L300.292 258.608C300.164 258.335 299.92 258.156 299.642 258.161C299.53 257.989 299.297 257.878 299.103 258.007L298.915 258.145C298.749 257.862 298.266 257.749 298.054 258.121C297.827 258.522 297.598 258.92 297.372 259.317C295.397 260.956 293.631 262.914 291.994 264.866C289.85 267.426 287.922 270.178 286.124 273.01C282.491 278.726 279.232 284.736 276.116 290.776C272.972 296.873 270.081 303.14 267.853 309.684C265.742 315.887 264.213 322.328 263.612 328.933C263.029 335.359 263.316 341.893 264.764 348.262C264.923 348.961 265.109 349.649 265.318 350.336C263.83 352.966 262.345 355.599 260.902 358.257C260.741 358.554 260.584 358.852 260.427 359.149C259.487 352.87 258.411 346.608 257.179 340.371C255.334 331.039 253.151 321.767 250.627 312.58C248.082 303.325 245.202 294.158 241.99 285.104C241.595 283.992 241.194 282.883 240.781 281.777L240.577 281.489C241.508 280.326 242.433 279.156 243.367 277.995C245.85 274.907 248.455 271.94 251.466 269.385C254.571 266.749 257.998 264.489 261.649 262.704C263.491 261.803 265.387 261.018 267.327 260.355C269.093 259.752 270.898 259.275 272.66 258.664C275.944 257.522 279.302 255.752 280.671 252.281C281.835 249.329 281.333 245.935 280.071 243.012C277.212 236.389 270.848 231.728 264.529 229.047C261.747 227.868 258.873 227.026 255.957 226.421C263.586 224.303 271.191 221.708 277.504 216.792C280.459 214.49 283.074 211.725 285.041 208.477C286.833 205.516 287.992 202.169 288.567 198.7C289.713 191.761 288.637 184.553 286.972 177.692C286.897 177.384 286.815 177.076 286.737 176.767L286.593 176.199C285.777 172.973 284.852 169.755 283.732 166.623C282.366 162.802 280.607 159.008 277.957 155.907Z" fill="#CA976D"/>
</g>
<defs>
<clipPath id="clip0_696_11">
<rect width="575" height="521" fill="white" transform="matrix(-1 0 0 1 530 0)"/>
</clipPath>
</defs>
</svg>
