<svg width="344" height="359" viewBox="0 0 344 359" fill="none" xmlns="http://www.w3.org/2000/svg">
<path opacity="0.6" d="M18.4839 68.1411C18.9592 68.2959 19.4316 68.4628 19.9042 68.6236C20.851 68.6936 21.797 68.783 22.7426 68.8822C25.0805 69.1267 27.4119 69.4407 29.7291 69.8371C34.3634 70.6275 38.9497 71.7005 43.454 73.0465C52.406 75.7201 61.0405 79.4487 69.1046 84.1671C76.8463 88.6966 84.0443 94.1302 90.5182 100.337C91.4124 101.195 92.2889 102.07 93.1551 102.955C92.1688 101.473 91.1799 99.9925 90.196 98.51C89.6802 97.8441 89.1656 97.1783 88.6361 96.5217C83.1747 89.7544 76.9994 83.5081 69.9643 78.3694C62.7142 73.0742 54.5347 69.0658 45.7611 67.0579C36.2367 64.8792 26.3827 65.0242 16.8603 67.1252C16.541 67.1954 16.2214 67.2693 15.902 67.3407C16.7654 67.6003 17.6275 67.8623 18.4839 68.1411ZM18.2879 70.5779C24.1543 75.4227 30.2498 79.9823 36.4801 84.3494C43.8205 89.4968 51.343 94.3692 58.8173 99.3179C66.2831 104.264 73.8438 109.069 81.2368 114.125C88.5608 119.132 95.8141 124.257 102.731 129.819C107.827 133.917 112.828 138.197 117.557 142.738L117.515 142.67C113.704 137.472 109.689 132.417 105.444 127.575C99.4024 120.682 92.8744 114.212 85.9448 108.212C79.0413 102.235 71.7327 96.7234 64.088 91.7299C56.4194 86.7208 48.3969 82.2423 40.1184 78.3229C32.5428 74.7359 24.7522 71.7499 16.8275 69.0603C17.3219 69.5591 17.8036 70.0697 18.2879 70.5779ZM32.2473 86.6612C35.2889 90.1252 38.4917 93.4381 41.9904 96.444C45.4006 99.3743 49.0367 102.035 52.7982 104.495C60.3868 109.458 68.4821 113.586 76.5696 117.663C84.5253 121.674 92.5067 125.656 100.086 130.354C106.725 134.47 113.227 139.163 118.639 144.854L118.532 144.582C117.301 143.343 116.061 142.113 114.796 140.908C111.581 137.85 108.207 134.965 104.77 132.163C97.8978 126.56 90.7478 121.301 83.4517 116.268C76.1033 111.198 68.5786 106.406 61.1078 101.524C53.5977 96.6152 46.0415 91.7903 38.6458 86.7103C33.009 82.8387 27.4342 78.8523 22.0152 74.6718C25.4771 78.6206 28.7828 82.7172 32.2473 86.6612ZM105.443 137.925C103.307 136.729 101.12 135.626 98.8834 134.634C96.5001 133.576 93.9104 132.546 91.2501 132.778C89.8691 132.899 88.5957 133.41 87.4432 134.136C88.2735 134.337 89.0611 134.689 89.8536 135.009C90.7267 135.361 91.5957 135.724 92.4619 136.094C94.1932 136.835 95.9109 137.606 97.6153 138.407C101.053 140.021 104.433 141.756 107.75 143.607C114.321 147.276 120.642 151.44 126.662 155.955C129.598 158.158 132.454 160.464 135.196 162.904C135.74 163.055 136.279 163.218 136.815 163.393C136.265 163.021 135.772 162.489 135.304 162.078C134.608 161.469 133.917 160.853 133.229 160.235C131.828 158.976 130.452 157.69 129.091 156.388C127.753 155.108 126.424 153.817 125.131 152.493C124.692 152.044 124.258 151.589 123.823 151.136C121.812 149.404 119.769 147.708 117.662 146.085C113.779 143.093 109.722 140.321 105.443 137.925ZM86.91 134.843L86.7269 134.625C86.2129 135.005 85.7244 135.422 85.2689 135.865C83.5873 137.5 82.1578 139.426 80.9405 141.426C80.5504 142.068 80.1878 142.725 79.8396 143.389C81.5172 143.612 83.1871 143.995 84.8373 144.351C86.622 144.737 88.3993 145.154 90.1692 145.602C93.6764 146.491 97.1518 147.502 100.588 148.631C107.556 150.921 114.369 153.661 120.957 156.886C124.11 158.43 127.202 160.09 130.208 161.901C131.495 162.06 132.76 162.295 134.006 162.595C128.95 158.425 123.752 154.441 118.26 150.849C111.99 146.748 105.389 143.107 98.6091 139.917C96.6853 139.012 94.7428 138.144 92.7841 137.315C91.8336 136.913 90.8779 136.521 89.9194 136.134C88.9129 135.727 87.8408 135.401 86.91 134.843ZM76.0439 153.949C79.2998 153.706 82.5983 153.801 85.8549 153.933C89.325 154.073 92.7907 154.326 96.2461 154.68C103.271 155.398 110.258 156.532 117.15 158.076C120.277 158.776 123.384 159.568 126.468 160.437C121.77 157.952 116.993 155.621 112.077 153.578C105.33 150.775 98.3914 148.462 91.3122 146.656C89.361 146.157 87.3996 145.698 85.4307 145.275C83.4568 144.853 81.4516 144.542 79.4852 144.085C77.9267 147.209 76.8047 150.542 76.0439 153.949ZM75.7994 155.071C74.7223 160.471 74.4981 165.998 74.6199 171.49C74.6753 174.053 74.756 176.63 75.0111 179.182C75.0964 180.035 75.2086 180.888 75.3627 181.733C82.331 184.805 89.8392 186.58 97.4462 186.967C99.6587 187.08 101.876 187.037 104.09 187.067C103.354 183.616 103.168 180.083 104.197 176.64C105.53 172.19 108.569 168.368 112.386 165.766C116.587 162.901 121.614 161.602 126.671 161.661C120.512 159.87 114.261 158.397 107.942 157.286C101.05 156.073 94.0895 155.302 87.1041 154.899C83.3827 154.684 79.649 154.684 75.9298 154.475C75.8876 154.674 75.8392 154.872 75.7994 155.071ZM76.5957 185.886C78.4753 190.13 82.5354 192.461 86.7693 193.876C91.7847 195.551 97.1631 196.407 102.44 196.603C103.171 196.63 103.902 196.632 104.634 196.633L104.841 196.36C105.362 195.901 106.04 195.623 106.731 195.542C106.484 194.866 106.239 194.19 105.996 193.515C105.286 191.531 104.625 189.478 104.158 187.392L104.127 187.409C100.243 187.945 96.1996 187.695 92.3191 187.214C88.4009 186.727 84.5282 185.871 80.7714 184.656C79.004 184.085 77.2709 183.419 75.5611 182.694C75.8091 183.786 76.1398 184.857 76.5957 185.886ZM95.6155 207.501C92.633 210.358 89.1442 213.343 87.8376 217.406C86.4161 221.83 88.2993 226.437 90.4966 230.257C91.6831 232.321 93.04 234.284 94.5103 236.16C95.5405 226.805 99.2989 217.771 104.863 210.212C106.464 208.036 108.224 205.971 110.139 204.065C109.535 202.715 108.959 201.35 108.415 199.974C108.166 199.685 107.94 199.384 107.786 199.056C107.702 198.877 107.767 198.723 107.889 198.624C107.828 198.467 107.768 198.308 107.708 198.15C107.177 198.365 106.599 198.514 106.034 198.541C105.701 198.557 105.357 198.522 105.025 198.467C101.896 201.486 98.7544 204.493 95.6155 207.501ZM87.3509 210.112C81.3975 215.388 76.0005 221.261 70.8577 227.317C65.2863 233.879 59.9441 240.637 54.8251 247.555C49.6648 254.528 44.7182 261.659 40.0217 268.953C38.2979 271.63 36.6195 274.335 34.9613 277.054C37.3536 275.315 40.0858 273.965 42.7336 272.709C49.3375 269.576 55.9759 266.497 62.7824 263.824C68.0316 261.764 73.4257 259.96 78.916 258.619C78.8808 258.371 78.9827 258.119 79.3042 258.024C80.0327 257.81 80.7641 257.707 81.4908 257.688L81.5936 257.684C83.1451 257.248 84.7747 257.116 86.3955 257.11C89.8209 256.572 93.2766 256.253 96.7501 256.19C97.1641 256.166 97.5796 256.139 97.9946 256.121C100.791 255.997 103.592 256.004 106.388 256.129C106.487 256.072 106.61 256.045 106.758 256.079L107.032 256.156C110.231 256.321 113.423 256.645 116.589 257.132C118.32 257.398 120.043 257.714 121.754 258.079C122.315 258.198 122.872 258.332 123.43 258.462C122.219 257.945 121.014 257.415 119.824 256.852C112.255 253.274 105.027 248.757 98.9509 242.964C95.9357 240.089 93.2056 236.903 90.919 233.419C88.4595 229.675 86.0549 225.329 86.0328 220.729C86.0109 216.153 88.7042 212.495 91.7926 209.376C95.253 205.882 98.8761 202.537 102.433 199.14C97.0441 202.263 92.0229 205.972 87.3509 210.112ZM86.2723 258.738C89.5252 258.903 92.7624 259.606 95.7185 260.979C102.834 264.284 107.654 270.86 111.24 277.605C113.196 281.285 114.92 285.087 116.683 288.859C118.461 292.663 120.222 296.475 121.933 300.308C125.354 307.966 128.583 315.713 131.358 323.629C133.601 330.03 135.567 336.55 137.029 343.178C137.251 341.216 137.458 339.252 137.619 337.283C137.989 332.765 138.165 328.227 138.068 323.695C137.889 315.359 136.75 307.019 134.299 299.037C132.002 291.558 128.561 284.406 123.794 278.179C119.266 272.264 113.505 267.256 106.917 263.759C100.527 260.367 93.2073 258.333 85.9336 258.591C86.0478 258.638 86.1595 258.688 86.2723 258.738ZM89.6162 260.674C91.4171 261.96 93.0724 263.464 94.5807 265.097C96.1947 266.38 97.7397 267.738 99.1825 269.175C104.279 274.251 108.223 280.368 110.947 287.017C113.924 294.286 115.552 302.008 117.196 309.662C118.74 316.845 120.34 324.035 123.08 330.875C125.657 337.311 129.296 343.418 134.476 348.102C135.057 348.628 135.662 349.131 136.272 349.624C136.386 348.667 136.499 347.71 136.613 346.753C136.489 346.163 136.369 345.571 136.239 344.982C135.801 342.993 135.327 341.008 134.818 339.035C133.792 335.054 132.611 331.114 131.313 327.213C128.704 319.382 125.618 311.717 122.322 304.153C119.036 296.617 115.606 289.126 112.017 281.728C108.676 274.842 104.612 267.877 98.0653 263.576C95.2031 261.696 92.072 260.633 88.8335 260.143C89.099 260.316 89.3621 260.492 89.6162 260.674ZM93.9787 266.234C93.7129 265.946 93.4381 265.669 93.1634 265.389C92.9628 265.242 92.766 265.092 92.564 264.947C93.0497 265.36 93.5187 265.792 93.9787 266.234ZM106.253 287.454C107.379 291.507 108.35 295.585 109.209 299.702C110.081 303.884 110.875 308.081 111.812 312.249C113.472 319.633 115.603 327.011 119.25 333.684C122.074 338.848 125.885 343.67 130.724 347.077C131.737 347.658 132.779 348.184 133.838 348.678C129.382 344.709 126.121 339.537 123.649 334.133C120.681 327.641 118.888 320.716 117.348 313.77C115.644 306.08 114.195 298.298 111.594 290.845C110.328 287.215 108.786 283.67 106.834 280.353C105.057 277.333 102.913 274.525 100.533 271.953C99.7522 271.11 98.9318 270.301 98.096 269.51C101.879 274.915 104.492 281.121 106.253 287.454ZM105.917 290.942C107.524 299.014 108.1 307.249 109.705 315.321C111.23 323 113.828 330.507 118.707 336.726C120.748 339.328 123.112 341.653 125.707 343.684C123.798 341.746 122.1 339.597 120.614 337.324C116.617 331.213 114.1 324.254 112.269 317.223C110.158 309.118 108.909 300.82 106.875 292.698C106.104 289.618 105.18 286.552 104.075 283.556C104.824 285.984 105.423 288.462 105.917 290.942ZM137.407 350.229C137.282 349.736 137.159 349.244 137.045 348.751C136.968 349.159 136.889 349.569 136.807 349.976C137.006 350.061 137.207 350.144 137.407 350.229ZM107.376 258.136L107.379 258.13L107.349 258.125L107.376 258.136ZM122.763 267.688C128.837 273.062 133.82 279.495 138.419 286.139C143.367 293.29 147.943 300.711 153.324 307.557C158.288 313.871 164.008 319.565 170.347 324.503C173.478 326.94 176.747 329.198 180.147 331.247C177.835 329.588 175.642 327.761 173.576 325.822C168.115 320.696 163.441 314.793 159.126 308.69C154.427 302.041 150.082 295.149 145.298 288.559C140.57 282.046 135.345 275.893 129.186 270.684C126.413 268.34 123.473 266.212 120.406 264.287C118.219 263.074 115.959 262.004 113.645 261.102C116.901 262.958 119.948 265.197 122.763 267.688ZM188.279 335.512C183.496 331.8 179.185 327.431 175.173 322.94C170.014 317.166 165.316 311.003 160.665 304.818C155.84 298.401 151.053 291.945 145.797 285.869C142.812 282.417 139.67 279.098 136.321 276.002C138.974 278.867 141.446 281.903 143.784 285.057C148.612 291.57 152.902 298.47 157.416 305.2C161.675 311.551 166.254 317.728 171.619 323.197C176.473 328.144 182.012 332.505 188.279 335.512ZM190.231 336.407C190.636 336.581 191.045 336.749 191.454 336.915C188.336 331.806 185.56 326.476 182.518 321.326C179 315.369 175.32 309.503 171.347 303.839C163.636 292.847 154.741 282.624 144.019 274.466C135.476 267.965 125.81 262.754 115.449 259.866C116.154 260.245 116.859 260.628 117.553 261.029C119.781 262.316 121.949 263.721 124.051 265.214C125.226 265.966 126.383 266.741 127.507 267.558C133.534 271.949 138.93 277.115 143.897 282.663C149.275 288.667 154.149 295.102 158.982 301.543C163.678 307.802 168.346 314.091 173.432 320.044C178.439 325.904 183.861 331.442 189.951 336.185L190.231 336.407ZM191.421 332.31C190.991 330.124 190.447 327.953 189.832 325.81C188.606 321.537 187.03 317.364 185.093 313.362C181.38 305.689 176.404 298.691 170.795 292.292C165.196 285.906 158.986 279.984 152.236 274.821C145.41 269.599 137.924 265.172 129.852 262.168C125.073 260.391 120.077 259.115 115.007 258.462C123.97 260.854 132.464 264.975 140.159 270.151C151.396 277.713 160.846 287.56 168.974 298.335C177.478 309.606 184.701 321.874 191.442 334.262C191.641 334.628 191.829 334.997 192.021 335.366C191.684 334.404 191.618 333.31 191.421 332.31ZM132.478 260.349L132.503 260.076C136.114 251.538 138.285 242.412 138.918 233.163C139.077 230.828 139.121 228.489 139.177 226.149C137.784 224.709 136.515 223.151 135.445 221.454C135.296 221.217 135.157 220.977 135.023 220.734C135.092 221.717 135.073 222.713 135.069 223.689C135.062 224.981 135.029 226.272 134.97 227.561C134.85 230.148 134.622 232.727 134.286 235.294C133.615 240.42 132.516 245.487 131.011 250.433C130.152 253.254 129.181 256.038 128.079 258.773L127.952 258.955L128.083 259.007C129.411 259.518 130.929 260.037 132.478 260.349ZM140.374 258.531C141.702 257.091 142.247 255.143 142.535 253.25C142.879 250.991 142.954 248.677 143.006 246.395C143.119 241.417 142.821 236.43 142.177 231.491C142.051 230.526 141.918 229.562 141.793 228.595C141.102 228.026 140.443 227.422 139.804 226.797C140.013 230.951 139.665 235.166 139.111 239.271C138.483 243.93 137.464 248.535 136.068 253.023C135.28 255.551 134.377 258.042 133.359 260.486L133.349 260.5C135.923 260.873 138.504 260.559 140.374 258.531ZM143.923 228.655C144.121 228.595 144.361 228.655 144.471 228.902L144.56 229.107C145.258 229.6 145.972 230.067 146.705 230.507C150.826 222.985 152.099 214.432 153.952 206.164C155.557 199 157.797 191.738 162.436 185.902C163.636 184.393 164.995 183.002 166.506 181.803C167.301 181.172 168.135 180.638 169.005 180.167C166.68 181.097 164.441 182.224 162.362 183.632C159.458 185.598 156.859 187.961 154.572 190.616C149.483 196.523 146.137 203.662 143.567 210.964C142.016 215.366 140.735 219.856 139.457 224.343L139.357 224.535C139.903 225.154 140.475 225.754 141.089 226.327C141.916 227.102 142.796 227.812 143.7 228.491L143.864 228.614L143.923 228.655ZM153.405 252.37C157.161 256.355 161.849 259.322 166.961 261.159C163.413 258.308 160.183 255.031 157.221 251.598C153.537 247.327 150.311 242.68 147.621 237.725C147.111 236.787 146.615 235.831 146.128 234.869C145.662 234.125 145.204 233.375 144.767 232.614C144.55 232.238 144.328 231.86 144.116 231.477C144.736 239.224 148.068 246.707 153.405 252.37ZM177.275 263.267C178.151 263.317 179.024 263.324 179.895 263.307C179.262 263.047 178.633 262.774 178.013 262.499C176.423 261.796 174.861 261.027 173.331 260.203C170.27 258.556 167.332 256.679 164.539 254.613C159.35 250.776 154.623 246.238 150.604 241.18C151.134 242.046 151.675 242.906 152.237 243.751C155.314 248.38 158.817 252.694 162.792 256.582C164.608 258.357 166.518 260.027 168.461 261.661C171.314 262.548 174.279 263.096 177.275 263.267ZM181.372 263.247C182.41 263.183 183.441 263.073 184.467 262.918C179.204 259.826 174.174 256.289 169.274 252.671C163.763 248.603 158.488 244.21 153.517 239.499C152.135 238.19 150.774 236.858 149.434 235.505C148.763 234.83 148.098 234.148 147.439 233.462C146.784 232.78 146.075 232.119 145.537 231.341C145.908 232.192 146.289 233.038 146.677 233.88L146.73 233.973C147.622 235.465 148.57 236.924 149.571 238.345C151.567 241.182 153.767 243.886 156.152 246.405C160.894 251.411 166.451 255.681 172.463 259.051C174.142 259.992 175.86 260.863 177.611 261.667C178.848 262.235 180.115 262.729 181.372 263.247ZM198.582 257.655C196.791 256.918 195.069 256.011 193.386 255.057C191.371 253.916 189.419 252.667 187.534 251.322C183.751 248.62 180.274 245.519 177.102 242.123C175.299 240.194 173.676 238.147 172.037 236.081L172.028 236.061C169.828 236.395 167.6 236.575 165.371 236.585C165.195 236.776 164.905 236.741 164.696 236.582C159.835 236.529 154.993 235.662 150.481 233.804C149.657 233.464 148.851 233.077 148.055 232.669C148.595 233.235 149.14 233.796 149.688 234.354C150.873 235.558 152.074 236.747 153.29 237.918C155.723 240.261 158.214 242.551 160.761 244.767C165.859 249.202 171.155 253.403 176.723 257.233C179.533 259.165 182.415 260.977 185.3 262.79C190.002 261.965 194.514 260.198 198.582 257.655ZM201.492 255.649C201.744 255.456 201.989 255.255 202.237 255.057C195.316 250.87 188.819 246.011 182.806 240.603C181.044 239.017 179.327 237.383 177.641 235.717C177.319 235.399 177.781 234.86 178.094 235.182C183.854 241.106 190.237 246.442 197.024 251.149C198.84 252.407 200.673 253.636 202.538 254.818C205.476 252.416 208.061 249.58 210.148 246.41C211.479 244.387 212.592 242.076 211.701 239.647C210.9 237.467 209.089 235.774 207.538 234.116C200.017 226.077 192.483 218.047 185.062 209.917C184.896 209.734 184.734 209.55 184.567 209.369C184.288 209.08 184 208.801 183.727 208.503C180.619 205.105 178.085 201.213 176.103 197.059C176.194 197.341 176.282 197.623 176.381 197.904C177.603 201.362 179.368 204.617 181.616 207.515C183.919 210.483 186.71 213.101 188.588 216.382C190.294 219.363 191.275 223.043 190.142 226.398C189.086 229.527 186.321 231.55 183.429 232.876C180.1 234.403 176.425 235.328 172.823 235.938C174.049 237.766 175.474 239.49 176.918 241.145C178.428 242.876 180.06 244.51 181.763 246.052C185.192 249.157 188.942 251.9 192.935 254.234C194.903 255.384 196.948 256.376 198.978 257.406C199.836 256.854 200.677 256.27 201.492 255.649ZM191.161 213.255C191.3 213.383 191.444 213.503 191.583 213.631C192.85 214.468 194.172 215.222 195.547 215.88C201.177 218.575 207.592 219.718 213.791 218.837C215.24 218.63 216.649 218.297 218.016 217.859C210.784 219.495 202.776 217.967 196.241 214.79C187.551 210.563 181.021 203.041 176.666 194.539C176.301 193.828 175.972 193.1 175.636 192.375L175.459 192.428C177.031 196.6 179.118 200.578 181.767 204.171C183.351 206.321 185.148 208.317 187.119 210.119C187.308 209.995 187.561 209.961 187.766 210.128C188.958 211.1 190.031 212.21 191.161 213.255ZM201.903 222.148C206.884 225.835 212.143 229.213 217.639 232.085C220.397 233.525 223.423 234.822 226.6 234.657C229.517 234.505 232.234 233.181 234.508 231.41C234.722 231.244 234.927 231.069 235.133 230.894C224.896 231.104 214.455 228.306 205.608 223.224C204.302 222.473 203.028 221.673 201.784 220.826C201.156 220.399 200.535 219.959 199.925 219.507C199.464 219.164 198.979 218.826 198.541 218.445C197.641 218.126 196.754 217.781 195.888 217.389C197.85 219.031 199.847 220.627 201.903 222.148ZM240.726 224.69C242.546 222.312 244.507 219.907 245.595 217.087C246.691 214.249 246.387 211.283 245.061 208.579C243.679 205.764 241.399 203.566 239.082 201.511C238.927 201.373 238.775 201.229 238.623 201.087L238.326 201.299C238.154 201.43 237.979 201.438 237.828 201.383C236.528 203.747 235.065 206.019 233.4 208.132C229.478 213.107 224.356 217.233 218.238 219.114C212.814 220.781 206.961 220.746 201.479 219.349L201.732 219.539C202.839 220.327 203.976 221.074 205.138 221.778C207.437 223.172 209.836 224.401 212.298 225.481C217.198 227.632 222.365 229.109 227.668 229.834C230.327 230.198 233.019 230.371 235.705 230.395C237.585 228.695 239.189 226.695 240.726 224.69ZM241.746 197.24C241.905 197.245 242.024 197.314 242.119 197.403C245.865 193.921 249.866 190.661 254.48 188.429C257.468 186.983 260.691 186.106 263.998 185.818C267.485 185.516 271.011 185.831 274.443 186.475C277.936 187.13 281.357 188.121 284.741 189.199C288.053 190.255 291.344 191.375 294.609 192.568C301.143 194.954 307.574 197.63 313.84 200.651C320.099 203.669 326.249 207.04 331.964 210.999C332.38 211.287 332.787 211.59 333.196 211.889C333.372 211.845 333.549 211.799 333.725 211.754C329.872 206.398 325.178 201.717 319.951 197.694C314.409 193.426 308.333 189.894 302.033 186.874C298.805 185.327 295.514 183.907 292.178 182.606C288.394 181.131 284.523 179.836 280.526 179.08C276.596 178.337 272.567 178.159 268.62 178.882C265.046 179.535 261.598 180.908 258.435 182.68C251.823 186.386 246.428 191.784 241.314 197.301C241.45 197.259 241.594 197.237 241.746 197.24ZM243.274 198.761C243.408 198.667 243.542 198.576 243.679 198.486C243.539 198.52 243.399 198.544 243.261 198.58L243.283 198.661L243.274 198.761ZM272.32 208.035C282.653 213.612 291.714 221.244 299.899 229.605C303.815 233.604 307.628 237.752 311.162 242.102C310.073 236.893 307.519 232.123 304.318 227.897C300.758 223.199 296.458 219.1 292.028 215.233C287.305 211.112 282.286 207.288 276.808 204.221C271.384 201.185 265.54 198.936 259.386 197.95C255.238 197.286 251.018 197.243 246.886 197.865C245.891 198.293 244.93 198.794 244.012 199.371C253.916 199.945 263.665 203.365 272.32 208.035ZM255.656 205.151C260.462 207.937 264.871 211.344 269.165 214.852C273.596 218.471 277.903 222.245 282.43 225.745C286.853 229.163 291.461 232.343 296.232 235.259C298.87 236.873 301.558 238.405 304.288 239.857C305.682 240.597 307.087 241.32 308.498 242.024C309.236 242.391 309.978 242.745 310.714 243.113C307.366 239.401 304.103 235.61 300.643 231.996C296.646 227.822 292.462 223.818 288.012 220.125C279.142 212.763 269.108 206.635 258.052 203.188C253.897 201.891 249.642 201.006 245.333 200.512C248.956 201.589 252.417 203.272 255.656 205.151ZM247.741 203.059C250.198 204.294 252.535 205.77 254.773 207.366C259.495 210.731 263.722 214.702 267.944 218.659C272.194 222.642 276.506 226.569 281.277 229.926C285.81 233.116 290.651 235.866 295.703 238.144C298.497 239.404 301.355 240.522 304.26 241.494C305.649 241.958 307.057 242.353 308.467 242.741C307.301 242.168 306.152 241.559 305.016 240.966C302.554 239.681 300.128 238.328 297.739 236.911C292.992 234.096 288.396 231.027 283.978 227.72C274.964 220.975 266.953 212.919 257.22 207.161C254.64 205.635 251.961 204.373 249.172 203.287C248.066 202.855 246.948 202.489 245.822 202.155C246.47 202.441 247.109 202.742 247.741 203.059ZM247.015 196.678L247.115 196.663C247.235 196.611 247.356 196.56 247.476 196.511C247.322 196.562 247.17 196.625 247.015 196.678ZM253.122 194.118C258.819 193.272 264.706 193.55 270.336 194.738C276.851 196.111 283.146 198.42 289.327 200.859C295.614 203.343 301.825 206.036 308.249 208.162C314.793 210.328 321.484 211.788 328.387 212.016C328.993 212.036 329.598 212.03 330.204 212.027C324.206 210.052 318.267 207.887 312.303 205.815C305.829 203.566 299.354 201.319 292.871 199.095C286.473 196.901 280.099 194.49 273.525 192.866C267.721 191.434 261.667 190.756 255.748 191.883C252.204 192.558 248.803 193.896 245.879 195.93C248.218 195.09 250.649 194.486 253.122 194.118ZM274.697 199.045C280.942 201.798 286.805 205.333 293.025 208.137C299.179 210.912 305.692 212.714 312.415 213.388C318.592 214.007 324.891 213.674 330.972 212.394C324.318 212.822 317.663 211.553 311.306 209.674C304.872 207.773 298.672 205.196 292.459 202.686C286.259 200.181 280.037 197.793 273.517 196.251C267.936 194.932 262.165 194.275 256.437 194.736C262.761 194.572 268.968 196.519 274.697 199.045ZM331.112 212.329L330.99 212.391L331.185 212.353L331.112 212.329ZM331.919 212.039C326.638 208.912 321.294 205.878 315.794 203.153C309.672 200.121 303.415 197.381 297.031 194.949C293.81 193.721 290.56 192.567 287.289 191.479C283.996 190.385 280.684 189.331 277.309 188.515C270.707 186.918 263.702 186.267 257.209 188.68C254.59 189.655 252.194 191.022 249.923 192.585C250.986 192.162 252.072 191.8 253.173 191.512C258.864 190.019 264.742 190.292 270.469 191.449C277.084 192.786 283.434 195.19 289.788 197.412C296.386 199.721 302.99 202.018 309.598 204.3C316.239 206.594 322.894 208.857 329.525 211.181C330.325 211.461 331.124 211.745 331.919 212.039ZM332.083 212.165L332.12 212.157L332.056 212.12L332.083 212.165ZM243.55 174.36C243.532 172.109 243.354 169.86 243.036 167.631L242.948 167.775C242.074 168.74 241.02 169.524 239.993 170.318C238.952 171.121 237.889 171.897 236.807 172.645C234.69 174.108 232.492 175.454 230.235 176.689C225.727 179.155 220.982 181.175 216.078 182.705C211.124 184.249 206.013 185.311 200.851 185.84C195.822 186.354 190.66 186.444 185.639 185.786C182.875 185.424 180.115 184.802 177.538 183.722C176.715 183.376 175.895 182.987 175.101 182.549C180.202 188.229 186.238 192.985 193.023 196.577C201.284 200.951 210.436 203.637 219.762 204.341C224.838 204.724 229.988 204.526 235.023 203.764C235.841 202.49 236.602 201.177 237.301 199.834C237.171 199.61 237.334 199.351 237.564 199.322C238.443 197.59 239.238 195.817 239.931 194.016C242.334 187.77 243.604 181.056 243.55 174.36ZM242.483 164.429C242.165 162.927 241.791 161.287 241.17 159.785C232.807 164.701 224.376 169.612 215.248 172.984C205.847 176.456 195.89 178.038 185.931 178.809C183.094 179.03 180.254 179.178 177.412 179.315C175.991 179.385 174.571 179.447 173.151 179.49C173.004 179.494 172.858 179.5 172.711 179.505L172.636 179.637C172.885 179.95 173.133 180.263 173.387 180.57C174.6 181.426 175.876 182.174 177.275 182.768C179.541 183.731 181.972 184.33 184.4 184.715C189.343 185.497 194.434 185.478 199.409 185.05C209.468 184.184 219.345 181.271 228.275 176.565C230.753 175.257 233.158 173.812 235.476 172.24C236.66 171.438 237.822 170.604 238.958 169.736C240.09 168.87 241.155 167.898 242.344 167.113C242.584 166.955 242.86 167.071 242.988 167.271C242.845 166.319 242.682 165.371 242.483 164.429ZM238.866 156.398C236.319 154.216 232.672 154.838 229.913 156.243C228.392 157.017 227.006 158.037 225.632 159.042C224.224 160.071 222.804 161.08 221.356 162.052C215.521 165.967 209.322 169.358 202.869 172.143C196.51 174.887 189.634 177.43 182.589 176.841L182.359 176.811C180.937 176.895 179.508 176.918 178.086 176.855C176.521 176.91 174.917 177.029 173.383 177.337C172.167 177.738 171.001 178.26 169.885 178.877L169.836 178.911C170.038 178.896 170.241 178.892 170.445 178.881L170.641 178.832C170.651 178.362 171.327 178.02 171.703 178.484C171.928 178.445 172.149 178.541 172.236 178.811C172.424 178.806 172.614 178.801 172.802 178.794C174.062 178.75 175.321 178.712 176.581 178.667C179.037 178.579 181.491 178.451 183.943 178.281C188.894 177.937 193.836 177.417 198.73 176.573C203.634 175.729 208.485 174.551 213.185 172.908C217.819 171.289 222.282 169.238 226.645 166.995C231.472 164.514 236.156 161.77 240.833 159.022C240.339 158.024 239.707 157.118 238.866 156.398ZM233.113 140.427C233.144 139.13 233.08 137.839 232.949 136.553C232.138 137.751 231.191 138.848 230.104 139.825C228.589 141.188 226.748 142.457 224.812 143.189C225.652 147.626 226.065 152.209 224.076 156.335C223.622 157.277 223.068 158.151 222.446 158.974C229.296 155.601 232.939 147.812 233.113 140.427ZM225.084 115.851C220.88 109.116 215.495 103.14 209.243 98.2439C206.302 95.9409 203.168 93.894 199.885 92.1136L199.875 92.1303C199.054 92.8387 198.14 93.4433 197.289 94.1163C196.459 94.7719 195.647 95.4526 194.857 96.1562C193.234 97.5996 191.7 99.1455 190.262 100.773C187.42 103.989 184.951 107.519 183.025 111.357C182.27 112.861 181.59 114.402 180.964 115.967L180.987 116.009C181.425 115.357 181.861 114.703 182.311 114.059C183.892 111.79 185.479 109.488 187.325 107.423C189.031 105.513 191.037 103.771 193.456 102.842C198.98 100.721 204.803 103.787 208.946 107.357C217.977 115.135 221.438 127.017 223.784 138.258C224.062 139.589 224.369 140.957 224.647 142.343C225.437 142.002 226.213 141.658 226.96 141.212C227.884 140.658 228.76 140.024 229.575 139.317C230.818 138.239 231.916 136.971 232.846 135.602C231.925 128.567 228.793 121.794 225.084 115.851ZM199.375 91.8279C196.014 90.0431 191.341 87.7545 187.85 90.4884C186.258 91.7363 185.259 93.6679 184.362 95.4349C183.346 97.4342 182.499 99.5197 181.833 101.66C180.763 105.091 180.138 108.652 179.992 112.239C180.11 112.693 180.24 113.143 180.347 113.601C180.412 113.88 180.469 114.159 180.529 114.439C181.884 111.53 183.503 108.752 185.305 106.085C187.735 102.485 190.593 99.1729 193.808 96.2483C194.694 95.4423 195.604 94.6653 196.542 93.92C197.455 93.1933 198.39 92.4295 199.406 91.845L199.375 91.8279ZM181.232 76.8611C183.78 69.6288 186.826 62.5558 188.84 55.1456C190.765 48.0652 191.526 40.7437 190.924 33.4235C190.631 29.8528 190.033 26.3066 189.127 22.8408C188.484 20.3812 187.658 17.9925 186.745 15.6308L186.693 15.7948C188.037 25.7838 186.476 36.015 184.158 45.7867C181.322 57.7476 177.353 69.4723 176.063 81.7545C175.432 87.7484 175.458 93.919 176.576 99.8673C176.573 99.0315 176.594 98.1967 176.637 97.3653C177 90.3075 178.894 83.4935 181.232 76.8611ZM181.251 30.9981C178.404 37.7675 174.415 43.9608 171.227 50.5614C169.668 53.7922 168.289 57.1243 167.392 60.6042C166.483 64.1325 166.121 67.7487 166.366 71.3858C166.867 78.8511 169.571 85.958 172.492 92.7707C173.018 93.9977 173.554 95.224 174.09 96.4502C173.293 93.4346 172.593 90.3924 172.046 87.3186C170.94 81.0812 170.603 74.7514 171.241 68.4414C171.882 62.0888 173.496 55.9 175.898 49.9886C178.272 44.1457 181.206 38.5427 183.283 32.5778C185.245 26.9479 186.2 20.9171 185.122 15.0571C185.116 15.6591 185.078 16.2575 184.952 16.84L184.811 17.0115C184.553 21.817 183.11 26.5784 181.251 30.9981ZM185.059 12.7285L185.067 12.9377C185.072 13.1065 185.08 13.2778 185.088 13.4479C185.212 13.8512 185.323 14.2577 185.422 14.6661C185.313 14.019 185.195 13.3729 185.059 12.7285ZM175.164 84.5184C175.561 78.3514 176.718 72.2577 178.127 66.25C180.923 54.3217 184.738 42.5371 185.865 30.2813C186.161 27.0619 186.247 23.8156 186.071 20.5869C186.047 23.6707 185.529 26.7737 184.768 29.7313C183.217 35.7687 180.425 41.3822 177.942 47.0717C176.65 50.0299 175.444 53.0257 174.504 56.1154C173.573 59.1785 172.872 62.3107 172.403 65.4768C171.47 71.7969 171.509 78.2136 172.437 84.5306C173.287 90.3154 174.86 95.9485 176.584 101.528C175.165 95.9535 174.796 90.2626 175.164 84.5184ZM178.218 115.583C177.78 114.54 177.283 113.521 176.728 112.534C175.605 110.542 174.272 108.673 172.769 106.951C171.98 106.046 171.138 105.185 170.256 104.366C165.555 112.935 162.027 122.14 159.836 131.665C157.612 141.332 156.815 151.29 157.45 161.188C157.582 163.26 157.801 165.326 158.061 167.386L158.075 167.375C158.324 167.032 158.59 166.702 158.893 166.401C159.172 166.124 159.715 166.149 159.908 166.48C160.068 165.933 160.236 165.394 160.408 164.863C160.559 163.943 160.717 163.025 160.891 162.113C161.981 156.394 163.588 150.764 165.611 145.306C169.113 135.862 173.845 126.914 179.34 118.48C179.029 117.501 178.614 116.524 178.218 115.583ZM161.959 98.5925C157.224 96.194 152.009 94.8488 146.731 94.3928C144.006 94.1571 141.259 94.1734 138.535 94.3995C135.947 94.614 133.28 94.9402 130.779 95.6664C130.211 95.8317 129.647 96.0325 129.111 96.2894C129.246 96.3388 129.357 96.4484 129.369 96.6345C130.208 109.392 131.235 122.256 134.189 134.726C136.747 145.524 140.909 156.05 147.433 165.091C148.138 166.067 148.876 167.019 149.635 167.955C150.19 168.157 150.752 168.332 151.323 168.465C152.229 168.379 153.135 168.29 154.042 168.198C153.322 166.657 152.628 165.104 152.005 163.523C149.979 158.383 148.438 153.056 147.361 147.639C145.189 136.71 144.891 125.419 146.615 114.406C147.101 111.304 147.745 108.228 148.551 105.194C148.954 103.678 149.394 102.171 149.875 100.677C150.347 99.2043 150.819 97.7206 151.461 96.3122C151.626 95.9524 152.266 96.1382 152.14 96.5351C151.304 99.1842 150.298 101.767 149.544 104.445C148.792 107.116 148.166 109.822 147.665 112.551C146.669 117.981 146.166 123.501 146.155 129.023C146.132 140.059 148.07 151.06 151.89 161.415C152.73 163.694 153.676 165.932 154.697 168.134C155.525 168.052 156.354 167.972 157.182 167.894L157.447 167.762C157.238 166.189 157.051 164.614 156.919 163.033C156.505 158.05 156.456 153.039 156.754 148.048C157.349 138.09 159.249 128.182 162.568 118.767C164.412 113.535 166.708 108.454 169.409 103.61C167.144 101.638 164.631 99.9464 161.959 98.5925ZM127.793 97.1196C127.611 97.2723 127.462 97.4471 127.315 97.6219C127.127 98.5184 126.917 99.4116 126.747 100.311C126.447 101.891 126.198 103.481 126.002 105.078C125.601 108.32 125.415 111.586 125.441 114.853C125.494 121.386 126.324 127.874 128.048 134.18C129.653 140.053 131.982 145.723 134.98 151.022C137.83 156.061 141.26 160.787 145.172 165.054C145.676 165.605 146.209 166.129 146.729 166.665C147.207 166.909 147.692 167.149 148.189 167.372L147.982 167.112C144.713 162.849 141.986 158.184 139.733 153.312C134.659 142.337 132.108 130.395 130.589 118.456C129.668 111.228 129.132 103.963 128.514 96.7052L128.527 96.6018C128.27 96.7564 128.024 96.9248 127.793 97.1196ZM112.131 202.011C113.513 203.02 115.028 203.841 116.601 204.509C120.141 206.011 123.979 206.633 127.792 206.938C130.124 207.125 132.484 207.088 134.805 207.369C135.039 207.398 135.013 207.764 134.783 207.781C132.693 207.927 130.557 207.795 128.468 207.664C126.331 207.529 124.197 207.306 122.093 206.904C118.546 206.223 115.056 205.019 112.025 203.028L111.712 202.808C112.936 204.422 114.328 205.903 115.866 207.221C119.19 210.068 123.166 212.161 127.409 213.247C129.791 213.856 132.248 214.149 134.705 214.167L134.864 214.232C134.931 213.977 135.01 213.726 135.067 213.468C135.529 211.356 135.596 209.179 135.352 207.034C134.829 202.455 132.864 198.258 130.105 194.604L129.912 194.361C127.304 192.762 124.586 191.44 121.579 190.759C118.382 190.034 115.047 189.945 111.819 190.529C110.215 190.82 108.653 191.302 107.148 191.924C107.101 192.192 107.057 192.463 107.016 192.736C107.542 194.229 108.101 195.709 108.661 197.188C108.952 197.956 109.254 198.719 109.554 199.482L109.716 199.789L109.901 200.095C110.007 200.21 110.114 200.324 110.226 200.43C110.826 200.998 111.464 201.525 112.131 202.011ZM118.32 247.962C119.312 245.924 120.233 243.851 121.079 241.748C122.788 237.511 124.191 233.151 125.288 228.715C125.822 226.556 126.245 224.375 126.69 222.198C124.712 221.78 122.876 220.739 121.266 219.532C117.235 216.506 114.279 212.322 111.97 207.893C111.473 206.937 111.001 205.966 110.548 204.987C107.307 208.312 104.46 211.99 102.131 216.013C99.7319 220.157 97.9059 224.579 96.5705 229.174C95.8509 231.649 95.3466 234.183 94.9638 236.732C95.8159 237.788 96.6932 238.821 97.6226 239.808C102.765 245.261 108.936 249.648 115.507 253.225C116.474 251.484 117.446 249.755 118.32 247.962ZM132.565 219.487C133.066 218.523 133.627 217.599 134.065 216.603C134.349 215.956 134.569 215.287 134.764 214.61L134.743 214.621C125.803 215.18 116.786 210.499 111.262 203.609C111.329 203.762 111.39 203.918 111.459 204.071C113.423 208.449 115.836 212.745 119.241 216.177C120.988 217.94 122.993 219.588 125.305 220.544C125.855 220.771 126.415 220.933 126.975 221.043C127.074 220.944 127.236 220.972 127.301 221.098C129.094 221.371 130.895 221.03 132.508 219.994C132.643 219.908 132.768 219.81 132.897 219.718C132.735 219.853 132.452 219.704 132.565 219.487ZM116.072 181.516C113.831 182.374 111.83 183.6 110.215 185.441C109.324 186.456 108.588 187.596 108.038 188.829C107.724 189.537 107.508 190.251 107.34 190.98C113.253 188.671 120.08 188.899 125.894 191.413C126.892 191.844 127.848 192.347 128.755 192.927C126.171 189.871 123.159 187.199 120.056 184.679C118.774 183.638 117.389 182.615 116.072 181.516ZM157.348 177.832L157.325 177.812C157.202 177.743 157.084 177.667 156.961 177.599C155.486 176.779 153.975 176.027 152.435 175.34C149.333 173.958 146.105 172.862 142.81 172.04C136.206 170.392 129.342 169.863 122.563 170.478C118.87 170.814 115.166 171.502 111.575 172.439C111.627 173.283 111.819 174.117 112.154 174.899C112.647 176.048 113.365 177.068 114.187 178.002C120.276 175.941 126.78 174.93 133.19 174.698C139.753 174.458 146.358 175.108 152.755 176.593C154.3 176.952 155.83 177.372 157.348 177.832ZM160.702 173.298L160.61 172.999L160.555 172.822C160.543 172.972 160.527 173.122 160.516 173.272L160.702 173.298ZM137.253 214.209C138.478 211.746 139.408 209.15 140.606 206.673C142.977 201.778 145.876 197.153 149.283 192.912C150.008 192.009 150.777 191.142 151.554 190.283L151.625 190.167C152.006 189.536 152.423 188.92 152.871 188.337C153.804 187.121 154.842 185.995 155.979 184.97C157.852 183.285 159.976 181.895 162.249 180.809C161.639 180.576 161.041 180.319 160.471 179.997L160.384 179.942L160.194 179.872C159.987 179.964 159.743 179.96 159.521 179.76L159.267 179.534C159.024 179.447 158.785 179.352 158.541 179.269C156.992 178.746 155.422 178.279 153.841 177.865C150.711 177.045 147.528 176.436 144.317 176.042C137.877 175.248 131.32 175.306 124.893 176.207C121.395 176.697 117.956 177.481 114.548 178.4C115.067 178.953 115.619 179.475 116.183 179.97C116.481 180.231 116.786 180.484 117.09 180.738L117.101 180.747C118.532 181.939 120.018 183.064 121.454 184.248C128.372 189.955 134.992 197.05 136.211 206.311C136.524 208.685 136.473 211.131 135.953 213.474C135.468 215.663 134.551 218.106 132.921 219.7C134.852 218.317 136.204 216.32 137.253 214.209ZM163.98 181.362C162.866 181.811 161.774 182.318 160.737 182.922C158.19 184.407 155.877 186.303 153.937 188.524C153.407 189.131 152.898 189.757 152.417 190.402C151.938 191.046 151.539 191.794 150.893 192.278L150.757 192.198C147.776 196.053 145.113 200.174 142.879 204.499C141.577 207.021 140.474 209.622 139.377 212.236C138.362 214.653 137.212 217.094 135.407 219.031C136.358 220.595 137.365 222.094 138.493 223.503C140.756 215.597 143.075 207.632 146.831 200.285C150.186 193.719 154.778 187.682 160.827 183.377C161.849 182.651 162.918 181.978 164.024 181.373L163.98 181.362ZM222.023 136.683C220.78 131.016 219.226 125.333 216.726 120.143C207.93 124.975 199.757 130.848 192.712 138.018C185.711 145.143 179.769 153.407 175.197 162.284C173.352 165.865 171.734 169.561 170.359 173.345C173.692 167.869 178.002 162.986 182.817 158.768C190.011 152.464 198.351 147.684 206.903 143.477C209.418 142.239 211.959 141.054 214.511 139.896C215.76 139.331 217.009 138.768 218.264 138.218C219.502 137.675 220.735 137.098 222.023 136.683ZM221.611 159.986L221.821 159.829L221.801 159.781L221.611 159.986ZM224.054 151.259C224.347 148.214 223.747 145.136 223.157 142.163C222.823 140.476 222.476 138.772 222.106 137.065C220.1 138.227 217.888 139.084 215.785 140.045C213.524 141.079 211.27 142.132 209.035 143.22C204.603 145.378 200.245 147.682 196.054 150.282C188.445 155.001 181.324 160.666 175.688 167.666C173.321 170.608 171.281 173.797 169.601 177.174C170.258 176.875 170.944 176.639 171.643 176.477L171.797 176.445C172.396 176.209 173.007 176.001 173.625 175.82C173.649 175.476 173.912 175.137 174.352 175.206C174.74 175.267 175.127 175.302 175.514 175.352C176.432 175.167 177.36 175.031 178.293 174.967C179.025 174.917 179.762 174.904 180.495 174.933C180.837 174.945 181.188 174.957 181.524 175.033C181.886 175.114 182.215 175.343 182.566 175.473L182.705 175.598C183.262 175.565 183.818 175.537 184.375 175.479C187.732 175.128 191.038 174.395 194.26 173.392C200.784 171.362 206.91 168.268 212.891 165.006C213.274 164.797 213.656 164.584 214.039 164.374C214.707 163.917 215.373 163.459 216.04 163.003C218 161.662 219.844 160.125 221.299 158.238C222.871 156.201 223.809 153.821 224.054 151.259ZM184.249 204.056C190.304 211.18 198.682 216.205 208.023 217.428C212.952 218.072 217.891 217.474 222.587 215.906C225.26 214.46 227.703 212.573 229.853 210.353C231.647 208.499 233.246 206.462 234.671 204.303C225.619 206.008 216.249 205.48 207.343 203.167C198.117 200.771 189.417 196.458 181.938 190.55C178.747 188.029 175.762 185.203 173.106 182.109C175.319 190.076 178.872 197.731 184.249 204.056ZM172.886 187.617C172.712 187.112 172.551 186.6 172.409 186.082C172.114 185.01 171.878 183.915 171.721 182.814C171.658 182.378 171.617 181.938 171.577 181.499C171.136 182.291 170.717 183.094 170.387 183.955C169.779 185.534 169.386 187.188 169.154 188.862C168.67 192.325 168.93 195.848 169.654 199.259C171.253 206.792 174.981 213.64 177.615 220.823C179.029 224.678 180.138 228.668 180.478 232.771C180.651 232.71 180.827 232.663 181 232.602C183.842 231.588 186.913 230.099 188.479 227.378C190.231 224.334 189.544 220.624 188.034 217.631C186.391 214.381 183.723 211.769 181.463 208.958C177.556 204.101 174.945 198.259 174.043 192.101C173.577 190.798 173.156 189.479 172.785 188.145C172.728 187.935 172.782 187.756 172.886 187.617ZM168.832 181.107C163.984 184.407 160.59 189.466 158.327 194.869C155.222 202.284 154.283 210.313 152.421 218.076C151.344 222.566 149.944 227.03 147.709 231.09C148.13 231.322 148.555 231.546 148.987 231.759C153.871 234.164 159.25 235.289 164.661 235.369C167.237 227.569 165.73 219.032 164.519 211.123C163.343 203.433 162.31 195.457 164.948 187.943C165.829 185.437 167.109 183.092 168.832 181.107ZM164.151 197.961C164.074 206.403 166.51 214.595 167.013 222.989C167.263 227.175 166.964 231.349 165.789 235.369C167.197 235.353 168.603 235.269 170.001 235.118C173.198 234.771 176.368 234.084 179.436 233.107C178.909 225.358 175.592 218.219 172.732 211.11C169.997 204.311 167.564 197.094 168.346 189.661C168.542 187.806 168.946 185.974 169.579 184.218C170.043 182.929 170.633 181.578 171.433 180.415C171.387 180.239 171.343 180.062 171.3 179.885L171.17 179.718L170.908 179.853C166.106 184.519 164.211 191.404 164.151 197.961ZM203.236 106.155C195.66 114.019 188.992 122.729 183.561 132.21C178.138 141.678 173.963 151.878 171.139 162.416C170.347 165.367 169.666 168.346 169.083 171.344C168.818 172.712 168.589 174.087 168.367 175.462C171.424 166.609 175.715 158.213 181.125 150.559C186.957 142.307 194.172 134.921 202.192 128.779C206.686 125.337 211.465 122.258 216.548 119.763C214.967 116.557 213.015 113.546 210.537 110.856C208.725 108.893 206.647 107.114 204.338 105.76C201.923 104.343 199.128 103.315 196.288 103.608C195.48 103.691 194.721 103.888 193.995 104.159C186.865 112.229 180.915 121.332 176.322 131.069C171.711 140.841 168.495 151.239 166.829 161.916C166.364 164.891 166.023 167.884 165.796 170.886C165.633 173.035 165.589 175.185 165.52 177.335C166.078 177.608 166.67 177.78 167.282 177.827C167.792 173.147 168.783 168.487 169.929 163.944C171.265 158.657 172.937 153.457 174.928 148.382C178.914 138.223 184.165 128.489 190.558 119.641C194.168 114.646 198.132 109.886 202.477 105.513C202.924 105.062 203.682 105.692 203.236 106.155ZM165.051 171.974C165.211 169.256 165.477 166.546 165.84 163.848C166.564 158.451 167.696 153.12 169.165 147.876C172.096 137.422 176.482 127.346 182.249 118.143C185.026 113.711 188.122 109.493 191.493 105.499C188.853 107.358 186.787 110.244 184.975 112.759C178.306 122.018 172.494 131.947 168.124 142.501C165.191 149.583 162.966 156.944 161.64 164.473C161.703 164.584 161.743 164.709 161.728 164.847C161.39 167.924 160.97 171.412 162.442 174.279C162.976 175.318 163.836 176.289 164.86 176.96C164.871 175.296 164.955 173.627 165.051 171.974ZM127.189 258.346C131.157 248.829 133.447 238.674 134.136 228.39C134.232 226.943 134.294 225.493 134.322 224.041C134.348 222.703 134.293 221.352 134.378 220.017C132.785 221.379 130.833 222.35 128.702 222.395C128.192 222.405 127.691 222.354 127.195 222.277C126.622 226.466 125.521 230.629 124.27 234.651C122.915 239.005 121.258 243.264 119.307 247.387C118.322 249.469 117.293 251.566 116.138 253.567C116.42 253.718 116.699 253.877 116.982 254.025C120.288 255.748 123.698 257.273 127.166 258.641L127.189 258.346ZM110.806 169.16C110.885 168.931 110.979 168.701 111.086 168.472C109.237 170.075 107.658 171.983 106.541 174.145C105.474 176.208 104.854 178.452 104.724 180.774C104.559 183.682 105.115 186.592 105.923 189.375C106.095 189.971 106.283 190.562 106.475 191.153C106.923 188.861 108.125 186.649 109.618 184.935C111.147 183.182 113.207 181.68 115.476 181.009C113.535 179.322 111.806 177.432 110.87 175.02C110.147 173.159 110.154 171.039 110.806 169.16ZM115.051 166.329C114.339 166.685 113.62 167.078 113.08 167.676C112.535 168.279 112.141 169.015 111.896 169.789C111.673 170.495 111.568 171.228 111.565 171.963C117.954 169.87 124.727 169.157 131.434 169.51C138.333 169.875 145.148 171.414 151.538 174.041C152.481 174.428 153.414 174.842 154.338 175.277C153.465 174.557 152.583 173.846 151.685 173.158C149.021 171.685 146.406 170.126 143.874 168.46C142.949 167.851 142.038 167.218 141.14 166.57C138.069 165.123 134.835 164.034 131.403 163.458C126.27 162.597 120.853 162.976 116.1 165.202C115.832 165.328 115.572 165.473 115.308 165.61C115.416 165.849 115.338 166.187 115.051 166.329ZM124.473 113.339C123.977 117.331 123.508 121.328 123.267 125.343C122.945 130.664 123.038 136.086 124.202 141.309C125.311 146.282 127.46 150.9 130.496 154.988C131.399 156.203 132.366 157.353 133.377 158.455C134.016 159.08 134.645 159.712 135.277 160.342C135.564 160.593 135.848 160.847 136.138 161.097L136.318 161.243C136.482 161.258 136.649 161.258 136.809 161.307C137.028 161.373 137.234 161.516 137.433 161.628C137.852 161.861 138.272 162.095 138.691 162.327C139.53 162.792 140.371 163.255 141.214 163.714C142.29 164.301 143.373 164.876 144.453 165.455C140.996 161.695 137.915 157.597 135.281 153.219C132.146 148.01 129.637 142.429 127.857 136.616C125.926 130.315 124.81 123.742 124.527 117.159C124.472 115.888 124.461 114.613 124.473 113.339ZM115.822 131.915C114.069 123.897 114.124 115.554 115.372 107.459C116.638 99.2464 119.074 91.2178 122.435 83.6224C125.631 76.4004 129.688 69.5514 134.485 63.2759C138.978 57.3999 144.107 52.0432 149.846 47.3805C144.288 49.987 139.054 53.171 134.31 57.1274C128.542 61.938 123.569 67.7104 119.662 74.1256C115.67 80.6803 112.8 87.902 111.277 95.4249C109.667 103.372 109.52 111.592 110.767 119.601C111.382 123.555 112.338 127.463 113.623 131.258C113.973 131.932 114.308 132.611 114.644 133.292C115.325 134.582 116.02 135.864 116.729 137.139C116.309 135.419 116.013 133.673 115.822 131.915ZM119.204 107.904C121.711 100.957 125.214 94.4293 128.886 88.04C132.79 81.2447 136.829 74.5282 140.791 67.7683C144.813 60.9069 148.775 54.0089 152.915 47.2207L152.969 47.135L152.615 47.3381C152.435 47.442 152.133 47.4104 152.071 47.1672L152.058 47.0811C151.942 47.1839 151.832 47.2932 151.713 47.3922C150.959 48.0215 150.215 48.6598 149.489 49.322C148.07 50.6159 146.647 51.9037 145.278 53.2522C142.516 55.9727 139.892 58.8246 137.45 61.8366C132.587 67.8321 128.415 74.3869 125.052 81.3347C121.592 88.4826 118.985 96.051 117.357 103.825C116.039 110.117 115.393 116.597 115.745 123.022C116.195 117.859 117.44 112.788 119.204 107.904ZM147.121 47.5222C145.015 48.2546 142.934 49.0515 140.87 49.8931C136.785 51.5573 132.794 53.4488 128.926 55.5664C125.016 57.7068 121.221 60.0571 117.576 62.6235C114.17 65.0236 110.858 67.6388 108.196 70.8667C105.375 74.2861 103.623 78.3033 102.799 82.6462C101.976 86.9757 101.986 91.4353 102.356 95.8141C103.096 104.533 105.543 113.007 108.868 121.074C109.551 122.726 110.278 124.357 111.028 125.978C110.774 124.943 110.541 123.902 110.334 122.858C108.737 114.777 108.561 106.399 109.857 98.2631C111.098 90.4698 113.729 82.9403 117.627 76.0801C121.361 69.5076 126.175 63.5884 131.78 58.5208C137.392 53.4461 143.829 49.2733 150.803 46.328C151.068 46.2165 151.338 46.1175 151.608 46.0147L151.66 45.9778C150.142 46.4773 148.629 46.9978 147.121 47.5222ZM99.628 88.4704C98.9008 79.3847 98.4209 70.2588 96.9474 61.2529C95.4573 52.1425 92.4291 43.4428 90.1899 34.5123C88.2065 26.6037 86.9034 18.1911 88.3988 10.088L88.2988 10.0522C88.2227 10.1811 88.1478 10.3088 88.073 10.4365C88.0274 10.5678 87.977 10.6965 87.9326 10.8279C87.2773 12.772 86.7003 14.7438 86.1898 16.7317C85.1764 20.6748 84.4377 24.6876 83.9495 28.7301C82.9591 36.9183 82.993 45.2235 83.8268 53.4242C84.6647 61.6763 86.3283 69.8176 88.5975 77.7903C90.8926 85.8508 93.7776 93.7371 97.0137 101.465C98.5497 105.136 100.192 108.756 101.872 112.361C102.204 112.73 102.53 113.105 102.867 113.469C103.044 113.659 103.221 113.848 103.397 114.04C103.353 113.866 103.302 113.692 103.259 113.518C101.213 105.308 100.3 96.8882 99.628 88.4704ZM82.3996 31.4298C82.8737 26.1932 83.7548 20.9546 85.1012 15.8473C83.7025 19.2825 82.5058 22.7992 81.5304 26.3773C79.3856 34.2489 78.1858 42.4164 78.1473 50.5795C78.1088 58.4383 79.1492 66.3053 81.1563 73.9009C83.0978 81.2434 85.9313 88.347 89.5908 95.0025C90.1976 96.107 90.8332 97.1943 91.4839 98.2736C94.2278 101.843 96.8028 105.54 99.2547 109.32C99.4702 109.582 99.6921 109.838 99.9102 110.099C99.0571 108.251 98.2102 106.402 97.3919 104.541C93.9853 96.7997 90.911 88.9057 88.4227 80.8204C85.9538 72.7981 84.0389 64.5844 82.9683 56.2545C81.9119 48.0289 81.653 39.6938 82.3996 31.4298ZM103.051 117.621C100.868 114.622 98.8477 111.5 96.7894 108.416C96.4195 107.861 96.0509 107.305 95.6809 106.75C94.5542 105.505 93.4098 104.276 92.2309 103.082C86.0137 96.7849 79.0696 91.2052 71.5603 86.5202C63.6898 81.608 55.2222 77.6515 46.4116 74.7441C38.6962 72.1973 30.7024 70.4615 22.6233 69.5664C23.3919 69.8418 24.1618 70.1171 24.9264 70.4009C29.2481 72.0033 33.5135 73.7586 37.7119 75.6615C46.111 79.4674 54.2369 83.8645 62.0258 88.8002C69.7884 93.7203 77.2199 99.1547 84.2479 105.076C91.27 110.994 97.8817 117.391 104.03 124.212C106.158 126.572 108.226 128.995 110.237 131.463C108.684 128.818 107.377 126.012 106.266 123.129L106.095 122.793C105.636 122.004 105.184 121.21 104.721 120.424C104.168 119.487 103.612 118.553 103.051 117.621ZM103.613 114.859C103.247 114.492 102.875 114.131 102.516 113.756L102.541 113.811C102.953 114.351 103.364 114.891 103.767 115.439C103.714 115.245 103.666 115.051 103.613 114.859ZM78.9742 27.2112C75.5936 34.5737 73.0618 42.376 72.317 50.4739C71.9453 54.5064 72.06 58.5976 72.7335 62.5941C73.3873 66.4713 74.6481 70.2104 76.2885 73.7779C79.3625 80.4648 83.5975 86.5779 87.6695 92.7004C85.0599 87.6204 82.907 82.3047 81.259 76.8371C78.9922 69.3166 77.7003 61.5067 77.4377 53.6577C77.1601 45.4232 77.8784 37.1324 79.7472 29.1042C80.3683 26.4342 81.1165 23.7938 81.9683 21.188C80.9181 23.1664 79.9121 25.1697 78.9742 27.2112ZM289.978 147.697C291.893 147.724 293.808 147.701 295.721 147.625C297.187 147.568 298.692 147.547 300.118 147.161C301.232 146.86 302.429 146.318 302.986 145.269C302.822 145.209 302.654 145.162 302.489 145.105L302.397 145.181C300.506 145.717 298.546 146.02 296.605 146.305C294.682 146.586 292.749 146.807 290.812 146.964C288.876 147.123 286.932 147.221 284.991 147.266C284.063 147.288 283.136 147.292 282.208 147.286C284.792 147.518 287.384 147.659 289.978 147.697ZM289.146 143.821C286.205 144.245 283.357 145.168 280.706 146.493C281.109 146.506 281.512 146.518 281.914 146.53C282.852 146.554 283.792 146.564 284.731 146.559C286.71 146.55 288.685 146.466 290.657 146.315C292.595 146.168 294.529 145.958 296.454 145.687C298.209 145.44 299.95 145.106 301.703 144.844C297.658 143.574 293.346 143.214 289.146 143.821ZM293.576 121.532C293.978 119.601 294.233 117.642 294.345 115.672C294.405 114.622 294.452 113.553 294.379 112.502C294.309 111.482 294.069 110.413 293.286 109.693C293.145 109.563 292.989 109.46 292.83 109.372C293.044 110.146 293.015 111.045 293.048 111.838C293.087 112.754 293.084 113.671 293.061 114.587C293.018 116.347 292.891 118.105 292.676 119.853C292.457 121.64 292.157 123.419 291.764 125.177C291.564 126.072 291.343 126.961 291.097 127.844C290.908 128.519 290.733 129.218 290.474 129.876C290.485 130.106 290.498 130.336 290.509 130.568C291.869 127.693 292.923 124.672 293.576 121.532ZM291.916 109.117C290.805 115.305 290.275 121.573 290.409 127.849L290.506 127.533C290.74 126.714 290.956 125.89 291.151 125.061C291.556 123.34 291.879 121.598 292.107 119.845C292.34 118.05 292.483 116.244 292.53 114.435C292.554 113.583 292.551 112.732 292.545 111.88C292.539 111.037 292.399 110.112 292.537 109.281L292.558 109.245C292.348 109.165 292.134 109.122 291.916 109.117ZM289.422 111.617C288.714 113.601 288.377 115.785 288.188 117.875C287.789 122.302 288.379 126.788 289.85 130.977C289.84 130.794 289.832 130.609 289.822 130.424C289.756 130.366 289.714 130.279 289.734 130.17L289.796 129.911C289.496 122.966 289.996 115.975 291.429 109.17C291.194 109.232 290.965 109.338 290.752 109.503C290.086 110.02 289.699 110.843 289.422 111.617ZM268.681 145.324C269.519 141.185 270.337 136.887 270.016 132.644C269.873 130.725 269.468 128.824 268.646 127.077C268.224 126.179 267.698 125.257 266.996 124.546C266.573 124.118 266.02 123.697 265.421 123.528L265.48 123.591C266.938 127.314 267.824 131.26 268.27 135.23C268.492 137.22 268.601 139.225 268.592 141.228C268.584 143.127 268.556 145.113 268.248 146.996L268.298 147.083C268.426 146.497 268.562 145.912 268.681 145.324ZM264.287 123.563C264.076 123.644 263.895 123.756 263.737 123.889C264.371 125.667 264.74 127.559 265.159 129.397C265.575 131.22 265.96 133.051 266.316 134.887C266.899 137.897 267.382 140.921 267.811 143.956C267.882 143.005 267.939 142.052 267.943 141.089C267.95 139.15 267.847 137.21 267.637 135.281C267.208 131.346 266.301 127.497 265.108 123.727C265.072 123.613 265.134 123.528 265.216 123.49C264.912 123.436 264.598 123.444 264.287 123.563ZM262.745 127.981C262.798 130.136 263.032 132.286 263.438 134.402C264.173 138.23 265.503 141.934 267.336 145.371C266.879 141.914 266.342 138.465 265.697 135.038C265.35 133.195 264.976 131.357 264.578 129.525C264.196 127.772 263.708 126.025 263.407 124.256C262.686 125.247 262.718 126.89 262.745 127.981ZM11.7432 66.3374C12.0615 66.4137 12.3827 66.4792 12.7051 66.5459C12.8444 66.0934 13.3906 65.7624 13.8421 66.174C14.0885 66.3989 14.3221 66.6368 14.5659 66.8641C23.4328 64.1063 32.9347 63.6306 42.0933 65.1226C51.2155 66.6083 59.8219 70.1819 67.53 75.2414C73.7975 79.3559 79.4157 84.385 84.4852 89.9001C83.7733 88.8232 83.059 87.7473 82.3534 86.667C80.1997 83.3708 78.114 80.0259 76.3159 76.5205C74.5302 73.0412 73.0444 69.3968 72.1262 65.5884C71.1758 61.6407 70.7984 57.5767 70.9157 53.5193C71.1545 45.2996 73.2687 37.2776 76.4119 29.7114C78.9772 23.534 82.184 17.6611 85.5602 11.8928C86.3428 10.1553 87.1855 8.44353 88.0785 6.75817C88.3768 6.02863 88.6894 5.30822 89.048 4.60065C89.1409 4.4187 89.2786 4.33627 89.4224 4.31641C89.5987 4.00588 89.7679 3.69016 89.949 3.38104C90.2536 2.85822 91.2486 3.06698 91.0418 3.73912C90.907 4.1735 90.7709 4.6078 90.6373 5.04222C90.8603 5.20881 90.9737 5.48827 90.7846 5.81417C90.5102 6.28445 90.2346 6.75347 89.9589 7.22371C89.8956 7.43007 89.831 7.63758 89.7664 7.84511C89.4745 9.17354 89.2105 10.5067 89.0483 11.8612C88.7818 14.0739 88.6918 16.3036 88.756 18.5297C88.8853 22.988 89.5951 27.4159 90.5933 31.7553C92.6135 40.5389 95.6973 49.0417 97.4287 57.8955C99.1559 66.732 99.7916 75.7238 100.481 84.6858C100.599 86.2189 100.721 87.7534 100.85 89.287C100.978 83.4915 102.116 77.7257 105.24 72.8428C107.546 69.2389 110.704 66.29 114.081 63.7005C117.615 60.9904 121.378 58.5582 125.228 56.3238C129.125 54.062 133.159 52.0317 137.292 50.2375C141.417 48.4455 145.683 46.7838 150.036 45.63C151.1 45.3468 152.175 45.0933 153.246 44.8273L153.391 44.8259L153.457 44.7833C153.68 44.6335 153.891 44.7348 153.987 44.9073L154.241 44.9908L154.31 45.0755L154.488 44.8126C154.65 44.5895 154.992 44.8306 154.883 45.0693C154.83 45.1856 154.77 45.2981 154.717 45.4144L155.012 45.485C155.109 45.5952 155.135 45.7905 155.022 45.9032C154.92 46.0041 154.82 46.0698 154.696 46.1405L154.415 46.3014L154.317 46.3585C154.314 46.5881 154.177 46.772 153.99 46.8781C153.391 48.0255 152.751 49.1566 152.109 50.2718C151.127 51.9793 150.147 53.6867 149.159 55.3902C147.2 58.7674 145.242 62.1459 143.282 65.5231C139.379 72.2536 135.515 79.0065 131.621 85.7411C127.977 92.0435 124.393 98.4168 121.633 105.165C119.052 111.472 117.231 118.141 116.938 124.975C116.804 128.132 116.979 131.314 117.527 134.422C119.144 140.471 121.842 146.257 125.617 151.254C126.471 152.006 127.324 152.758 128.163 153.524C126.39 150.83 124.952 147.923 123.96 144.836C122.276 139.599 121.798 134.06 121.899 128.584C122.002 123.01 122.675 117.468 123.33 111.938C123.695 108.849 124.059 105.758 124.431 102.669C124.707 100.369 124.989 98.012 126.632 96.3593C126.745 95.9937 126.872 95.6323 127.021 95.2681C127.18 94.8823 127.725 95.1096 127.682 95.4854L127.674 95.5412C129.627 94.2834 132.107 93.9033 134.351 93.5369C137.112 93.0875 139.911 92.8533 142.71 92.855C148.346 92.8587 153.981 93.7994 159.239 95.8562C167.708 99.1677 175.055 105.591 178.955 113.851C178.951 113.727 178.961 113.601 178.96 113.477C178.746 112.638 178.521 111.804 178.278 110.974C178.197 110.732 178.124 110.49 178.05 110.249C177.589 108.726 177.088 107.214 176.527 105.716C175.23 102.243 173.739 98.8476 172.272 95.4434C169.334 88.6349 166.465 81.6717 165.484 74.2665C165.006 70.6615 165.025 66.9972 165.661 63.4115C166.279 59.9216 167.432 56.5449 168.837 53.2981C171.722 46.623 175.701 40.51 178.892 33.989C181.694 28.2635 184.012 22.0004 184.137 15.572C184.011 14.7313 183.971 13.8708 183.911 13.0328C183.848 12.1567 183.799 11.28 183.747 10.4031C183.727 10.2851 183.712 10.166 183.691 10.0491L183.715 9.90586C183.698 9.6303 183.679 9.35588 183.663 9.08036C183.628 8.48278 184.449 8.1359 184.799 8.67167C184.939 8.88624 185.066 9.11007 185.193 9.33264C185.325 9.38196 185.437 9.48661 185.487 9.67188C185.525 9.81758 185.555 9.96297 185.592 10.1074C185.922 10.8048 186.194 11.5318 186.382 12.2797L186.452 12.6013C189.145 18.0732 190.743 24.1276 191.552 30.1355C192.506 37.2366 192.247 44.5075 190.721 51.5111C189.099 58.964 186.203 66.0503 183.488 73.1525C180.904 79.9106 178.505 86.7727 177.596 93.9856C177.163 97.4121 177.074 100.887 177.45 104.301C177.557 104.641 177.664 104.982 177.773 105.323C178.271 106.649 178.731 107.989 179.157 109.339C179.331 107.659 179.604 105.993 179.967 104.375C180.944 100.006 182.608 95.5463 185.139 91.8256C186.31 90.105 187.889 88.71 189.968 88.2612C192.065 87.8082 194.23 88.3084 196.198 89.0548C198.173 89.804 200.053 90.8363 201.881 91.8861C203.672 92.9162 205.415 94.0286 207.107 95.2159C213.882 99.9691 219.798 105.962 224.471 112.79C226.84 116.251 228.901 119.937 230.578 123.782C232.028 127.108 233.179 130.602 233.793 134.185C233.991 134.093 234.266 134.272 234.145 134.522C234.073 134.671 233.984 134.806 233.909 134.951C234.037 135.807 234.144 136.665 234.204 137.529C234.651 143.849 232.941 150.569 228.818 155.408C231.218 154.103 233.932 153.279 236.657 153.945C239.752 154.701 241.562 157.302 242.568 160.161C243.662 163.264 244.215 166.626 244.524 169.893C245.171 176.745 244.422 183.725 242.458 190.316C241.831 192.418 241.07 194.486 240.197 196.51L240.356 196.339C243.878 189.802 247.703 183.409 251.773 177.204C255.848 170.99 260.29 165.005 265.082 159.32L265.083 159.251C265.573 156.915 266.425 154.643 267.043 152.335C267.408 150.973 267.737 149.602 268.049 148.227C265.631 144.352 263.882 140.085 262.893 135.625C262.393 133.369 262.082 131.073 261.981 128.764C261.907 127.059 261.77 124.897 262.975 123.509C264.421 121.845 266.618 122.803 267.861 124.173C269.241 125.691 270.064 127.737 270.514 129.714C271.481 133.968 270.873 138.407 270.131 142.646C269.631 145.504 269.012 148.34 268.28 151.149C267.911 152.568 267.513 153.982 267.087 155.387C266.833 156.225 266.574 157.071 266.273 157.9C266.446 157.699 266.61 157.489 266.784 157.29C271.966 151.338 277.606 145.788 283.746 140.826C285.999 138.27 287.962 135.472 289.565 132.482L289.557 132.468C287.845 128.144 287.109 123.472 287.376 118.83C287.511 116.5 287.892 114.166 288.559 111.927C289.01 110.417 289.902 108.49 291.702 108.34C293.879 108.157 294.999 110.428 295.181 112.255C295.398 114.426 295.192 116.705 294.907 118.86C294.346 123.116 293.092 127.281 291.23 131.148C289.937 133.835 288.359 136.361 286.498 138.664C291.812 134.618 297.467 131.017 303.427 127.998C310.247 124.543 317.513 121.838 324.995 120.236C325.938 120.034 326.884 119.849 327.833 119.68C328.028 119.645 328.048 119.946 327.858 119.984C320.313 121.498 312.996 124.009 306.08 127.373C299.169 130.734 292.66 134.883 286.613 139.62C283.912 141.737 281.313 143.977 278.799 146.311C279.668 145.815 280.552 145.358 281.438 144.958C285.862 142.958 290.755 142.142 295.59 142.514C298.46 142.735 301.278 143.396 303.959 144.439C304.164 144.519 304.335 144.827 304.265 145.045C303.378 147.825 300.194 148.493 297.621 148.65C293.524 148.9 289.404 148.871 285.308 148.636C282.987 148.502 280.67 148.294 278.362 148.014L278.144 147.94C277.769 148.177 277.396 148.416 277.033 148.669C275.516 149.724 274.151 150.939 272.83 152.21C271.693 153.405 270.572 154.614 269.475 155.846C263.982 162.02 259.015 168.637 254.43 175.507C250.737 181.04 247.287 186.729 243.999 192.51C247.509 188.944 251.226 185.589 255.451 182.886C258.593 180.876 261.996 179.217 265.592 178.2C269.416 177.119 273.371 176.839 277.321 177.234C281.441 177.646 285.459 178.75 289.359 180.109C292.979 181.372 296.531 182.844 300.021 184.425C306.525 187.371 312.818 190.828 318.622 194.998C324.355 199.116 329.593 203.969 333.867 209.601C334.407 210.312 334.929 211.036 335.436 211.771C335.669 212.111 335.545 212.691 335.109 212.81C328.715 214.551 322.076 215.259 315.458 214.917C308.887 214.577 302.388 213.211 296.249 210.84C289.886 208.383 284.005 204.89 277.904 201.876C271.975 198.945 265.679 196.406 259.013 195.939C256.816 195.784 254.565 195.885 252.363 196.263C253.925 196.253 255.483 196.327 257.013 196.478C263.391 197.104 269.555 199.147 275.24 202.065C280.934 204.989 286.165 208.754 291.05 212.871C295.684 216.777 300.182 220.949 304.019 225.655C307.706 230.177 310.79 235.346 312.13 241.072C312.292 241.768 312.432 242.467 312.546 243.172C312.579 243.375 312.511 243.523 312.398 243.622L312.658 243.941C312.876 244.009 313.096 244.069 313.315 244.14C313.706 244.266 313.618 244.824 313.194 244.778L313.109 244.767C313.026 245.047 312.661 245.262 312.422 245.002C312.307 244.878 312.196 244.751 312.082 244.627C309.731 244.253 307.403 243.551 305.143 242.848C302.518 242.031 299.93 241.097 297.393 240.036C292.304 237.908 287.423 235.301 282.813 232.272C277.989 229.102 273.587 225.422 269.308 221.561C264.96 217.639 260.712 213.584 256.053 210.023C253.579 208.131 250.988 206.386 248.24 204.913C246.875 204.181 245.478 203.511 244.044 202.928C243.112 202.55 242.156 202.243 241.207 201.916L241.079 202.001C244.788 205.294 247.92 209.527 247.37 214.661C247.04 217.747 245.324 220.472 243.549 222.933C241.664 225.549 239.734 228.199 237.441 230.476C235.284 232.619 232.736 234.453 229.802 235.353C226.696 236.307 223.552 235.952 220.545 234.82C217.459 233.657 214.565 231.917 211.742 230.231C208.972 228.576 206.263 226.817 203.624 224.962C199.039 221.737 194.682 218.193 190.561 214.395C190.335 214.242 190.108 214.091 189.884 213.933C191.452 215.574 193.017 217.22 194.58 218.867C198.52 223.021 202.455 227.178 206.39 231.337C208.121 233.166 210.031 234.938 211.499 236.995C212.905 238.964 213.577 241.244 212.827 243.612C212.128 245.817 210.673 247.798 209.269 249.611C207.907 251.368 206.387 252.998 204.745 254.497C199.634 259.156 193.283 262.428 186.518 263.803C186.475 263.924 186.355 264.008 186.208 263.925L186.133 263.882C184.366 264.222 182.574 264.439 180.767 264.509C171.448 264.872 161.968 261.713 154.942 255.534C149.489 250.738 145.569 244.235 143.811 237.194C143.978 239.167 144.073 241.142 144.114 243.096C144.168 245.653 144.109 248.211 143.949 250.764C143.82 252.82 143.609 254.91 142.829 256.836C142.058 258.737 140.673 260.259 138.79 261.097C136.768 261.995 134.458 262.033 132.313 261.621C132.152 261.589 131.995 261.541 131.834 261.506C138.368 264.117 144.522 267.615 150.23 271.74C157.213 276.786 163.556 282.696 169.385 289.027C175.233 295.378 180.523 302.291 184.585 309.926C186.661 313.828 188.387 317.917 189.747 322.121C190.438 324.258 191.033 326.435 191.508 328.631C191.741 329.707 191.952 330.788 192.136 331.875C192.329 333.003 192.38 334.252 192.764 335.329C193.157 336.425 193.543 337.521 193.899 338.628C193.947 338.774 193.882 338.888 193.784 338.95C193.886 339.391 193.204 339.711 192.934 339.294C192.758 339.021 192.589 338.742 192.415 338.467C188.959 337.259 185.652 335.584 182.456 333.815C178.978 331.891 175.615 329.761 172.388 327.442C165.967 322.829 160.11 317.44 154.955 311.449C149.281 304.855 144.575 297.523 139.691 290.348C135.077 283.568 130.265 276.867 124.354 271.143C118.91 265.868 112.526 261.331 105.262 258.963C104.771 258.803 104.276 258.657 103.779 258.519L103.611 258.603C101.394 258.655 99.1592 258.457 96.9371 258.402C99.6253 259.082 102.252 260.015 104.772 261.166C111.673 264.319 117.797 269.072 122.741 274.811C127.93 280.836 131.783 287.962 134.412 295.445C137.186 303.34 138.59 311.637 138.996 319.98C139.413 328.55 138.816 337.161 137.549 345.643C137.694 346.371 137.842 347.099 137.974 347.83C138.156 348.831 138.232 349.852 138.34 350.863C138.386 351.278 137.703 351.448 137.606 351.024L137.561 350.848L137.277 350.771C137.261 350.91 137.15 351.04 136.991 350.993C136.866 350.956 136.745 350.908 136.621 350.868C136.544 351.169 136.1 351.078 136.136 350.765L136.143 350.708C134.885 350.269 133.67 349.696 132.503 349.023C131.022 348.328 129.59 347.527 128.223 346.666C125.253 344.796 122.504 342.562 120.103 339.999C117.645 337.375 115.526 334.446 113.843 331.267C111.965 327.718 110.601 323.93 109.582 320.051C107.485 312.077 106.776 303.846 105.428 295.733C104.137 287.958 102.229 279.992 97.883 273.303C94.1916 267.621 88.7677 262.713 82.0895 260.965C81.2683 260.751 80.4352 260.586 79.5943 260.468C79.3573 260.434 79.197 260.319 79.1029 260.166C77.8459 260.334 76.5954 260.551 75.3614 260.814C75.1925 260.85 75.0248 260.886 74.8559 260.923C72.7875 261.512 70.7315 262.155 68.6976 262.857C62.0209 265.159 55.5259 267.957 49.1037 270.888C46.0607 272.276 42.9955 273.639 40.0123 275.152C37.8126 276.267 35.6133 277.526 33.705 279.113C31.287 283.125 28.9286 287.173 26.6288 291.254C26.0943 292.202 25.5026 293.115 24.9204 294.035C24.5771 294.578 23.7108 294.208 23.9948 293.592C25.5623 290.182 27.4406 286.916 29.3326 283.673L29.3501 283.481C29.832 282.473 30.4153 281.556 31.0775 280.713C33.0401 277.386 35.0565 274.09 37.1241 270.827C41.8152 263.425 46.7413 256.167 51.9261 249.101C57.0863 242.068 62.4782 235.201 68.1016 228.533C73.2782 222.396 78.6747 216.415 84.6094 210.996C90.0962 205.986 96.0558 201.434 102.587 197.867C98.2505 197.718 93.9264 197.113 89.7225 196.046C85.2572 194.913 80.6039 193.258 77.5126 189.666C74.336 185.976 73.814 180.891 73.5856 176.224C73.3089 170.543 73.2499 164.826 73.9426 159.169C74.5711 154.043 75.8528 148.964 78.0716 144.286C79.1589 141.994 80.4768 139.802 82.027 137.793C83.4404 135.961 85.0691 134.185 87.0763 132.992C89.2451 131.704 91.6712 131.339 94.1455 131.808C96.7739 132.305 99.2654 133.497 101.657 134.662C106.202 136.873 110.519 139.533 114.632 142.466C115.004 142.733 115.366 143.014 115.735 143.285C111.366 139.368 106.606 135.872 101.672 132.732C94.1986 127.977 86.2897 123.956 78.3838 119.983C70.3233 115.932 62.2315 111.9 54.5563 107.145C46.874 102.385 39.782 96.8669 33.6222 90.2364C27.3676 83.5031 21.8867 76.0704 15.3477 69.5981C14.7742 69.0313 14.184 68.4833 13.5939 67.933L13.5385 67.9124L13.3767 67.9536C13.1445 68.0163 12.9738 67.853 12.9371 67.6731C12.4586 67.4779 11.9775 67.2839 11.4882 67.1139C11.047 66.9617 11.2917 66.2288 11.7432 66.3374Z" fill="#CA976D"/>
</svg>
