<svg width="232" height="364" viewBox="0 0 232 364" fill="none" xmlns="http://www.w3.org/2000/svg">
<path opacity="0.6" d="M85.4627 -217.125C89.6913 -209.978 92.5407 -202.09 93.5844 -193.795C94.8133 -184.015 93.4794 -173.96 89.8397 -164.815C88.9068 -162.471 87.8127 -160.195 86.5732 -157.998C87.0963 -159.97 87.5903 -161.948 88.0478 -163.935C89.1054 -168.517 89.9506 -173.155 90.3506 -177.847C91.1746 -187.531 89.6873 -197.274 87.2092 -206.625C86.4954 -209.326 85.7118 -212.01 84.8844 -214.678C84.2513 -216.724 83.6173 -218.78 82.9261 -220.812C83.766 -219.575 84.6123 -218.346 85.4627 -217.125ZM96.875 -198.112C99.3353 -192.281 100.68 -185.815 99.7557 -179.493C98.8491 -173.285 95.3799 -168.086 91.899 -163.037C89.9757 -160.243 88.0618 -157.427 86.5579 -154.374C85.9109 -153.059 85.3114 -151.67 84.8587 -150.238C84.8476 -150.457 84.846 -150.676 84.8372 -150.895C84.9407 -153.054 86.0907 -154.989 87.1311 -156.849C88.3058 -158.952 89.3757 -161.106 90.3035 -163.328C92.2 -167.87 93.5207 -172.639 94.2634 -177.506C95.7685 -187.386 94.7241 -197.606 91.2103 -206.964C90.6131 -208.553 89.9473 -210.114 89.2247 -211.646C92.1198 -207.337 94.8504 -202.904 96.875 -198.112ZM84.5756 -212.376C85.0021 -211.057 85.4217 -209.736 85.809 -208.404C87.1544 -203.774 88.3893 -199.055 89.0965 -194.279C89.8131 -189.454 90.0284 -184.595 89.714 -179.728C89.4125 -175.026 88.648 -170.365 87.6517 -165.765C86.8877 -162.233 85.9435 -158.746 85.036 -155.248C84.9314 -155.045 84.8292 -154.842 84.7298 -154.634C84.6159 -162.329 85.0943 -170.025 85.5147 -177.706C86.0022 -186.668 86.3822 -195.661 85.5852 -204.619C85.3529 -207.21 85.0228 -209.803 84.5756 -212.376ZM83.2705 -151.134C83.3224 -151.189 83.3584 -151.262 83.3419 -151.361C81.903 -160.39 80.7698 -169.457 80.268 -178.591C79.7694 -187.666 79.8268 -196.774 80.4855 -205.839C80.5171 -206.286 80.5609 -206.729 80.5975 -207.175C80.9026 -208.734 81.169 -210.299 81.353 -211.881C81.548 -213.573 81.6273 -215.281 81.5909 -216.98C81.5983 -217.052 81.6079 -217.127 81.6154 -217.199C81.6788 -217.738 81.7539 -218.28 81.8218 -218.821C82.8666 -214.932 83.5816 -210.957 84.0372 -206.957C85.0445 -198.064 84.7846 -189.085 84.3334 -180.166C83.8647 -170.852 83.1829 -161.528 83.4987 -152.197C83.5191 -151.602 83.5583 -151.009 83.5882 -150.414C83.4756 -150.65 83.3786 -150.896 83.2705 -151.134ZM76.7275 -179.499C76.5743 -184.86 77.0005 -190.232 78.0296 -195.494C78.4221 -197.49 78.8848 -199.472 79.3451 -201.454C79.2491 -198.964 79.1816 -196.475 79.1573 -193.982C79.0716 -184.821 79.5221 -175.651 80.5188 -166.542C81.0244 -161.935 81.6827 -157.351 82.533 -152.798C78.928 -161.205 76.9917 -170.388 76.7275 -179.499ZM99.9637 -130.973C100.524 -135 101.389 -138.995 102.881 -142.782C104.216 -146.184 106.049 -149.435 108.456 -152.193C109.611 -153.52 110.899 -154.727 112.316 -155.771C113.99 -156.998 115.842 -157.942 117.665 -158.921C119.69 -160.007 121.832 -161.265 123.526 -162.91C123.099 -161.938 122.656 -160.975 122.143 -160.04C120.928 -157.827 119.513 -155.728 118.002 -153.709C114.866 -149.519 111.334 -145.649 108.144 -141.501C104.999 -137.408 102.314 -133.053 100.544 -128.179C100.051 -126.822 99.6285 -125.442 99.2579 -124.049C99.4444 -126.361 99.6426 -128.675 99.9637 -130.973ZM104.505 -134.011C105.637 -136.033 106.915 -137.976 108.326 -139.847C111.466 -144.014 115.048 -147.821 118.242 -151.948C119.644 -153.759 120.974 -155.629 122.169 -157.586C120.972 -154.514 119.203 -151.644 117.26 -148.987C113.719 -144.15 109.3 -140.039 105.55 -135.373C105.19 -134.926 104.85 -134.469 104.505 -134.011ZM123.679 -145.738C119.974 -139.856 113.432 -136.763 107.935 -132.888C105.519 -131.184 103.107 -129.278 101.301 -126.909C101.697 -128.061 102.145 -129.19 102.633 -130.294C105.25 -134.287 108.489 -137.835 111.745 -141.33C115.778 -145.655 119.862 -150.104 122.45 -155.489C123.465 -157.6 124.207 -159.822 124.595 -162.117C124.933 -162.873 125.241 -163.642 125.478 -164.431C126.506 -158.102 127.257 -151.422 123.679 -145.738ZM102.588 -99.7792C103.211 -100.234 103.854 -100.665 104.491 -101.098C107.828 -90.5592 105.127 -79.6378 103.519 -68.9102L103.508 -68.9975C103.403 -69.9595 103.371 -71.129 102.918 -72.0008C102.897 -72.0419 102.858 -72.0596 102.826 -72.0901C102.687 -78.2401 102.148 -84.3286 99.7827 -90.1637C99.2741 -91.4196 98.6642 -92.6133 97.9808 -93.7548C98.0437 -93.9207 98.0455 -94.0785 97.9998 -94.2605C97.9741 -94.3559 97.9525 -94.4589 97.9455 -94.5586C97.9447 -94.5919 97.9435 -94.63 97.9424 -94.6419C97.9403 -94.6894 97.9408 -94.7349 97.9413 -94.7803C97.9406 -94.8877 97.9521 -94.9938 97.9635 -95.0999C97.9628 -95.107 97.9632 -95.1023 97.9626 -95.1094C97.9645 -95.1143 97.9649 -95.1096 97.9685 -95.1219C97.9801 -95.1755 97.9917 -95.2291 98.0057 -95.283C98.0164 -95.2959 98.0148 -95.3125 98.0205 -95.3274C98.0474 -95.4207 98.0793 -95.512 98.1161 -95.6014C98.1175 -95.6111 98.1156 -95.6062 98.1199 -95.6114C98.1216 -95.6187 98.1218 -95.6163 98.128 -95.6265C98.1584 -95.6819 98.1844 -95.7344 98.2175 -95.7877C98.2731 -95.8789 98.3339 -95.9658 98.3999 -96.0485C98.4989 -96.1844 98.5079 -96.3667 98.4592 -96.5293C98.9323 -96.9129 99.3973 -97.3054 99.8725 -97.6917C100.761 -98.4083 101.666 -99.1073 102.588 -99.7792ZM108.2 -103.472C110.088 -104.593 112.03 -105.624 114.014 -106.563C116.105 -107.551 118.253 -108.518 120.473 -109.178C122.718 -109.848 124.981 -110.124 127.266 -109.48C129.021 -108.986 130.639 -108.1 132.134 -107.061C125.139 -102.81 119.746 -96.246 115.259 -89.4952C112.892 -85.9337 110.711 -82.2441 108.647 -78.4963C107.192 -75.8566 105.824 -73.1488 104.679 -70.3545C105.782 -77.2831 107.183 -84.1992 107.057 -91.2196C106.994 -94.786 106.516 -98.3395 105.423 -101.737C106.335 -102.336 107.26 -102.916 108.2 -103.472ZM132.878 -106.541C135.73 -104.403 138.062 -101.598 139.759 -98.4647C139.65 -98.4615 139.538 -98.4343 139.432 -98.3455C135.917 -95.4233 132.44 -92.4569 128.925 -89.5323C125.554 -86.7286 122.156 -83.9535 118.828 -81.099C112.906 -76.0204 107.084 -70.2635 104.358 -62.7593C104.311 -62.6259 104.269 -62.4859 104.223 -62.3502C104.133 -63.2013 104.045 -64.0551 103.951 -64.9059C105.109 -69.0291 106.903 -72.9424 108.92 -76.7073C112.839 -84.0208 117.236 -91.2647 122.683 -97.5426C125.653 -100.97 128.962 -104.033 132.597 -106.737C132.689 -106.669 132.785 -106.609 132.878 -106.541ZM142.324 -91.6455C142.79 -89.5546 142.834 -87.4694 143.027 -85.3528C142.166 -85.2215 141.307 -85.0473 140.456 -84.8119C138.214 -84.1874 136.055 -83.2843 133.931 -82.3414C131.871 -81.4261 129.824 -80.4761 127.817 -79.4535C123.869 -77.4432 120.049 -75.1345 116.638 -72.2938C113.594 -69.7597 110.875 -66.7717 108.813 -63.3751C107.79 -61.6907 106.931 -59.8975 106.281 -58.0334C105.985 -57.1817 105.736 -56.313 105.483 -55.4461C104.773 -56.7858 104.621 -58.3999 104.48 -59.8981C104.627 -60.4636 104.785 -61.0278 104.975 -61.5877C106.2 -65.2015 108.152 -68.5016 110.535 -71.4629C113.025 -74.5559 115.937 -77.2805 118.931 -79.8719C122.097 -82.6107 125.34 -85.2661 128.551 -87.9519C132.406 -91.1761 136.298 -94.3584 140.151 -97.5847C140.173 -97.6011 140.179 -97.6207 140.196 -97.6391C141.142 -95.7343 141.864 -93.7226 142.324 -91.6455ZM148.503 -84.0542C148.871 -83.9862 149.234 -83.8963 149.595 -83.8013C142.876 -81.5489 137.06 -77.2993 131.818 -72.5786C126.094 -67.4208 120.927 -61.6541 114.93 -56.7976C113.44 -55.5921 111.871 -54.4844 110.269 -53.4331C109.563 -53.302 108.828 -53.1993 108.112 -53.2249C107.83 -53.3129 107.556 -53.4137 107.298 -53.5588C107.009 -53.7203 106.748 -53.9153 106.504 -54.1311C107.062 -55.9341 107.533 -57.7789 108.28 -59.4875C109.804 -62.967 112.096 -66.0821 114.761 -68.7641C120.656 -74.6999 128.363 -78.5355 135.972 -81.772C139.886 -83.4353 144.206 -84.855 148.503 -84.0542ZM157.493 -79.1206C157.527 -79.088 157.557 -79.0526 157.588 -79.0198C145.049 -73.1167 132.836 -66.4995 120.865 -59.5158C119.085 -58.4788 117.316 -57.4262 115.562 -56.3533C117.993 -58.2994 120.311 -60.3948 122.549 -62.5186C128.129 -67.8133 133.489 -73.4263 139.878 -77.768C143.386 -80.1524 147.189 -82.1108 151.282 -83.2464C153.609 -82.3363 155.725 -80.8953 157.493 -79.1206ZM162.92 -69.2282C163.287 -67.1614 163.039 -65.1155 162.261 -63.1748C155.787 -66.7529 147.952 -64.8848 141.204 -63.2194C132.905 -61.1691 124.801 -58.3944 116.773 -55.4717C115.457 -54.9919 114.147 -54.5007 112.837 -54.0094C118.301 -57.2085 123.748 -60.4323 129.295 -63.4769C135.432 -66.847 141.651 -70.0384 147.911 -73.1669C151.365 -74.8919 154.84 -76.5733 158.324 -78.2342C160.58 -75.7032 162.33 -72.5633 162.92 -69.2282ZM162.02 -62.6483C161.265 -60.9676 160.228 -59.4204 159.178 -57.9126C156.986 -54.7641 154.647 -51.4607 151.901 -48.6611C151.896 -48.663 151.898 -48.668 151.893 -48.6723C146.5 -51.5356 140.149 -52.575 134.123 -53.0288C127.602 -53.5197 121.068 -53.0422 114.596 -52.2077C112.734 -51.9677 110.878 -51.6995 109.022 -51.4148C108.872 -51.3911 108.722 -51.3673 108.572 -51.3437C108.9 -51.4749 109.228 -51.6037 109.557 -51.7302C111.505 -52.487 113.457 -53.2369 115.412 -53.9752C119.284 -55.4363 123.177 -56.842 127.1 -58.1599C131.058 -59.4881 135.047 -60.7096 139.071 -61.8196C142.74 -62.8293 146.449 -63.8452 150.232 -64.3213C154.209 -64.8203 158.377 -64.6258 161.964 -62.6668C161.984 -62.6568 162.001 -62.6559 162.02 -62.6483ZM140.837 -42.1044C140.452 -42.0227 140.067 -41.9649 139.682 -41.9096C138.585 -42.618 137.47 -43.2866 136.353 -43.9119C129.023 -48.0158 120.686 -50.5276 112.279 -50.7188C112.657 -50.7759 113.036 -50.838 113.414 -50.8927C116.752 -51.3745 120.102 -51.7787 123.469 -52.0101C129.641 -52.4368 135.839 -52.3597 141.925 -51.1258C145.212 -50.459 148.382 -49.4159 151.535 -48.2851C148.56 -45.3397 145.103 -43.0081 140.837 -42.1044ZM137.777 -41.2667C137.926 -41.2569 138.068 -41.2655 138.213 -41.2601C140.41 -39.8697 142.517 -38.3395 144.483 -36.6431C148.189 -33.4512 151.445 -29.6295 153.274 -25.0381C154.458 -22.0717 155.037 -18.8549 155.043 -15.6437C152.763 -23.1656 148.282 -30.0166 142.339 -35.1301C138.949 -38.0461 135.122 -40.4361 131.002 -42.161C126.808 -43.9172 122.438 -44.7708 117.964 -45.4378C115.432 -45.8176 112.892 -46.1799 110.416 -46.8539C109.776 -47.0276 109.16 -47.2345 108.553 -47.4591C109.065 -47.6793 109.604 -47.8471 110.126 -48.011C111.504 -48.4393 112.882 -48.863 114.253 -49.3075C114.281 -49.3172 114.301 -49.3335 114.328 -49.3456C120.503 -48.9391 126.602 -47.2623 132.193 -44.5967C134.044 -43.711 135.845 -42.7084 137.598 -41.6295C137.518 -41.4907 137.569 -41.2805 137.777 -41.2667ZM154.68 -11.1824C154.298 -8.97577 153.62 -6.80808 152.659 -4.78331C152.938 -8.94068 150.899 -12.9081 148.419 -16.2203C145.561 -20.0366 142.189 -23.525 138.612 -26.6622C135.079 -29.7629 131.264 -32.5434 127.222 -34.9371C123.313 -37.2549 119.173 -39.0663 115.108 -41.0757C112.939 -42.1464 110.802 -43.2917 108.797 -44.6477C108.095 -45.1212 107.422 -45.6308 106.765 -46.1611C106.847 -46.2715 106.932 -46.3798 107.03 -46.4797C107.121 -46.5719 107.229 -46.6371 107.329 -46.7181C109.898 -45.8404 112.629 -45.3432 115.247 -44.9286C119.689 -44.2227 124.123 -43.6855 128.393 -42.1993C136.979 -39.2119 144.485 -33.4411 149.491 -25.8181C151.933 -22.0988 153.755 -18.02 154.976 -13.751C154.914 -12.8903 154.826 -12.0319 154.68 -11.1824ZM148.206 0.703632C148.12 0.747584 148.029 0.77048 147.94 0.812288C145.006 -7.34752 137.308 -12.6321 130.766 -17.7416C123.795 -23.1855 117.436 -29.382 111.873 -36.272C110.295 -38.2222 108.792 -40.2296 107.363 -42.2917C106.974 -42.8521 106.604 -43.4284 106.235 -44.0026C106.222 -44.0921 106.212 -44.1795 106.198 -44.269C106.223 -44.5364 106.263 -44.8004 106.316 -45.0657C106.504 -44.9186 106.691 -44.7692 106.878 -44.6292C108.596 -43.3393 110.447 -42.2339 112.343 -41.2282C116.198 -39.1799 120.239 -37.5095 124.101 -35.481C132.295 -31.1744 139.699 -25.2532 145.734 -18.2191C149.247 -14.1278 152.655 -9.09068 151.977 -3.43905C151.06 -1.78375 149.88 -0.187302 148.206 0.703632ZM144.48 1.28419C143.029 1.16782 141.585 0.960164 140.141 0.790608C138.753 0.627772 137.367 0.464673 135.979 0.304204C134.428 -2.8449 131.823 -5.34059 129.162 -7.56839C126.191 -10.0559 123.201 -12.4676 120.526 -15.2838C115.57 -20.5069 111.551 -26.5921 108.622 -33.1741C107.839 -35.906 107.212 -38.6623 106.676 -41.4533C107.739 -39.9871 108.828 -38.5376 109.95 -37.1127C112.642 -33.6963 115.526 -30.4365 118.586 -27.3485C121.623 -24.287 124.836 -21.402 128.2 -18.7056C131.822 -15.8019 135.65 -13.1516 139.101 -10.0337C142.568 -6.90281 145.533 -3.27331 147.445 1.01414C146.497 1.33037 145.494 1.36529 144.48 1.28419ZM131.386 -0.234629C126.432 -0.813524 121.439 -1.36005 116.632 -2.75511C114.33 -3.42163 112.096 -4.30464 110.013 -5.45027C110.007 -5.46166 110.008 -5.47139 110.003 -5.48278C108.762 -7.73703 108.336 -10.2901 108.177 -12.8326C108.014 -15.3938 108.029 -17.9621 107.859 -20.525C107.508 -25.8647 106.75 -31.2018 105.509 -36.4099C104.915 -38.9018 104.203 -41.3587 103.359 -43.7721C103.414 -44.0279 103.472 -44.2866 103.529 -44.5427C103.73 -43.5491 104.006 -42.5675 104.282 -41.6026C104.819 -39.7237 105.448 -37.8703 106.155 -36.0481C107.582 -32.3716 109.308 -28.8235 111.369 -25.4622C113.414 -22.1233 115.763 -18.9634 118.378 -16.0532C120.965 -13.1737 123.836 -10.6291 126.84 -8.19957C129.926 -5.69906 133.033 -3.1504 135.194 0.211014C133.924 0.0633188 132.656 -0.0845668 131.386 -0.234629ZM104.263 -9.7772C100.976 -13.1494 98.7111 -17.3583 97.6064 -21.9344C97.5829 -22.0325 97.5638 -22.1334 97.5424 -22.234C97.5731 -22.4136 97.5962 -22.5973 97.5934 -22.7785C97.5929 -22.9361 97.5883 -23.1362 97.5506 -23.2831C97.5104 -23.4322 97.4277 -23.5772 97.3485 -23.7106C97.3226 -23.7583 97.2754 -23.7801 97.2385 -23.8172C97.2258 -23.902 97.2081 -23.9887 97.1953 -24.0735C99.9616 -29.8885 101.669 -36.2055 103.079 -42.4992C104.282 -38.0971 105.343 -33.6529 106.045 -29.1391C106.471 -26.4093 106.78 -23.6637 106.971 -20.9093C107.153 -18.264 107.144 -15.6126 107.303 -12.9698C107.438 -10.6735 107.766 -8.38096 108.644 -6.26208C107.066 -7.25707 105.588 -8.41684 104.263 -9.7772ZM75.8523 -5.72576C73.5746 -5.12658 71.1946 -4.90698 68.8592 -5.24797C67.8386 -5.39771 66.8491 -5.67216 65.891 -6.0427C65.9251 -6.03397 65.9552 -6.01769 65.9991 -6.03138C72.9455 -8.19062 79.3344 -11.847 84.8768 -16.5579C90.4171 -21.2662 95.1259 -26.9946 98.5679 -33.4154C99.2155 -34.6226 99.8008 -35.8598 100.359 -37.1088C99.3119 -33.1202 98.0497 -29.1949 96.3538 -25.4532C96.2991 -25.4026 96.2702 -25.3306 96.2613 -25.2486C95.7125 -24.0531 95.1243 -22.8729 94.4763 -21.7205C90.4196 -14.4753 84.0835 -7.88672 75.8523 -5.72576ZM63.0235 -7.48448C59.4437 -9.71876 56.6272 -12.9921 53.8636 -16.1344C52.6857 -17.4728 51.5243 -18.839 50.5237 -20.3159C58.8377 -21.8757 67.1683 -23.5876 75.1803 -26.332C82.5076 -28.8424 89.545 -32.3594 95.6709 -37.1396C97.5037 -38.5708 99.2439 -40.1509 100.867 -41.8393C100.689 -41.2805 100.504 -40.7209 100.301 -40.167C99.6763 -38.4676 98.965 -36.8006 98.1615 -35.1775C96.5935 -31.997 94.7352 -28.9683 92.6139 -26.1297C88.3251 -20.3884 82.9593 -15.4698 76.8575 -11.721C73.4049 -9.60221 69.7083 -7.82572 65.8881 -6.47698C65.697 -6.40882 65.6953 -6.17467 65.8072 -6.07299C64.8388 -6.4521 63.906 -6.93249 63.0235 -7.48448ZM49.6302 -21.7432C48.4064 -23.8963 47.754 -26.249 47.5103 -28.707C47.3083 -30.775 47.275 -32.8947 47.4165 -35.0022C54.6775 -33.6738 62.2035 -33.7242 69.4854 -34.8238C77.2764 -36.0001 84.8462 -38.4115 91.8702 -41.9941C94.8056 -43.491 97.6158 -45.2054 100.307 -47.0996C100.996 -46.6297 101.392 -45.9363 101.416 -45.0455C101.426 -44.6906 101.403 -44.335 101.374 -43.9766C99.7304 -42.033 97.9551 -40.218 96.0011 -38.5581C93.1502 -36.1402 90.0389 -34.0607 86.7709 -32.2554C79.55 -28.2627 71.6 -25.6936 63.6297 -23.6934C59.2113 -22.5819 54.7505 -21.6433 50.2966 -20.6813C50.0686 -21.0299 49.8383 -21.3783 49.6302 -21.7432ZM47.4535 -35.5693C47.6605 -38.0674 48.1294 -40.5401 48.9202 -42.8784C49.3888 -44.267 50.0009 -45.6237 50.7387 -46.9087C63.3708 -42.0128 77.7962 -41.3383 90.8763 -44.6871C93.5807 -45.379 96.2112 -46.2741 98.7777 -47.3423C93.5823 -43.722 87.9078 -40.8158 81.9228 -38.7305C74.6177 -36.1864 66.9289 -34.8096 59.1916 -34.7297C55.2623 -34.6888 51.3416 -35.0117 47.4535 -35.5693ZM51.2814 -47.7908C52.5677 -49.7938 54.179 -51.5814 56.1306 -52.9379C59.5653 -55.3224 63.9369 -56.2742 68.0045 -55.1247C68.447 -54.9992 68.8832 -54.8397 69.3135 -54.6677C76.4935 -50.0841 85.1306 -48.4173 93.6279 -48.311C95.1106 -47.701 96.7574 -47.9757 98.3148 -47.7858C86.5769 -43.5248 73.71 -42.3571 61.4505 -44.8406C57.9792 -45.5449 54.5997 -46.5635 51.2814 -47.7908ZM60.3657 -65.3578C57.0006 -70.5136 54.6997 -76.2688 52.3041 -81.9172C50.8996 -85.2306 49.4928 -88.5437 48.0883 -91.857C47.4339 -93.3976 46.5889 -94.9656 46.1438 -96.5832C46.0864 -96.788 46.0526 -96.9949 46.0353 -97.2034C56.3435 -92.6782 59.9968 -81.0832 66.0856 -72.4256C71.7616 -64.3618 79.3931 -57.7648 88.1839 -53.333C91.0544 -51.8843 94.0424 -50.6783 97.105 -49.7157C96.3144 -49.8227 95.5166 -49.8812 94.719 -49.8609C93.7459 -49.8361 92.6547 -49.6998 91.7209 -49.3323C85.0739 -49.6752 78.5021 -50.9874 72.5824 -54.09C67.5565 -56.7229 63.4687 -60.6095 60.3657 -65.3578ZM46.0771 -97.8712C46.1282 -98.0861 46.2012 -98.296 46.3446 -98.491C46.7471 -99.0423 47.3938 -99.3755 48.0013 -99.6453C49.4308 -100.282 50.971 -100.728 52.4544 -101.221C52.4797 -101.23 52.5052 -101.238 52.5305 -101.247C52.5069 -101.068 52.579 -100.884 52.8035 -100.824C61.7602 -98.3682 70.1112 -93.8066 77.0844 -87.6561C80.5903 -84.5648 83.7646 -81.0792 86.4842 -77.269C89.3352 -73.2754 91.5333 -68.9384 93.5848 -64.4921C94.8164 -61.8263 96.0185 -59.1458 97.3933 -56.5508C98.2472 -54.9383 99.1997 -53.2897 100.293 -51.7666C98.7405 -53.0124 97.2067 -54.2648 95.7665 -55.6596C93.9958 -57.3815 92.3359 -59.2141 90.7556 -61.1116C87.5096 -65.0035 84.6232 -69.1705 81.7261 -73.3246C76.1413 -81.33 69.8941 -89.3447 61.342 -94.3243C56.9187 -96.8994 51.9991 -98.63 46.86 -98.7783C46.1968 -98.797 46.1656 -97.7649 46.8314 -97.7441C56.2961 -97.471 64.6085 -92.082 71.0059 -85.4259C77.992 -78.1543 83.2833 -69.4764 89.6425 -61.6872C91.3617 -59.5784 93.172 -57.5379 95.1149 -55.6316C96.5544 -54.2176 98.0831 -52.7928 99.7297 -51.5798C99.4664 -51.5215 99.2041 -51.4515 98.9486 -51.3605C98.4619 -51.2979 97.9713 -51.2779 97.5351 -51.2607C96.8007 -51.2273 96.0587 -51.2481 95.3188 -51.2977C88.8297 -53.5753 82.7438 -56.9774 77.384 -61.3339C73.5289 -64.4688 70.0369 -68.0939 67.1047 -72.1157C63.6527 -76.855 61.1924 -82.2059 57.9761 -87.0964C55.0541 -91.5394 51.1688 -95.9537 46.0771 -97.8712ZM57.5174 -102.789C60.8222 -103.724 64.1869 -104.478 67.6018 -104.877C72.6383 -105.464 77.7934 -105.198 82.6468 -103.714C87.065 -98.4925 89.7308 -92.0218 91.8007 -85.5619C94.1785 -78.1329 96.1283 -70.5751 98.126 -63.0386C99.0792 -59.4392 100.007 -55.8301 100.935 -52.2235C100.914 -52.1976 100.892 -52.1717 100.871 -52.1482C99.9935 -53.4768 99.1527 -54.8231 98.4018 -56.2519C97.1569 -58.6299 96.0327 -61.0647 94.9286 -63.5132C92.8668 -68.0947 90.729 -72.5997 87.8797 -76.7511C82.6032 -84.4393 75.5883 -90.9059 67.5304 -95.5644C63.0811 -98.137 58.3165 -100.143 53.3687 -101.517C54.7447 -101.964 56.1243 -102.398 57.5174 -102.789ZM84.8284 -102.96C90.0315 -100.921 94.4219 -97.3068 97.1171 -92.3672C103.115 -81.3704 100.72 -68.4625 101.529 -56.4679C101.515 -55.8099 101.523 -55.1516 101.556 -54.4933C101.569 -54.2247 101.588 -53.9566 101.608 -53.6887C101.559 -53.407 101.475 -53.1365 101.363 -52.8776C99.7237 -59.8462 98.0543 -66.8023 96.1706 -73.7097C94.2217 -80.8544 92.2873 -88.1486 89.2389 -94.9174C87.93 -97.8219 86.3199 -100.59 84.383 -103.116C84.5309 -103.06 84.6825 -103.017 84.8284 -102.96ZM107.226 30.3038C103.531 28.0397 99.7247 25.951 95.9629 23.8055C91.7132 21.3813 87.4636 18.957 83.2137 16.5304C81.9991 15.8378 80.791 15.1374 79.5805 14.4373C79.3895 14.3287 79.2003 14.2152 79.0112 14.1017C87.1744 15.9397 94.9018 19.667 101.442 24.908C103.346 26.4334 105.195 28.0931 106.924 29.8284C107.022 29.9887 107.125 30.1438 107.226 30.3038ZM108.061 31.6243C98.3445 29.811 89.1248 25.2215 81.693 18.6987C79.9964 17.2086 78.4127 15.6028 76.9161 13.9124C77.5826 14.2937 78.2617 14.6571 78.9228 15.0318C79.9606 15.6169 81.0006 16.1993 82.0388 16.7892C84.1459 17.9898 86.2514 19.1979 88.3563 20.4011C92.6062 22.8277 96.8538 25.2546 101.102 27.6838C103.377 28.9832 105.651 30.2875 107.98 31.4911C108.008 31.5362 108.033 31.5792 108.061 31.6243ZM106.21 12.9679C105.763 9.68611 105.661 6.36695 105.883 3.06508C106.09 3.29389 106.284 3.53348 106.484 3.76533C106.678 4.65451 106.949 5.53872 107.155 6.3861C107.52 7.88237 107.914 9.36862 108.305 10.8577C109.083 13.8361 109.9 16.8036 110.739 19.7644C112.412 25.6838 114.195 31.5882 116.215 37.4009C116.953 39.5258 117.719 41.6433 118.494 43.7575C112.526 34.3555 107.721 24.0725 106.21 12.9679ZM115.646 18.9459C116.835 22.0193 117.731 25.211 118.313 28.4539C118.95 32.0044 119.084 35.5998 119.372 39.1879C119.579 41.764 119.853 44.4174 120.566 46.9268C120.292 46.5228 120.025 46.1134 119.756 45.7065C115.846 34.5726 112.34 23.2693 109.48 11.819C109.068 10.1697 108.686 8.51269 108.287 6.85963C108.185 6.43227 108.085 6.00707 107.986 5.57949C111.179 9.62438 113.781 14.1334 115.646 18.9459ZM122.791 52.9877C122.715 52.9638 122.638 52.9351 122.56 52.9139C121.953 52.737 121.337 52.6352 120.716 52.56C117.028 51.2935 113.142 50.5041 109.4 49.5531C104.346 48.2696 99.2787 46.7869 94.7359 44.1563C93.5205 43.4542 92.352 42.6689 91.2577 41.7882C91.2138 41.7518 91.1719 41.7103 91.1254 41.6717C100.715 45.7727 112.092 45.0751 120.797 51.3441C121.499 51.8486 122.162 52.3998 122.791 52.9877ZM112.175 52.8231C105.661 52.9239 98.8524 51.6029 93.7063 47.3433C91.5746 45.579 89.8098 43.3646 88.6863 40.8367C89.1218 41.266 89.5788 41.6719 90.0315 42.0567C90.9579 42.8481 91.9328 43.5728 92.9558 44.2286C95.1317 45.6281 97.4809 46.7224 99.9018 47.6165C105.163 49.5633 110.711 50.5446 116.117 51.9835C116.691 52.1348 117.259 52.3033 117.826 52.4695C115.935 52.5451 114.031 52.7962 112.175 52.8231ZM123.371 35.9979C124.703 36.8968 125.99 37.8595 127.197 38.9254C127.921 39.5616 128.617 40.2291 129.282 40.9234C129.865 41.5322 130.417 42.1678 131.009 42.7663C127.6 41.8412 124.69 39.2859 123.371 35.9979ZM132.137 39.059C132.663 38.6035 133.13 38.0533 133.625 37.5721C134.224 36.9878 134.834 36.4169 135.452 35.8548C136.644 34.7753 137.866 33.7264 139.129 32.7334C139.426 32.5024 139.739 32.215 140.105 32.1136C140.493 32.0079 140.81 32.169 140.641 32.598C140.391 33.2305 139.677 33.828 139.208 34.3068C138.192 35.3434 137.067 36.2589 135.855 37.0514C134.676 37.8239 133.434 38.5069 132.138 39.0614C132.137 39.059 132.137 39.059 132.137 39.059ZM131.896 31.0465C132.164 29.9825 132.496 28.9339 132.892 27.9104C133.676 25.8784 134.722 23.9483 135.98 22.1725C136.627 21.2638 137.331 20.3975 138.091 19.5808C138.292 19.3637 139.139 18.4074 139.287 19.0359C139.385 19.454 139.017 20.1144 138.877 20.493C138.078 22.6457 137.046 24.7034 135.839 26.656C134.604 28.654 133.181 30.5648 131.606 32.3108C131.7 31.8912 131.791 31.4695 131.896 31.0465ZM121.181 21.421C124.581 23.6913 127.482 26.6056 129.842 29.9554C129.901 30.2508 129.959 30.5461 130.011 30.8421C126.499 28.3125 123.492 25.0906 121.181 21.421ZM127.475 16.5126C127.298 15.5121 127.141 14.5073 127.006 13.498C126.814 12.0738 126.687 10.6435 126.585 9.21079C127.415 10.5701 127.963 12.0944 128.201 13.6815C128.453 15.3698 128.294 17.0706 127.905 18.7192C127.773 17.9818 127.607 17.2476 127.475 16.5126ZM119.655 15.0315C119.49 14.8943 118.014 13.7248 118.21 13.5081C118.341 13.362 118.841 13.5848 118.978 13.6315C119.312 13.7433 119.643 13.8697 119.968 14.0063C121.196 14.5208 122.354 15.2141 123.405 16.0367C124.026 16.5226 124.615 17.064 125.164 17.6426C125.321 17.8905 125.469 18.1441 125.616 18.3976C123.468 17.5901 121.449 16.4957 119.655 15.0315ZM136.692 49.6403C137.266 45.0253 138.979 40.6634 141.719 36.9116C147.065 29.5925 156.164 25.0718 165.271 26.0996C167.845 26.3895 170.374 26.9486 172.787 27.9056C174.784 28.6987 176.682 29.7997 178.439 31.0548C178.251 31.0702 178.059 31.0835 177.868 31.1015C175.542 30.5088 173.144 30.2598 170.751 30.0914C168.023 29.8973 165.284 29.8665 162.56 30.1543C157.516 30.6871 152.785 32.4633 148.867 35.7363C141.602 41.8059 138.407 50.9424 136.226 59.9187C136.319 56.4881 136.271 53.0493 136.692 49.6403ZM178.712 32.0057C178.8 32.0022 178.871 31.9669 178.925 31.9188C179.004 31.9233 179.084 31.9301 179.165 31.9344C178.289 33.8771 177.364 35.8484 176.247 37.6825C173.535 38.6235 170.875 39.6074 168.016 40.0202C164.91 40.4659 161.789 40.6455 158.789 41.6327C157.415 42.0846 156.081 42.6402 154.763 43.223C153.488 43.7896 152.193 44.332 151.003 45.0674C148.935 46.3489 147.19 48.0512 145.605 49.8865C145.253 50.2922 144.914 50.7087 144.574 51.1227C142.936 52.3756 141.458 53.8354 140.189 55.4618C139.176 56.7608 138.298 58.1736 137.579 59.6598C138.315 56.7107 139.126 53.783 140.221 50.929C141.984 46.3356 144.447 41.9437 147.923 38.4329C151.44 34.8777 155.814 32.6194 160.733 31.7712C163.688 31.2611 166.707 31.2296 169.694 31.3969C172.704 31.5669 175.696 32.0871 178.712 32.0057ZM173.058 41.7919C171.502 43.2997 169.646 44.3868 167.577 45.0331C165.4 45.7112 163.116 45.9624 160.849 46.1545C156.676 46.5074 152.534 46.7952 148.686 48.6026C148.064 48.8953 147.465 49.224 146.874 49.5734C148.034 48.3513 149.269 47.2129 150.679 46.2704C151.765 45.5448 152.923 44.9843 154.11 44.4474C155.47 43.8344 156.836 43.2281 158.24 42.7256C161.138 41.6907 164.116 41.3836 167.148 41.0118C168.835 40.805 170.509 40.523 172.148 40.0652C173.229 39.7651 174.292 39.4094 175.353 39.0491C174.669 40.0281 173.919 40.9561 173.058 41.7919ZM135.385 76.4579C135.748 76.2755 136.115 76.1025 136.489 75.9358C134.5 78.4038 133.41 81.6324 132.817 84.7113C132.32 87.2893 132.024 89.9201 131.732 92.5289C131.434 95.198 131.218 97.8785 131.085 100.561C131.003 102.19 130.975 103.811 130.981 105.435C130.182 104.612 129.43 103.747 128.736 102.829C127.81 98.8373 127.287 94.7508 127.274 90.6735C127.264 87.7421 127.591 84.6715 129.032 82.0665C130.445 79.5144 132.819 77.7408 135.385 76.4579ZM146.935 73.6401C138.613 79.7879 137.623 91.4219 134.795 100.667C134.333 102.179 133.81 103.673 133.181 105.125C132.939 105.687 132.667 106.233 132.387 106.773C132.146 106.562 131.896 106.356 131.663 106.134C131.773 102.158 131.977 98.1819 132.382 94.2275C132.644 91.6597 132.974 89.0974 133.432 86.5566C133.864 84.1518 134.4 81.7109 135.467 79.4995C136.315 77.7456 137.476 76.1819 138.976 74.9731C141.538 74.1155 144.243 73.6312 146.935 73.6401ZM153.864 74.8757C154.446 75.0955 155.013 75.3525 155.565 75.6347C151.068 76.9732 148.205 81.2571 146.163 85.3109C144.886 87.8478 143.709 90.4256 142.357 92.9218C140.995 95.4333 139.532 97.8899 137.968 100.28C136.55 102.452 135.046 104.567 133.531 106.672C133.492 106.729 133.447 106.783 133.407 106.842C133.382 106.877 133.357 106.916 133.33 106.954C133.237 107.082 133.145 107.213 133.052 107.343C133.032 107.328 133.016 107.311 132.995 107.296C133.795 105.809 134.419 104.203 134.962 102.667C135.908 99.9842 136.599 97.2183 137.286 94.4576C138.56 89.3397 139.879 84.153 142.686 79.6284C144.145 77.282 146.003 75.2085 148.315 73.6939C150.202 73.8216 152.072 74.1993 153.864 74.8757ZM163.337 84.4536C154.272 87.5338 145.986 92.7802 139.334 99.6685C140.325 98.1161 141.288 96.5447 142.193 94.9454C143.565 92.5357 144.81 90.0639 146.016 87.567C147.198 85.1154 148.439 82.6226 150.235 80.5572C152.002 78.5257 154.303 76.9071 156.978 76.4399C159.944 78.3237 162.286 81.1069 163.337 84.4536ZM163.902 87.3183C164.089 89.6337 163.642 91.8822 162.626 93.8932C160.59 96.4802 158.286 98.8488 155.541 100.693C155.487 100.729 155.446 100.769 155.412 100.813C155.267 100.896 155.123 100.976 154.978 101.057C154.503 101.19 154.03 101.32 153.552 101.459C153.472 101.483 153.43 101.547 153.403 101.616C153.086 101.66 152.769 101.7 152.454 101.744C146.026 102.643 139.54 104.356 133.92 107.686C134.669 106.644 135.445 105.62 136.258 104.627C137.995 102.505 139.879 100.505 141.885 98.6399C145.943 94.8642 150.457 91.6161 155.369 89.0517C158.027 87.6645 160.782 86.4782 163.62 85.5087C163.751 86.098 163.853 86.6997 163.902 87.3183ZM171.586 82.4796C173.844 78.7995 176.247 75.2347 179.132 72.0137C182.1 68.7011 185.445 65.7138 189.083 63.1597C192.501 60.7575 196.167 58.7523 200.032 57.2011C199.183 58.0095 198.406 58.9066 197.696 59.8594C197.41 60.2087 197.122 60.5559 196.838 60.9026C195.397 62.679 194.008 64.5006 192.66 66.3494C189.935 70.0854 187.334 73.9125 184.602 77.6444C179.483 84.6484 173.83 91.3636 166.471 96.0952C164.542 97.3373 162.513 98.4288 160.398 99.3183C159.785 99.5767 159.166 99.7999 158.543 100.007C158.64 99.9258 158.727 99.8317 158.823 99.7486C159.732 99.1352 160.595 98.4497 161.375 97.6622C162.283 96.7455 163.041 95.7214 163.651 94.6204C166.63 90.8341 169.076 86.5703 171.586 82.4796ZM160.437 100.155C162.095 99.4974 163.707 98.7246 165.255 97.8336C168.94 95.7072 172.295 93.027 175.347 90.0696C181.879 83.7419 186.973 76.1888 192.307 68.8708C192.743 68.2733 193.187 67.6822 193.629 67.0866C192.043 70.6866 190.785 74.4324 189.101 77.9892C185.545 85.4977 179.634 91.7286 172.394 95.7685C168.661 97.8492 164.615 99.2981 160.437 100.155ZM193.41 78.7459C192.043 82.7527 190.069 86.4991 187.052 89.5034C183.855 92.6846 179.864 94.9806 175.669 96.563C172.422 97.7884 169.07 98.6011 165.687 99.2877C171.4 97.4931 176.734 94.3373 181.1 90.2985C184.068 87.5544 186.682 84.3398 188.722 80.8402C191.178 76.6304 192.717 71.9818 194.772 67.5782C195.797 65.3802 196.96 63.2289 198.39 61.2649C198.405 61.2421 198.425 61.2235 198.439 61.203C196.256 66.8461 195.362 73.0267 193.41 78.7459ZM159.779 102.462C162.525 102.342 165.485 102.447 168.026 103.628C167.593 103.502 167.155 103.395 166.713 103.327C163.641 102.848 160.375 103.411 157.327 103.837C151.003 104.724 144.8 106.219 138.782 108.355C138.4 108.489 138.021 108.632 137.639 108.771C137.655 108.719 137.677 108.669 137.686 108.618C137.719 108.46 137.68 108.323 137.607 108.213C137.6 108.156 137.597 108.099 137.575 108.041C137.488 107.83 137.278 107.647 137.045 107.592C140.987 105.673 145.265 104.434 149.578 103.643C152.939 103.026 156.364 102.612 159.779 102.462ZM172.089 107.529C172.117 107.576 172.154 107.611 172.19 107.637C172.853 108.873 173.309 110.244 173.598 111.652C173.908 113.146 174.073 114.668 174.176 116.189C173.326 114.724 171.924 113.607 170.368 112.875C167.706 111.62 164.728 111.623 161.849 111.697C155.152 111.867 148.46 112.075 141.766 112.32C139.876 112.39 137.989 112.458 136.101 112.529C136.087 112.53 136.073 112.529 136.059 112.53C135.999 112.355 135.947 112.176 135.918 111.995C135.85 111.581 135.898 111.151 136.013 110.734C136.666 110.472 137.319 110.205 137.981 109.959C140.752 108.936 143.567 108.033 146.413 107.247C149.332 106.441 152.288 105.737 155.262 105.182C158.173 104.638 161.18 104.075 164.149 104.018C167.16 103.956 170.415 104.786 172.089 107.529ZM172.964 121.354C172.162 122.134 171.132 122.644 170.073 123.045C165.449 120.534 160.317 119.126 155.242 117.864C149.55 116.45 143.851 115.058 138.15 113.67C137.805 113.586 137.461 113.501 137.115 113.417C138.04 113.378 138.966 113.34 139.893 113.301C143.135 113.167 146.38 113.031 149.622 112.892C152.826 112.757 156.031 112.632 159.231 112.43C162.254 112.241 165.34 112.007 168.305 112.8C170.868 113.483 173.22 115.183 174.236 117.688C174.233 119.037 173.993 120.352 172.964 121.354ZM168.69 123.519C166.935 124.062 165.118 124.414 163.288 124.57C159.604 124.889 155.887 124.504 152.309 123.583C148.725 122.662 145.293 121.216 142.039 119.457C140.435 118.591 138.893 117.631 137.367 116.646C136.259 115.563 135.09 114.546 133.893 113.561C133.9 113.56 133.905 113.56 133.912 113.561C134.394 113.674 134.876 113.788 135.36 113.902C135.494 114.083 135.641 114.258 135.803 114.415C136.097 114.7 136.429 114.943 136.793 115.126C137.178 115.317 137.567 115.383 137.989 115.443C138.389 115.499 138.4 114.934 138.095 114.796C137.874 114.697 137.658 114.555 137.455 114.395C140.117 115.023 142.784 115.643 145.447 116.263C150.819 117.517 156.253 118.645 161.536 120.248C164.214 121.063 166.831 122.068 169.345 123.302C169.126 123.375 168.908 123.453 168.69 123.519ZM143.13 125.63C143.912 126.781 144.67 127.956 145.34 129.178C145.934 130.263 146.523 131.533 146.417 132.804C146.287 134.361 145.082 135.107 143.679 135.486C138.761 130.748 135.043 124.931 133.194 118.309C132.831 117.006 132.573 115.684 132.357 114.353C133.253 115.051 134.151 115.743 135.068 116.406C138.107 119.145 140.827 122.244 143.13 125.63ZM142.949 135.65C142.047 135.816 141.122 135.872 140.389 135.922C135.809 136.232 131.197 135.542 126.886 133.977C127.446 127.352 128.896 120.88 131.324 114.701C132.397 121.085 135.343 127.2 139.49 132.12C140.556 133.385 141.707 134.564 142.949 135.65ZM124.878 133.177C122.446 132.115 120.141 130.734 118.042 129.108C116.797 128.144 115.197 126.847 114.619 125.335C114.705 124.938 114.784 124.539 114.829 124.136C114.866 123.82 114.693 123.645 114.471 123.587C114.548 123.243 114.684 122.894 114.904 122.534C115.28 121.928 115.776 121.408 116.32 120.939C116.375 120.893 116.432 120.845 116.487 120.799C117.013 120.363 117.575 119.968 118.122 119.592C119.495 118.65 120.925 117.802 122.397 117.03C123.891 116.247 125.434 115.571 127.009 114.969C127.262 114.874 127.518 114.795 127.772 114.706C127.827 114.713 127.882 114.717 127.942 114.7C128.132 114.644 128.303 114.563 128.461 114.467C129.194 114.221 129.924 113.964 130.654 113.706C128.102 120.072 126.578 126.904 126.34 133.768C125.849 133.58 125.36 133.39 124.878 133.177ZM110.295 123.792C106.291 126.044 101.888 127.596 97.3476 128.294C88.4959 129.651 79.3645 127.563 71.7984 122.796C67.9812 120.391 64.5885 117.315 61.8534 113.719C63.1613 114.82 64.6078 115.778 66.0585 116.653C67.8954 117.765 69.8204 118.725 71.7932 119.561C75.7687 121.247 79.9683 122.358 84.2465 122.914C88.5224 123.471 92.847 123.41 97.1134 122.781C101.882 122.078 106.434 120.493 110.934 118.803C113.912 117.687 116.885 116.592 119.906 115.646C120.066 115.626 120.226 115.606 120.386 115.584C119.458 116.574 118.52 117.548 117.539 118.479C116.512 119.163 115.486 119.89 114.653 120.798C114.543 120.918 114.436 121.043 114.333 121.169C113.043 122.127 111.694 123.006 110.295 123.792ZM107.089 118.246C108.757 118.027 110.421 117.753 112.079 117.444C107.835 119.026 103.575 120.622 99.1194 121.495C90.7397 123.14 81.9224 122.238 73.9349 119.261C71.7009 118.431 69.545 117.418 67.4586 116.261C66.6175 115.794 65.8036 115.288 65.0002 114.766C71.5793 116.837 78.3823 117.977 85.2297 118.705C92.4736 119.474 99.8763 119.201 107.089 118.246ZM104.72 115.537C104.921 115.547 105.124 115.557 105.325 115.566C107.825 115.959 110.344 116.127 112.865 116.114C111.341 116.434 109.811 116.734 108.273 116.984C104.663 117.577 101.02 117.959 97.3649 118.129C90.142 118.466 82.8811 118.098 75.758 116.818C71.7765 116.102 67.857 115.111 63.9777 113.965C63.9141 113.947 63.8631 113.961 63.8177 113.985C63.612 113.847 63.4066 113.713 63.2009 113.575C77.0394 114.257 90.8784 114.92 104.72 115.537ZM134.489 112.084C134.526 112.049 134.561 112.015 134.598 111.98C134.609 112.075 134.611 112.168 134.629 112.262C134.651 112.365 134.687 112.464 134.713 112.564C134.383 112.574 134.053 112.583 133.721 112.591C133.604 112.564 133.487 112.534 133.37 112.507C133.046 112.428 132.722 112.344 132.397 112.26C132.633 112.156 132.871 112.057 133.109 111.954C133.146 111.996 133.181 112.042 133.229 112.071C133.366 112.159 133.51 112.176 133.647 112.166C133.897 112.319 134.223 112.34 134.489 112.084ZM95.1345 111.128C95.9416 110.73 96.7438 110.329 97.5939 110.008C98.6391 109.611 99.7154 109.292 100.805 109.039C103.09 108.513 105.43 108.3 107.769 108.325C112.537 108.379 117.208 109.391 121.758 110.76C123.436 111.266 125.093 111.833 126.745 112.418C126.663 112.688 126.509 112.944 126.262 113.175C119.998 114.551 113.565 115.291 107.176 114.558C103.039 114.086 98.9053 112.965 95.1345 111.128ZM89.1082 107.274C88.078 106.416 86.939 105.389 86.032 104.223C97.8163 102.498 109.992 103.915 121.128 108.14C122.925 108.821 124.679 109.591 126.412 110.407C126.608 110.811 126.755 111.22 126.805 111.617C118.596 108.914 110.059 106.524 101.41 108.308C99.0897 108.787 96.5964 109.548 94.5588 110.826C92.6236 109.834 90.7839 108.668 89.1082 107.274ZM131.054 109.268C130.993 109.381 130.933 109.494 130.872 109.607C130.846 109.66 130.844 109.71 130.851 109.762C130.831 109.778 130.809 109.794 130.787 109.811C130.525 109.076 130.276 108.333 130.041 107.586C130.362 107.807 130.693 108.007 131.033 108.188C131.043 108.547 131.039 108.906 131.054 109.268ZM133.34 109.69C133.771 109.41 134.209 109.137 134.651 108.878C134.528 109.04 134.403 109.205 134.28 109.367C134.07 109.604 133.87 109.857 133.675 110.112C133.562 109.974 133.453 109.829 133.34 109.69ZM131.391 111.201C131.468 111.105 131.534 111.001 131.61 110.903C131.973 110.633 132.332 110.353 132.705 110.098C132.836 110.25 132.965 110.403 133.095 110.551C132.322 110.879 131.555 111.219 130.793 111.573C130.785 111.557 130.776 111.541 130.765 111.525C130.889 111.427 131.021 111.343 131.145 111.246C131.232 111.278 131.325 111.279 131.391 111.201ZM85.6859 103.48C85.6274 103.49 85.5816 103.509 85.5412 103.534C84.6468 102.173 84.1222 100.647 84.4539 98.9919C85.1386 95.5532 89.444 95.1115 92.2788 94.7678C92.3424 94.7618 92.4089 94.7603 92.4724 94.752C92.5083 94.7796 92.5532 94.8017 92.6116 94.8153C102.839 96.9458 112.578 100.734 121.57 106.083C122.724 106.769 123.87 107.471 125.004 108.19C125.25 108.556 125.583 109.01 125.899 109.503C122.046 107.626 117.963 106.17 113.859 105.079C108.021 103.53 101.968 102.747 95.9328 102.736C92.5035 102.729 89.0773 102.983 85.6859 103.48ZM98.7294 89.52C97.39 87.9819 96.0681 86.3275 95.1141 84.5119C94.6385 83.6064 94.3199 82.624 94.2777 81.6465C97.0678 81.6366 99.851 81.453 102.542 82.41C105.215 83.3591 107.348 85.3382 109.289 87.3473C113.623 91.8339 117.762 96.5347 121.829 101.266C121.673 101.276 121.517 101.341 121.389 101.446C119.583 100.057 117.676 98.8089 115.652 97.7532C111.678 95.6803 107.356 94.304 102.927 93.6398C101.434 92.3645 100.021 91.0029 98.7294 89.52ZM124.151 106.919C121.52 105.154 118.811 103.525 115.963 102.084C111.303 99.7226 106.442 97.781 101.439 96.2802C99.2525 95.6243 97.0226 95.0394 94.7809 94.5558C101.132 94.2055 107.591 95.4113 113.361 98.0815C116.389 99.4843 119.249 101.302 121.844 103.414C122.586 104.598 123.369 105.758 124.151 106.919ZM94.8817 79.1945C95.6886 77.86 97.0457 76.9607 98.3999 76.2576C100.063 75.394 101.852 74.7668 103.617 74.1563C105.06 73.655 106.521 73.2091 108.005 72.8472C109.23 75.0647 110.562 77.2267 111.841 79.4152C113.22 81.7758 114.59 84.1397 115.953 86.5113C118.677 91.25 121.381 96.0049 124.053 100.775C125.145 102.721 126.253 104.658 127.359 106.595C124.123 102.38 120.63 98.3417 117.12 94.372C114.894 91.855 112.645 89.3543 110.338 86.9141C108.382 84.8467 106.263 82.8592 103.619 81.721C100.76 80.491 97.4174 80.424 94.3289 80.751C94.4098 80.2204 94.5792 79.6958 94.8817 79.1945ZM109.877 72.4367C112.049 72.0313 114.27 71.8889 116.451 72.1059C116.437 72.1311 116.414 72.1451 116.405 72.1747C116.238 72.7492 116.363 73.2723 116.449 73.854C116.543 74.4947 116.644 75.1347 116.749 75.7719C116.97 77.0859 117.218 78.395 117.493 79.6967C118.039 82.2647 118.691 84.8109 119.442 87.3285C119.464 87.403 119.49 87.4769 119.511 87.5513C119.338 87.2118 119.157 86.8779 118.987 86.5405C118.489 85.5487 118.007 84.5506 117.516 83.5581C117.016 82.5427 116.525 81.4691 115.88 80.5412C115.698 80.2742 115.251 80.4023 115.33 80.7555C115.549 81.721 115.991 82.601 116.338 83.5259C116.69 84.4598 117.158 85.3637 117.595 86.2586C118.468 88.0461 119.397 89.8019 120.367 91.5372C120.748 92.2224 121.145 92.9013 121.542 93.5779C122.027 94.879 122.529 96.1736 123.069 97.4552C119.849 91.5716 116.535 85.7401 113.189 79.9306C111.784 77.496 110.416 75.0245 108.925 72.6386C109.242 72.5682 109.559 72.4953 109.877 72.4367ZM126.711 102.625C126.695 102.677 126.673 102.725 126.682 102.788C126.876 103.995 127.46 105.088 128.264 106.018C128.371 106.402 128.467 106.789 128.584 107.17C127.398 104.992 126.292 102.77 125.267 100.507C125.728 101.228 126.206 101.935 126.711 102.625ZM121.179 73.241C124.39 74.5453 127.187 76.9274 128.65 80.1039C127.155 82.2435 126.387 84.7683 126.103 87.3907C125.695 91.1638 126.102 95.0774 126.676 98.813C126.769 99.4298 126.889 100.042 127.004 100.654C125.177 97.8033 123.46 94.8848 121.828 91.9152C120.533 88.1689 119.454 84.3474 118.618 80.4789C118.322 79.1028 118.053 77.7193 117.813 76.3307C117.689 75.6188 117.574 74.9061 117.466 74.1904C117.361 73.5101 117.36 72.7652 117.015 72.1578C118.432 72.3442 119.828 72.6925 121.179 73.241ZM114.091 170.719C114.038 175.763 112.748 180.679 111.359 185.531C111.276 185.584 111.202 185.651 111.146 185.745C110.621 186.69 109.999 187.563 109.313 188.377C109.683 184.428 109.724 180.42 109.594 176.497C109.411 170.927 108.843 165.376 107.88 159.886C107.336 156.79 106.704 153.695 105.894 150.655C107.091 151.944 108.199 153.318 109.17 154.79C112.287 159.506 114.153 165.035 114.091 170.719ZM123.335 167.539C128.004 163.538 134.48 162.059 140.497 162.769C146.746 163.503 152.611 166.563 157.388 170.585C162.599 174.979 166.663 180.513 170.203 186.312C168.806 184.306 167.113 182.505 165.42 180.752C163.548 178.815 161.587 176.971 159.527 175.235C155.873 172.158 151.769 169.307 147.052 168.214C142.189 167.084 137.282 168.189 132.889 170.399C128.293 172.712 124.457 176.132 120.846 179.749C118.454 182.147 116.119 184.629 113.631 186.936C113.722 186.567 113.823 186.199 113.919 185.851C114.03 185.461 113.824 185.17 113.542 185.034C113.997 183.929 114.437 182.815 114.873 181.709C116.896 176.573 119.039 171.215 123.335 167.539ZM171.022 187.677C167.32 186.261 164.218 183.698 160.857 181.636C158.975 180.481 156.97 179.529 154.838 178.947C152.593 178.334 150.256 178.12 147.934 178.155C142.947 178.231 138.068 179.522 133.334 181C128.996 182.355 124.642 183.723 120.443 185.47C118.149 186.424 115.902 187.508 113.775 188.797C113.615 188.893 113.454 188.999 113.295 189.098C113.3 188.925 113.307 188.753 113.324 188.582C119.218 183.279 124.134 176.846 130.865 172.529C135.041 169.855 139.92 168.055 144.938 168.604C149.739 169.128 154.018 171.741 157.734 174.683C160.009 176.484 162.165 178.449 164.208 180.511C166.29 182.612 168.117 184.932 170.136 187.089C170.295 187.258 170.56 187.116 170.571 186.927C170.723 187.175 170.872 187.426 171.022 187.677ZM171.243 188.485C171.104 188.65 170.96 188.81 170.818 188.974C170.814 188.974 170.809 188.972 170.802 188.973C168.585 189.432 166.425 189.548 164.173 189.258C161.909 188.968 159.692 188.363 157.501 187.736C153.314 186.538 149.169 185.451 144.825 185.022C136.445 184.195 127.884 185.38 120.007 188.346C117.836 189.164 115.732 190.119 113.703 191.208C113.565 190.932 113.478 190.642 113.413 190.35C113.538 190.269 113.659 190.183 113.784 190.102C115.621 188.943 117.557 187.944 119.536 187.058C123.531 185.27 127.71 183.935 131.869 182.597C136.622 181.07 141.455 179.518 146.469 179.222C151.067 178.951 155.501 179.82 159.54 182.059C163.427 184.214 166.982 187.095 171.243 188.485ZM160.264 196.774C156.365 191.969 149.744 189.981 143.79 189.669C139.914 189.463 136.014 189.819 132.181 190.379C128.22 190.957 124.271 191.647 120.32 192.297C118.924 192.526 117.518 192.73 116.114 192.937C115.375 192.718 114.684 192.477 114.168 191.902C119.545 189.218 125.322 187.376 131.291 186.537C135.45 185.951 139.677 185.842 143.861 186.204C148.179 186.58 152.31 187.614 156.465 188.81C160.481 189.965 165.033 191.305 169.278 190.609C166.669 193.171 163.594 195.257 160.264 196.774ZM150.601 199.423C142.289 200.272 134.354 197.402 126.326 195.651C125.33 195.394 124.322 195.196 123.303 195.06C123.172 195.037 123.041 195.011 122.908 194.987C121.48 194.752 120.04 194.575 118.6 194.467C118.621 194.362 118.601 194.252 118.502 194.163C118.37 194.045 118.229 193.941 118.087 193.842C118.271 193.808 118.456 193.771 118.638 193.74C122.515 193.038 126.399 192.368 130.282 191.706C137.311 190.504 144.612 189.555 151.506 191.983C154.577 193.064 157.294 194.781 159.581 197.08C156.722 198.302 153.688 199.108 150.601 199.423ZM147.514 201.455C150.483 203.597 152.643 206.543 154.055 209.843C150.165 206.031 144.642 204.534 139.739 202.403C138.258 201.759 136.83 201.027 135.45 200.186C134.609 199.673 133.776 199.14 132.937 198.622C134.009 198.891 135.079 199.153 136.144 199.401C139.771 200.239 143.48 200.897 147.209 200.947C147.229 201.133 147.322 201.318 147.514 201.455ZM156.112 219.85C156.147 223.073 155.596 226.208 154.623 229.218C153.615 225.769 151.442 222.729 149.225 219.932C146.732 216.785 143.941 213.884 140.92 211.246C134.866 205.962 127.978 201.695 120.506 198.758C119.025 198.174 117.517 197.669 115.997 197.198C117.596 196.718 119.261 196.454 120.932 196.444C121.251 196.44 121.453 196.285 121.548 196.078C124.214 196.5 126.873 197.114 129.511 197.765C132.606 199.152 135.331 201.228 138.403 202.668C141.067 203.918 143.848 204.896 146.549 206.059C149.547 207.35 152.481 208.972 154.67 211.445C155.605 214.143 156.081 217.017 156.112 219.85ZM148.382 241.101C147.187 242.737 145.896 244.294 144.549 245.803C145.743 242.434 145.049 238.562 143.635 235.369C142.018 231.722 139.358 228.651 136.684 225.749C130.665 219.217 124.609 212.724 118.614 206.171C116.412 203.762 114.196 201.363 111.983 198.962C112.026 198.936 112.066 198.908 112.109 198.883C112.727 198.521 113.367 198.201 114.021 197.917C115.537 198.347 117.04 198.817 118.52 199.348C122.219 200.678 125.772 202.325 129.203 204.246C136.076 208.093 142.185 213.102 147.336 219.076C150.146 222.333 153.08 226.001 154.282 230.222C152.895 234.106 150.818 237.765 148.382 241.101ZM143.966 246.458C142.547 248.012 141.068 249.51 139.549 250.965C139.51 250.954 139.471 250.941 139.434 250.93C139.552 250.893 139.644 250.789 139.597 250.643C138.386 246.857 135.358 243.74 132.594 241.018C129.609 238.078 126.551 235.25 123.854 232.032C118.369 225.486 114.095 217.909 111.302 209.834C110.913 208.714 110.565 207.592 110.244 206.461C109.993 204.88 109.715 203.302 109.366 201.737C109.315 201.501 109.245 201.269 109.188 201.035C109.748 200.519 110.346 200.047 110.971 199.613C115.753 204.679 120.554 209.721 125.323 214.794C128.314 217.977 131.285 221.176 134.263 224.37C136.976 227.28 139.793 230.176 141.815 233.635C144.062 237.475 145.031 241.849 143.879 246.21C143.849 246.328 143.897 246.405 143.966 246.458ZM122.852 244.869C122.838 244.846 122.826 244.823 122.803 244.804C113.318 236.522 112.402 223.343 110.951 211.517C112.055 214.491 113.352 217.394 114.837 220.196C116.823 223.948 119.146 227.521 121.764 230.861C124.371 234.183 127.313 237.144 130.372 240.041C132.039 241.62 133.7 243.211 135.199 244.954C136.755 246.765 137.987 248.734 139.131 250.825C139.14 250.838 139.154 250.839 139.165 250.85C133.652 249.209 128.007 247.48 122.852 244.869ZM114.101 238.922C113.114 238.009 112.205 237.032 111.364 236.004C111.239 235.739 111.123 235.47 110.991 235.208C110.463 234.152 109.881 233.152 109.194 232.194C109.062 232.009 108.839 232.02 108.709 232.13C107.897 230.683 107.218 229.155 106.688 227.552C105.157 222.89 104.787 217.936 105.091 213.06C105.153 212.051 105.251 211.044 105.361 210.038C105.613 210.067 105.91 209.905 105.924 209.6C105.951 209.008 106.095 208.433 106.151 207.84C106.207 207.255 106.273 206.666 106.361 206.085C106.455 205.488 106.582 204.898 106.737 204.316C107.119 203.52 107.587 202.781 108.163 202.104C108.355 202.96 108.562 203.812 108.789 204.659C108.959 205.551 109.112 206.446 109.252 207.343C109.836 211.094 110.211 214.872 110.711 218.634C111.555 225.016 112.839 231.509 115.874 237.253C117.087 239.55 118.576 241.664 120.373 243.51C118.146 242.203 116.035 240.702 114.101 238.922ZM98.2897 243.987C95.5456 244.761 92.6932 245.018 89.8586 245.238C88.7955 245.319 87.7335 245.386 86.6702 245.464C92.8711 243.423 95.7678 236.216 97.3627 230.318C99.452 222.596 100.115 214.561 102.314 206.867C103.069 204.229 104.038 201.712 105.238 199.29C105.544 198.984 105.853 198.675 106.159 198.367C105.76 199.961 105.393 201.567 105.071 203.176C104.56 205.727 104.121 208.294 103.861 210.884C103.377 215.743 103.48 220.705 104.631 225.468C105.396 228.636 106.659 231.636 108.4 234.351C108.25 234.37 108.118 234.462 108.082 234.639C107.105 239.562 102.886 242.689 98.2897 243.987ZM80.7827 245.883C78.8767 246.008 76.9693 246.119 75.0622 246.232C77.8019 244.703 79.7795 241.704 81.3042 239.074C83.2322 235.75 84.8152 232.224 86.5953 228.821C90.4514 221.442 94.6479 214.267 99.2376 207.325C100.277 205.753 101.344 204.198 102.413 202.646C100.918 206.798 100.013 211.213 99.2507 215.464C98.5404 219.413 97.9394 223.386 97.0765 227.307C96.2632 230.997 95.2832 234.786 93.4857 238.131C91.5954 241.652 88.5456 244.712 84.4984 245.471C84.3955 245.49 84.3542 245.556 84.3373 245.629C83.1507 245.713 81.9674 245.805 80.7827 245.883ZM71.5563 246.448C70.0392 246.533 68.5196 246.617 67.0016 246.693C65.7205 246.759 64.1918 246.999 63.0828 246.189C62.9217 246.07 62.7845 245.928 62.6453 245.788C64.395 242.063 66.6265 238.626 69.2422 235.455C71.9906 232.125 75.0485 229.076 78.0945 226.026C85.1914 218.926 92.3566 211.894 99.4615 204.803C99.4968 204.774 99.5295 204.742 99.5624 204.713C97.2281 208.345 94.975 212.032 92.7856 215.763C90.6882 219.335 88.6811 222.955 86.7593 226.623C84.9606 230.057 83.3169 233.569 81.5431 237.015C80.6487 238.759 79.6774 240.469 78.5102 242.045C77.3197 243.652 75.8877 244.943 74.414 246.271C73.463 246.33 72.5101 246.393 71.5563 246.448ZM60.8219 240.353C60.4073 237.419 60.1149 234.469 59.9644 231.51C59.914 230.496 59.8824 229.479 59.8628 228.463C59.9232 228.498 59.9936 228.513 60.065 228.464C66.3055 224.267 73.1828 221.374 79.9259 218.119C83.3033 216.49 86.62 214.746 89.7228 212.627C90.0758 212.384 90.4203 212.127 90.7727 211.876C90.2327 212.433 89.69 212.986 89.1522 213.541C85.6085 217.192 82.0882 220.864 78.5312 224.499C75.4429 227.656 72.3119 230.788 69.4584 234.164C66.5981 237.542 63.9681 241.219 62.2693 245.334C61.273 243.952 61.0447 241.934 60.8219 240.353ZM59.9589 221.482C60.0415 219.81 60.1652 218.143 60.3317 216.477C60.4695 215.087 60.707 213.694 60.799 212.297C62.3924 212.971 63.9931 213.62 65.6237 214.183C69.4756 215.517 73.4558 216.169 77.5132 215.569C81.5541 214.971 85.398 213.293 88.8047 211.066C92.2225 208.831 95.2547 206.064 98.0931 203.134C99.8625 201.308 101.698 199.098 103.898 197.599C103.79 197.871 103.623 198.119 103.407 198.347C103.247 198.517 103.306 198.741 103.461 198.848C103.449 198.864 103.438 198.881 103.428 198.897C102.217 200.135 101.006 201.372 99.7971 202.608C99.0246 203.4 98.2548 204.194 97.4824 204.985C95.1396 207.14 92.7113 209.196 90.1189 211.05C87.0606 213.236 83.8056 215.129 80.4472 216.809C77.109 218.475 73.6936 219.979 70.3552 221.643C66.6852 223.474 63.0517 225.441 59.8563 228.041C59.8236 225.852 59.853 223.665 59.9589 221.482ZM61.3366 211.034C62.5079 211.117 63.6787 211.119 64.8101 211.055C68.3083 210.859 71.7728 210.052 75.0638 208.87C82.1984 206.309 88.7206 202.325 95.7199 199.439C97.7126 198.619 99.728 197.863 101.768 197.169C102.225 197.014 102.69 196.874 103.152 196.728C102.236 197.357 101.381 198.082 100.609 198.807C99.2282 200.107 97.9628 201.525 96.624 202.872C95.2417 204.26 93.815 205.608 92.3136 206.869C86.2773 211.944 78.5572 215.664 70.5135 214.135C67.3276 213.53 64.3081 212.318 61.3366 211.034ZM60.7198 210.347C60.2371 210.299 59.7643 210.232 59.2948 210.147C59.2675 210.135 59.2376 210.121 59.208 210.11C55.2081 208.366 51.2108 206.625 47.2109 204.882C46.1935 204.438 45.1737 203.994 44.1564 203.551C43.6477 203.329 43.0766 203.101 42.5937 202.774C44.2652 202.282 45.9291 201.81 47.6645 201.541C49.7913 201.209 51.9485 201.099 54.1012 201.092C58.3824 201.075 62.6465 201.507 66.924 201.576C75.5861 201.715 84.2482 200.339 92.4474 197.537C94.7038 196.763 96.9336 195.908 99.2262 195.24C99.8143 195.068 100.409 194.912 101.007 194.769L103.064 195.49C102.799 195.579 102.531 195.669 102.268 195.758C100.509 196.349 98.7671 197.008 97.0433 197.703C93.5247 199.121 90.1156 200.768 86.741 202.502C80.3163 205.803 73.8204 209.36 66.5433 210.259C64.6146 210.495 62.6538 210.544 60.7198 210.347ZM41.8743 202.059C41.6049 201.599 41.548 201.096 41.6186 200.583C42.3304 200.411 43.0317 200.178 43.736 199.975C44.686 199.704 45.6394 199.445 46.5959 199.192C48.5063 198.685 50.4209 198.196 52.3495 197.757C56.2017 196.873 60.0898 196.143 64.0021 195.569C71.8991 194.407 79.8839 193.847 87.8648 193.928C91.4872 193.964 95.1022 194.149 98.7165 194.376C97.1633 194.862 95.6368 195.428 94.1064 195.979C89.9753 197.462 85.7765 198.681 81.4599 199.485C77.0664 200.305 72.6013 200.745 68.1318 200.784C63.8073 200.822 59.4907 200.465 55.1664 200.428C52.8328 200.409 50.4971 200.493 48.1858 200.812C46.1469 201.092 44.0387 201.52 42.1556 202.393C42.0553 202.287 41.9483 202.188 41.8743 202.059ZM43.2911 197.199C45.2513 194.319 47.5282 191.666 50.0608 189.278C53.4083 186.121 57.2076 183.439 61.2987 181.329C72.3228 184.591 82.2103 191.166 93.661 193.072C95.2324 193.334 96.8162 193.502 98.4024 193.544C98.41 193.574 98.413 193.605 98.4251 193.633C91.3961 192.872 84.2638 192.833 77.2219 193.222C69.2807 193.663 61.3825 194.737 53.6123 196.436C51.4114 196.916 49.2201 197.447 47.043 198.028C45.9333 198.321 44.8333 198.642 43.734 198.97C43.1299 199.149 42.5203 199.321 41.9203 199.518C42.2834 198.651 42.8668 197.822 43.2911 197.199ZM67.8653 178.523C68.6401 178.261 69.422 178.025 70.2101 177.803C71.705 179.224 73.2715 180.571 74.8998 181.841C81.0894 186.67 88.192 190.332 95.7168 192.541C92.4656 192.153 89.2628 191.368 86.131 190.302C80.7403 188.47 75.6312 185.915 70.4046 183.678C67.8263 182.577 65.2128 181.557 62.5438 180.706C64.2739 179.876 66.0484 179.138 67.8653 178.523ZM67.4507 172.662C67.1149 172.28 66.7901 171.888 66.4631 171.499C67.2396 171.66 68.0183 171.818 68.7777 172.023C70.3307 172.445 71.8684 172.931 73.3809 173.478C76.4432 174.589 79.4103 175.952 82.2438 177.564C87.8023 180.722 92.773 184.762 97.975 188.455C99.4312 189.49 100.909 190.499 102.427 191.438C102.571 191.527 102.72 191.618 102.864 191.707C101.913 191.732 100.957 191.689 100.028 191.635C99.818 191.624 99.6817 191.768 99.636 191.94C92.4831 190.293 85.6349 187.312 79.5158 183.23C75.0548 180.255 70.9842 176.701 67.4507 172.662ZM65.502 170.314C62.6373 166.706 60.1235 162.731 58.3755 158.5C57.3639 156.047 56.7003 153.349 56.8962 150.683C56.9143 150.698 56.9257 150.718 56.9459 150.731C64.3306 155.491 71.4354 160.69 78.1943 166.309C84.9272 171.905 91.339 177.905 97.385 184.241C99.6821 186.649 101.925 189.114 104.135 191.607C103.75 191.385 103.37 191.161 102.995 190.926C101.667 190.089 100.361 189.211 99.0747 188.308C96.437 186.451 93.8705 184.491 91.279 182.57C86.1009 178.726 80.7062 175.338 74.6656 173.023C72.9573 172.367 71.2165 171.796 69.4547 171.305C68.1818 170.952 66.8394 170.544 65.502 170.314ZM56.9882 149.917C57.0106 149.75 57.0232 149.582 57.0529 149.417C57.5743 146.569 59.1224 144.162 61.6296 142.691C64.0465 141.271 66.8802 140.639 69.6258 140.158C74.7331 147.136 79.8267 154.121 84.8829 161.137C89.994 168.232 95.1813 175.277 100.221 182.422C102.242 185.287 104.144 188.246 105.849 191.314C105.54 191.395 105.226 191.468 104.91 191.522C100.165 185.842 95.1295 180.406 89.7643 175.31C83.409 169.278 76.6919 163.624 69.6651 158.393C65.6907 155.432 61.6129 152.609 57.4459 149.926C57.2787 149.818 57.1164 149.838 56.9882 149.917ZM79.1515 139.413C82.5731 139.489 86.0011 139.961 89.3158 140.847C88.3324 147.855 90.6344 154.909 93.7633 161.119C97.1818 167.901 101.702 174.077 104.608 181.127C105.836 184.108 106.77 187.253 107.208 190.462C106.946 190.68 106.688 190.9 106.41 191.103C103.04 184.665 98.643 178.807 94.4077 172.926C89.2034 165.701 83.9949 158.482 78.7797 151.268C76.0761 147.525 73.4259 143.744 70.7559 139.98C73.5324 139.548 76.3428 139.35 79.1515 139.413ZM96.5932 143.612C99.8756 145.291 102.874 147.516 105.439 150.166C105.17 150.16 104.894 150.365 104.987 150.7C106.467 156.053 107.619 161.451 108.265 166.973C108.915 172.53 109.103 178.131 108.885 183.718C108.812 185.566 108.671 187.406 108.523 189.244C108.272 189.504 108.026 189.771 107.756 190.016C107.001 183.843 104.187 178.074 101.156 172.677C97.5038 166.168 93.2992 159.78 91.2519 152.525C90.2145 148.841 89.8226 144.935 90.3903 141.14C92.5252 141.777 94.6056 142.593 96.5932 143.612ZM131.728 153.896C141.239 146.984 152.813 143.734 164.32 142.203C167.889 141.728 171.477 141.416 175.069 141.187C176.817 141.075 178.567 140.989 180.317 140.898C181.676 140.827 183.058 140.819 184.415 140.676C184.614 140.744 184.811 140.813 185.008 140.883C181.325 144.096 177.21 146.779 172.778 148.839C167.857 151.127 162.632 152.542 157.264 153.275C146.771 154.708 135.577 154.245 126.213 159.953C125.081 160.643 124.012 161.422 123.014 162.27C125.515 159.086 128.479 156.256 131.728 153.896ZM133.159 149.792C142.332 142.251 153.922 138.083 165.765 137.816C170.715 137.703 175.654 138.274 180.439 139.494C178.865 139.557 177.291 139.638 175.718 139.734C172.446 139.933 169.175 140.2 165.921 140.584C159.807 141.298 153.739 142.451 147.883 144.373C139.101 147.253 130.742 151.919 124.492 158.762C127.024 155.462 129.928 152.447 133.159 149.792ZM142.219 270.373C146.774 273.747 151.215 277.29 155.156 281.386C159.416 285.815 162.908 290.852 165.57 296.401C167.64 300.707 169.181 305.197 170.483 309.766C169.3 307.37 168.006 305.028 166.621 302.744C163.169 297.05 159.129 291.705 154.584 286.846C149.81 281.747 144.414 277.353 138.976 272.999C133.488 268.602 128.008 264.155 123.332 258.867C120.969 256.195 118.839 253.313 117.092 250.2C124.472 258.062 133.603 263.988 142.219 270.373ZM126.885 255.853C133.482 258.617 140.627 260.054 146.824 263.747C158.252 270.559 165.082 282.896 168.677 295.377C169.872 299.522 170.776 303.742 171.51 307.993C171.856 310.002 172.161 312.02 172.465 314.035C172.344 313.755 172.216 313.483 172.092 313.203C169.716 302.039 165.071 291.175 157.48 282.612C149.862 274.017 140.131 267.687 131.081 260.761C128.25 258.592 125.476 256.327 122.841 253.913C124.163 254.638 125.523 255.281 126.885 255.853ZM171.252 315.279C169.19 311.419 166.56 307.832 163.8 304.472C160.292 300.201 156.417 296.251 152.431 292.434C144.438 284.78 136.047 277.566 128.979 269.001C127.01 266.615 125.158 264.127 123.455 261.542C123.017 260.876 122.596 260.197 122.186 259.512C126.071 264.046 130.6 267.972 135.219 271.742C140.759 276.265 146.447 280.626 151.504 285.704C156.166 290.384 160.335 295.555 163.92 301.108C165.94 304.234 167.776 307.478 169.416 310.819C170.405 312.83 171.287 314.889 172.194 316.936C171.898 316.374 171.582 315.823 171.252 315.279ZM164.226 306.645C159.737 302.192 154.59 298.472 149.648 294.559C144.716 290.659 140.112 286.463 136.084 281.618C132.501 277.309 129.376 272.636 126.499 267.829C129.978 272.131 133.86 276.082 137.867 279.885C145.902 287.512 154.388 294.742 161.68 303.115C163.233 304.898 164.724 306.734 166.131 308.634C165.511 307.957 164.877 307.291 164.226 306.645ZM113.586 275.959C113.479 280.53 113.612 285.09 114.152 289.634C115.128 297.866 117.335 305.927 120.564 313.555C123.784 321.163 128.056 328.313 133.199 334.767C135.199 337.275 137.34 339.668 139.603 341.939C138.867 341.349 138.118 340.777 137.399 340.167C132.007 335.594 127.043 330.486 122.828 324.796C118.643 319.15 115.209 312.909 112.959 306.234C110.726 299.611 109.567 292.609 109.752 285.612C109.926 279.026 111.44 272.732 113.949 266.683C113.814 269.774 113.658 272.864 113.586 275.959ZM115.643 271.529C115.608 273.103 115.648 274.68 115.708 276.229C115.828 279.298 116.141 282.359 116.629 285.393C117.624 291.587 119.376 297.623 121.553 303.5C125.829 315.043 132.157 325.675 139.365 335.604C141.399 338.409 143.476 341.179 145.617 343.9C146.693 345.272 147.796 346.622 148.901 347.97C147.494 346.854 146.095 345.735 144.748 344.546C141.685 341.84 138.82 338.913 136.162 335.808C130.823 329.571 126.366 322.579 122.924 315.116C119.485 307.659 117.084 299.716 115.864 291.588C115.216 287.269 114.944 282.916 114.954 278.552C114.961 275.6 115.073 272.65 115.197 269.701C115.336 270.311 115.491 270.922 115.643 271.529ZM116.927 276.37C117.756 279.226 118.629 282.074 119.55 284.903C121.397 290.593 123.481 296.214 125.799 301.726C128.136 307.28 130.726 312.724 133.564 318.037C136.393 323.336 139.525 328.445 142.708 333.534C145.991 338.784 149.118 344.139 151.577 349.831C147.992 345.749 144.608 341.452 141.342 337.123C137.655 332.232 134.219 327.137 131.098 321.863C128.001 316.625 125.217 311.194 122.924 305.551C120.585 299.794 118.844 293.821 117.704 287.711C117.068 284.301 116.636 280.848 116.431 277.386C116.367 276.284 116.335 275.179 116.316 274.075C116.519 274.839 116.708 275.607 116.927 276.37ZM121.391 286.083C123.636 291.275 126.274 296.29 129.038 301.22C134.598 311.141 140.658 320.804 145.481 331.121C148.065 336.652 150.155 342.369 151.727 348.267C151.734 348.589 151.745 348.91 151.756 349.232C149.964 344.324 147.346 339.778 144.627 335.321C141.508 330.201 138.296 325.151 135.418 319.887C129.66 309.359 124.805 298.295 121.113 286.869C120.501 284.976 119.931 283.069 119.387 281.157C120.018 282.824 120.694 284.47 121.391 286.083ZM129.093 296.554C135.512 306.551 142.655 316.239 147.181 327.305C149.455 332.867 150.888 338.654 151.449 344.611C148.94 335.134 144.38 326.213 139.656 317.696C134.141 307.76 128.115 298.076 123.494 287.669C123.288 287.203 123.089 286.735 122.888 286.269C124.809 289.782 126.931 293.188 129.093 296.554ZM131.704 296.083C135.767 300.722 139.987 305.281 143.396 310.445C145.134 313.082 146.646 315.87 147.806 318.812C149.063 322.003 149.917 325.352 150.497 328.728C151.15 332.528 151.472 336.371 151.614 340.224C151.085 336.61 150.084 333.054 148.846 329.641C146.824 324.07 144.088 318.795 141.054 313.718C135.768 304.87 129.628 296.558 124.713 287.504C126.888 290.479 129.272 293.306 131.704 296.083ZM99.6348 254.166C97.5822 254.73 95.5304 255.327 93.5041 255.993C95.4335 255.233 97.4097 254.591 99.4257 254.093C100.288 253.88 101.158 253.696 102.03 253.53C101.232 253.741 100.433 253.948 99.6348 254.166ZM100.017 256.127C97.0199 256.918 93.8073 257.443 90.6587 257.51C93.7054 256.614 96.7285 255.644 99.7961 254.817C101.399 254.384 103.006 253.985 104.629 253.638C105.422 253.468 106.216 253.305 107.01 253.144C107.313 253.082 107.671 253.039 108.027 252.984C105.481 254.322 102.801 255.391 100.017 256.127ZM94.0902 267.94C90.8651 269.442 87.6261 270.925 84.428 272.487C87.159 270.159 90.1922 268.185 93.4456 266.68C95.3561 265.795 97.3359 265.064 99.3593 264.494C100.375 264.209 101.401 263.965 102.436 263.76C102.55 263.737 102.665 263.724 102.78 263.701C99.8875 265.124 97.0148 266.58 94.0902 267.94ZM107.177 274.832C107.164 278.324 106.886 281.813 106.357 285.263C105.712 282.11 105.341 278.904 105.256 275.682C105.148 271.68 105.557 267.744 106.135 263.8C106.174 263.713 106.216 263.628 106.258 263.54C106.799 267.288 107.189 271.02 107.177 274.832ZM85.0617 272.697C88.1825 271.324 91.2755 269.884 94.3724 268.46C97.1478 267.183 99.9582 266.001 102.759 264.789C97.8573 269.182 91.6022 272.011 85.0617 272.697ZM80.0546 289.168C85.1269 284.115 91.1287 280.063 97.6479 277.132C93.1673 282.758 86.9195 287.053 80.0546 289.168ZM97.3527 287.831C97.6752 288.93 98.0022 290.027 98.32 291.126C98.9447 293.286 99.539 295.45 100.11 297.624C101.264 302.01 102.324 306.418 103.447 310.811C103.47 310.897 103.523 310.935 103.585 310.956C103.587 311.134 103.595 311.313 103.593 311.492C99.7313 305.213 97.5276 297.789 97.0168 290.478C96.9403 289.389 96.8664 288.302 96.8515 287.21C96.8471 286.885 96.8524 286.563 96.8574 286.237C97.0061 286.78 97.2041 287.315 97.3527 287.831ZM103.412 306.549C103.486 307.409 103.531 308.269 103.558 309.131C102.758 305.169 101.81 301.244 100.796 297.33C100.224 295.116 99.6346 292.905 99.0339 290.698C98.7324 289.595 98.4333 288.491 98.1131 287.392C98.0988 287.341 98.084 287.285 98.0692 287.229C101.026 293.273 102.836 299.829 103.412 306.549ZM100.857 63.8788C97.0916 64.2982 93.2701 64.3456 89.5077 63.8598C83.3436 63.0607 77.29 60.6585 72.6008 56.499C71.8167 55.8041 71.0963 55.0529 70.4247 54.2638C72.1856 55.6284 74.1645 56.7313 76.1977 57.6023C80.928 59.623 86.0454 60.399 91.1472 60.706C97.8428 61.1111 104.863 60.7717 111.559 61.8382C108.068 62.8336 104.462 63.4768 100.857 63.8788ZM68.0377 50.5488C79.0586 56.1481 92.3706 52.5578 103.941 56.41C106.824 57.3703 109.596 58.8091 111.92 60.7894C101.225 58.9512 90.0556 60.8376 79.5911 57.5307C75.189 56.1404 71.2216 53.8328 68.0377 50.5488ZM84.595 -115.732C84.5925 -115.784 84.5805 -115.836 84.5357 -115.882C81.924 -118.472 78.6755 -120.549 75.4663 -122.31C72.2047 -124.096 68.7541 -125.54 65.1961 -126.609C64.2952 -126.878 63.3854 -127.114 62.4724 -127.334C65.352 -126.798 68.1996 -125.92 70.8634 -124.846C74.7643 -123.27 78.4394 -121.136 81.7324 -118.511C82.867 -117.606 83.9081 -116.608 84.9492 -115.61C84.8289 -115.649 84.7129 -115.693 84.595 -115.732ZM64.5213 -124.984C63.5696 -125.539 62.6275 -126.119 61.6919 -126.704C67.9342 -125.303 73.8652 -122.787 79.2084 -119.212C80.6281 -118.262 81.9643 -117.213 83.316 -116.175C76.7876 -118.465 70.4817 -121.501 64.5213 -124.984ZM77.9095 -127.211C77.8789 -130.942 77.4781 -134.689 76.9871 -138.383C76.4397 -142.498 75.6765 -146.581 74.8108 -150.64C74.5675 -151.782 74.3032 -152.92 74.0249 -154.055C73.8934 -154.591 73.7738 -155.153 73.6311 -155.708C77.1771 -148.659 79.003 -140.774 78.9407 -132.879C78.9235 -130.74 78.769 -128.593 78.5321 -126.462C78.3252 -126.713 78.1184 -126.963 77.9095 -127.211ZM72.7398 -151.837C72.7187 -152.893 72.7383 -153.948 72.7722 -155.001C72.8577 -154.725 72.943 -154.452 73.016 -154.182C73.2945 -153.171 73.566 -152.158 73.8258 -151.144C74.331 -149.193 74.78 -147.232 75.1593 -145.252C75.9334 -141.206 76.5109 -137.125 76.9068 -133.026C77.0199 -131.876 77.1093 -130.727 77.1986 -129.577C74.3826 -136.657 72.8993 -144.213 72.7398 -151.837ZM66.7283 -138.827C66.7331 -138.901 66.7024 -138.975 66.6242 -139.022C66.5812 -139.049 66.5365 -139.069 66.4935 -139.096C66.4776 -139.114 66.464 -139.131 66.448 -139.149C66.0559 -141.29 65.1027 -143.349 64.2761 -145.353C63.4106 -147.442 62.4992 -149.513 61.5422 -151.562C60.5831 -153.609 59.5852 -155.638 58.5375 -157.64C58.0323 -158.607 57.5134 -159.569 56.9857 -160.522C56.8767 -160.719 56.7655 -160.914 56.6567 -161.109C60.9096 -156.228 64.0725 -150.416 65.8114 -144.161C66.3276 -142.294 66.6923 -140.395 67.0265 -138.49C66.9234 -138.599 66.829 -138.717 66.7283 -138.827ZM56.3131 -157.889C56.0088 -158.997 55.772 -160.121 55.5562 -161.249C55.7755 -160.866 55.9948 -160.483 56.2096 -160.098C56.7443 -159.145 57.2699 -158.189 57.784 -157.228C58.8325 -155.268 59.8377 -153.288 60.7951 -151.284C61.7502 -149.28 62.6623 -147.252 63.5259 -145.209C64.2453 -143.509 64.8586 -141.724 65.679 -140.063C61.3134 -145.232 58.1095 -151.353 56.3131 -157.889ZM44.0789 -141.883C47.5468 -142.274 51.0652 -142.281 54.5244 -141.831C57.321 -141.469 59.9793 -140.731 62.62 -139.877C56.4282 -139.329 49.9903 -139.928 44.0789 -141.883ZM21.8646 -150.52C29.8547 -152.133 38.0281 -151.953 45.9501 -150.049C45.9722 -150.042 45.992 -150.034 46.0141 -150.027C46.1924 -149.953 46.369 -149.871 46.5498 -149.795C38.4706 -148.093 29.8509 -148.412 21.8646 -150.52ZM31.8787 -163.145C31.4569 -163.657 31.0528 -164.183 30.6599 -164.716C31.5454 -164.081 32.4438 -163.461 33.299 -162.795C34.861 -161.571 36.4059 -160.327 37.9297 -159.055C40.8012 -156.661 43.6132 -154.192 46.3539 -151.647C40.8004 -154.423 35.8452 -158.35 31.8787 -163.145ZM45.1202 -154.006C46.0457 -152.998 46.9472 -151.965 47.8379 -150.922C47.5372 -151.058 47.2466 -151.212 46.9499 -151.356C47.0785 -151.431 47.1483 -151.6 47.0096 -151.732C44.1897 -154.437 41.2922 -157.055 38.2958 -159.562C36.8519 -160.77 35.3906 -161.96 33.9103 -163.125C32.8331 -163.976 31.7803 -164.896 30.6802 -165.738C36.0139 -162.542 40.9197 -158.584 45.1202 -154.006ZM76.4739 -231.758C76.9608 -230.708 77.4979 -229.68 78.0531 -228.662C78.0436 -228.611 78.0369 -228.556 78.0687 -228.497C79.75 -225.326 80.4498 -221.739 80.5771 -218.143C80.569 -218.077 80.5608 -218.012 80.5551 -217.947C80.4162 -216.795 80.2941 -215.642 80.1843 -214.486C79.9878 -212.43 79.8392 -210.372 79.7028 -208.31C78.949 -204.318 77.8758 -200.382 77.0562 -196.406C74.9078 -185.98 74.9858 -175.159 77.338 -164.771C78.6697 -158.898 80.7442 -153.248 83.3833 -147.842C83.4747 -147.655 83.6151 -147.554 83.7686 -147.516C84.353 -139.853 85.7002 -132.277 87.6138 -124.825C89.8613 -116.078 92.7469 -107.503 95.9342 -99.0588C91.2892 -108.528 85.7212 -117.617 79.0792 -125.807C80.7611 -134.493 79.5239 -143.78 76.3152 -151.971C75.3654 -154.398 74.2214 -156.74 72.9098 -158.993C72.6823 -159.387 72.1193 -159.226 72.0793 -158.793C71.3161 -150.482 72.2155 -142.205 74.4822 -134.187C74.9431 -132.555 75.492 -130.947 76.0799 -129.354C73.4511 -132.328 70.6358 -135.136 67.6517 -137.739C67.7137 -137.788 67.757 -137.859 67.7502 -137.956C67.4972 -141.801 66.4362 -145.61 65.0173 -149.177C63.5881 -152.777 61.6834 -156.172 59.3641 -159.27C58.0218 -161.066 56.5379 -162.748 54.932 -164.311C54.5887 -164.646 54.1019 -164.333 54.1625 -163.892C55.2137 -156.3 58.1023 -148.981 62.4665 -142.692C62.8737 -142.107 63.3103 -141.54 63.7401 -140.969C59.4114 -144.307 54.7571 -147.212 49.803 -149.562C49.8045 -149.622 49.7963 -149.683 49.7547 -149.746C45.6288 -155.855 40.0015 -160.979 33.8509 -164.991C32.0586 -166.159 30.1823 -167.184 28.2759 -168.148C27.9162 -168.329 27.3889 -167.966 27.6512 -167.556C31.4773 -161.548 36.5419 -156.436 42.5982 -152.692C42.8611 -152.528 43.1386 -152.387 43.4032 -152.23C38.8194 -153.883 34.016 -155.037 29.1823 -155.252C28.6662 -155.275 28.6804 -154.544 29.1611 -154.467C33.2185 -153.83 37.2149 -152.982 41.1149 -151.769C36.2484 -152.609 31.2685 -152.734 26.349 -152.168C24.1882 -151.918 22.0369 -151.544 19.9269 -151.008C19.5134 -150.902 19.4754 -150.271 19.903 -150.151C24.5166 -148.864 29.2489 -148.059 34.0367 -147.878C38.822 -147.696 43.6208 -148.129 48.3273 -148.986C48.3462 -148.988 48.3548 -148.998 48.371 -149.002C52.9199 -146.938 57.2445 -144.375 61.2897 -141.445C61.3634 -141.394 61.4308 -141.336 61.5024 -141.283C59.2624 -142.001 56.9334 -142.476 54.6594 -142.797C50.4394 -143.392 46.1662 -143.314 41.9757 -142.537C41.5151 -142.451 41.5571 -141.803 41.951 -141.663C45.6267 -140.355 49.3417 -139.337 53.2175 -138.859C57.0257 -138.392 60.8732 -138.392 64.6804 -138.844C69.3435 -135.088 73.5921 -130.858 77.4697 -126.298C77.4782 -126.208 77.4843 -126.118 77.4928 -126.028C77.5111 -125.834 77.7217 -125.77 77.8424 -125.853C80.0749 -123.195 82.1886 -120.436 84.182 -117.589C83.7794 -117.947 83.3683 -118.295 82.9628 -118.635C81.3149 -120.012 79.5735 -121.271 77.745 -122.393C74.0327 -124.67 69.9874 -126.39 65.7744 -127.466C63.3924 -128.075 61.0111 -128.373 58.5733 -128.614C58.1674 -128.654 58.0671 -128.103 58.3576 -127.899C58.4213 -127.854 58.4845 -127.815 58.5457 -127.771C58.4579 -127.567 58.5073 -127.321 58.7852 -127.275C59.0174 -127.235 59.2484 -127.183 59.4785 -127.14C65.7548 -122.879 72.5395 -119.359 79.5674 -116.54C81.6968 -115.683 83.8588 -114.91 86.0219 -114.15C86.1916 -114.091 86.336 -114.124 86.4477 -114.202C86.4686 -114.182 86.4897 -114.16 86.5129 -114.141C90.2082 -108.486 93.4763 -102.567 96.6282 -96.593C96.4328 -96.3191 96.5024 -95.9341 96.7092 -95.7339C96.7054 -95.724 96.699 -95.7162 96.6928 -95.7061C94.5104 -98.6905 91.6979 -101.164 88.3525 -102.931C83.2719 -105.614 77.4547 -106.72 71.7455 -106.581C64.5385 -106.403 57.5283 -104.44 50.7549 -102.111C48.4481 -101.316 44.4905 -100.465 44.6308 -97.2859C44.6667 -96.5013 44.9476 -95.7684 45.2439 -95.0489C45.6197 -94.1411 46.014 -93.2398 46.3965 -92.3375C47.1089 -90.6615 47.8211 -88.9878 48.5335 -87.3118C51.1745 -81.1039 53.6121 -74.7312 56.8298 -68.7925C59.405 -64.0398 62.6595 -59.6783 66.9176 -56.357C64.2766 -56.9366 61.4197 -56.6769 58.9177 -55.7557C54.8495 -54.2618 51.5942 -51.0846 49.4823 -47.3395C47.4805 -43.7886 46.5101 -39.7714 46.1826 -35.7241C45.9496 -35.6973 45.8935 -35.3076 46.1378 -35.2399C46.0957 -34.627 46.0677 -34.0154 46.0538 -33.4052C45.9933 -30.8421 46.0882 -28.2196 46.6694 -25.7145C47.2275 -23.3028 48.3414 -21.1035 49.7722 -19.1012C51.1777 -17.1395 52.7986 -15.3414 54.4076 -13.5446C55.875 -11.9111 57.3783 -10.3001 59.0351 -8.85404C62.4884 -5.84131 66.5496 -3.7503 71.2131 -3.77684C80.3474 -3.82846 88.3098 -10.2026 93.3342 -17.3791C94.1183 -18.5013 94.8222 -19.6661 95.4914 -20.8467C95.494 -20.718 95.5278 -20.6114 95.5797 -20.4897C95.5888 -20.4691 95.609 -20.4567 95.6226 -20.4388C93.8949 -7.29293 96.1413 6.39045 101.163 18.5968C102.398 21.5966 103.834 24.4891 105.426 27.2905C104.539 26.3855 103.612 25.5201 102.633 24.6931C100.795 23.1399 98.8603 21.7033 96.8364 20.4016C92.6923 17.7334 88.1485 15.6473 83.4455 14.1947C81.0583 13.455 78.6222 12.9038 76.1577 12.5058C76.1203 12.4878 76.0851 12.4672 76.0479 12.4516C75.9461 12.4063 75.856 12.41 75.7807 12.4434C75.6382 12.421 75.4976 12.3937 75.3527 12.3715C74.8871 12.3032 74.7266 12.9224 74.976 13.2213C81.5732 21.1122 90.2346 27.1752 99.9065 30.6308C102.664 31.6173 105.498 32.377 108.371 32.9419C108.565 32.9809 108.735 32.9339 108.866 32.8403C109.68 34.0531 110.516 35.2517 111.384 36.4307C113.55 39.369 115.824 42.2398 118.016 45.1661C118.923 46.6112 119.846 48.0477 120.78 49.4784C120.916 49.6852 121.114 49.7621 121.312 49.7649C121.648 50.2562 121.974 50.758 122.302 51.2572C120.348 49.6671 118.1 48.4057 115.797 47.4551C109.908 45.0255 103.517 44.3672 97.3969 42.752C94.4006 41.9623 91.46 40.931 88.7623 39.3968C88.5469 39.1807 88.3314 38.9646 88.1093 38.7539C87.9078 38.5604 87.6039 38.6177 87.4314 38.782C87.1685 38.845 86.9449 39.0977 87.0397 39.3968C88.7899 45.0392 93.3899 49.312 98.7236 51.5744C101.859 52.905 105.246 53.5719 108.63 53.8045C110.313 53.918 112.001 53.9237 113.683 53.8487C115.408 53.7697 117.133 53.5927 118.86 53.6208C120.664 53.649 122.485 53.9334 124.022 54.9419C124.362 55.163 124.673 55.4154 124.956 55.692C127.373 60.1802 129.194 65.1259 129.777 70.2001C128.835 68.8657 127.603 67.7139 126.352 66.7118C122.546 63.6632 117.834 61.9439 113.098 61.0006C108.904 56.637 102.921 54.7582 97.0736 53.9603C90.1919 53.0211 83.1908 53.4399 76.362 52.0516C72.8736 51.3418 69.4765 50.1624 66.4938 48.1798C65.9226 47.7991 65.3445 48.4816 65.5917 49.0338C68.1074 54.6446 73.2206 59.01 78.6564 61.6496C85.0424 64.7512 92.2172 65.5696 99.2323 64.9966C103.643 64.6357 107.916 63.6479 112.21 62.6317C112.531 62.5561 112.599 62.244 112.508 62.0019C115.945 62.6235 119.288 63.6383 122.444 65.361C125.005 66.76 128.615 69.3855 129.953 72.4281C129.979 73.1301 129.996 73.8353 129.969 74.5399C129.916 74.5854 129.874 74.6443 129.859 74.7294C129.801 75.1025 129.852 75.4941 129.843 75.8723C129.834 76.26 129.835 76.6444 129.785 77.0311C129.77 77.171 129.728 77.3063 129.7 77.4426C129.593 77.6199 129.479 77.7931 129.348 77.9702C129.253 78.1009 129.358 78.2773 129.493 78.3219C129.462 78.4227 129.433 78.5233 129.4 78.6196C129.323 78.837 129.239 79.0383 129.307 79.2516C129.256 79.3137 129.205 79.3759 129.154 79.4404C128.021 76.4906 125.664 74.2317 122.859 72.7889C119.291 70.957 115.277 70.5761 111.341 71.0593C109.001 71.3468 106.708 71.9331 104.466 72.6579C102.443 73.3118 100.394 74.0184 98.4671 74.926C95.3324 76.4036 92.3679 79.0303 93.2407 82.8618C93.7871 85.2507 95.4559 87.3548 96.9619 89.221C98.1632 90.7077 99.4751 92.105 100.886 93.3952C98.5207 93.1621 96.1369 93.1146 93.7664 93.3094C91.9694 93.455 90.1463 93.677 88.3966 94.1213C86.8399 94.5188 85.2777 95.1866 84.2422 96.4687C81.9156 99.3505 83.4614 103.228 85.6172 105.678C89.311 109.879 94.4718 112.704 99.8409 114.333C98.265 114.25 96.6911 114.162 95.1179 114.081C87.7915 113.699 80.4675 113.318 73.1412 112.936C69.2151 112.733 65.2878 112.542 61.3603 112.349C61.3528 112.345 61.345 112.339 61.3375 112.335C61.2184 112.257 61.0936 112.272 60.9922 112.331C60.844 112.324 60.6957 112.316 60.5475 112.309C60.153 112.289 59.784 112.791 60.0367 113.15C65.2694 120.625 73.1545 126.126 81.9495 128.482C91.0618 130.923 100.827 129.766 109.234 125.53C110.617 124.834 111.954 124.044 113.246 123.187C113.15 123.537 113.091 123.896 113.096 124.268C113.096 124.631 113.149 124.982 113.238 125.322C112.979 126.393 112.863 127.531 112.746 128.583C112.571 130.161 112.509 131.75 112.53 133.336C112.572 136.556 112.934 139.764 113.386 142.948C114.297 149.355 115.672 155.761 115.633 162.259C115.623 163.743 115.542 165.239 115.373 166.723C114.951 163.484 114.008 160.323 112.51 157.327C109.865 152.043 105.765 147.487 100.864 144.217C97.5984 142.034 93.9727 140.449 90.1974 139.396C90.1353 139.368 90.0719 139.353 90.0048 139.347C87.8457 138.755 85.638 138.331 83.4203 138.077C77.2575 137.368 70.6806 137.819 64.7326 139.64C61.8212 140.533 59.0208 141.998 57.2786 144.593C55.6408 147.033 55.0741 150.133 55.3524 153.035C55.6815 156.5 57.0505 159.74 58.6816 162.781C60.0124 165.263 61.5353 167.636 63.2075 169.902C63.344 170.088 63.4892 170.265 63.6303 170.45C63.6075 170.612 63.6813 170.789 63.8728 170.852C63.8999 170.862 63.9289 170.866 63.956 170.875C65.5385 172.923 67.2469 174.866 69.0751 176.692C62.4864 178.684 56.3426 182.038 51.0856 186.495C48.3161 188.843 45.806 191.494 43.6066 194.388C41.7942 196.767 38.2191 201.271 41.6746 203.828C42.4264 204.382 43.3583 204.701 44.2068 205.069C45.2613 205.529 46.3182 205.988 47.3751 206.447C49.4515 207.347 51.5279 208.248 53.6022 209.151C55.5596 210 57.5111 210.888 59.476 211.742C59.1347 213.118 59.013 214.553 58.8671 215.959C58.7024 217.543 58.5761 219.131 58.4905 220.722C58.3204 223.864 58.3055 227.013 58.4401 230.157C58.5753 233.282 58.8533 236.408 59.2859 239.507C59.6083 241.817 59.8535 244.518 61.4005 246.39C63.2586 248.634 66.3843 247.995 68.9358 247.853C72.2188 247.67 75.4999 247.468 78.781 247.24C81.9793 247.017 85.176 246.778 88.371 246.52C91.41 246.274 94.4818 246.072 97.4583 245.364C102.536 244.155 108.174 240.736 108.865 235.069C109.489 235.98 110.167 236.859 110.907 237.695C110.957 237.752 111.012 237.804 111.063 237.861C111.205 238.237 111.348 238.613 111.477 238.995C111.62 239.425 111.741 239.861 111.873 240.295C111.874 240.328 111.862 240.355 111.88 240.392C111.909 240.456 111.93 240.521 111.96 240.585C112.206 241.429 112.433 242.279 112.635 243.134C112.654 243.33 112.672 243.524 112.679 243.719C112.679 243.746 112.677 243.772 112.679 243.798C112.734 246.448 111.649 249.127 110.502 251.597C110.275 251.738 110.036 251.858 109.806 251.994C109.73 251.987 109.649 251.99 109.57 251.986C109.531 251.927 109.472 251.883 109.385 251.865C108.963 251.775 108.51 251.849 108.064 251.96C107.023 251.994 105.975 252.11 104.981 252.218C103.038 252.427 101.114 252.766 99.2171 253.243C95.4655 254.185 91.8777 255.676 88.4922 257.547C88.2118 257.703 88.3176 258.144 88.6375 258.155C90.6355 258.224 92.5917 258.278 94.5869 258.09C96.4972 257.91 98.3911 257.555 100.249 257.074C103.564 256.22 106.75 254.907 109.735 253.231C109.684 253.341 109.63 253.453 109.578 253.563C108.178 256.549 106.735 259.519 105.297 262.489C103.252 262.453 101.09 263.043 99.1352 263.581C97.0616 264.149 95.0354 264.892 93.0784 265.788C89.1299 267.593 85.4946 270.02 82.3276 272.998C82.0239 273.285 82.2152 273.875 82.6568 273.865C90.4954 273.673 98.1228 270.635 103.914 265.363C103.734 265.741 103.548 266.119 103.367 266.497C101.953 269.472 100.58 272.474 99.2992 275.517C99.0837 275.478 98.8512 275.536 98.6914 275.758C98.6453 275.825 98.5941 275.887 98.5454 275.951C90.6798 278.758 83.6225 283.579 78.025 289.799C77.7103 290.146 77.9726 290.783 78.4853 290.644C85.0313 288.881 91.0938 285.522 95.9322 280.739C96.7095 279.974 97.4422 279.164 98.154 278.335C96.3094 282.999 94.7313 287.763 93.6692 292.675C92.6033 297.597 91.9252 302.847 92.6059 307.871C92.6606 308.275 93.2749 308.178 93.2939 307.799C93.5228 303.136 93.8567 298.551 94.7853 293.964C95.1205 292.321 95.5287 290.694 95.9689 289.079C95.9771 289.317 95.9836 289.563 95.9913 289.796C96.0512 291.794 96.291 293.808 96.6452 295.773C97.36 299.746 98.5847 303.626 100.27 307.292C101.243 309.412 102.409 311.405 103.651 313.375C103.9 313.77 104.512 313.645 104.54 313.16C104.993 305.297 103.512 297.361 100.523 290.092C99.6591 287.991 98.6601 285.95 97.5391 283.979C97.5359 283.969 97.5283 283.965 97.5227 283.956C97.9019 282.829 98.3031 281.71 98.7216 280.596C100.484 275.917 102.546 271.369 104.681 266.853C104.204 269.797 104.041 272.809 104.093 275.765C104.172 280.058 104.773 284.34 105.85 288.496C105.99 289.042 106.904 289.151 107.029 288.528C107.928 284.031 108.415 279.455 108.446 274.867C108.476 270.411 108.186 265.82 107.257 261.45C108.406 259.051 109.548 256.651 110.65 254.233C111.703 251.923 112.906 249.307 113.343 246.68C114.077 251.212 114.225 255.807 114.155 260.393C114.155 260.439 114.152 260.482 114.151 260.527C113.969 260.533 113.798 260.635 113.718 260.855C113.592 261.203 113.719 261.542 113.783 261.895C113.85 262.251 113.922 262.607 113.998 262.961C114.02 263.071 114.051 263.176 114.076 263.285C114.063 263.65 114.059 264.015 114.046 264.38C110.836 269.957 109.194 276.342 108.675 282.743C108.101 289.805 108.923 296.989 110.876 303.792C112.856 310.69 116.027 317.173 120.068 323.089C124.126 329.032 128.988 334.391 134.341 339.182C139.765 344.034 145.652 348.355 151.811 352.214C151.862 352.245 151.912 352.273 151.96 352.305C152.036 352.45 152.169 352.521 152.309 352.518C152.915 352.893 153.522 353.268 154.137 353.633C154.905 354.088 155.634 352.914 154.87 352.451C154.65 352.319 154.437 352.179 154.218 352.047C153.743 351.702 153.274 351.35 152.803 350.998C153.096 347.895 153.064 344.731 153.012 341.63C152.957 338.137 152.77 334.644 152.343 331.179C151.528 324.524 149.642 318.018 146.271 312.201C140.023 301.419 130.01 293.49 123.532 282.873C121.542 279.61 119.88 276.139 118.607 272.532C117.958 270.694 117.394 268.823 116.93 266.93C116.899 266.806 116.875 266.68 116.849 266.556C116.728 265.896 116.613 265.236 116.522 264.571C116.503 264.444 116.453 264.351 116.389 264.273C116.194 263.241 115.983 262.215 115.643 261.232C115.607 261.128 115.552 261.045 115.485 260.972C115.538 257.419 115.432 253.819 115.054 250.26C115.55 251.336 116.12 252.383 116.666 253.435C117.359 254.773 118.065 256.109 118.776 257.439C120.198 260.103 121.651 262.75 123.168 265.361C126.218 270.606 129.503 275.721 133.262 280.487C137.102 285.357 141.443 289.704 146.236 293.627C151.181 297.674 156.429 301.346 161.186 305.621C163.684 307.866 166.069 310.244 168.161 312.877C170.218 315.467 172.121 318.361 173.431 321.408C173.587 321.766 174.216 321.528 174.076 321.157C174.058 321.108 174.037 321.062 174.018 321.014C174.036 321.008 174.058 321.008 174.076 320.999C174.097 321.043 174.115 321.086 174.138 321.129C174.316 321.483 174.845 321.256 174.767 320.884C174.577 319.98 174.333 319.086 174.052 318.203C173.462 311.338 172.323 304.456 170.653 297.791C168.958 291.021 166.511 284.397 162.901 278.407C159.634 272.984 155.448 268.075 150.31 264.354C144.539 260.177 137.769 258.284 131.154 255.925C124.452 253.536 117.438 250.038 114.162 243.322C114.114 243.223 114.053 243.155 113.988 243.094C113.635 242.025 113.307 240.943 113.03 239.847C115.487 242.134 118.288 244.057 121.237 245.637C125.648 247.998 130.38 249.663 135.142 251.141C136.348 251.515 137.558 251.878 138.77 252.237C139.269 252.388 139.777 252.653 140.244 252.301C140.715 251.946 141.128 251.456 141.55 251.043C143.14 249.485 144.685 247.875 146.152 246.199C151.758 239.789 156.478 232.114 157.435 223.477C158.282 215.832 156.18 207.394 150.459 202.004C150.051 201.62 149.62 201.259 149.18 200.909C149.476 200.895 149.773 200.889 150.068 200.866C154.246 200.532 158.327 199.38 162.079 197.51C166.284 195.414 169.987 192.426 172.941 188.771C173.1 188.572 173.082 188.225 172.962 188.014C166.283 176.432 157.088 164.557 143.321 161.579C137.116 160.237 130.352 161.032 124.89 164.393C121.386 166.55 118.914 169.637 116.979 173.105C117.813 170.748 118.901 168.489 120.196 166.347C124.604 160.685 132.172 157.696 139.042 156.487C144.884 155.461 150.833 155.321 156.715 154.59C162.07 153.925 167.27 152.627 172.231 150.479C177.535 148.181 182.448 144.998 186.733 141.114C187.119 140.763 186.919 140.178 186.477 140.009C186.341 139.957 186.201 139.913 186.066 139.864C186.002 139.662 185.84 139.487 185.602 139.459C185.328 139.43 185.051 139.42 184.776 139.405C173.427 135.53 160.81 135.511 149.441 139.291C138.501 142.927 128.992 150.109 122.252 159.462C119.565 163.19 117.322 167.258 115.624 171.537C115.64 170.972 115.637 170.411 115.625 169.849C118.825 158.463 114.164 146.325 113.795 134.771C113.738 132.981 113.774 131.189 113.946 129.406C114.015 128.692 114.112 127.984 114.228 127.275C114.449 127.57 114.692 127.848 114.942 128.108C116.942 130.188 119.494 131.87 122.027 133.219C127.208 135.981 133.097 137.424 138.968 137.281C140.383 137.248 141.825 137.148 143.219 136.895C144.48 136.666 145.811 136.223 146.699 135.246C148.737 133.008 147.294 129.87 146.003 127.659C144.382 124.877 142.487 122.269 140.384 119.843C143.519 121.632 146.811 123.177 150.259 124.249C153.987 125.404 157.923 126.036 161.831 125.923C163.744 125.867 165.661 125.636 167.526 125.2C169.26 124.795 171.073 124.264 172.608 123.336C174.051 122.464 175.172 121.179 175.513 119.49C175.872 117.703 175.618 115.807 175.418 114.014C175.048 110.672 174.218 107.14 171.864 104.611C169.574 102.155 166.267 101.227 163.015 101.03C161.931 100.965 160.837 100.963 159.744 101.006C169.062 99.7958 178.91 97.7785 186.326 91.6637C189.701 88.8811 192.155 85.3306 193.841 81.308C195.483 77.3947 196.443 73.2447 197.536 69.1587C198.598 65.1783 199.804 61.1866 201.815 57.5871C202.389 57.0888 202.981 56.6055 203.604 56.148C204.221 55.6959 203.469 54.6922 202.822 55.0684C202.777 55.0942 202.737 55.1266 202.694 55.1521C202.471 54.9319 202.102 54.8282 201.774 54.9571C193.539 58.1882 185.941 63.1001 179.769 69.4654C176.733 72.5956 174.105 76.067 171.763 79.7454C169.5 83.2995 167.444 86.9844 165.098 90.4842C165.14 90.2318 165.186 89.9792 165.214 89.7234C165.882 83.483 162.215 77.6511 156.868 74.6928C151.7 71.8346 145.611 71.6373 140.014 73.1679C139.902 73.1379 139.776 73.1425 139.643 73.2196C139.582 73.254 139.526 73.2927 139.465 73.3295C138.829 73.516 138.198 73.7211 137.578 73.9515C135.137 74.8622 132.716 76.06 130.74 77.7912C130.746 77.7572 130.745 77.7238 130.752 77.6898C133.42 74.6945 134.756 70.8721 135.768 67.0253C135.894 67.0684 136.046 67.0397 136.072 66.8845C136.682 63.1352 138.166 59.5973 140.359 56.5872C140.433 56.6328 140.522 56.6483 140.603 56.569C141.977 55.224 143.224 53.7334 144.484 52.256C145.797 51.1937 147.23 50.2682 148.785 49.5223C152.723 47.6323 156.98 47.4316 161.258 47.0831C165.537 46.7323 169.772 45.9749 173.145 43.1161C174.712 41.7888 175.969 40.185 177.06 38.4583C177.239 38.3627 177.331 38.1988 177.338 38.0238C178.53 36.0584 179.514 33.9479 180.46 31.8887C180.629 31.5169 180.467 31.2122 180.215 31.0832C180.194 31.0613 180.179 31.0364 180.154 31.0173C172.781 25.0908 161.849 23.6165 153.093 27.028C144.695 30.2983 138.076 37.9189 136.14 46.7671C134.75 53.1234 135.615 59.6945 134.675 66.1016C134.658 66.2249 134.686 66.3178 134.731 66.3995C133.94 69.693 132.959 72.9685 131.202 75.8349C131.342 75.2223 131.362 74.5757 131.298 73.9418C132.445 64.934 132.719 55.8246 132.477 46.7495C132.416 44.4581 132.337 42.1326 132.193 39.8036C135.342 38.8047 138.153 37.0162 140.409 34.5803C140.938 34.0075 141.648 33.3341 141.752 32.5219C141.852 31.7388 141.28 31.1171 140.52 31.0311C139.627 30.9266 138.926 31.5968 138.288 32.1202C137.515 32.7519 136.755 33.3942 136.008 34.0545C135.189 34.7788 134.385 35.5208 133.6 36.2801C133.097 36.767 132.546 37.2559 132.04 37.7787C131.921 36.2617 131.778 34.7469 131.575 33.2426C135.471 29.6755 138.366 25.219 140.117 20.2255C140.425 19.3488 140.577 17.9901 139.378 17.7378C138.245 17.4984 137.312 18.7898 136.672 19.5235C135.007 21.4404 133.609 23.5804 132.54 25.8876C131.944 27.1688 131.441 28.489 131.05 29.8487C131.049 29.8584 131.045 29.8683 131.043 29.878C130.422 26.6723 129.52 23.5384 128.167 20.5642C128.14 20.5046 128.108 20.4456 128.081 20.386C130.479 16.2414 129.32 10.5839 126.32 7.0627C126.037 6.73124 125.397 6.95638 125.418 7.40809C125.515 9.44775 125.695 11.482 125.957 13.5061C126.09 14.5156 126.242 15.5209 126.418 16.524C126.478 16.8669 126.535 17.2149 126.594 17.5652C126.063 16.6744 125.484 15.812 124.852 14.9881C123.553 13.291 122.005 11.584 120.074 10.615C119.752 10.452 119.397 10.8293 119.662 11.1218C120.855 12.4397 122.147 13.6528 123.279 15.029C122.236 14.2653 121.098 13.6275 119.888 13.1398C119.334 12.9174 118.522 12.4974 117.923 12.7878C117.227 13.1256 117.455 13.9327 117.879 14.3918C118.42 14.9831 119.082 15.4938 119.707 15.9889C120.342 16.4902 121.005 16.9531 121.692 17.3778C123.109 18.2543 124.643 18.9718 126.231 19.4859C126.335 19.6815 126.446 19.8763 126.548 20.0744C127.869 22.6601 128.795 25.4168 129.466 28.2358C127.023 24.7911 123.809 21.9111 120.152 19.801C119.81 19.604 119.362 19.9782 119.578 20.3471C122.308 25.0494 125.949 29.0951 130.265 32.3727C130.317 32.695 130.347 33.0193 130.392 33.3422C130.385 33.596 130.371 33.848 130.39 34.1041C130.396 34.2205 130.454 34.3034 130.527 34.3682C130.84 36.8841 131.029 39.419 131.161 41.9521C130.769 41.4279 130.33 40.9367 129.887 40.4579C129.198 39.711 128.477 38.9982 127.725 38.3169C126.214 36.9502 124.562 35.7376 122.826 34.6787C122.548 34.5091 122.146 34.7666 122.244 35.1013C123.492 39.3201 126.976 42.712 131.249 43.7443C131.277 44.3696 131.305 44.9927 131.328 45.6185C131.495 50.2162 131.539 54.8183 131.423 59.4188C131.316 63.6673 131.101 67.9166 130.844 72.1602C130.742 71.9143 130.643 71.6682 130.523 71.4312C130.412 67.0765 129.3 62.9237 127.558 58.9593C127.604 58.8881 127.642 58.8105 127.647 58.7121C127.746 56.8856 126.704 55.3481 125.282 54.2763C125.201 54.1717 125.113 54.0725 125.029 53.9682C124.1 52.3413 123.096 50.743 122.044 49.1778C121.055 46.0879 120.547 42.9169 120.31 39.6678C120.052 36.1223 119.957 32.5661 119.411 29.0476C118.382 22.4203 116.036 15.9935 112.605 10.2398C111.08 7.68289 109.324 5.26703 107.386 3.00929C107.282 2.60605 107.156 2.2072 106.973 1.82572C106.839 1.54933 106.468 1.59629 106.322 1.81777C106.152 1.63082 105.991 1.43585 105.819 1.24912C105.452 0.861091 104.86 1.14611 104.813 1.63526C103.559 14.1777 107.599 26.4694 113.473 37.4134C109.67 32.2273 106.188 26.8747 103.521 20.9869C100.744 14.861 98.7855 8.3667 97.6445 1.74039C96.376 -5.63325 96.2296 -13.0912 96.9087 -20.5267C96.9315 -20.5622 96.9466 -20.6043 96.9692 -20.6422C97.7658 -17.4674 99.1844 -14.4586 101.115 -11.799C104.033 -7.77593 108.049 -4.82342 112.623 -2.9479C117.41 -0.985002 122.568 -0.181799 127.67 0.476286C130.517 0.84307 133.368 1.17842 136.218 1.52583C137.756 1.71275 139.296 1.9018 140.837 2.09086C142.305 2.27003 143.791 2.52878 145.272 2.56586C150.557 2.70511 153.441 -2.4762 154.956 -6.86716C155.437 -8.25922 155.784 -9.69607 156.025 -11.1492C156.075 -11.2016 156.109 -11.267 156.094 -11.3586C156.088 -11.3915 156.08 -11.4242 156.073 -11.4569C156.579 -14.7426 156.496 -18.1232 155.795 -21.3715C153.942 -29.97 147.678 -36.5456 140.533 -41.3426C148.133 -42.1713 153.842 -48.4429 158.215 -54.407C160.643 -57.7188 163.587 -61.2271 164.27 -65.4083C164.957 -69.6136 163.191 -73.9292 160.775 -77.2953C158.636 -80.279 155.788 -82.7447 152.426 -84.233C149.613 -85.4793 146.623 -85.7992 143.651 -85.4426C143.941 -87.2155 143.767 -89.1095 143.476 -90.861C143.147 -92.8311 142.587 -94.7626 141.821 -96.6078C140.272 -100.337 137.863 -103.737 134.813 -106.38C131.466 -109.276 127.376 -111.412 122.848 -110.969C120.419 -110.73 118.094 -109.833 115.86 -108.889C113.705 -107.977 111.593 -106.954 109.539 -105.829C107.229 -104.565 104.988 -103.169 102.835 -101.648C101.771 -100.899 100.724 -100.119 99.7007 -99.3112C99.0715 -98.8173 98.4341 -98.3106 97.828 -97.7735C97.8823 -99.7463 97.867 -101.727 97.9144 -103.697C97.9778 -106.255 98.0913 -108.811 98.3007 -111.36C98.6698 -115.874 99.3468 -120.38 100.607 -124.732C102.747 -127.496 105.32 -129.809 108.191 -131.789C111.102 -133.798 114.177 -135.556 117.054 -137.613C119.81 -139.581 122.428 -141.816 124.349 -144.636C126.356 -147.581 127.324 -151.037 127.525 -154.58C127.762 -158.731 127.113 -162.964 126.316 -167.027C126.307 -167.081 126.279 -167.119 126.261 -167.162C126.281 -167.226 126.306 -167.286 126.326 -167.35C126.555 -168.129 125.374 -168.49 125.126 -167.719C124.848 -166.857 124.444 -166.086 123.969 -165.375C123.875 -165.311 123.813 -165.215 123.777 -165.092C122.178 -162.871 119.743 -161.318 117.345 -159.977C115.545 -158.972 113.721 -158.009 112.054 -156.79C110.602 -155.726 109.269 -154.502 108.067 -153.162C102.995 -147.499 100.489 -140.118 99.3098 -132.71C98.624 -128.399 98.3164 -124.015 98.2689 -119.648C97.8859 -117.577 97.5948 -115.491 97.3826 -113.401C97.0933 -110.539 96.938 -107.669 96.8567 -104.796C96.8075 -103.122 96.7617 -101.436 96.7561 -99.7548C95.7812 -102.777 94.6854 -105.768 93.6814 -108.771C92.214 -113.155 90.839 -117.569 89.6237 -122.03C87.4152 -130.137 85.7576 -138.407 85.0818 -146.787C85.631 -149.088 86.3585 -151.315 87.4168 -153.466C88.7791 -156.229 90.4913 -158.788 92.2324 -161.318C95.677 -166.323 99.3407 -171.401 100.664 -177.453C103.519 -190.502 96.6291 -202.891 89.5755 -213.301C87.4914 -216.378 85.3447 -219.411 83.3076 -222.519C82.0934 -224.37 80.9472 -226.256 79.8528 -228.173C79.6759 -228.56 79.5151 -228.953 79.3267 -229.336C78.9319 -230.142 78.4461 -230.903 77.9518 -231.654C77.8272 -231.891 77.6981 -232.125 77.5756 -232.364C77.2049 -233.091 76.136 -232.491 76.4739 -231.758Z" fill="#CA976D"/>
</svg>
