<svg width="344" height="276" viewBox="0 0 344 276" fill="none" xmlns="http://www.w3.org/2000/svg">
<path opacity="0.6" d="M325.094 207.859C324.619 207.704 324.147 207.537 323.674 207.376C322.727 207.306 321.781 207.217 320.836 207.118C318.498 206.873 316.166 206.559 313.849 206.163C309.215 205.373 304.628 204.299 300.124 202.954C291.172 200.28 282.538 196.551 274.474 191.833C266.732 187.303 259.534 181.87 253.06 175.663C252.166 174.805 251.289 173.93 250.423 173.045C251.409 174.527 252.398 176.008 253.382 177.49C253.898 178.156 254.413 178.822 254.942 179.478C260.403 186.246 266.579 192.492 273.614 197.631C280.864 202.926 289.043 206.934 297.817 208.942C307.341 211.121 317.195 210.976 326.718 208.875C327.037 208.805 327.357 208.731 327.676 208.659C326.813 208.4 325.951 208.138 325.094 207.859ZM325.29 205.422C319.424 200.577 313.328 196.018 307.098 191.651C299.758 186.503 292.235 181.631 284.761 176.682C277.295 171.736 269.734 166.931 262.341 161.875C255.017 156.868 247.764 151.743 240.847 146.181C235.751 142.083 230.751 137.803 226.021 133.262L226.063 133.33C229.874 138.528 233.889 143.583 238.134 148.425C244.176 155.318 250.704 161.788 257.633 167.788C264.537 173.765 271.845 179.277 279.49 184.27C287.159 189.279 295.181 193.758 303.46 197.677C311.035 201.264 318.826 204.25 326.751 206.94C326.256 206.441 325.775 205.93 325.29 205.422ZM311.331 189.339C308.289 185.875 305.086 182.562 301.588 179.556C298.178 176.626 294.541 173.965 290.78 171.505C283.191 166.542 275.096 162.414 267.009 158.337C259.053 154.326 251.071 150.344 243.492 145.646C236.853 141.53 230.351 136.837 224.939 131.146L225.047 131.418C226.277 132.657 227.517 133.887 228.782 135.092C231.997 138.15 235.371 141.035 238.808 143.837C245.68 149.44 252.83 154.699 260.126 159.732C267.475 164.802 275 169.594 282.47 174.476C289.98 179.385 297.537 184.21 304.932 189.29C310.569 193.161 316.144 197.148 321.563 201.328C318.101 197.379 314.795 193.283 311.331 189.339ZM238.135 138.075C240.271 139.271 242.458 140.374 244.695 141.366C247.078 142.424 249.668 143.454 252.328 143.222C253.709 143.101 254.982 142.59 256.135 141.864C255.305 141.663 254.517 141.311 253.725 140.991C252.851 140.639 251.982 140.276 251.116 139.906C249.385 139.165 247.667 138.394 245.963 137.593C242.525 135.979 239.145 134.244 235.828 132.393C229.257 128.724 222.936 124.56 216.916 120.045C213.98 117.842 211.124 115.536 208.382 113.096C207.838 112.945 207.299 112.782 206.763 112.607C207.313 112.979 207.806 113.511 208.274 113.922C208.97 114.531 209.661 115.147 210.349 115.765C211.75 117.024 213.127 118.31 214.487 119.612C215.825 120.892 217.154 122.183 218.447 123.507C218.886 123.956 219.32 124.411 219.755 124.864C221.767 126.596 223.809 128.292 225.916 129.915C229.799 132.907 233.856 135.679 238.135 138.075ZM256.668 141.157L256.851 141.375C257.365 140.995 257.854 140.578 258.309 140.135C259.991 138.5 261.42 136.574 262.638 134.574C263.028 133.932 263.39 133.275 263.739 132.611C262.061 132.388 260.391 132.005 258.741 131.649C256.956 131.263 255.179 130.846 253.409 130.398C249.902 129.509 246.426 128.498 242.99 127.369C236.022 125.079 229.209 122.339 222.621 119.114C219.468 117.57 216.377 115.91 213.37 114.099C212.083 113.94 210.818 113.705 209.572 113.405C214.628 117.575 219.826 121.559 225.318 125.151C231.588 129.252 238.189 132.893 244.969 136.083C246.893 136.988 248.835 137.856 250.794 138.685C251.744 139.087 252.7 139.479 253.659 139.866C254.665 140.273 255.737 140.599 256.668 141.157ZM267.534 122.051C264.278 122.294 260.98 122.199 257.723 122.067C254.253 121.927 250.787 121.674 247.332 121.32C240.307 120.602 233.32 119.468 226.428 117.924C223.301 117.224 220.194 116.432 217.11 115.563C221.808 118.048 226.585 120.379 231.501 122.422C238.248 125.225 245.187 127.538 252.266 129.344C254.217 129.843 256.179 130.302 258.147 130.725C260.121 131.147 262.127 131.458 264.093 131.915C265.651 128.791 266.773 125.458 267.534 122.051ZM267.779 120.929C268.856 115.529 269.08 110.002 268.958 104.51C268.903 101.947 268.822 99.3705 268.567 96.8178C268.482 95.9653 268.37 95.1117 268.215 94.2674C261.247 91.1949 253.739 89.42 246.132 89.0326C243.919 88.9202 241.702 88.9627 239.489 88.9333C240.224 92.3838 240.411 95.9171 239.381 99.3598C238.049 103.811 235.009 107.632 231.192 110.234C226.991 113.099 221.964 114.398 216.907 114.339C223.066 116.13 229.317 117.603 235.636 118.714C242.528 119.927 249.489 120.698 256.474 121.101C260.195 121.316 263.929 121.316 267.648 121.525C267.691 121.326 267.739 121.128 267.779 120.929ZM266.982 90.114C265.103 85.8698 261.043 83.5388 256.809 82.1244C251.793 80.4488 246.415 79.593 241.138 79.3973C240.407 79.3703 239.677 79.3677 238.945 79.3675L238.737 79.6401C238.216 80.0992 237.539 80.3773 236.847 80.4582C237.094 81.134 237.339 81.8097 237.582 82.4853C238.293 84.4686 238.953 86.5221 239.42 88.608L239.451 88.591C243.335 88.0549 247.379 88.3046 251.259 88.7861C255.177 89.2727 259.05 90.1289 262.807 91.3445C264.574 91.9154 266.307 92.5815 268.017 93.3065C267.769 92.2141 267.438 91.1427 266.982 90.114ZM247.963 68.4988C250.945 65.6418 254.434 62.6574 255.741 58.5942C257.162 54.1703 255.279 49.5631 253.082 45.7434C251.895 43.6786 250.538 41.7156 249.068 39.8396C248.038 49.1954 244.279 58.2285 238.715 65.7876C237.114 67.9637 235.354 70.0294 233.439 71.935C234.043 73.2849 234.619 74.6496 235.164 76.0264C235.412 76.315 235.638 76.6161 235.793 76.9436C235.876 77.1229 235.811 77.2766 235.69 77.3756C235.75 77.5332 235.81 77.692 235.87 77.8495C236.401 77.6352 236.979 77.4862 237.544 77.4589C237.877 77.443 238.222 77.4777 238.553 77.5326C241.682 74.5141 244.824 71.5071 247.963 68.4988ZM256.227 65.8878C262.181 60.6119 267.578 54.7393 272.72 48.6831C278.292 42.1212 283.634 35.3631 288.753 28.4446C293.913 21.4715 298.86 14.3408 303.556 7.04727C305.28 4.37039 306.959 1.66482 308.617 -1.05379C306.225 0.684738 303.492 2.03451 300.845 3.29116C294.241 6.42364 287.602 9.5034 280.796 12.1757C275.546 14.2364 270.152 16.0396 264.662 17.3808C264.697 17.629 264.595 17.8814 264.274 17.9759C263.545 18.1897 262.814 18.2934 262.087 18.3117L261.984 18.3161C260.433 18.752 258.803 18.8842 257.183 18.8897C253.757 19.4284 250.302 19.7472 246.828 19.81C246.414 19.8336 245.999 19.8608 245.583 19.8795C242.787 20.0025 239.986 19.9959 237.19 19.8709C237.091 19.928 236.968 19.9548 236.82 19.9207L236.546 19.8437C233.347 19.6793 230.155 19.3551 226.989 18.8683C225.258 18.6018 223.535 18.2855 221.824 17.9209C221.263 17.8018 220.706 17.6681 220.148 17.5381C221.359 18.0549 222.564 18.5848 223.755 19.1483C231.323 22.7265 238.551 27.2425 244.627 33.0365C247.642 35.9106 250.373 39.0969 252.659 42.5805C255.119 46.3252 257.523 50.6713 257.545 55.2706C257.567 59.8468 254.874 63.5046 251.786 66.6237C248.325 70.1175 244.702 73.463 241.145 76.8601C246.534 73.7373 251.555 70.0279 256.227 65.8878ZM257.306 17.2625C254.053 17.0971 250.816 16.3936 247.86 15.021C240.744 11.7165 235.924 5.13996 232.338 -1.60548C230.382 -5.2847 228.658 -9.08651 226.895 -12.8593C225.117 -16.6633 223.357 -20.4752 221.645 -24.3082C218.224 -31.9657 214.995 -39.7132 212.22 -47.6293C209.977 -54.0298 208.011 -60.5499 206.549 -67.1779C206.327 -65.2162 206.12 -63.2516 205.96 -61.2825C205.589 -56.765 205.413 -52.2274 205.51 -47.6946C205.69 -39.3591 206.828 -31.019 209.279 -23.0366C211.576 -15.5576 215.017 -8.4063 219.784 -2.17889C224.312 3.73588 230.073 8.74379 236.661 12.2408C243.051 15.6334 250.371 17.667 257.645 17.4093C257.53 17.362 257.419 17.3122 257.306 17.2625ZM253.962 15.3257C252.161 14.0399 250.506 12.5364 248.997 10.9033C247.383 9.62017 245.838 8.26166 244.396 6.82541C239.299 1.74898 235.355 -4.36829 232.631 -11.0166C229.654 -18.2861 228.026 -26.0081 226.382 -33.6624C224.838 -40.8447 223.238 -48.0353 220.498 -54.875C217.921 -61.3109 214.282 -67.4183 209.102 -72.1023C208.521 -72.6278 207.916 -73.1311 207.306 -73.6236C207.193 -72.6667 207.079 -71.7098 206.965 -70.7529C207.089 -70.1627 207.209 -69.5715 207.34 -68.9822C207.778 -66.9928 208.251 -65.008 208.761 -63.0351C209.787 -59.0538 210.967 -55.1139 212.265 -51.2132C214.874 -43.382 217.96 -35.7172 221.256 -28.1527C224.542 -20.6167 227.972 -13.1262 231.561 -5.72828C234.902 1.15753 238.966 8.12258 245.513 12.4243C248.375 14.3038 251.506 15.3671 254.745 15.8569C254.479 15.6837 254.216 15.5082 253.962 15.3257ZM249.599 9.76572C249.865 10.0538 250.14 10.3312 250.415 10.611C250.615 10.7584 250.812 10.908 251.014 11.053C250.528 10.64 250.059 10.2082 249.599 9.76572ZM237.325 -11.4541C236.199 -15.5067 235.228 -19.5848 234.369 -23.7023C233.498 -27.8839 232.703 -32.0807 231.766 -36.249C230.106 -43.6327 227.975 -51.011 224.328 -57.6844C221.504 -62.8475 217.693 -67.6705 212.854 -71.0774C211.841 -71.6583 210.799 -72.1841 209.74 -72.6776C214.196 -68.7094 217.457 -63.5372 219.929 -58.1329C222.897 -51.6409 224.69 -44.7161 226.23 -37.7697C227.934 -30.0801 229.383 -22.298 231.984 -14.8447C233.25 -11.2152 234.793 -7.67 236.744 -4.35261C238.521 -1.33298 240.665 1.47543 243.045 4.04655C243.826 4.89047 244.646 5.69933 245.482 6.49048C241.699 1.08463 239.086 -5.12067 237.325 -11.4541ZM237.661 -14.9419C236.055 -23.0137 235.478 -31.2492 233.874 -39.3209C232.348 -46.9997 229.75 -54.5067 224.871 -60.7265C222.83 -63.3279 220.466 -65.6528 217.871 -67.6841C219.78 -65.7464 221.478 -63.5974 222.964 -61.3238C226.961 -55.213 229.479 -48.2541 231.309 -41.2227C233.42 -33.1183 234.669 -24.8203 236.703 -16.6983C237.474 -13.6178 238.398 -10.552 239.503 -7.5558C238.754 -9.98419 238.155 -12.4615 237.661 -14.9419ZM206.172 -74.2289C206.296 -73.7364 206.419 -73.244 206.533 -72.7507C206.61 -73.1593 206.689 -73.5691 206.771 -73.9763C206.572 -74.0613 206.371 -74.1439 206.172 -74.2289ZM236.202 17.8641L236.199 17.8701L236.229 17.875L236.202 17.8641ZM220.815 8.31187C214.741 2.93827 209.758 -3.49457 205.159 -10.1391C200.211 -17.2901 195.635 -24.7107 190.254 -31.5566C185.29 -37.8714 179.571 -43.5655 173.231 -48.5026C170.101 -50.9403 166.831 -53.1979 163.432 -55.2469C165.743 -53.5875 167.936 -51.7606 170.002 -49.8216C175.463 -44.6962 180.137 -38.7927 184.452 -32.6898C189.152 -26.0412 193.496 -19.1491 198.28 -12.5594C203.008 -6.04642 208.233 0.106581 214.392 5.31627C217.165 7.66011 220.105 9.78839 223.172 11.7128C225.359 12.9262 227.619 13.9959 229.933 14.898C226.678 13.0417 223.631 10.8028 220.815 8.31187ZM155.299 -59.5124C160.082 -55.7998 164.393 -51.4306 168.405 -46.9404C173.565 -41.1663 178.262 -35.0028 182.913 -28.8179C187.739 -22.4013 192.526 -15.9446 197.781 -9.8685C200.766 -6.41659 203.909 -3.09758 207.257 -0.00239109C204.604 -2.86672 202.132 -5.90336 199.794 -9.05676C194.966 -15.5701 190.676 -22.4698 186.163 -29.2C181.903 -35.5511 177.325 -41.7282 171.959 -47.1966C167.105 -52.1435 161.566 -56.5048 155.299 -59.5124ZM153.347 -60.4072C152.942 -60.5811 152.533 -60.7491 152.124 -60.9146C155.242 -55.8056 158.018 -50.4758 161.06 -45.3259C164.578 -39.3687 168.258 -33.5028 172.231 -27.8388C179.942 -16.8466 188.837 -6.62391 199.559 1.53443C208.102 8.03505 217.768 13.2456 228.129 16.1337C227.424 15.7546 226.719 15.3719 226.025 14.9713C223.797 13.6842 221.629 12.2785 219.527 10.7864C218.353 10.0341 217.195 9.25929 216.071 8.44189C210.044 4.05117 204.649 -1.11547 199.681 -6.66316C194.303 -12.6672 189.429 -19.1017 184.596 -25.5431C179.9 -31.8019 175.232 -38.0913 170.146 -44.0444C165.14 -49.904 159.717 -55.4419 153.627 -60.1845L153.347 -60.4072ZM152.157 -56.3099C152.587 -54.1241 153.131 -51.9532 153.746 -49.81C154.972 -45.5371 156.548 -41.3638 158.485 -37.3616C162.198 -29.6886 167.174 -22.6905 172.783 -16.2923C178.382 -9.9055 184.593 -3.98397 191.342 1.17864C198.169 6.40056 205.654 10.8281 213.726 13.8315C218.505 15.6088 223.501 16.8853 228.571 17.5381C219.608 15.1462 211.114 11.025 203.419 5.84871C192.182 -1.71345 182.733 -11.5602 174.604 -22.3347C166.1 -33.6057 158.877 -45.8744 152.136 -58.2619C151.937 -58.6278 151.749 -58.9971 151.557 -59.3664C151.895 -58.4035 151.96 -57.3099 152.157 -56.3099ZM211.1 15.651L211.075 15.9237C207.464 24.4619 205.293 33.5884 204.661 42.8368C204.502 45.1724 204.457 47.5114 204.401 49.8511C205.795 51.2915 207.063 52.849 208.133 54.5463C208.283 54.7832 208.421 55.0234 208.555 55.2658C208.486 54.2832 208.505 53.2871 208.509 52.3111C208.516 51.0188 208.549 49.7276 208.608 48.4387C208.728 45.8523 208.956 43.2727 209.292 40.706C209.963 35.58 211.062 30.5127 212.567 25.5668C213.426 22.7464 214.397 19.9622 215.499 17.2273L215.627 17.0455L215.495 16.9926C214.167 16.4821 212.649 15.9627 211.1 15.651ZM203.204 17.4694C201.877 18.9088 201.331 20.8574 201.043 22.7504C200.699 25.0089 200.624 27.3234 200.572 29.6047C200.459 34.5834 200.757 39.5702 201.401 44.5086C201.527 45.4739 201.66 46.4384 201.785 47.4049C202.476 47.9739 203.135 48.5783 203.774 49.2028C203.566 45.0491 203.913 40.8336 204.467 36.7291C205.095 32.0704 206.114 27.4654 207.51 22.977C208.298 20.4493 209.201 17.958 210.219 15.5141L210.23 15.4999C207.655 15.1273 205.074 15.4411 203.204 17.4694ZM199.655 47.3446C199.457 47.4051 199.217 47.3453 199.107 47.0978L199.018 46.8926C198.32 46.4002 197.606 45.9328 196.873 45.4928C192.752 53.0147 191.479 61.5678 189.626 69.8361C188.021 77.0001 185.781 84.262 181.142 90.0979C179.942 91.6072 178.583 92.9977 177.072 94.1975C176.278 94.8277 175.443 95.3621 174.574 95.8328C176.898 94.9027 179.137 93.7762 181.217 92.3684C184.12 90.4025 186.719 88.0394 189.006 85.3841C194.095 79.4771 197.441 72.338 200.012 65.0357C201.562 60.6342 202.843 56.1436 204.121 51.6565L204.221 51.465C203.675 50.8456 203.103 50.2459 202.489 49.6726C201.662 48.8977 200.782 48.1878 199.878 47.5088L199.714 47.3861L199.655 47.3446ZM190.173 23.6303C186.417 19.6452 181.729 16.678 176.617 14.8409C180.165 17.6925 183.395 20.9686 186.357 24.4025C190.041 28.673 193.267 33.3197 195.957 38.2747C196.467 39.2127 196.964 40.1686 197.45 41.1313C197.916 41.8746 198.374 42.6249 198.811 43.3865C199.028 43.7618 199.25 44.1397 199.462 44.5233C198.842 36.7759 195.511 29.2931 190.173 23.6303ZM166.303 12.733C165.427 12.683 164.554 12.6759 163.683 12.6933C164.317 12.9534 164.945 13.2255 165.566 13.501C167.155 14.204 168.717 14.9732 170.247 15.7972C173.308 17.4441 176.246 19.3206 179.039 21.3867C184.228 25.2244 188.955 29.7618 192.974 34.8204C192.444 33.9536 191.903 33.0937 191.341 32.2488C188.265 27.6204 184.761 23.3058 180.786 19.4181C178.971 17.6431 177.06 15.973 175.117 14.3394C172.264 13.4522 169.299 12.9039 166.303 12.733ZM162.207 12.7535C161.168 12.8167 160.137 12.9266 159.111 13.0819C164.374 16.1737 169.404 19.7105 174.305 23.3289C179.815 27.397 185.09 31.7903 190.061 36.5013C191.443 37.8104 192.804 39.142 194.144 40.4947C194.815 41.1705 195.48 41.8522 196.139 42.5384C196.794 43.2197 197.503 43.8811 198.041 44.659C197.67 43.8084 197.29 42.9623 196.901 42.1195L196.848 42.027C195.956 40.5348 195.008 39.0757 194.007 37.6549C192.011 34.8182 189.811 32.1139 187.426 29.595C182.684 24.5891 177.127 20.3188 171.116 16.9488C169.436 16.0076 167.718 15.1369 165.967 14.3333C164.73 13.7654 163.463 13.2708 162.207 12.7535ZM144.997 18.3452C146.787 19.0819 148.509 19.9895 150.192 20.9431C152.207 22.0835 154.16 23.3326 156.044 24.678C159.827 27.3802 163.304 30.4806 166.476 33.8765C168.279 35.8062 169.902 37.8532 171.542 39.9193L171.551 39.9392C173.75 39.6052 175.978 39.425 178.207 39.4147C178.383 39.2239 178.673 39.2588 178.883 39.4175C183.743 39.4706 188.585 40.3377 193.097 42.1958C193.921 42.5357 194.727 42.9225 195.523 43.3309C194.983 42.7655 194.438 42.2035 193.89 41.6463C192.706 40.4416 191.504 39.2533 190.288 38.0815C187.855 35.7392 185.364 33.4494 182.817 31.2332C177.719 26.7981 172.423 22.5969 166.855 18.7672C164.045 16.8348 161.163 15.0229 158.279 13.2096C153.577 14.0352 149.064 15.8019 144.997 18.3452ZM142.086 20.3511C141.834 20.5438 141.589 20.7452 141.341 20.9429C148.262 25.1302 154.759 29.9894 160.772 35.3972C162.534 36.9832 164.251 38.6174 165.937 40.2834C166.259 40.6006 165.797 41.1402 165.484 40.8185C159.724 34.8944 153.341 29.5584 146.554 24.8512C144.738 23.5929 142.905 22.3645 141.04 21.1824C138.102 23.5844 135.517 26.4195 133.43 29.59C132.099 31.6132 130.987 33.9238 131.877 36.353C132.678 38.533 134.489 40.226 136.04 41.8841C143.561 49.9232 151.095 57.953 158.516 66.0833C158.682 66.2659 158.845 66.4496 159.011 66.631C159.29 66.9196 159.578 67.1988 159.851 67.4969C162.959 70.8951 165.493 74.787 167.475 78.9413C167.384 78.659 167.296 78.377 167.197 78.0956C165.975 74.6378 164.21 71.3829 161.962 68.4848C159.66 65.5173 156.869 62.8991 154.991 59.6176C153.284 56.6375 152.303 52.9573 153.436 49.6017C154.492 46.4728 157.257 44.45 160.149 43.1238C163.479 41.5965 167.153 40.672 170.755 40.0623C169.529 38.2341 168.104 36.5102 166.661 34.8552C165.15 33.1243 163.518 31.4898 161.815 29.9478C158.386 26.8432 154.636 24.0996 150.643 21.7664C148.675 20.6156 146.63 19.6242 144.6 18.5943C143.742 19.1461 142.901 19.7304 142.086 20.3511ZM152.418 62.7452C152.279 62.6175 152.134 62.4968 151.995 62.369C150.729 61.5324 149.406 60.7778 148.031 60.1201C142.402 57.4253 135.986 56.2821 129.787 57.1634C128.338 57.3701 126.929 57.703 125.562 58.1414C132.795 56.5052 140.802 58.0327 147.337 61.21C156.027 65.4368 162.558 72.9595 166.913 81.461C167.277 82.172 167.606 82.9 167.942 83.6245L168.119 83.5718C166.547 79.3999 164.46 75.4221 161.811 71.8286C160.227 69.6793 158.431 67.6827 156.459 65.8806C156.27 66.0049 156.017 66.0387 155.812 65.8716C154.62 64.8999 153.547 63.7902 152.418 62.7452ZM141.676 53.8518C136.694 50.1655 131.435 46.7868 125.939 43.9153C123.181 42.4749 120.155 41.1776 116.978 41.3427C114.061 41.4951 111.344 42.8186 109.07 44.59C108.856 44.756 108.651 44.931 108.445 45.106C118.683 44.8957 129.123 47.6941 137.971 52.7764C139.276 53.5267 140.55 54.3269 141.795 55.1736C142.423 55.6009 143.043 56.0413 143.653 56.4935C144.114 56.8358 144.599 57.1742 145.037 57.5547C145.937 57.8745 146.824 58.2193 147.69 58.611C145.728 56.9693 143.731 55.3727 141.676 53.8518ZM102.852 51.3103C101.032 53.6876 99.0709 56.0935 97.9831 58.9132C96.8871 61.751 97.1916 64.7174 98.5173 67.4207C99.8996 70.2363 102.179 72.4344 104.496 74.4886C104.651 74.6268 104.803 74.771 104.955 74.9127L105.252 74.7012C105.424 74.57 105.599 74.5624 105.751 74.6174C107.05 72.2533 108.513 69.9813 110.178 67.8677C114.1 62.8935 119.222 58.7666 125.34 56.8863C130.764 55.2187 136.617 55.2544 142.099 56.6507L141.847 56.461C140.739 55.6735 139.602 54.9264 138.44 54.2223C136.141 52.8285 133.742 51.5992 131.28 50.5189C126.38 48.3679 121.213 46.8914 115.91 46.1657C113.251 45.8019 110.559 45.6286 107.873 45.6046C105.993 47.3052 104.389 49.3051 102.852 51.3103ZM101.833 78.7598C101.673 78.7546 101.554 78.6863 101.459 78.5969C97.7131 82.0792 93.7122 85.3386 89.0977 87.5715C86.1098 89.0173 82.887 89.894 79.5804 90.1821C76.0936 90.4838 72.567 90.1693 69.1355 89.5252C65.6421 88.87 62.2209 87.8793 58.8374 86.8009C55.5252 85.745 52.2339 84.6251 48.9688 83.4318C42.4348 81.0463 36.0042 78.3705 29.7379 75.3494C23.4788 72.3311 17.3292 68.9605 11.614 65.0014C11.1979 64.7134 10.7909 64.4099 10.3825 64.1112C10.206 64.1554 10.0294 64.2008 9.85277 64.2463C13.7064 69.6024 18.4001 74.2826 23.6275 78.3063C29.1689 82.5736 35.2448 86.1062 41.5454 89.1262C44.773 90.6735 48.0644 92.0926 51.3997 93.3938C55.1839 94.8695 59.0548 96.1642 63.0525 96.9204C66.9824 97.6628 71.0108 97.8412 74.9582 97.1183C78.5325 96.4646 81.9806 95.0924 85.143 93.3202C91.7554 89.6138 97.1502 84.2165 102.264 78.699C102.128 78.7412 101.984 78.7635 101.833 78.7598ZM100.304 77.2394C100.171 77.333 100.036 77.4241 99.8993 77.5139C100.039 77.4804 100.179 77.4555 100.317 77.4196L100.295 77.3393L100.304 77.2394ZM71.2582 67.9647C60.925 62.3876 51.8638 54.7556 43.6791 46.3953C39.7633 42.3964 35.9501 38.2477 32.4164 33.8977C33.5054 39.107 36.0591 43.8768 39.2605 48.1035C42.8205 52.8015 47.1197 56.9002 51.5504 60.7672C56.2728 64.8878 61.2919 68.7125 66.7705 71.7787C72.1942 74.8146 78.0382 77.0637 84.1924 78.0497C88.3404 78.7142 92.5601 78.7573 96.6917 78.1347C97.6867 77.7069 98.648 77.2057 99.5659 76.6294C89.6626 76.0554 79.9133 72.6349 71.2582 67.9647ZM87.9221 70.8492C83.1165 68.0629 78.7076 64.6562 74.4127 61.1478C69.9818 57.5288 65.6756 53.7549 61.1481 50.2554C56.7249 46.8371 52.1174 43.6569 47.3464 40.7414C44.7081 39.1274 42.0201 37.5945 39.2897 36.143C37.8957 35.4027 36.4913 34.6802 35.08 33.9758C34.342 33.6088 33.5997 33.2552 32.8642 32.8871C36.2122 36.5992 39.4752 40.3898 42.9347 44.0038C46.9326 48.1783 51.1159 52.1818 55.5658 55.8749C64.4362 63.2366 74.4698 69.3648 85.5257 72.8123C89.6813 74.1087 93.9366 74.9938 98.2455 75.4876C94.6225 74.4106 91.1608 72.728 87.9221 70.8492ZM95.8368 72.941C93.38 71.7057 91.0429 70.2297 88.8047 68.6344C84.0836 65.2688 79.8563 61.2977 75.6345 57.3414C71.3844 53.3583 67.0722 49.4314 62.3007 46.0736C57.7681 42.8842 52.9269 40.1344 47.8747 37.8563C45.0816 36.5965 42.2228 35.4782 39.3179 34.5059C37.9287 34.0418 36.5208 33.6466 35.1114 33.2587C36.2774 33.8323 37.4262 34.4406 38.5621 35.0337C41.0242 36.3192 43.4506 37.6718 45.839 39.0887C50.5859 41.9043 55.182 44.9729 59.5999 48.2798C68.6137 55.0254 76.625 63.0806 86.3582 68.8387C88.9377 70.3648 91.6171 71.6273 94.4062 72.7135C95.512 73.1453 96.6302 73.5105 97.7557 73.8455C97.1085 73.5591 96.4693 73.2585 95.8368 72.941ZM96.5631 79.3219L96.4635 79.3374C96.3429 79.3887 96.2223 79.4401 96.1017 79.489C96.2566 79.4378 96.4082 79.3755 96.5631 79.3219ZM90.4565 81.8819C84.7589 82.7285 78.872 82.4495 73.2417 81.2622C66.7268 79.889 60.4317 77.5803 54.2507 75.1406C47.9638 72.6575 41.7527 69.9636 35.3293 67.8379C28.7852 65.6718 22.0941 64.2121 15.1908 63.9838C14.5853 63.9643 13.9802 63.9704 13.3739 63.9729C19.372 65.9483 25.3111 68.1132 31.2748 70.185C37.7495 72.4338 44.2242 74.6813 50.7073 76.9048C57.1048 79.0991 63.4789 81.51 70.0533 83.1336C75.857 84.5661 81.9111 85.2439 87.8303 84.1168C91.3737 83.4423 94.7753 82.1037 97.6989 80.0702C95.3599 80.9104 92.9291 81.5137 90.4565 81.8819ZM68.8813 76.9547C62.6359 74.202 56.7728 70.667 50.5527 67.8628C44.3987 65.0882 37.8864 63.2863 31.1636 62.6121C24.9861 61.9928 18.687 62.3265 12.6065 63.606C19.2601 63.1779 25.9149 64.4468 32.2725 66.3255C38.7063 68.2269 44.9062 70.8043 51.1187 73.3137C57.319 75.819 63.5413 78.2066 70.0616 79.7486C75.6426 81.0683 81.4128 81.7249 87.1413 81.2644C80.8173 81.4285 74.6103 79.4812 68.8813 76.9547ZM12.4657 63.6711L12.588 63.6089L12.3933 63.6474L12.4657 63.6711ZM11.6596 63.9612C16.9403 67.0878 22.2846 70.1218 27.7844 72.8468C33.9061 75.8791 40.163 78.6188 46.5472 81.0508C49.7681 82.279 53.0177 83.4326 56.2895 84.5211C59.5819 85.6154 62.8943 86.6689 66.2687 87.4854C72.8712 89.0821 79.876 89.7335 86.3689 87.3198C88.9883 86.3454 91.3839 84.9784 93.6554 83.4146C92.5921 83.8384 91.5057 84.2002 90.4052 84.4882C84.7144 85.9813 78.8359 85.7076 73.109 84.5506C66.4936 83.2137 60.1437 80.8099 53.7901 78.588C47.192 76.2792 40.5884 73.9825 33.9806 71.7003C27.339 69.4057 20.684 67.1435 14.0535 64.8188C13.2533 64.5385 12.4544 64.2547 11.6596 63.9612ZM11.4948 63.8348L11.4579 63.8431L11.5224 63.8799L11.4948 63.8348ZM100.028 101.64C100.046 103.891 100.224 106.14 100.542 108.369L100.63 108.225C101.504 107.26 102.558 106.476 103.585 105.682C104.626 104.879 105.689 104.103 106.771 103.355C108.888 101.892 111.086 100.546 113.343 99.3111C117.851 96.8454 122.597 94.8255 127.501 93.2945C132.454 91.7509 137.565 90.6889 142.727 90.1603C147.756 89.646 152.918 89.5561 157.939 90.2142C160.703 90.5761 163.463 91.198 166.04 92.2781C166.863 92.624 167.683 93.0126 168.477 93.4515C163.376 87.7714 157.34 83.015 150.555 79.4233C142.294 75.0488 133.142 72.3635 123.816 71.6588C118.74 71.2757 113.59 71.4737 108.555 72.2358C107.737 73.51 106.977 74.8232 106.277 76.1658C106.407 76.3897 106.244 76.6494 106.014 76.6781C105.135 78.4104 104.34 80.1828 103.647 81.9837C101.244 88.2299 99.9744 94.9445 100.028 101.64ZM101.095 111.571C101.413 113.073 101.787 114.713 102.409 116.215C110.771 111.299 119.202 106.388 128.33 103.016C137.731 99.5443 147.688 97.9618 157.647 97.1905C160.484 96.9702 163.324 96.822 166.166 96.685C167.587 96.6152 169.007 96.5527 170.428 96.5099C170.574 96.506 170.72 96.4997 170.867 96.4946L170.942 96.3632C170.693 96.0502 170.445 95.7372 170.191 95.4301C168.978 94.5736 167.702 93.8258 166.303 93.2318C164.037 92.2694 161.606 91.6705 159.178 91.2855C154.236 90.5035 149.144 90.5217 144.169 90.9503C134.11 91.8165 124.233 94.729 115.304 99.4353C112.825 100.743 110.42 102.188 108.102 103.761C106.918 104.562 105.756 105.396 104.62 106.264C103.488 107.13 102.423 108.102 101.234 108.887C100.994 109.045 100.718 108.929 100.59 108.729C100.733 109.681 100.896 110.629 101.095 111.571ZM104.713 119.602C107.259 121.784 110.906 121.162 113.665 119.757C115.186 118.983 116.573 117.963 117.946 116.958C119.354 115.929 120.774 114.92 122.222 113.948C128.057 110.033 134.256 106.642 140.709 103.857C147.068 101.113 153.944 98.5696 160.989 99.1591L161.219 99.1891C162.642 99.1048 164.07 99.0817 165.492 99.1452C167.057 99.0898 168.661 98.9712 170.195 98.6629C171.412 98.2623 172.577 97.74 173.693 97.1229L173.742 97.0894C173.54 97.1045 173.337 97.1085 173.133 97.1186L172.937 97.1681C172.927 97.638 172.252 97.9798 171.876 97.5163C171.65 97.5548 171.429 97.4592 171.342 97.1894C171.154 97.194 170.964 97.1985 170.776 97.2056C169.517 97.2501 168.257 97.2885 166.997 97.333C164.542 97.4209 162.087 97.5492 159.635 97.7191C154.685 98.0631 149.742 98.5834 144.849 99.4269C139.944 100.271 135.094 101.449 130.393 103.092C125.759 104.711 121.296 106.762 116.933 109.005C112.107 111.486 107.423 114.23 102.746 116.978C103.239 117.976 103.871 118.882 104.713 119.602ZM110.465 135.574C110.435 136.87 110.499 138.161 110.629 139.447C111.44 138.249 112.387 137.153 113.474 136.175C114.989 134.812 116.83 133.543 118.766 132.811C117.926 128.374 117.513 123.791 119.502 119.665C119.957 118.723 120.51 117.849 121.132 117.026C114.282 120.399 110.639 128.188 110.465 135.574ZM118.494 160.149C122.698 166.884 128.083 172.86 134.335 177.756C137.276 180.059 140.41 182.106 143.693 183.886L143.703 183.87C144.524 183.161 145.438 182.557 146.289 181.884C147.119 181.228 147.932 180.547 148.721 179.844C150.344 178.4 151.878 176.855 153.316 175.227C156.158 172.011 158.627 168.481 160.553 164.643C161.308 163.139 161.988 161.598 162.614 160.033L162.591 159.991C162.153 160.643 161.717 161.297 161.267 161.941C159.686 164.21 158.099 166.512 156.254 168.577C154.547 170.487 152.541 172.229 150.122 173.158C144.599 175.279 138.775 172.213 134.632 168.643C125.601 160.865 122.14 148.983 119.794 137.742C119.517 136.411 119.209 135.043 118.931 133.657C118.141 133.998 117.365 134.342 116.618 134.788C115.694 135.342 114.818 135.976 114.003 136.683C112.76 137.761 111.662 139.029 110.732 140.398C111.653 147.433 114.785 154.206 118.494 160.149ZM144.203 184.172C147.564 185.957 152.237 188.245 155.728 185.512C157.321 184.264 158.319 182.332 159.216 180.565C160.232 178.566 161.079 176.48 161.746 174.34C162.815 170.909 163.441 167.348 163.587 163.761C163.468 163.307 163.338 162.857 163.231 162.399C163.166 162.12 163.109 161.841 163.05 161.561C161.694 164.47 160.075 167.248 158.274 169.915C155.843 173.515 152.985 176.827 149.77 179.752C148.884 180.558 147.974 181.335 147.036 182.08C146.123 182.807 145.188 183.57 144.172 184.155L144.203 184.172ZM162.346 199.139C159.798 206.371 156.752 213.444 154.738 220.854C152.813 227.935 152.052 235.256 152.654 242.577C152.947 246.147 153.545 249.693 154.451 253.159C155.094 255.619 155.92 258.008 156.833 260.369L156.885 260.205C155.542 250.216 157.102 239.985 159.42 230.213C162.257 218.252 166.225 206.528 167.515 194.246C168.146 188.252 168.12 182.081 167.002 176.133C167.005 176.968 166.985 177.803 166.941 178.635C166.578 185.693 164.684 192.507 162.346 199.139ZM162.327 245.002C165.174 238.232 169.163 232.039 172.351 225.439C173.91 222.208 175.289 218.876 176.186 215.396C177.095 211.868 177.457 208.251 177.213 204.614C176.711 197.149 174.007 190.042 171.086 183.229C170.56 182.002 170.024 180.776 169.488 179.55C170.285 182.565 170.985 185.608 171.532 188.681C172.638 194.919 172.975 201.249 172.337 207.559C171.696 213.911 170.082 220.1 167.68 226.011C165.306 231.854 162.373 237.457 160.295 243.422C158.334 249.052 157.378 255.083 158.456 260.943C158.462 260.341 158.5 259.743 158.626 259.16L158.767 258.989C159.025 254.183 160.468 249.422 162.327 245.002ZM158.519 263.272L158.511 263.062C158.506 262.894 158.498 262.722 158.49 262.552C158.366 262.149 158.255 261.742 158.156 261.334C158.265 261.981 158.383 262.627 158.519 263.272ZM168.414 191.482C168.017 197.649 166.861 203.742 165.451 209.75C162.655 221.678 158.84 233.463 157.713 245.719C157.417 248.938 157.331 252.184 157.507 255.413C157.532 252.329 158.049 249.226 158.81 246.269C160.361 240.231 163.153 234.618 165.637 228.928C166.928 225.97 168.134 222.974 169.074 219.885C170.005 216.822 170.706 213.689 171.175 210.523C172.108 204.203 172.069 197.786 171.141 191.469C170.292 185.685 168.719 180.051 166.994 174.472C168.413 180.047 168.782 185.737 168.414 191.482ZM165.36 160.417C165.799 161.46 166.295 162.479 166.851 163.466C167.973 165.458 169.307 167.327 170.809 169.049C171.598 169.954 172.44 170.815 173.322 171.634C178.023 163.065 181.551 153.86 183.742 144.335C185.966 134.668 186.763 124.71 186.128 114.812C185.996 112.74 185.777 110.674 185.517 108.614L185.503 108.625C185.254 108.968 184.988 109.298 184.685 109.599C184.406 109.876 183.863 109.851 183.67 109.52C183.51 110.067 183.342 110.606 183.17 111.137C183.019 112.057 182.861 112.975 182.687 113.887C181.597 119.606 179.99 125.236 177.968 130.694C174.465 140.138 169.734 149.086 164.238 157.52C164.549 158.499 164.965 159.476 165.36 160.417ZM181.619 177.407C186.355 179.806 191.569 181.151 196.847 181.607C199.572 181.843 202.319 181.827 205.044 181.601C207.631 181.386 210.299 181.06 212.799 180.334C213.367 180.168 213.931 179.968 214.467 179.711C214.332 179.661 214.222 179.552 214.21 179.365C213.37 166.608 212.343 153.744 209.389 141.274C206.832 130.476 202.67 119.95 196.145 110.909C195.44 109.933 194.702 108.981 193.943 108.045C193.388 107.843 192.826 107.668 192.255 107.535C191.349 107.621 190.443 107.71 189.536 107.802C190.256 109.343 190.95 110.896 191.573 112.477C193.599 117.617 195.14 122.945 196.217 128.361C198.389 139.29 198.687 150.581 196.963 161.594C196.478 164.696 195.833 167.772 195.027 170.806C194.624 172.322 194.184 173.829 193.703 175.323C193.231 176.796 192.759 178.279 192.117 179.688C191.952 180.048 191.312 179.862 191.438 179.465C192.274 176.816 193.281 174.233 194.034 171.555C194.786 168.884 195.412 166.178 195.913 163.449C196.91 158.019 197.412 152.499 197.424 146.977C197.446 135.941 195.508 124.94 191.689 114.585C190.848 112.306 189.902 110.068 188.881 107.866C188.053 107.948 187.225 108.028 186.397 108.106L186.131 108.238C186.34 109.811 186.527 111.386 186.659 112.967C187.074 117.95 187.122 122.961 186.824 127.952C186.229 137.91 184.33 147.819 181.01 157.233C179.166 162.465 176.87 167.546 174.169 172.39C176.434 174.362 178.947 176.054 181.619 177.407ZM215.785 178.88C215.967 178.728 216.116 178.553 216.263 178.378C216.451 177.482 216.661 176.588 216.832 175.689C217.131 174.109 217.38 172.519 217.576 170.922C217.977 167.68 218.163 164.414 218.137 161.147C218.084 154.614 217.255 148.126 215.53 141.82C213.925 135.947 211.596 130.277 208.598 124.978C205.749 119.939 202.318 115.213 198.406 110.946C197.902 110.395 197.369 109.871 196.849 109.335C196.371 109.091 195.886 108.851 195.389 108.628L195.596 108.888C198.866 113.151 201.592 117.816 203.845 122.688C208.919 133.663 211.47 145.605 212.989 157.544C213.91 164.772 214.447 172.037 215.064 179.295L215.051 179.398C215.308 179.244 215.555 179.075 215.785 178.88ZM231.447 73.989C230.065 72.9804 228.55 72.1594 226.977 71.4912C223.437 69.9887 219.599 69.3673 215.786 69.062C213.454 68.8752 211.094 68.9119 208.774 68.6314C208.539 68.6024 208.565 68.2357 208.795 68.2194C210.885 68.0727 213.021 68.2053 215.11 68.336C217.247 68.471 219.381 68.6939 221.485 69.0964C225.032 69.7769 228.522 70.9805 231.553 72.9719L231.866 73.1922C230.643 71.5779 229.25 70.0973 227.712 68.7794C224.388 65.9319 220.412 63.8389 216.169 62.7527C213.787 62.1436 211.33 61.8515 208.873 61.8331L208.714 61.768C208.647 62.0231 208.568 62.274 208.511 62.5319C208.05 64.6439 207.983 66.8207 208.226 68.9661C208.749 73.5453 210.715 77.7417 213.473 81.3959L213.667 81.6395C216.274 83.2375 218.992 84.5603 221.999 85.2411C225.197 85.9662 228.531 86.0554 231.759 85.4709C233.363 85.1801 234.925 84.6982 236.43 84.0759C236.477 83.8078 236.521 83.5372 236.562 83.2639C236.037 81.7706 235.477 80.2905 234.917 78.8117C234.626 78.0437 234.325 77.2814 234.024 76.518L233.862 76.2109L233.677 75.9054C233.571 75.7899 233.464 75.6756 233.352 75.5697C232.752 75.0019 232.115 74.4753 231.447 73.989ZM225.258 28.0382C224.266 30.0763 223.345 32.149 222.499 34.2517C220.79 38.4892 219.387 42.8491 218.29 47.2848C217.756 49.444 217.333 51.6248 216.888 53.8023C218.866 54.2204 220.702 55.2608 222.312 56.468C226.343 59.4942 229.299 63.678 231.608 68.1069C232.106 69.0628 232.577 70.0335 233.03 71.0133C236.271 67.6878 239.118 64.0104 241.447 59.9872C243.846 55.8434 245.672 51.4212 247.008 46.8265C247.727 44.351 248.232 41.8168 248.614 39.2679C247.762 38.2122 246.885 37.1787 245.956 36.1919C240.813 30.7386 234.642 26.3519 228.072 22.7749C227.104 24.516 226.133 26.2446 225.258 28.0382ZM211.013 56.5133C210.512 57.4766 209.951 58.4008 209.513 59.3971C209.229 60.0442 209.009 60.7133 208.814 61.3896L208.835 61.3795C217.775 60.82 226.792 65.5011 232.316 72.3906C232.249 72.2377 232.188 72.0825 232.119 71.9295C230.155 67.5511 227.742 63.2548 224.338 59.8226C222.59 58.0601 220.585 56.4118 218.273 55.4561C217.723 55.2287 217.164 55.0668 216.603 54.9575C216.504 55.0561 216.343 55.0276 216.277 54.9016C214.484 54.6289 212.683 54.9705 211.07 56.0061C210.936 56.0924 210.811 56.19 210.681 56.2825C210.843 56.1473 211.127 56.2956 211.013 56.5133ZM227.506 94.4841C229.747 93.6264 231.748 92.3999 233.363 90.5592C234.254 89.5444 234.99 88.4038 235.54 87.1712C235.855 86.4631 236.07 85.7486 236.238 85.0199C230.325 87.3287 223.498 87.1011 217.685 84.5869C216.686 84.1557 215.73 83.653 214.823 83.0727C217.407 86.1285 220.42 88.8009 223.522 91.3206C224.804 92.3618 226.189 93.3852 227.506 94.4841ZM186.23 98.1684L186.253 98.1876C186.376 98.2573 186.494 98.3329 186.617 98.4014C188.092 99.2208 189.603 99.9732 191.143 100.66C194.246 102.042 197.473 103.138 200.768 103.96C207.372 105.608 214.236 106.137 221.015 105.522C224.708 105.186 228.412 104.498 232.003 103.561C231.951 102.717 231.759 101.883 231.424 101.101C230.931 99.9525 230.213 98.9316 229.391 97.998C223.302 100.059 216.798 101.07 210.388 101.302C203.825 101.542 197.22 100.892 190.823 99.4067C189.279 99.0475 187.748 98.6279 186.23 98.1684ZM182.876 102.702L182.968 103.001L183.023 103.178C183.035 103.028 183.051 102.878 183.062 102.728L182.876 102.702ZM206.325 61.7914C205.1 64.2538 204.171 66.8503 202.972 69.3272C200.601 74.2223 197.702 78.8468 194.295 83.088C193.57 83.9909 192.801 84.8578 192.024 85.7171L191.953 85.8328C191.572 86.4637 191.155 87.0797 190.707 87.6627C189.774 88.8786 188.737 90.0047 187.599 91.0302C185.726 92.7152 183.602 94.1053 181.329 95.1914C181.939 95.4237 182.537 95.6811 183.107 96.0034L183.194 96.0582L183.384 96.1282C183.591 96.0364 183.835 96.0401 184.057 96.2396L184.311 96.4661C184.554 96.5529 184.793 96.6481 185.037 96.7312C186.586 97.2543 188.156 97.7207 189.737 98.1351C192.867 98.9552 196.05 99.5637 199.261 99.9583C205.702 100.752 212.258 100.694 218.685 99.7935C222.184 99.3029 225.623 98.5192 229.03 97.5998C228.511 97.0475 227.959 96.5255 227.395 96.03C227.097 95.7687 226.792 95.5158 226.488 95.2616L226.477 95.2526C225.046 94.0612 223.56 92.9359 222.124 91.7516C215.206 86.0447 208.586 78.9496 207.367 69.6889C207.055 67.3148 207.106 64.8685 207.625 62.5255C208.11 60.3374 209.027 57.8944 210.657 56.2998C208.726 57.6831 207.374 59.6798 206.325 61.7914ZM179.598 94.6378C180.712 94.1891 181.804 93.6822 182.842 93.0777C185.389 91.5935 187.702 89.6966 189.642 87.4756C190.171 86.869 190.68 86.2432 191.161 85.598C191.64 84.9539 192.039 84.2065 192.685 83.7218L192.821 83.8018C195.802 79.9466 198.465 75.8257 200.699 71.5006C202.001 68.979 203.104 66.3785 204.201 63.7643C205.216 61.3472 206.366 58.9062 208.171 56.9693C207.22 55.405 206.213 53.9057 205.085 52.4968C202.822 60.4028 200.503 68.3676 196.748 75.7149C193.392 82.2806 188.8 88.3176 182.751 92.6233C181.729 93.3493 180.66 94.0221 179.554 94.6274L179.598 94.6378ZM121.555 139.317C122.798 144.984 124.352 150.667 126.852 155.857C135.649 151.025 143.821 145.152 150.866 137.982C157.867 130.857 163.809 122.593 168.382 113.716C170.226 110.135 171.844 106.439 173.219 102.655C169.887 108.131 165.576 113.014 160.761 117.232C153.567 123.536 145.228 128.316 136.675 132.523C134.16 133.761 131.619 134.946 129.067 136.104C127.818 136.669 126.57 137.232 125.314 137.782C124.076 138.325 122.843 138.902 121.555 139.317ZM121.968 116.014L121.757 116.171L121.777 116.219L121.968 116.014ZM119.524 124.741C119.232 127.786 119.831 130.864 120.421 133.837C120.755 135.524 121.102 137.228 121.472 138.935C123.478 137.773 125.69 136.916 127.793 135.955C130.054 134.921 132.308 133.868 134.543 132.78C138.975 130.622 143.333 128.318 147.524 125.718C155.133 120.999 162.254 115.334 167.89 108.334C170.257 105.392 172.298 102.203 173.977 98.8264C173.32 99.1248 172.635 99.3611 171.935 99.5235L171.781 99.5551C171.182 99.7912 170.572 99.9987 169.953 100.18C169.93 100.524 169.667 100.863 169.226 100.794C168.838 100.733 168.451 100.698 168.064 100.648C167.146 100.833 166.218 100.969 165.286 101.033C164.553 101.083 163.816 101.096 163.083 101.068C162.741 101.055 162.39 101.043 162.054 100.967C161.692 100.886 161.363 100.657 161.012 100.527L160.873 100.402C160.316 100.435 159.76 100.463 159.203 100.521C155.846 100.872 152.54 101.605 149.318 102.608C142.794 104.638 136.668 107.732 130.687 110.994C130.304 111.203 129.922 111.416 129.539 111.626C128.871 112.083 128.205 112.541 127.538 112.997C125.578 114.338 123.734 115.875 122.28 117.762C120.708 119.799 119.769 122.179 119.524 124.741ZM159.329 71.9436C153.274 64.82 144.896 59.7945 135.555 58.5725C130.626 57.9278 125.687 58.5264 120.992 60.0939C118.318 61.5401 115.876 63.4269 113.725 65.6467C111.931 67.501 110.332 69.5378 108.907 71.6965C117.96 69.992 127.329 70.5201 136.235 72.8327C145.461 75.229 154.161 79.5418 161.64 85.4498C164.831 87.9705 167.817 90.797 170.472 93.8911C168.259 85.9243 164.706 78.2688 159.329 71.9436ZM170.692 88.3828C170.866 88.8882 171.027 89.4005 171.169 89.9181C171.464 90.9905 171.7 92.0848 171.857 93.1858C171.92 93.6221 171.961 94.0623 172.001 94.5013C172.442 93.7091 172.861 92.9062 173.191 92.0448C173.799 90.4664 174.192 88.8122 174.425 87.1381C174.908 83.6745 174.648 80.1516 173.924 76.7408C172.325 69.2081 168.597 62.3604 165.963 55.1769C164.549 51.3216 163.44 47.3321 163.1 43.2293C162.927 43.2896 162.751 43.3374 162.578 43.3977C159.736 44.4119 156.665 45.9007 155.099 48.6218C153.347 51.6665 154.034 55.3764 155.544 58.3694C157.187 61.6194 159.856 64.2314 162.116 67.0421C166.022 71.8995 168.633 77.7406 169.535 83.8989C170.002 85.2017 170.422 86.521 170.793 87.8554C170.85 88.0654 170.797 88.244 170.692 88.3828ZM174.746 94.8929C179.594 91.5932 182.988 86.5342 185.251 81.1314C188.356 73.7163 189.295 65.6873 191.157 57.9239C192.234 53.4336 193.634 48.9698 195.869 44.9099C195.448 44.6779 195.023 44.4543 194.591 44.2413C189.707 41.8356 184.328 40.7109 178.917 40.6308C176.341 48.4313 177.848 56.9683 179.059 64.8775C180.235 72.5666 181.268 80.5432 178.63 88.0566C177.749 90.5634 176.469 92.9075 174.746 94.8929ZM179.427 78.039C179.504 69.5965 177.068 61.4045 176.566 53.0108C176.315 48.8249 176.614 44.6515 177.789 40.6305C176.381 40.6471 174.975 40.7309 173.577 40.8822C170.38 41.2285 167.21 41.9156 164.142 42.8926C164.669 50.6424 167.987 57.7813 170.846 64.8896C173.581 71.6887 176.014 78.9057 175.232 86.3387C175.036 88.1939 174.632 90.026 173.999 91.7817C173.535 93.0714 172.945 94.4221 172.145 95.5846C172.191 95.7612 172.235 95.9377 172.278 96.1153L172.408 96.2818L172.67 96.147C177.472 91.4807 179.367 84.5959 179.427 78.039ZM140.342 169.845C147.918 161.981 154.586 153.271 160.017 143.79C165.441 134.322 169.615 124.122 172.44 113.584C173.231 110.633 173.912 107.654 174.495 104.656C174.76 103.288 174.989 101.913 175.211 100.538C172.154 109.391 167.863 117.787 162.453 125.441C156.621 133.693 149.406 141.079 141.386 147.221C136.893 150.663 132.113 153.742 127.03 156.237C128.611 159.443 130.563 162.454 133.041 165.144C134.853 167.107 136.931 168.886 139.24 170.24C141.655 171.657 144.45 172.685 147.29 172.392C148.098 172.309 148.857 172.112 149.583 171.841C156.713 163.771 162.663 154.668 167.256 144.931C171.867 135.159 175.083 124.761 176.75 114.084C177.214 111.109 177.555 108.116 177.782 105.114C177.945 102.965 177.989 100.815 178.059 98.6647C177.5 98.3918 176.908 98.2201 176.297 98.1734C175.786 102.853 174.795 107.513 173.649 112.056C172.314 117.343 170.641 122.543 168.65 127.618C164.664 137.777 159.413 147.511 153.02 156.359C149.41 161.354 145.446 166.114 141.101 170.487C140.654 170.939 139.896 170.308 140.342 169.845ZM178.527 104.026C178.367 106.744 178.101 109.454 177.738 112.152C177.014 117.549 175.882 122.88 174.413 128.124C171.482 138.578 167.096 148.654 161.329 157.857C158.552 162.289 155.456 166.507 152.085 170.502C154.726 168.642 156.792 165.756 158.603 163.241C165.272 153.982 171.084 144.053 175.454 133.499C178.387 126.417 180.613 119.056 181.938 111.527C181.875 111.416 181.835 111.291 181.851 111.153C182.189 108.076 182.608 104.588 181.136 101.721C180.602 100.682 179.742 99.7112 178.718 99.0395C178.707 100.704 178.623 102.373 178.527 104.026ZM216.389 17.6541C212.422 27.1712 210.131 37.3264 209.442 47.6098C209.346 49.0573 209.284 50.5073 209.256 51.9588C209.23 53.2967 209.285 54.6478 209.2 55.9833C210.793 54.6206 212.745 53.6499 214.876 53.6051C215.386 53.5951 215.888 53.6458 216.383 53.7232C216.957 49.534 218.057 45.3708 219.308 41.3493C220.663 36.9949 222.32 32.7357 224.271 28.6129C225.256 26.5305 226.285 24.434 227.44 22.433C227.158 22.2824 226.879 22.1233 226.596 21.9751C223.29 20.2523 219.88 18.727 216.412 17.3594L216.389 17.6541ZM232.772 106.84C232.694 107.069 232.599 107.299 232.492 107.528C234.341 105.925 235.92 104.017 237.037 101.855C238.104 99.7921 238.724 97.5485 238.855 95.2264C239.02 92.3181 238.464 89.4075 237.656 86.6249C237.483 86.0291 237.295 85.4376 237.103 84.847C236.655 87.1392 235.453 89.3509 233.96 91.0646C232.431 92.8184 230.371 94.3199 228.102 94.9907C230.043 96.6779 231.772 98.568 232.708 100.98C233.431 102.841 233.424 104.961 232.772 106.84ZM228.527 109.671C229.24 109.315 229.958 108.922 230.498 108.324C231.043 107.721 231.437 106.985 231.682 106.211C231.905 105.505 232.01 104.772 232.013 104.037C225.625 106.13 218.851 106.843 212.144 106.49C205.245 106.125 198.43 104.586 192.04 101.959C191.097 101.572 190.164 101.158 189.24 100.723C190.113 101.443 190.995 102.154 191.894 102.843C194.557 104.315 197.172 105.874 199.704 107.54C200.629 108.149 201.54 108.782 202.438 109.43C205.509 110.877 208.743 111.966 212.175 112.542C217.308 113.403 222.725 113.024 227.479 110.798C227.746 110.672 228.006 110.527 228.27 110.39C228.162 110.151 228.241 109.813 228.527 109.671ZM219.105 162.661C219.601 158.669 220.07 154.672 220.312 150.657C220.633 145.336 220.54 139.914 219.376 134.691C218.267 129.718 216.118 125.1 213.082 121.012C212.179 119.797 211.213 118.647 210.201 117.545C209.563 116.92 208.933 116.288 208.301 115.658C208.014 115.407 207.73 115.153 207.44 114.903L207.261 114.757C207.096 114.742 206.929 114.742 206.769 114.693C206.55 114.627 206.344 114.484 206.146 114.372C205.726 114.139 205.306 113.905 204.887 113.673C204.048 113.208 203.207 112.745 202.364 112.286C201.288 111.699 200.205 111.124 199.125 110.545C202.582 114.305 205.663 118.403 208.297 122.781C211.432 127.99 213.941 133.571 215.721 139.384C217.652 145.685 218.768 152.258 219.051 158.841C219.106 160.112 219.117 161.387 219.105 162.661ZM227.756 144.085C229.509 152.103 229.454 160.446 228.206 168.541C226.94 176.754 224.504 184.782 221.143 192.378C217.947 199.6 213.89 206.449 209.093 212.724C204.6 218.6 199.471 223.957 193.732 228.62C199.29 226.013 204.524 222.829 209.268 218.873C215.036 214.062 220.009 208.29 223.916 201.874C227.908 195.32 230.778 188.098 232.301 180.575C233.911 172.628 234.059 164.408 232.811 156.399C232.196 152.445 231.24 148.537 229.955 144.742C229.606 144.068 229.27 143.389 228.935 142.708C228.253 141.418 227.558 140.136 226.85 138.861C227.269 140.581 227.565 142.327 227.756 144.085ZM224.374 168.096C221.867 175.043 218.364 181.571 214.693 187.96C210.789 194.755 206.75 201.472 202.787 208.232C198.765 215.093 194.804 221.991 190.663 228.779L190.609 228.865L190.963 228.662C191.143 228.558 191.445 228.59 191.507 228.833L191.52 228.919C191.636 228.816 191.746 228.707 191.865 228.608C192.619 227.978 193.363 227.34 194.089 226.678C195.509 225.384 196.931 224.096 198.3 222.748C201.062 220.027 203.686 217.175 206.129 214.163C210.992 208.168 215.163 201.613 218.526 194.665C221.986 187.517 224.593 179.949 226.221 172.175C227.539 165.883 228.185 159.403 227.833 152.978C227.383 158.141 226.138 163.212 224.374 168.096ZM196.457 228.478C198.563 227.745 200.645 226.948 202.709 226.107C206.793 224.443 210.784 222.551 214.652 220.434C218.563 218.293 222.357 215.943 226.002 213.377C229.409 210.976 232.72 208.361 235.383 205.133C238.203 201.714 239.955 197.697 240.78 193.354C241.602 189.024 241.592 184.565 241.222 180.186C240.482 171.467 238.035 162.993 234.71 154.926C234.027 153.274 233.3 151.643 232.55 150.022C232.804 151.057 233.037 152.098 233.244 153.142C234.841 161.223 235.017 169.601 233.721 177.737C232.48 185.53 229.849 193.06 225.951 199.92C222.218 206.492 217.403 212.412 211.798 217.479C206.186 222.554 199.749 226.727 192.775 229.672C192.51 229.783 192.24 229.883 191.971 229.985L191.918 230.022C193.436 229.523 194.95 229.002 196.457 228.478ZM243.95 187.53C244.677 196.615 245.157 205.741 246.631 214.747C248.121 223.858 251.149 232.557 253.388 241.488C255.372 249.396 256.675 257.809 255.179 265.912L255.279 265.948C255.355 265.819 255.43 265.691 255.505 265.564C255.551 265.432 255.601 265.304 255.646 265.172C256.301 263.228 256.878 261.256 257.388 259.268C258.402 255.325 259.14 251.312 259.629 247.27C260.619 239.082 260.585 230.777 259.751 222.576C258.913 214.324 257.25 206.182 254.981 198.21C252.686 190.149 249.801 182.263 246.564 174.535C245.028 170.864 243.387 167.244 241.706 163.639C241.374 163.27 241.048 162.895 240.711 162.531C240.534 162.341 240.357 162.152 240.181 161.96C240.226 162.134 240.276 162.308 240.319 162.482C242.365 170.692 243.278 179.112 243.95 187.53ZM261.179 244.57C260.704 249.807 259.823 255.045 258.477 260.153C259.876 256.718 261.072 253.201 262.048 249.623C264.193 241.751 265.392 233.584 265.431 225.421C265.469 217.562 264.429 209.695 262.422 202.099C260.48 194.757 257.647 187.653 253.987 180.997C253.381 179.893 252.745 178.806 252.094 177.726C249.35 174.157 246.775 170.46 244.323 166.68C244.108 166.418 243.886 166.162 243.668 165.901C244.521 167.749 245.368 169.598 246.186 171.459C249.593 179.2 252.667 187.094 255.155 195.18C257.624 203.202 259.539 211.416 260.61 219.746C261.666 227.971 261.925 236.306 261.179 244.57ZM240.528 158.379C242.71 161.378 244.73 164.5 246.789 167.584C247.159 168.139 247.527 168.695 247.897 169.25C249.024 170.495 250.168 171.724 251.347 172.918C257.564 179.215 264.509 184.795 272.018 189.48C279.888 194.392 288.356 198.348 297.167 201.256C304.882 203.803 312.876 205.538 320.955 206.434C320.186 206.158 319.416 205.883 318.652 205.599C314.33 203.997 310.065 202.241 305.866 200.338C297.467 196.533 289.341 192.136 281.552 187.2C273.79 182.28 266.358 176.845 259.33 170.924C252.308 165.006 245.696 158.609 239.548 151.788C237.42 149.428 235.352 147.005 233.341 144.537C234.894 147.182 236.201 149.988 237.312 152.871L237.483 153.207C237.942 153.996 238.394 154.79 238.857 155.576C239.41 156.513 239.966 157.447 240.528 158.379ZM239.965 161.141C240.332 161.508 240.703 161.869 241.062 162.244L241.037 162.189C240.625 161.649 240.214 161.109 239.811 160.561C239.865 160.755 239.912 160.949 239.965 161.141ZM264.604 248.789C267.985 241.426 270.516 233.624 271.261 225.526C271.633 221.494 271.518 217.402 270.845 213.406C270.191 209.529 268.93 205.79 267.29 202.222C264.216 195.535 259.981 189.422 255.909 183.3C258.518 188.38 260.671 193.695 262.319 199.163C264.586 206.683 265.878 214.493 266.14 222.342C266.418 230.577 265.7 238.868 263.831 246.896C263.21 249.566 262.462 252.206 261.61 254.812C262.66 252.834 263.666 250.83 264.604 248.789ZM53.6001 128.303C51.6848 128.276 49.77 128.299 47.8567 128.375C46.3915 128.432 44.8861 128.453 43.4602 128.839C42.3457 129.14 41.1493 129.682 40.5924 130.731C40.7562 130.791 40.9242 130.838 41.0893 130.895L41.1816 130.819C43.0719 130.283 45.0323 129.98 46.9735 129.695C48.8964 129.414 50.829 129.193 52.7663 129.036C54.7025 128.877 56.646 128.779 58.5874 128.734C59.5147 128.712 60.4426 128.708 61.3699 128.714C58.7858 128.482 56.1945 128.341 53.6001 128.303ZM54.4324 132.179C57.3729 131.755 60.2212 130.832 62.8717 129.507C62.4689 129.494 62.0661 129.482 61.6645 129.47C60.7257 129.446 59.7862 129.436 58.8474 129.441C56.8683 129.45 54.8936 129.534 52.921 129.685C50.9828 129.832 49.0495 130.042 47.1246 130.313C45.3694 130.56 43.6278 130.894 41.8756 131.156C45.9198 132.426 50.2318 132.786 54.4324 132.179ZM50.0021 154.468C49.6003 156.399 49.3453 158.358 49.2328 160.328C49.1733 161.378 49.1265 162.447 49.199 163.498C49.269 164.518 49.5095 165.587 50.292 166.307C50.4334 166.437 50.5893 166.54 50.7483 166.628C50.5338 165.854 50.5628 164.955 50.53 164.162C50.4912 163.246 50.494 162.33 50.5175 161.413C50.5604 159.653 50.6876 157.895 50.9024 156.147C51.1211 154.36 51.4214 152.581 51.8138 150.823C52.0137 149.928 52.2353 149.039 52.4812 148.156C52.6698 147.481 52.8447 146.782 53.1046 146.124C53.0932 145.894 53.0804 145.664 53.069 145.432C51.7088 148.307 50.6556 151.329 50.0021 154.468ZM51.6619 166.883C52.7733 160.695 53.3036 154.427 53.1695 148.151L53.0724 148.467C52.8377 149.286 52.6223 150.11 52.4275 150.939C52.022 152.66 51.6987 154.402 51.4715 156.155C51.2378 157.95 51.0953 159.756 51.0479 161.565C51.0246 162.417 51.0268 163.268 51.0328 164.12C51.0391 164.963 51.179 165.888 51.0416 166.719L51.0206 166.755C51.23 166.835 51.4446 166.878 51.6619 166.883ZM54.1558 164.383C54.8641 162.399 55.2015 160.215 55.3897 158.125C55.7896 153.698 55.1994 149.213 53.7284 145.023C53.7381 145.206 53.7465 145.391 53.7562 145.576C53.8223 145.634 53.8639 145.721 53.8437 145.83L53.7819 146.089C54.0821 153.034 53.5825 160.025 52.1493 166.83C52.384 166.768 52.6132 166.662 52.8264 166.497C53.4925 165.98 53.8789 165.157 54.1558 164.383ZM74.8971 130.676C74.0591 134.815 73.2416 139.113 73.5617 143.356C73.7054 145.275 74.1103 147.176 74.932 148.923C75.354 149.821 75.8802 150.743 76.5824 151.454C77.0051 151.882 77.5577 152.303 78.1571 152.472L78.0985 152.409C76.6404 148.686 75.7546 144.74 75.3086 140.77C75.0858 138.78 74.9773 136.775 74.986 134.772C74.9942 132.873 75.0218 130.887 75.33 129.004L75.2797 128.917C75.1522 129.504 75.0162 130.088 74.8971 130.676ZM79.2914 152.437C79.5024 152.356 79.6829 152.244 79.8411 152.111C79.2076 150.333 78.8379 148.441 78.4195 146.603C78.003 144.78 77.6186 142.949 77.2624 141.113C76.6787 138.104 76.1958 135.079 75.7671 132.044C75.6957 132.995 75.6389 133.948 75.6355 134.911C75.6281 136.85 75.7307 138.79 75.9413 140.719C76.3704 144.654 77.2771 148.504 78.4706 152.273C78.5064 152.387 78.4442 152.472 78.362 152.51C78.6666 152.564 78.9798 152.556 79.2914 152.437ZM80.8336 148.019C80.78 145.864 80.5465 143.714 80.1406 141.598C79.4054 137.77 78.0748 134.066 76.2421 130.629C76.699 134.086 77.2358 137.535 77.8809 140.962C78.2282 142.805 78.6025 144.643 79.0003 146.475C79.3818 148.228 79.8698 149.975 80.1712 151.744C80.8919 150.753 80.8604 149.11 80.8336 148.019ZM331.835 209.663C331.517 209.586 331.195 209.521 330.873 209.454C330.734 209.907 330.188 210.238 329.736 209.826C329.49 209.601 329.256 209.363 329.012 209.136C320.145 211.894 310.643 212.369 301.485 210.877C292.363 209.392 283.756 205.818 276.048 200.759C269.781 196.644 264.162 191.615 259.093 186.1C259.805 187.177 260.519 188.253 261.225 189.333C263.378 192.629 265.464 195.974 267.262 199.48C269.048 202.959 270.534 206.603 271.452 210.412C272.402 214.359 272.78 218.423 272.662 222.481C272.424 230.7 270.309 238.722 267.166 246.289C264.601 252.466 261.394 258.339 258.018 264.107C257.235 265.845 256.393 267.556 255.5 269.242C255.201 269.971 254.889 270.692 254.53 271.399C254.437 271.581 254.3 271.664 254.156 271.684C253.979 271.994 253.81 272.31 253.629 272.619C253.325 273.142 252.33 272.933 252.536 272.261C252.671 271.827 252.807 271.392 252.941 270.958C252.718 270.791 252.604 270.512 252.794 270.186C253.068 269.716 253.344 269.247 253.619 268.776C253.683 268.57 253.747 268.362 253.812 268.155C254.104 266.826 254.368 265.493 254.53 264.139C254.796 261.926 254.886 259.696 254.822 257.47C254.693 253.012 253.983 248.584 252.985 244.245C250.965 235.461 247.881 226.958 246.149 218.105C244.422 209.268 243.787 200.276 243.097 191.314C242.979 189.781 242.857 188.247 242.728 186.713C242.6 192.509 241.462 198.274 238.338 203.157C236.032 206.761 232.874 209.71 229.497 212.299C225.963 215.01 222.2 217.442 218.35 219.676C214.453 221.938 210.419 223.968 206.286 225.762C202.161 227.555 197.895 229.216 193.543 230.37C192.478 230.653 191.403 230.907 190.333 231.173L190.187 231.174L190.121 231.217C189.898 231.367 189.687 231.265 189.592 231.093L189.337 231.009L189.268 230.925L189.09 231.187C188.929 231.411 188.586 231.169 188.695 230.931C188.748 230.814 188.808 230.702 188.862 230.586L188.566 230.515C188.469 230.405 188.443 230.21 188.556 230.097C188.658 229.996 188.759 229.93 188.882 229.86L189.163 229.699L189.261 229.641C189.265 229.412 189.402 229.228 189.588 229.122C190.187 227.974 190.828 226.843 191.469 225.728C192.451 224.021 193.431 222.313 194.419 220.61C196.378 217.233 198.336 213.854 200.296 210.477C204.199 203.746 208.063 196.994 211.957 190.259C215.601 183.956 219.185 177.583 221.945 170.835C224.526 164.529 226.347 157.859 226.64 151.025C226.775 147.868 226.599 144.686 226.051 141.578C224.435 135.529 221.736 129.743 217.961 124.746C217.108 123.994 216.254 123.242 215.415 122.476C217.188 125.17 218.626 128.077 219.618 131.164C221.302 136.401 221.78 141.94 221.679 147.416C221.577 152.99 220.903 158.532 220.249 164.062C219.883 167.151 219.519 170.242 219.147 173.331C218.871 175.631 218.589 177.988 216.946 179.641C216.833 180.006 216.706 180.368 216.557 180.732C216.399 181.118 215.853 180.89 215.896 180.515L215.905 180.459C213.951 181.717 211.472 182.097 209.228 182.463C206.466 182.913 203.667 183.147 200.869 183.145C195.232 183.141 189.597 182.201 184.339 180.144C175.87 176.832 168.523 170.409 164.623 162.149C164.627 162.273 164.617 162.399 164.618 162.523C164.832 163.362 165.058 164.196 165.3 165.026C165.381 165.268 165.454 165.51 165.528 165.751C165.989 167.274 166.491 168.786 167.051 170.284C168.348 173.757 169.839 177.152 171.306 180.557C174.245 187.365 177.113 194.328 178.094 201.734C178.572 205.338 178.553 209.003 177.917 212.588C177.299 216.078 176.146 219.455 174.741 222.702C171.856 229.377 167.877 235.49 164.686 242.011C161.884 247.737 159.566 254 159.441 260.428C159.568 261.269 159.607 262.129 159.668 262.967C159.73 263.843 159.779 264.72 159.832 265.597C159.851 265.715 159.866 265.834 159.887 265.951L159.863 266.094C159.88 266.37 159.899 266.644 159.915 266.92C159.95 267.517 159.129 267.864 158.779 267.328C158.639 267.114 158.512 266.89 158.385 266.667C158.253 266.618 158.141 266.513 158.091 266.328C158.053 266.182 158.023 266.037 157.986 265.893C157.656 265.195 157.384 264.468 157.197 263.72L157.126 263.399C154.434 257.927 152.835 251.872 152.026 245.864C151.072 238.763 151.332 231.492 152.857 224.489C154.479 217.036 157.375 209.95 160.09 202.847C162.674 196.089 165.073 189.227 165.982 182.014C166.415 178.588 166.504 175.113 166.129 171.699C166.021 171.359 165.914 171.018 165.806 170.677C165.307 169.351 164.847 168.011 164.422 166.661C164.248 168.341 163.974 170.007 163.611 171.625C162.635 175.994 160.97 180.454 158.439 184.174C157.268 185.895 155.689 187.29 153.61 187.739C151.513 188.192 149.348 187.692 147.38 186.945C145.405 186.196 143.525 185.164 141.698 184.114C139.906 183.084 138.163 181.971 136.472 180.784C129.696 176.031 123.78 170.038 119.107 163.21C116.738 159.749 114.677 156.063 113 152.218C111.55 148.892 110.4 145.398 109.785 141.815C109.587 141.907 109.312 141.728 109.433 141.478C109.505 141.329 109.594 141.194 109.669 141.049C109.541 140.193 109.434 139.335 109.374 138.471C108.927 132.151 110.637 125.431 114.76 120.592C112.36 121.897 109.646 122.721 106.921 122.055C103.826 121.299 102.016 118.698 101.01 115.839C99.9164 112.736 99.3628 109.374 99.0546 106.107C98.4072 99.2549 99.1557 92.275 101.12 85.6838C101.747 83.5821 102.508 81.5139 103.381 79.4905L103.222 79.6612C99.7004 86.1982 95.8749 92.5911 91.8052 98.7957C87.7303 105.01 83.2882 110.995 78.4965 116.68L78.4949 116.749C78.0047 119.085 77.1528 121.357 76.5354 123.665C76.17 125.027 75.8409 126.398 75.5288 127.773C77.9475 131.648 79.6966 135.915 80.685 140.375C81.1855 142.631 81.4961 144.927 81.5973 147.236C81.6715 148.941 81.8079 151.103 80.6031 152.491C79.1573 154.155 76.9606 153.197 75.7167 151.827C74.337 150.309 73.514 148.263 73.0645 146.286C72.0971 142.032 72.7053 137.593 73.4471 133.354C73.9474 130.496 74.5666 127.66 75.2984 124.851C75.6673 123.432 76.0653 122.018 76.4911 120.613C76.7449 119.775 77.0039 118.929 77.305 118.1C77.1319 118.301 76.9682 118.511 76.794 118.71C71.6126 124.662 65.972 130.212 59.8321 135.174C57.5791 137.73 55.6159 140.528 54.0127 143.518L54.0207 143.532C55.7332 147.856 56.4687 152.528 56.2019 157.17C56.0676 159.5 55.6862 161.834 55.019 164.073C54.5681 165.583 53.6765 167.51 51.8763 167.661C49.6996 167.843 48.5788 165.572 48.3971 163.745C48.1804 161.574 48.386 159.295 48.671 157.14C49.2326 152.884 50.4859 148.719 52.3481 144.852C53.6408 142.165 55.2191 139.639 57.0805 137.336C51.7658 141.382 46.111 144.983 40.1509 148.002C33.3311 151.457 26.065 154.162 18.583 155.764C17.6399 155.966 16.6938 156.151 15.7447 156.32C15.5502 156.355 15.5306 156.054 15.7203 156.016C23.2647 154.502 30.5817 151.991 37.498 148.627C44.4093 145.266 50.9185 141.117 56.9651 136.38C59.6659 134.263 62.2655 132.023 64.7796 129.689C63.9101 130.185 63.0263 130.642 62.14 131.042C57.7157 133.042 52.8235 133.858 47.9878 133.486C45.1185 133.265 42.3 132.604 39.6191 131.561C39.4146 131.481 39.2436 131.173 39.3135 130.955C40.2006 128.175 43.3844 127.507 45.9572 127.35C50.0543 127.1 54.1742 127.129 58.27 127.364C60.5916 127.498 62.9077 127.706 65.2161 127.986L65.4343 128.06C65.8093 127.823 66.182 127.584 66.5454 127.331C68.0619 126.276 69.4271 125.061 70.7483 123.79C71.8854 122.595 73.0061 121.386 74.1032 120.154C79.5966 113.98 84.5629 107.363 89.1482 100.493C92.8412 94.9598 96.2912 89.2714 99.5787 83.4897C96.0689 87.0561 92.3526 90.4113 88.1273 93.1143C84.9846 95.1244 81.5824 96.7831 77.9861 97.7999C74.1623 98.8808 70.2071 99.1612 66.2571 98.7661C62.1367 98.3544 58.1188 97.2504 54.2187 95.891C50.5995 94.6285 47.0474 93.1561 43.5572 91.5749C37.0532 88.6286 30.7604 85.1716 24.9559 81.0024C19.2228 76.8838 13.9848 72.0314 9.71087 66.3993C9.17124 65.6885 8.64932 64.9637 8.14245 64.2286C7.90927 63.8893 8.03291 63.3091 8.46914 63.1899C14.8629 61.449 21.5021 60.7406 28.1197 61.0832C34.6911 61.4227 41.1904 62.7891 47.329 65.16C53.6926 67.6168 59.5733 71.1098 65.6737 74.1241C71.6027 77.0546 77.8995 79.5943 84.5647 80.061C86.762 80.2156 89.0136 80.1145 91.2153 79.7366C89.6529 79.7469 88.0953 79.6731 86.5651 79.5222C80.1874 78.8961 74.0234 76.8529 68.3383 73.9347C62.6437 71.0113 57.4132 67.2464 52.5281 63.129C47.8936 59.2233 43.3958 55.0506 39.5587 50.3451C35.8718 45.8227 32.7878 40.654 31.4484 34.9277C31.2859 34.2321 31.1466 33.5325 31.0321 32.8279C30.9987 32.625 31.067 32.4774 31.1798 32.3781L30.9201 32.0586C30.7016 31.9911 30.4816 31.9309 30.2633 31.8598C29.8724 31.7341 29.9597 31.1757 30.3843 31.2221L30.4695 31.2329C30.5517 30.9528 30.9172 30.7378 31.156 30.9979C31.2708 31.1223 31.3818 31.2489 31.4966 31.3733C33.8476 31.7466 36.1756 32.4489 38.4351 33.1521C41.0603 33.9689 43.6478 34.9028 46.185 35.9641C51.2738 38.0923 56.155 40.6995 60.765 43.7283C65.5893 46.8977 69.9909 50.5777 74.2703 54.4386C78.6182 58.3609 82.8666 62.416 87.5248 65.9769C89.9991 67.8689 92.5905 69.6141 95.3384 71.0871C96.7034 71.819 98.1001 72.4886 99.5346 73.0717C100.467 73.4502 101.422 73.7575 102.371 74.0841L102.499 73.9988C98.7905 70.7059 95.6578 66.4734 96.2084 61.3388C96.5383 58.2527 98.2541 55.5279 100.029 53.0668C101.914 50.4514 103.844 47.8012 106.137 45.5236C108.294 43.381 110.842 41.5473 113.776 40.6467C116.882 39.6932 120.026 40.0484 123.033 41.1801C126.119 42.3429 129.013 44.0833 131.836 45.7694C134.606 47.4241 137.315 49.1826 139.955 51.0385C144.54 54.263 148.897 57.8069 153.017 61.6051C153.243 61.7584 153.471 61.9093 153.694 62.0674C152.126 60.4257 150.561 58.7805 148.998 57.133C145.058 52.9791 141.123 48.8218 137.188 44.6633C135.457 42.8343 133.547 41.0616 132.079 39.0049C130.673 37.0362 130.001 34.7563 130.751 32.3884C131.45 30.1833 132.905 28.2017 134.309 26.3892C135.671 24.6323 137.191 23.0015 138.833 21.5027C143.944 16.844 150.295 13.5718 157.061 12.1966C157.103 12.0761 157.223 11.9918 157.37 12.0747L157.445 12.118C159.213 11.7776 161.004 11.5615 162.811 11.4914C172.13 11.128 181.61 14.2872 188.636 20.4664C194.089 25.2616 198.009 31.7652 199.767 38.8058C199.6 36.8334 199.505 34.8577 199.464 32.9038C199.411 30.3471 199.469 27.7887 199.629 25.2358C199.759 23.18 199.969 21.0896 200.749 19.1639C201.52 17.2634 202.905 15.7409 204.788 14.903C206.81 14.0047 209.121 13.9671 211.265 14.3786C211.426 14.4107 211.583 14.4586 211.744 14.4944C205.211 11.8828 199.056 8.38497 193.348 4.26002C186.365 -0.786162 180.022 -6.69593 174.193 -13.0273C168.345 -19.3776 163.055 -26.2908 158.993 -33.9265C156.917 -37.828 155.192 -41.9169 153.831 -46.1207C153.14 -48.2584 152.545 -50.4351 152.07 -52.6313C151.837 -53.7072 151.626 -54.7883 151.442 -55.8745C151.249 -57.0026 151.198 -58.252 150.814 -59.3292C150.422 -60.425 150.036 -61.5205 149.679 -62.6283C149.632 -62.7744 149.696 -62.8879 149.794 -62.9499C149.692 -63.3914 150.375 -63.7108 150.644 -63.2943C150.82 -63.0209 150.989 -62.7416 151.163 -62.4671C154.619 -61.2587 157.926 -59.5836 161.123 -57.8152C164.6 -55.8913 167.963 -53.7606 171.19 -51.4425C177.611 -46.8294 183.468 -41.4402 188.623 -35.4488C194.297 -28.8549 199.003 -21.5231 203.887 -14.3479C208.501 -7.56831 213.314 -0.86747 219.224 4.8575C224.668 10.1324 231.052 14.6694 238.316 17.0368C238.807 17.1971 239.303 17.3429 239.799 17.4814L239.968 17.3966C242.184 17.3455 244.419 17.5431 246.641 17.5985C243.953 16.9183 241.326 15.9853 238.806 14.8343C231.905 11.6813 225.782 6.92758 220.837 1.18903C215.648 -4.8355 211.795 -11.9619 209.166 -19.4445C206.392 -27.3398 204.988 -35.6368 204.582 -43.9802C204.165 -52.5501 204.762 -61.161 206.029 -69.6435C205.884 -70.3714 205.736 -71.0994 205.604 -71.8304C205.422 -72.8309 205.346 -73.8517 205.238 -74.8627C205.192 -75.2775 205.875 -75.4479 205.973 -75.0237L206.017 -74.8484L206.301 -74.771C206.318 -74.9096 206.428 -75.0395 206.587 -74.9928C206.712 -74.956 206.833 -74.9083 206.957 -74.8679C207.034 -75.169 207.478 -75.0778 207.442 -74.7653L207.435 -74.7082C208.693 -74.2689 209.908 -73.6958 211.075 -73.0233C212.556 -72.3282 213.988 -71.5265 215.355 -70.6663C218.325 -68.7958 221.074 -66.5617 223.475 -63.9995C225.933 -61.3751 228.052 -58.4456 229.735 -55.2673C231.613 -51.7183 232.977 -47.9297 233.996 -44.0513C236.093 -36.077 236.802 -27.8459 238.15 -19.7333C239.441 -11.9576 241.349 -3.99221 245.695 2.69713C249.387 8.37905 254.81 13.2866 261.489 15.0354C262.31 15.2493 263.143 15.4136 263.984 15.5318C264.221 15.5658 264.381 15.681 264.475 15.8339C265.732 15.6659 266.983 15.4487 268.217 15.1857C268.386 15.1498 268.553 15.1138 268.722 15.0766C270.791 14.4881 272.847 13.8453 274.881 13.143C281.557 10.8405 288.052 8.04331 294.474 5.11241C297.517 3.72387 300.583 2.36064 303.566 0.847526C305.766 -0.267151 307.965 -1.526 309.873 -3.11301C312.291 -7.1253 314.65 -11.173 316.949 -15.2536C317.484 -16.202 318.075 -17.1152 318.658 -18.0349C319.001 -18.5781 319.867 -18.2085 319.583 -17.592C318.016 -14.1819 316.138 -10.9163 314.246 -7.6732L314.228 -7.4809C313.746 -6.47288 313.163 -5.55569 312.501 -4.71255C310.538 -1.38559 308.522 1.9099 306.454 5.17276C301.763 12.5752 296.837 19.8326 291.652 26.8988C286.492 33.9317 281.1 40.7989 275.477 47.4674C270.3 53.6042 264.903 59.5855 258.969 65.0039C253.482 70.0139 247.522 74.5663 240.991 78.133C245.328 78.2822 249.652 78.8866 253.856 79.9541C258.321 81.0871 262.974 82.7419 266.066 86.3338C269.242 90.0243 269.764 95.1093 269.993 99.7756C270.269 105.457 270.328 111.174 269.636 116.831C269.007 121.957 267.725 127.036 265.507 131.714C264.419 134.006 263.101 136.198 261.551 138.207C260.138 140.039 258.509 141.815 256.502 143.008C254.333 144.296 251.907 144.661 249.433 144.192C246.804 143.695 244.313 142.503 241.922 141.338C237.376 139.127 233.059 136.467 228.947 133.534C228.574 133.267 228.212 132.986 227.843 132.715C232.212 136.632 236.972 140.128 241.906 143.268C249.38 148.023 257.288 152.044 265.194 156.017C273.255 160.068 281.347 164.1 289.022 168.855C296.704 173.615 303.796 179.133 309.956 185.764C316.211 192.497 321.691 199.93 328.23 206.402C328.804 206.969 329.394 207.517 329.984 208.067L330.04 208.088L330.201 208.046C330.434 207.984 330.604 208.147 330.641 208.327C331.12 208.522 331.601 208.716 332.09 208.886C332.531 209.038 332.286 209.771 331.835 209.663Z" fill="#CA976D"/>
</svg>
