<svg width="512" height="512" viewBox="0 0 512 512" fill="none" xmlns="http://www.w3.org/2000/svg">
<rect width="512" height="512" rx="256" fill="white"/>
<path d="M100.04 347.719C98.6824 343.041 97.4176 332.062 103.219 325.566" stroke="#9F7D6A" stroke-width="2.56"/>
<path d="M119.294 374.51C116.972 370.963 112.008 360.155 118.073 349.299M118.073 349.299C114.195 346.831 113.803 337.07 115.938 334.806C118.073 332.542 124.042 334.414 125.032 335.132C125.094 336.407 125.071 336.344 125.06 336.917M118.073 349.299C121.385 350.059 132.271 350.558 133.592 339.147C132.584 337.239 130.062 334.633 125.06 336.917M118.073 349.299C120.135 345.608 124.895 345.569 125.06 336.917" stroke="#9F7D6A" stroke-width="2.56"/>
<path d="M117.084 373.776C104.816 378.138 89.0045 382.772 67.1953 357.691C88.4593 361.508 101.272 356.601 117.084 373.776Z" stroke="#9F7D6A" stroke-width="2.56"/>
<path d="M75.1016 255.994C75.1016 270.732 76.8549 285.06 80.1643 298.782C99.4056 378.56 171.249 437.829 256.936 437.829C280.965 437.829 303.906 433.168 324.903 424.7M161.478 101.202C189.223 84.0555 221.924 74.1602 256.936 74.1602C357.36 74.1602 438.77 155.57 438.77 255.994C438.77 269.474 437.303 282.61 434.521 295.254" stroke="#9F7D6A" stroke-width="2.56" stroke-linecap="round"/>
<path d="M80.5758 300.844C73.9594 293.214 61.6962 278.888 73.9593 245.078C94.3023 269.003 77.1587 287.122 80.5758 300.844Z" stroke="#9F7D6A" stroke-width="2.56"/>
<path d="M105.267 356.469C103.101 353.526 96.9954 347.351 89.9062 346.191" stroke="#9F7D6A" stroke-width="2.56"/>
<path d="M115.379 386.829C118.571 386.395 121.326 386.085 124.11 386.338C129.757 386.851 135.259 389.656 145.099 397.445L144.933 397.653C145.258 397.8 145.589 397.951 145.923 398.106L145.856 398.247C145.936 398.276 146.013 398.304 146.088 398.33L145.667 399.539L145.247 400.748C144.174 400.375 142.935 399.855 140.688 399.546C138.425 399.234 135.105 399.137 130.001 399.721C120.836 400.768 114.02 398.44 109.484 395.818C107.223 394.511 105.536 393.134 104.407 392.077C103.843 391.548 103.417 391.098 103.128 390.774C102.984 390.613 102.873 390.483 102.797 390.391C102.759 390.344 102.728 390.307 102.707 390.28C102.697 390.267 102.688 390.256 102.682 390.248C102.679 390.244 102.676 390.24 102.674 390.237C102.673 390.236 102.672 390.235 102.671 390.234L102.67 390.232C102.672 390.23 102.719 390.193 103.685 389.452L102.669 390.231L101.219 388.341L103.596 388.176C108.45 387.839 112.166 387.266 115.379 386.829ZM108.722 392.289C109.333 392.722 110.013 393.167 110.766 393.602C114.886 395.984 121.156 398.154 129.71 397.177C131.841 396.933 133.69 396.802 135.305 396.756C131.172 395.548 127.807 395.123 124.438 394.793C119.862 394.345 115.21 394.068 108.722 392.289ZM123.879 388.887C121.416 388.663 118.922 388.931 115.725 389.366C114.127 389.584 112.367 389.838 110.381 390.082C116.111 391.56 120.345 391.819 124.688 392.245C128.44 392.613 132.226 393.105 136.99 394.592C131.231 390.636 127.514 389.217 123.879 388.887Z" fill="#9F7D6A"/>
<path d="M124.84 355.933C123.314 357.161 121.982 358.371 121.022 359.981C119.089 363.223 118.879 367.72 120.127 376.468L122.634 376.604C122.815 375.896 122.934 375.175 123.537 374.153C124.146 373.119 125.289 371.73 127.586 369.96C132.068 366.507 133.239 361.978 133.292 358.391C133.318 356.605 133.07 355.038 132.817 353.919C132.69 353.358 132.56 352.904 132.461 352.586C132.411 352.427 132.368 352.301 132.337 352.213C132.322 352.169 132.309 352.134 132.3 352.108C132.295 352.096 132.291 352.085 132.288 352.077C132.287 352.073 132.286 352.07 132.285 352.067C132.285 352.066 132.283 352.065 132.283 352.064L132.283 352.063C132.283 352.062 132.282 352.061 131.088 352.52L132.283 352.061L131.621 350.341L130.24 351.562C128.146 353.412 126.401 354.677 124.84 355.933ZM130.723 357.579C130.732 357.831 130.736 358.09 130.732 358.353C130.688 361.403 129.717 365.087 126.024 367.932C125.267 368.515 124.612 369.072 124.043 369.603C124.805 367.469 125.735 365.969 126.715 364.509C128.012 362.578 129.45 360.65 130.723 357.579ZM123.22 361.292C123.936 360.091 124.967 359.117 126.445 357.927C127.045 357.445 127.722 356.922 128.464 356.341C127.281 359.284 125.925 361.093 124.589 363.083C123.622 364.524 122.696 366.023 121.91 368.004C121.864 364.69 122.349 362.754 123.22 361.292Z" fill="#9F7D6A"/>
<path d="M93.409 338.171C90.8579 334.747 88.3788 331.77 85.9408 329.102L85.8952 329.079L85.8965 329.079C85.8958 329.079 85.894 329.079 85.8925 329.078C85.8887 329.076 85.8819 329.073 85.8723 329.068C85.852 329.058 85.8184 329.041 85.7702 329.018C85.6734 328.972 85.5162 328.898 85.2828 328.79C84.8151 328.573 84.0419 328.223 82.8307 327.688C80.407 326.619 76.2349 324.818 69.2537 321.9C59.3845 317.774 53.2443 309.76 49.5878 302.883C47.7552 299.435 46.5297 296.245 45.7622 293.913C45.3782 292.747 45.1083 291.791 44.933 291.125C44.8455 290.792 44.7804 290.531 44.7379 290.35C44.7167 290.26 44.7013 290.189 44.6905 290.141C44.6851 290.117 44.6807 290.098 44.6778 290.085C44.6763 290.078 44.6758 290.072 44.6749 290.068C44.6746 290.066 44.6747 290.065 44.6745 290.063L44.6731 290.062C44.6736 290.061 44.7036 290.054 45.9257 289.797L44.6734 290.061L44.0814 287.247L46.5673 288.69C52.1137 291.906 56.7797 294.13 60.8585 296.116C64.9191 298.094 68.4496 299.859 71.5981 302.127C77.9159 306.68 82.5404 313.149 87.4982 327.015C90.095 329.832 92.7406 332.988 95.4629 336.642L93.409 338.171ZM82.98 322.389C78.9073 312.565 74.994 307.729 70.1024 304.204C67.1578 302.082 63.8193 300.406 59.7381 298.419C57.1831 297.174 54.3566 295.816 51.2082 294.167C58.5569 301.978 65.1867 307.19 71.734 312.547C75.4848 315.616 79.1995 318.729 82.98 322.389ZM81.1187 324.15C77.4395 320.595 73.8089 317.553 70.1128 314.529C63.519 309.134 56.695 303.773 49.1124 295.674C49.802 297.463 50.699 299.521 51.8475 301.681C55.3559 308.28 61.1268 315.729 70.2409 319.539C75.1049 321.572 78.6117 323.066 81.1187 324.15Z" fill="#9F7D6A"/>
<path d="M89.8775 324.949C88.6958 313.251 91.5524 305.222 96.2878 298.132C98.0898 296.721 100.302 295.452 102.763 294.003C105.326 292.494 108.105 290.815 110.682 288.656C115.906 284.282 120.237 277.99 120.816 267.222L120.957 264.606L118.806 266.103C111.68 271.065 111.571 270.609 104.098 275.331C98.7025 278.741 96.1764 284.348 94.9879 288.946C94.39 291.259 94.1188 293.364 93.9956 294.889C93.934 295.653 93.9087 296.275 93.8996 296.71C93.8964 296.866 93.8964 296.998 93.8962 297.104C89.0519 304.5 86.0993 313.017 87.3304 325.206L89.8775 324.949ZM96.7716 293.09C96.9216 292.033 97.1426 290.842 97.4668 289.588C98.5794 285.283 100.857 280.408 105.465 277.495C110.196 274.506 112.02 273.58 114.745 271.882C112.358 275.11 109.862 278.047 107.378 280.852C103.684 285.025 99.9603 288.969 96.7716 293.09ZM100.763 292.214C103.395 289.052 106.293 285.94 109.295 282.55C112.073 279.412 114.907 276.066 117.603 272.305C116.196 279.158 112.875 283.482 109.039 286.694C106.64 288.703 104.025 290.29 101.464 291.798C101.23 291.936 100.997 292.076 100.763 292.214Z" fill="#9F7D6A"/>
<path d="M89.7655 316.889C90.4121 313.345 91.7208 311.159 93.5123 309.605C93.5215 309.597 93.5311 309.589 93.5403 309.581C95.8154 308.699 98.2189 308.425 100.797 308.295C103.389 308.164 106.268 308.18 109.074 307.768C111.938 307.347 114.853 306.471 117.7 304.508C120.541 302.548 123.238 299.559 125.754 295.024L127.386 292.083L124.212 293.195C121.672 294.085 119.085 294.144 116.275 294.15C113.523 294.157 110.526 294.11 107.516 294.958C103.622 296.055 99.6714 299.337 96.7966 302.17C95.3333 303.612 94.0994 304.988 93.2313 306.003C92.797 306.511 92.4531 306.93 92.2165 307.223C92.0982 307.37 92.006 307.486 91.9434 307.566C91.9313 307.581 91.9201 307.595 91.9102 307.607C91.8851 307.629 91.8592 307.649 91.8344 307.671C89.5291 309.67 87.9782 312.418 87.2461 316.43L89.7655 316.889ZM98.5937 303.994C101.443 301.186 104.995 298.327 108.211 297.421C110.817 296.687 113.437 296.717 116.281 296.711C117.02 296.709 117.773 296.704 118.536 296.679C111.553 300.451 105.329 301.875 100.161 303.538C99.5912 303.721 99.0317 303.91 98.4833 304.105C98.5202 304.068 98.5565 304.031 98.5937 303.994ZM101.864 305.686C106.845 304.143 113.181 302.561 120.243 298.661C118.919 300.267 117.583 301.48 116.246 302.401C113.806 304.084 111.291 304.855 108.702 305.235C106.438 305.568 104.209 305.597 101.864 305.686Z" fill="#9F7D6A"/>
<path d="M121.777 377.592C112.59 367.506 93.6756 373.503 67.1953 357.691" stroke="#9F7D6A" stroke-width="2.56"/>
<circle cx="106.365" cy="322.443" r="4.418" stroke="#9F7D6A" stroke-width="2.56"/>
<circle cx="86.1263" cy="344.099" r="4.418" stroke="#9F7D6A" stroke-width="2.56"/>
<circle cx="138.595" cy="374.185" r="3.138" stroke="#9F7D6A" stroke-width="2.56"/>
<path d="M148.424 402.005C145.159 399.344 139.031 391.208 145.339 384.453" stroke="#9F7D6A" stroke-width="2.56"/>
<path d="M143.536 397.411C138.245 394.495 132.485 385.484 136.758 376.473" stroke="#9F7D6A" stroke-width="2.56"/>
<circle cx="146.669" cy="382.068" r="3.138" stroke="#9F7D6A" stroke-width="2.56"/>
<path d="M358.949 328.261C359.958 313.315 373.747 296.104 393.926 296.104C408.958 296.104 417.678 303.627 421.224 314.129C429.418 338.404 407.6 378.595 355.249 378.595V383.471C432.94 383.471 446.056 293.793 393.926 293.793C368.03 293.793 346.506 309.349 343.142 327.346C340.788 339.547 353.905 345.037 360.967 338.632C359.622 335.581 358.613 332.226 358.949 328.261Z" fill="#9F7D6A"/>
<path d="M301.541 218.816H322.26L284.094 383.476H263.375L301.541 218.816Z" fill="#9F7D6A"/>
<path d="M328.809 383.584C327.637 383.584 326.484 383.553 325.349 383.494H328.809V383.584ZM151.371 117.512C231.109 117.512 251.792 191.311 266.487 260.914H266.489L267.404 265.64L267.412 265.639C269.843 277.495 272.124 289.127 274.521 300.17L266.913 332.99C244.547 280.384 239.161 199.439 210.354 153.554C209.741 152.505 208.891 151.31 208.323 150.613C195.3 131.029 177.454 120.68 151.371 120.68C112.727 120.68 80.0851 141.678 80.085 176.973C80.0851 202.148 98.8592 224.271 130.428 224.271C158.458 224.27 169.876 212.784 169.876 195.013L169.874 195.003C169.329 191.057 168.784 187.111 166.881 183.412C167.153 182.178 170.693 179.71 174.503 179.71C178.313 179.71 181.579 183.906 181.579 190.076C181.579 208.341 161.18 227.438 130.428 227.438C97.7706 227.438 77.9064 202.642 77.9062 176.973C77.9064 140.69 111.638 117.512 151.371 117.512Z" fill="#9F7D6A"/>
<line x1="244.949" y1="381.176" x2="356.475" y2="381.176" stroke="#9F7D6A" stroke-width="4.608" stroke-linecap="round"/>
<line x1="284.835" y1="216.512" x2="341.293" y2="216.512" stroke="#9F7D6A" stroke-width="4.608" stroke-linecap="round"/>
<line x1="280.398" y1="143.45" x2="318.318" y2="143.45" stroke="#9F7D6A" stroke-width="4.608" stroke-linecap="round"/>
<line x1="166.98" y1="344.95" x2="204.9" y2="344.95" stroke="#9F7D6A" stroke-width="4.608" stroke-linecap="round"/>
<path d="M299.363 145.754L261.197 310.413" stroke="#9F7D6A" stroke-width="4.608" stroke-linecap="round"/>
<path d="M224.125 179.023L185.959 343.683" stroke="#9F7D6A" stroke-width="4.608" stroke-linecap="round"/>
</svg>
