<svg width="16" height="16" viewBox="0 0 16 16" fill="none" xmlns="http://www.w3.org/2000/svg">
<path d="M9.61523 2.07422C9.95075 2.1654 10.2749 2.28371 10.585 2.42773V3.11328H11.7197C12.0924 3.3973 12.4317 3.72263 12.7305 4.08301H10.585V4.72656H13.1963C13.3896 5.03272 13.5568 5.35676 13.6943 5.69629H10.585V6.34375H13.915C14.0521 6.8342 14.1295 7.34908 14.1396 7.88086V8.11816C14.1355 8.33773 14.1194 8.55423 14.0928 8.76758H10.585V9.45312H13.9678C13.8865 9.78786 13.7791 10.1121 13.6455 10.4229H10.585V11.2305H13.2236C12.1944 12.891 10.3965 14.0248 8.32617 14.1328V11.2305H9.61523V10.4229H6.38086V11.2305H7.67676V14.1328C5.606 14.0251 3.80773 12.8912 2.77832 11.2305H5.41113V10.4229H2.35645C2.22288 10.1121 2.11541 9.78785 2.03418 9.45312H5.41113V8.76758H1.90918C1.87781 8.51606 1.85938 8.26001 1.85938 8C1.85938 7.426 1.93963 6.87075 2.08691 6.34375H5.41113V5.69629H2.30762C2.44514 5.35677 2.61235 5.03272 2.80566 4.72656H5.41113V4.08301H3.27148C3.57028 3.72263 3.90958 3.3973 4.28223 3.11328H5.41113V2.43066C5.72124 2.28621 6.04524 2.16676 6.38086 2.0752V3.11328H9.61523V2.07422ZM4.9375 12.1992C5.45626 12.5877 6.05657 12.8759 6.70801 13.0381V12.1992H4.9375ZM9.29492 13.0381C9.94647 12.8759 10.5466 12.5878 11.0654 12.1992H9.29492V13.0381ZM6.38086 6.34375H7.6748V8.76758H6.38086V9.45312H9.61523V8.76758H8.32129V6.34375H9.61523V5.69629H6.38086V6.34375ZM2.82617 7.79785H6.70508V7.31348H2.82617V7.79785ZM9.29102 7.79785H13.1699V7.31348H9.29102V7.79785ZM6.38086 4.72656H9.61523V4.08301H6.38086V4.72656Z" fill="#C96575"/>
<circle cx="8" cy="8" r="7.51515" stroke="#C96575" stroke-width="0.969697"/>
</svg>
